<svg width="1003" height="1114" viewBox="0 0 1003 1114" fill="none" xmlns="http://www.w3.org/2000/svg">
<path d="M1577.32 451.351C1563.41 589.348 1447.57 742.707 1276.53 778.649C1076.57 820.668 1025.09 790.406 590.602 710.886C433.294 682.094 158.579 649.989 126.039 423.63C98.2756 230.529 229.952 65.4209 372.081 -14.8477C553.889 -117.512 724.252 -188.208 982.529 -165.337C1170.41 -148.703 1344.47 -57.2385 1461.68 90.6607C1489.94 126.335 1593.46 291.362 1577.32 451.351Z" fill="#F4CFA2"/>
<g clip-path="url(#clip0_616_5)">
<path d="M569.436 638.267C606.348 638.267 636.27 608.322 636.27 571.384C636.27 534.445 606.348 504.501 569.436 504.501C532.525 504.501 502.603 534.445 502.603 571.384C502.603 608.322 532.525 638.267 569.436 638.267Z" stroke="white" stroke-width="4" stroke-miterlimit="10"/>
<mask id="mask0_616_5" style="mask-type:luminance" maskUnits="userSpaceOnUse" x="502" y="504" width="135" height="135">
<path d="M569.436 638.267C606.348 638.267 636.27 608.322 636.27 571.384C636.27 534.445 606.348 504.501 569.436 504.501C532.525 504.501 502.603 534.445 502.603 571.384C502.603 608.322 532.525 638.267 569.436 638.267Z" fill="white"/>
</mask>
<g mask="url(#mask0_616_5)">
<path d="M595.904 495.323L556.538 650.879" stroke="white" stroke-width="4" stroke-miterlimit="10"/>
<path d="M617.951 500.918L578.585 656.475" stroke="white" stroke-width="4" stroke-miterlimit="10"/>
<path d="M640.35 506.593L600.973 662.15" stroke="white" stroke-width="4" stroke-miterlimit="10"/>
<path d="M662.738 512.268L623.372 667.825" stroke="white" stroke-width="4" stroke-miterlimit="10"/>
<path d="M505.989 472.543L466.623 628.088" stroke="white" stroke-width="4" stroke-miterlimit="10"/>
<path d="M531.843 479.094L492.477 634.65" stroke="white" stroke-width="4" stroke-miterlimit="10"/>
<path d="M553.549 484.587L514.183 640.143" stroke="white" stroke-width="4" stroke-miterlimit="10"/>
<path d="M575.255 490.091L535.889 645.648" stroke="white" stroke-width="4" stroke-miterlimit="10"/>
<path d="M702.775 640.974L419.086 569.064" stroke="white" stroke-width="4" stroke-miterlimit="10"/>
<path d="M697.717 660.956L414.028 589.057" stroke="white" stroke-width="4" stroke-miterlimit="10"/>
<path d="M691.433 685.794L407.744 613.884" stroke="white" stroke-width="4" stroke-miterlimit="10"/>
<path d="M731.128 528.929L447.439 457.019" stroke="white" stroke-width="4" stroke-miterlimit="10"/>
<path d="M725.458 551.334L441.77 479.435" stroke="white" stroke-width="4" stroke-miterlimit="10"/>
<path d="M719.787 573.749L436.099 501.839" stroke="white" stroke-width="4" stroke-miterlimit="10"/>
<path d="M713.843 597.2L430.166 525.29" stroke="white" stroke-width="4" stroke-miterlimit="10"/>
<path d="M708.173 619.604L424.495 547.706" stroke="white" stroke-width="4" stroke-miterlimit="10"/>
</g>
<path d="M561.88 329.86C593.564 390.432 552.981 475.273 492.455 506.98C431.928 538.687 339.127 520.798 307.443 460.238C275.759 399.666 301.204 289.385 361.719 257.678C422.246 225.97 530.196 269.301 561.868 329.86H561.88Z" fill="#FF9D00"/>
<path d="M426.323 387.704C432.357 386.996 436.18 377.304 434.862 366.056C433.543 354.809 427.583 346.265 421.549 346.973C415.515 347.681 411.692 357.374 413.01 368.621C414.328 379.869 420.289 388.412 426.323 387.704Z" fill="black"/>
<path d="M493.018 379.868C499.052 379.16 502.875 369.467 501.557 358.22C500.239 346.972 494.278 338.429 488.244 339.137C482.21 339.845 478.387 349.537 479.705 360.785C481.024 372.032 486.984 380.576 493.018 379.868Z" fill="black"/>
<path d="M543.306 403.464C554.585 402.544 563.328 396.886 562.835 390.826C562.341 384.766 552.798 380.599 541.519 381.519C530.24 382.439 521.497 388.097 521.99 394.157C522.484 400.217 532.027 404.384 543.306 403.464Z" fill="#FB5607"/>
<path d="M376.998 422.994C388.277 422.074 397.02 416.415 396.526 410.355C396.033 404.295 386.489 400.129 375.21 401.049C363.931 401.969 355.188 407.627 355.682 413.687C356.175 419.747 365.719 423.914 376.998 422.994Z" fill="#FB5607"/>
<path d="M413.688 326.676C403.767 332.135 396.358 337.594 395.153 335.41C393.948 333.227 400.562 322.434 410.484 316.975C420.405 311.516 429.871 313.461 431.076 315.656C432.28 317.851 423.609 321.229 413.688 326.676Z" fill="#FB5607"/>
<path d="M496.398 317.976C507.308 320.99 515.786 324.583 516.445 322.172C517.104 319.761 508.183 310.8 497.273 307.786C486.364 304.772 477.602 308.855 476.943 311.266C476.283 313.677 485.489 314.951 496.398 317.965V317.976Z" fill="#FB5607"/>
<path d="M956.724 345.464C942.768 412.381 857.592 452.152 790.724 438.197C723.856 424.232 663.489 351.457 677.444 284.529C691.4 217.611 781.019 148.556 847.887 162.522C914.755 176.487 970.679 278.547 956.724 345.464Z" fill="#FF9D00"/>
<path d="M747.738 259.249C750.048 248.162 747.099 238.169 741.152 236.928C735.204 235.687 728.51 243.667 726.2 254.754C723.889 265.84 726.838 275.833 732.786 277.074C738.733 278.316 745.427 270.335 747.738 259.249Z" fill="black"/>
<path d="M812.852 272.846C815.162 261.76 812.214 251.767 806.266 250.526C800.319 249.284 793.624 257.265 791.314 268.351C789.004 279.438 791.952 289.431 797.9 290.672C803.847 291.913 810.542 283.933 812.852 272.846Z" fill="black"/>
<path d="M836.441 322.413C837.891 316.509 830.158 309.531 819.169 306.828C808.18 304.125 798.096 306.719 796.645 312.624C795.195 318.528 802.928 325.506 813.917 328.209C824.906 330.912 834.99 328.317 836.441 322.413Z" fill="#FB5607"/>
<path d="M721.572 298.435C723.022 292.531 715.289 285.553 704.3 282.85C693.311 280.146 683.227 282.741 681.776 288.646C680.326 294.55 688.059 301.528 699.048 304.231C710.037 306.934 720.121 304.339 721.572 298.435Z" fill="#FB5607"/>
<path d="M741.449 205.681C730.312 207.706 721.55 210.549 721.106 208.081C720.663 205.624 730.346 197.482 741.483 195.457C752.62 193.433 760.984 198.278 761.427 200.734C761.87 203.191 752.586 203.646 741.449 205.681Z" fill="#FB5607"/>
<path d="M830.75 228.859C840.148 235.171 847.046 241.278 848.433 239.197C849.819 237.116 844.194 225.788 834.807 219.476C825.409 213.165 815.806 214.256 814.419 216.338C813.033 218.419 821.363 222.547 830.761 228.859H830.75Z" fill="#FB5607"/>
<path d="M590.234 249.887C590.234 249.887 562.209 266.867 573.221 284.665C583.142 300.678 619.895 282.175 627.691 303.351C636.441 327.108 602.348 332.237 613.735 353.527C623.281 371.36 639.385 343.451 652.158 377.501C657.443 391.58 657.454 394.23 657.454 394.23" stroke="#FB5607" stroke-width="4" stroke-miterlimit="10"/>
<path d="M661.636 410.653C666.324 410.653 670.125 406.849 670.125 402.157C670.125 397.465 666.324 393.662 661.636 393.662C656.947 393.662 653.146 397.465 653.146 402.157C653.146 406.849 656.947 410.653 661.636 410.653Z" stroke="#FB5607" stroke-width="4" stroke-miterlimit="10"/>
<path d="M596.109 252.264C600.798 252.264 604.598 248.461 604.598 243.769C604.598 239.077 600.798 235.273 596.109 235.273C591.421 235.273 587.62 239.077 587.62 243.769C587.62 248.461 591.421 252.264 596.109 252.264Z" stroke="#FB5607" stroke-width="4" stroke-miterlimit="10"/>
<path d="M201.822 270.972L213.879 315.77L258.644 327.836L213.879 339.903L201.822 384.7L189.764 339.903L145 327.836L189.764 315.77L201.822 270.972Z" fill="#FB5607"/>
<path d="M924.733 447.216L933.131 478.423L964.326 486.827L933.131 495.232L924.733 526.45L916.334 495.232L885.15 486.827L916.334 478.423L924.733 447.216Z" fill="#FB5607"/>
<path d="M964.326 423.379L969.371 442.155L988.134 447.216L969.371 452.265L964.326 471.042L959.268 452.265L940.506 447.216L959.268 442.155L964.326 423.379Z" fill="#FB5607"/>
<path d="M960.962 520.206C965.632 520.206 969.417 516.418 969.417 511.745C969.417 507.072 965.632 503.284 960.962 503.284C956.292 503.284 952.507 507.072 952.507 511.745C952.507 516.418 956.292 520.206 960.962 520.206Z" fill="white"/>
<path d="M236.869 295.151C241.539 295.151 245.324 291.363 245.324 286.689C245.324 282.016 241.539 278.228 236.869 278.228C232.2 278.228 228.414 282.016 228.414 286.689C228.414 291.363 232.2 295.151 236.869 295.151Z" fill="white"/>
<path d="M259.962 307.945C262.441 307.945 264.451 305.934 264.451 303.453C264.451 300.972 262.441 298.961 259.962 298.961C257.482 298.961 255.473 300.972 255.473 303.453C255.473 305.934 257.482 307.945 259.962 307.945Z" fill="white"/>
<path d="M663.738 24.5815L675.784 69.3788L720.56 81.4453L675.784 93.5004L663.738 138.309L651.68 93.5004L606.916 81.4453L651.68 69.3788L663.738 24.5815Z" fill="#FB5607"/>
<path d="M720.56 24.5815L725.606 43.3579L744.368 48.4074L725.606 53.4683L720.56 72.2447L715.503 53.4683L696.74 48.4074L715.503 43.3579L720.56 24.5815Z" fill="#FB5607"/>
<path d="M739.959 98.3679C744.629 98.3679 748.414 94.5796 748.414 89.9066C748.414 85.2335 744.629 81.4453 739.959 81.4453C735.289 81.4453 731.504 85.2335 731.504 89.9066C731.504 94.5796 735.289 98.3679 739.959 98.3679Z" fill="white"/>
<path d="M624.167 134.795C628.837 134.795 632.622 131.007 632.622 126.334C632.622 121.66 628.837 117.872 624.167 117.872C619.497 117.872 615.712 121.66 615.712 126.334C615.712 131.007 619.497 134.795 624.167 134.795Z" fill="white"/>
<path d="M708.661 125.731C711.14 125.731 713.15 123.72 713.15 121.239C713.15 118.758 711.14 116.746 708.661 116.746C706.182 116.746 704.172 118.758 704.172 121.239C704.172 123.72 706.182 125.731 708.661 125.731Z" fill="white"/>
<path d="M924.732 432.056C927.211 432.056 929.221 430.045 929.221 427.564C929.221 425.083 927.211 423.072 924.732 423.072C922.253 423.072 920.243 425.083 920.243 427.564C920.243 430.045 922.253 432.056 924.732 432.056Z" fill="white"/>
<path d="M946.859 416.271C949.338 416.271 951.348 414.26 951.348 411.779C951.348 409.298 949.338 407.286 946.859 407.286C944.38 407.286 942.37 409.298 942.37 411.779C942.37 414.26 944.38 416.271 946.859 416.271Z" fill="white"/>
<path d="M433.382 120.192L449.781 94.7173C450.224 94.0236 449.758 93.1138 448.94 93.0797L418.699 91.6126C417.881 91.5784 417.324 92.4314 417.699 93.1593L431.553 120.113C431.928 120.841 432.95 120.886 433.394 120.204L433.382 120.192Z" fill="white"/>
<path d="M433.575 8.39805L417.972 35.4425C417.665 35.977 418.051 36.6366 418.665 36.6366H449.872C450.485 36.6366 450.872 35.977 450.565 35.4425L434.95 8.39805C434.643 7.86353 433.882 7.86353 433.575 8.39805Z" fill="white"/>
<path d="M434.269 26.8219L433.337 102.144" stroke="white" stroke-width="8" stroke-miterlimit="10"/>
<path d="M443.201 157.165L461.441 181.355C461.929 182.003 462.952 181.878 463.27 181.127L475.089 153.23C475.407 152.48 474.794 151.661 473.976 151.763L443.917 155.471C443.11 155.573 442.701 156.517 443.201 157.165Z" fill="white"/>
<path d="M547.424 197.425L529.593 171.79C529.241 171.29 528.479 171.347 528.218 171.904L514.956 200.177C514.694 200.734 515.137 201.36 515.74 201.314L546.833 198.676C547.446 198.619 547.764 197.925 547.424 197.425Z" fill="white"/>
<path d="M530.468 190.214L460.146 163.352" stroke="white" stroke-width="8" stroke-miterlimit="10"/>
<path d="M422.45 147.805L392.175 147.077C391.357 147.055 390.823 147.93 391.22 148.647L405.721 175.248C406.108 175.964 407.13 175.987 407.562 175.293L423.325 149.42C423.745 148.727 423.257 147.828 422.438 147.805H422.45Z" fill="white"/>
<path d="M326.171 204.533L357.32 206.466C357.934 206.5 358.355 205.863 358.082 205.317L344.183 177.352C343.91 176.806 343.149 176.76 342.808 177.261L325.557 203.282C325.216 203.793 325.557 204.476 326.171 204.521V204.533Z" fill="white"/>
<path d="M342.354 195.707L407.074 157.245" stroke="white" stroke-width="8" stroke-miterlimit="10"/>
<path d="M433.802 127.357L374.503 97.8448L433.802 66.9109L493.102 97.8448L433.802 127.357Z" fill="#FB5607"/>
<path d="M433.802 205.693L374.503 176.249V97.7083L433.802 127.357V205.693Z" fill="#FFBE0B"/>
<path d="M433.803 205.761L493.102 176.317V97.788L433.803 127.437V205.761Z" fill="#FF9D00"/>
<path d="M759.044 535.395L705.978 561.803L713.78 577.505L766.846 551.098L759.044 535.395Z" fill="#FB5607"/>
<path d="M746.699 491.308L678.262 434.467L706.821 491.922C710.731 491.092 714.844 492.957 716.697 496.699C718.901 501.134 717.095 506.525 712.662 508.731C708.23 510.937 702.844 509.129 700.639 504.694C698.775 500.952 699.775 496.54 702.798 493.924L674.342 436.673L678.342 525.586C678.444 527.928 679.524 530.123 681.308 531.647L712.799 558.396L750.006 539.881L749.756 497.756C749.744 495.266 748.619 492.9 746.71 491.308H746.699Z" fill="#FFBE0B"/>
<path d="M707.196 492.684L703.162 494.697L674.33 436.685L674.273 431.499L678.262 434.467L707.196 492.684Z" fill="#FB5607"/>
<path d="M708.662 509.675C713.614 509.675 717.628 505.658 717.628 500.702C717.628 495.746 713.614 491.729 708.662 491.729C703.71 491.729 699.695 495.746 699.695 500.702C699.695 505.658 703.71 509.675 708.662 509.675Z" stroke="#FB5607" stroke-width="4" stroke-miterlimit="10"/>
<path d="M783.824 641.491L983.646 586.11C987.668 584.995 990.026 580.828 988.912 576.803L982.624 554.083C981.51 550.057 977.346 547.698 973.324 548.813L773.502 604.194C769.48 605.309 767.122 609.476 768.236 613.501L774.524 636.221C775.638 640.247 779.802 642.606 783.824 641.491Z" fill="#FFBE0B"/>
<path d="M970.962 566.437L966.609 550.719" stroke="#FF9D00" stroke-width="3" stroke-miterlimit="10"/>
<path d="M961.166 575.137L955.279 553.858" stroke="#FF9D00" stroke-width="3" stroke-miterlimit="10"/>
<path d="M948.302 572.726L943.949 556.997" stroke="#FF9D00" stroke-width="3" stroke-miterlimit="10"/>
<path d="M936.085 576.104L931.732 560.386" stroke="#FF9D00" stroke-width="3" stroke-miterlimit="10"/>
<path d="M924.755 579.254L920.402 563.525" stroke="#FF9D00" stroke-width="3" stroke-miterlimit="10"/>
<path d="M914.959 587.954L909.072 566.664" stroke="#FF9D00" stroke-width="3" stroke-miterlimit="10"/>
<path d="M901.845 585.6L897.492 569.871" stroke="#FF9D00" stroke-width="3" stroke-miterlimit="10"/>
<path d="M890.514 588.739L886.161 573.021" stroke="#FF9D00" stroke-width="3" stroke-miterlimit="10"/>
<path d="M879.184 591.877L874.831 576.16" stroke="#FF9D00" stroke-width="3" stroke-miterlimit="10"/>
<path d="M868.501 600.828L862.614 579.538" stroke="#FF9D00" stroke-width="3" stroke-miterlimit="10"/>
<path d="M855.637 598.405L851.284 582.688" stroke="#FF9D00" stroke-width="3" stroke-miterlimit="10"/>
<path d="M844.307 601.544L839.954 585.827" stroke="#FF9D00" stroke-width="3" stroke-miterlimit="10"/>
<path d="M832.828 604.729L828.476 589.012" stroke="#FF9D00" stroke-width="3" stroke-miterlimit="10"/>
<path d="M823.032 613.429L817.146 592.15" stroke="#FF9D00" stroke-width="3" stroke-miterlimit="10"/>
<path d="M809.281 611.257L804.929 595.54" stroke="#FF9D00" stroke-width="3" stroke-miterlimit="10"/>
<path d="M797.951 614.396L793.599 598.678" stroke="#FF9D00" stroke-width="3" stroke-miterlimit="10"/>
<path d="M786.621 617.534L782.269 601.817" stroke="#FF9D00" stroke-width="3" stroke-miterlimit="10"/>
</g>
<defs>
<clipPath id="clip0_616_5">
<rect width="877" height="680" fill="white" transform="translate(145 8)"/>
</clipPath>
</defs>
</svg>
