<svg width="957" height="968" viewBox="0 0 957 968" fill="none" xmlns="http://www.w3.org/2000/svg">
<path d="M339.335 596.045L358.548 667.474L429.963 686.714L358.548 705.954L339.335 777.383L320.104 705.954L248.708 686.714L320.104 667.474L339.335 596.045Z" fill="#F91E68"/>
<path d="M89.0366 151.695C113.931 21.5516 237.133 -114.62 402.967 -134.406C596.84 -157.537 643.286 -124.4 1050.12 -12.1091C1197.39 28.5527 1456.16 82.2577 1468.04 300.395C1478.15 486.488 1338.88 632.504 1196.82 696.89C1015.1 779.26 846.983 832.174 603.084 788.641C425.659 756.976 267.71 655.269 168.637 504.651C144.754 468.322 60.1621 302.56 89.0319 151.677L89.0366 151.695Z" fill="#FFCCFE"/>
<path d="M89.8996 93.9146L101.554 137.2L144.838 148.86L101.554 160.52L89.8996 203.805L78.2631 160.52L34.9795 148.86L78.2631 137.2L89.8996 93.9146Z" fill="#F91E68"/>
<path d="M164.595 135.912C172.042 135.912 178.08 129.872 178.08 122.421C178.08 114.969 172.042 108.929 164.595 108.929C157.147 108.929 151.109 114.969 151.109 122.421C151.109 129.872 157.147 135.912 164.595 135.912Z" fill="#F91E68"/>
<path d="M543.07 694.249C550.518 694.249 556.556 688.208 556.556 680.757C556.556 673.306 550.518 667.266 543.07 667.266C535.623 667.266 529.585 673.306 529.585 680.757C529.585 688.208 535.623 694.249 543.07 694.249Z" fill="#F91E68"/>
<path d="M852.921 493.341C839.384 558.089 756.763 596.571 691.9 583.069C627.037 569.556 568.479 499.14 582.016 434.38C595.553 369.631 682.485 302.814 747.348 316.327C812.211 329.84 866.458 428.592 852.921 493.341Z" fill="#FF9FC4"/>
<path d="M650.213 409.904C652.454 399.177 649.593 389.507 643.824 388.306C638.055 387.105 631.561 394.828 629.32 405.554C627.079 416.281 629.94 425.951 635.709 427.152C641.478 428.353 647.972 420.631 650.213 409.904Z" fill="black"/>
<path d="M713.384 423.063C715.625 412.336 712.765 402.667 706.996 401.466C701.227 400.265 694.733 407.987 692.492 418.714C690.251 429.441 693.111 439.11 698.881 440.311C704.65 441.512 711.143 433.79 713.384 423.063Z" fill="black"/>
<path d="M736.243 471.019C737.65 465.306 730.149 458.555 719.489 455.939C708.829 453.324 699.048 455.834 697.641 461.547C696.234 467.26 703.735 474.012 714.395 476.627C725.054 479.243 734.836 476.732 736.243 471.019Z" fill="#F91E68"/>
<path d="M624.818 447.827C626.225 442.114 618.724 435.362 608.064 432.746C597.405 430.131 587.623 432.642 586.216 438.355C584.809 444.068 592.31 450.819 602.97 453.435C613.63 456.05 623.411 453.54 624.818 447.827Z" fill="#F91E68"/>
<path d="M644.101 358.088C633.298 360.046 624.799 362.798 624.369 360.41C623.939 358.033 633.331 350.154 644.134 348.195C654.937 346.236 663.05 350.924 663.48 353.301C663.91 355.678 654.904 356.118 644.101 358.088Z" fill="#F91E68"/>
<path d="M730.724 380.503C739.841 386.611 746.532 392.52 747.877 390.506C749.222 388.492 743.765 377.532 734.66 371.425C725.543 365.317 716.228 366.374 714.883 368.388C713.539 370.401 721.619 374.396 730.735 380.503H730.724Z" fill="#F91E68"/>
<path d="M859.999 116.919L762.837 116.27C759.409 106.52 755.925 89.948 766.045 78.6686C780.497 62.5364 791.476 71.6369 809.136 78.9657C824.415 85.3042 833.983 77.3261 836.254 75.1033C836.552 74.8061 836.574 74.333 836.287 74.0138L834.567 72.1211C834.303 71.835 833.862 71.78 833.542 72.0001C827.788 75.8736 821.912 77.9754 810.04 73.0895C801.949 69.7552 777.278 53.48 761.591 74.8502C751.615 88.4624 754.525 106.135 757.501 116.248L662.831 115.61C653.395 115.544 645.689 123.137 645.623 132.556L644.84 248.486C644.774 257.905 652.38 265.597 661.817 265.663L858.996 266.984C868.432 267.05 876.138 259.457 876.204 250.037L876.986 134.108C877.052 124.688 869.446 116.996 860.01 116.93L859.999 116.919Z" fill="#83053E"/>
<path d="M848.708 158.107L673.536 156.917C664.374 156.854 656.896 164.219 656.833 173.365L656.393 237.925C656.331 247.072 663.708 254.537 672.87 254.599L848.042 255.789C857.205 255.851 864.683 248.487 864.745 239.341L865.186 174.781C865.248 165.634 857.871 158.169 848.708 158.107Z" fill="#C1367C"/>
<path d="M672.259 128.632C670.438 125.036 666.042 123.595 662.439 125.413C658.837 127.231 657.393 131.62 659.215 135.216L663.631 143.936C665.452 147.532 669.849 148.973 673.451 147.155C677.054 145.337 678.497 140.949 676.676 137.353L672.259 128.632Z" fill="#C1367C"/>
<path d="M863.163 135.413C865.044 131.848 863.675 127.435 860.104 125.557C856.533 123.678 852.113 125.045 850.231 128.61L845.667 137.254C843.785 140.819 845.154 145.231 848.725 147.11C852.296 148.989 856.717 147.622 858.599 144.057L863.163 135.413Z" fill="#C1367C"/>
<path d="M848.039 132.754L860.948 139.61" stroke="#83053E" stroke-miterlimit="10"/>
<path d="M661.343 139.445L674.417 132.919" stroke="#83053E" stroke-miterlimit="10"/>
<path d="M949.647 207.453C949.195 208.063 949.324 208.925 949.935 209.377C950.547 209.829 951.41 209.7 951.863 209.089L956.761 202.481C957.213 201.871 957.084 201.009 956.473 200.557C955.861 200.106 954.998 200.234 954.545 200.845L949.647 207.453Z" fill="#C1367C"/>
<path d="M954.901 202.697C960.148 206.395 951.109 224.519 946.898 230.208L874.186 329.103C869.964 334.792 862.744 336.651 858.125 333.24C853.506 329.829 853.187 322.39 857.398 316.701L931.179 218.004C935.401 212.315 949.334 198.769 954.912 202.708L954.901 202.697Z" fill="#83053E"/>
<path d="M867.542 307.081C866.003 309.158 866.441 312.086 868.521 313.623C870.601 315.159 873.535 314.721 875.074 312.645L879.998 306.002C881.537 303.926 881.099 300.997 879.019 299.46C876.939 297.924 874.005 298.362 872.466 300.438L867.542 307.081Z" stroke="#C1367C" stroke-miterlimit="10"/>
<path d="M869.313 307.226C868.27 308.633 868.567 310.618 869.976 311.659C871.386 312.7 873.374 312.403 874.417 310.996L878.233 305.848C879.276 304.441 878.979 302.457 877.569 301.415C876.16 300.374 874.172 300.671 873.129 302.078L869.313 307.226Z" fill="#C1367C"/>
<path d="M946.347 230.164C946.347 230.164 935.676 230.439 931.344 218.466" stroke="#C1367C" stroke-linecap="round" stroke-linejoin="round"/>
<path d="M872.478 329.807C872.478 329.807 861.807 330.082 857.475 318.109" stroke="#C1367C" stroke-linecap="round" stroke-linejoin="round"/>
<path d="M510.899 388.769L220.772 412.376C211.67 413.117 204.892 421.083 205.634 430.169L210.238 486.544C210.98 495.63 218.96 502.395 228.062 501.654L518.189 478.047C527.291 477.306 534.068 469.34 533.326 460.254L528.723 403.88C527.981 394.794 520.001 388.028 510.899 388.769Z" fill="#83053E"/>
<path d="M279.477 428.335L221.861 433.024C218.827 433.27 216.568 435.926 216.815 438.955L219.875 476.432C220.123 479.46 222.783 481.715 225.817 481.469L283.433 476.78C286.467 476.533 288.726 473.878 288.479 470.849L285.419 433.372C285.172 430.344 282.511 428.088 279.477 428.335Z" fill="#C1367C"/>
<path d="M356.288 422.083L298.671 426.771C295.637 427.018 293.378 429.673 293.626 432.702L296.686 470.179C296.933 473.207 299.593 475.463 302.627 475.216L360.244 470.527C363.278 470.281 365.537 467.625 365.29 464.597L362.229 427.119C361.982 424.091 359.322 421.836 356.288 422.083Z" fill="#C1367C"/>
<path d="M434.048 415.764L376.431 420.452C373.397 420.699 371.138 423.354 371.385 426.383L374.446 463.86C374.693 466.889 377.353 469.144 380.387 468.897L438.004 464.209C441.038 463.962 443.297 461.307 443.049 458.278L439.989 420.801C439.742 417.772 437.082 415.517 434.048 415.764Z" fill="#C1367C"/>
<path d="M513.161 409.315L455.544 414.003C452.51 414.25 450.251 416.905 450.499 419.934L453.559 457.411C453.806 460.44 456.466 462.695 459.5 462.448L517.117 457.76C520.151 457.513 522.41 454.858 522.163 451.829L519.102 414.352C518.855 411.323 516.195 409.068 513.161 409.315Z" fill="#C1367C"/>
<path d="M230.511 484.468L223.194 485.064C221.756 485.181 220.685 486.439 220.802 487.875L221.117 491.736C221.235 493.171 222.495 494.24 223.934 494.123L231.251 493.528C232.689 493.411 233.76 492.152 233.643 490.717L233.327 486.856C233.21 485.42 231.949 484.351 230.511 484.468Z" fill="#C1367C"/>
<path d="M245.782 483.223L238.464 483.819C237.026 483.936 235.955 485.194 236.073 486.63L236.388 490.491C236.505 491.926 237.766 492.995 239.204 492.878L246.522 492.283C247.96 492.166 249.03 490.907 248.913 489.471L248.598 485.611C248.481 484.175 247.22 483.106 245.782 483.223Z" fill="#C1367C"/>
<path d="M260.768 482.001L253.451 482.597C252.013 482.714 250.942 483.972 251.059 485.408L251.374 489.269C251.491 490.704 252.752 491.773 254.19 491.656L261.508 491.061C262.946 490.944 264.017 489.685 263.9 488.249L263.584 484.389C263.467 482.953 262.206 481.884 260.768 482.001Z" fill="#C1367C"/>
<path d="M275.798 480.786L268.481 481.381C267.043 481.498 265.972 482.757 266.089 484.193L266.404 488.053C266.522 489.489 267.783 490.558 269.221 490.441L276.538 489.845C277.976 489.728 279.047 488.47 278.93 487.034L278.615 483.173C278.497 481.738 277.236 480.669 275.798 480.786Z" fill="#C1367C"/>
<path d="M291.069 479.541L283.751 480.136C282.313 480.253 281.242 481.512 281.36 482.947L281.675 486.808C281.792 488.244 283.053 489.313 284.491 489.196L291.809 488.6C293.247 488.483 294.318 487.225 294.2 485.789L293.885 481.928C293.768 480.493 292.507 479.424 291.069 479.541Z" fill="#C1367C"/>
<path d="M306.634 478.272L299.317 478.867C297.879 478.984 296.808 480.243 296.925 481.678L297.24 485.539C297.358 486.975 298.618 488.044 300.057 487.926L307.374 487.331C308.812 487.214 309.883 485.955 309.766 484.52L309.451 480.659C309.333 479.224 308.072 478.155 306.634 478.272Z" fill="#C1367C"/>
<path d="M321.992 477.019L314.674 477.615C313.236 477.732 312.165 478.991 312.283 480.426L312.598 484.287C312.715 485.722 313.976 486.791 315.414 486.674L322.731 486.079C324.17 485.962 325.24 484.703 325.123 483.268L324.808 479.407C324.691 477.971 323.43 476.902 321.992 477.019Z" fill="#C1367C"/>
<path d="M337.261 475.774L329.944 476.37C328.506 476.487 327.435 477.745 327.552 479.181L327.867 483.042C327.985 484.477 329.245 485.546 330.684 485.429L338.001 484.834C339.439 484.717 340.51 483.458 340.393 482.022L340.077 478.162C339.96 476.726 338.699 475.657 337.261 475.774Z" fill="#C1367C"/>
<path d="M352.226 474.553L344.909 475.149C343.471 475.266 342.4 476.524 342.517 477.96L342.832 481.821C342.949 483.256 344.21 484.325 345.648 484.208L352.966 483.613C354.404 483.496 355.475 482.237 355.358 480.801L355.042 476.941C354.925 475.505 353.664 474.436 352.226 474.553Z" fill="#C1367C"/>
<path d="M367.267 473.338L359.95 473.933C358.512 474.05 357.441 475.309 357.558 476.745L357.873 480.605C357.99 482.041 359.251 483.11 360.689 482.993L368.007 482.397C369.445 482.28 370.516 481.022 370.399 479.586L370.083 475.725C369.966 474.29 368.705 473.221 367.267 473.338Z" fill="#C1367C"/>
<path d="M382.527 472.093L375.209 472.688C373.771 472.805 372.7 474.064 372.818 475.499L373.133 479.36C373.25 480.796 374.511 481.865 375.949 481.748L383.267 481.152C384.705 481.035 385.776 479.777 385.658 478.341L385.343 474.48C385.226 473.045 383.965 471.976 382.527 472.093Z" fill="#C1367C"/>
<path d="M398.103 470.824L390.786 471.419C389.347 471.536 388.277 472.795 388.394 474.23L388.709 478.091C388.826 479.527 390.087 480.595 391.525 480.478L398.843 479.883C400.281 479.766 401.352 478.507 401.234 477.072L400.919 473.211C400.802 471.776 399.541 470.707 398.103 470.824Z" fill="#C1367C"/>
<path d="M413.538 469.575L406.22 470.171C404.782 470.288 403.711 471.546 403.828 472.982L404.144 476.843C404.261 478.278 405.522 479.347 406.96 479.23L414.277 478.635C415.715 478.518 416.786 477.259 416.669 475.823L416.354 471.963C416.237 470.527 414.976 469.458 413.538 469.575Z" fill="#C1367C"/>
<path d="M428.808 468.33L421.491 468.926C420.053 469.043 418.982 470.301 419.099 471.737L419.414 475.598C419.531 477.033 420.792 478.102 422.23 477.985L429.548 477.39C430.986 477.273 432.057 476.014 431.94 474.578L431.624 470.718C431.507 469.282 430.246 468.213 428.808 468.33Z" fill="#C1367C"/>
<path d="M443.794 467.108L436.477 467.704C435.039 467.821 433.968 469.079 434.085 470.515L434.401 474.376C434.518 475.811 435.779 476.88 437.217 476.763L444.534 476.168C445.972 476.051 447.043 474.792 446.926 473.356L446.611 469.496C446.493 468.06 445.233 466.991 443.794 467.108Z" fill="#C1367C"/>
<path d="M458.825 465.893L451.507 466.488C450.069 466.605 448.998 467.864 449.116 469.3L449.431 473.16C449.548 474.596 450.809 475.665 452.247 475.548L459.564 474.952C461.003 474.835 462.073 473.577 461.956 472.141L461.641 468.28C461.524 466.845 460.263 465.776 458.825 465.893Z" fill="#C1367C"/>
<path d="M474.095 464.648L466.778 465.243C465.34 465.36 464.269 466.619 464.386 468.054L464.701 471.915C464.819 473.351 466.079 474.42 467.518 474.303L474.835 473.707C476.273 473.59 477.344 472.332 477.227 470.896L476.911 467.035C476.794 465.6 475.533 464.531 474.095 464.648Z" fill="#C1367C"/>
<path d="M489.66 463.379L482.342 463.974C480.904 464.091 479.833 465.35 479.951 466.785L480.266 470.646C480.383 472.082 481.644 473.15 483.082 473.033L490.399 472.438C491.838 472.321 492.908 471.062 492.791 469.627L492.476 465.766C492.359 464.33 491.098 463.262 489.66 463.379Z" fill="#C1367C"/>
<path d="M505.006 462.127L497.689 462.723C496.251 462.84 495.18 464.098 495.297 465.534L495.612 469.395C495.73 470.83 496.991 471.899 498.429 471.782L505.746 471.187C507.184 471.07 508.255 469.811 508.138 468.375L507.823 464.515C507.705 463.079 506.444 462.01 505.006 462.127Z" fill="#C1367C"/>
<path d="M520.288 460.881L512.97 461.477C511.532 461.594 510.461 462.852 510.578 464.288L510.894 468.149C511.011 469.584 512.272 470.653 513.71 470.536L521.027 469.941C522.466 469.824 523.536 468.565 523.419 467.129L523.104 463.269C522.987 461.833 521.726 460.764 520.288 460.881Z" fill="#C1367C"/>
<path d="M225.257 420.117L217.94 420.712C216.502 420.829 215.431 422.088 215.548 423.523L215.863 427.384C215.981 428.82 217.242 429.888 218.68 429.771L225.997 429.176C227.435 429.059 228.506 427.8 228.389 426.365L228.074 422.504C227.956 421.068 226.695 420 225.257 420.117Z" fill="#C1367C"/>
<path d="M240.539 418.871L233.221 419.466C231.783 419.583 230.712 420.842 230.829 422.277L231.145 426.138C231.262 427.574 232.523 428.642 233.961 428.525L241.278 427.93C242.716 427.813 243.787 426.554 243.67 425.119L243.355 421.258C243.238 419.822 241.977 418.754 240.539 418.871Z" fill="#C1367C"/>
<path d="M255.514 417.65L248.197 418.245C246.759 418.362 245.688 419.621 245.805 421.056L246.12 424.917C246.237 426.352 247.498 427.421 248.936 427.304L256.254 426.709C257.692 426.592 258.763 425.333 258.646 423.898L258.33 420.037C258.213 418.601 256.952 417.533 255.514 417.65Z" fill="#C1367C"/>
<path d="M270.544 416.434L263.227 417.03C261.789 417.147 260.718 418.405 260.835 419.841L261.151 423.702C261.268 425.137 262.529 426.206 263.967 426.089L271.284 425.494C272.722 425.377 273.793 424.118 273.676 422.682L273.361 418.822C273.243 417.386 271.983 416.317 270.544 416.434Z" fill="#C1367C"/>
<path d="M285.815 415.189L278.498 415.785C277.059 415.902 275.989 417.16 276.106 418.596L276.421 422.456C276.538 423.892 277.799 424.961 279.237 424.844L286.555 424.249C287.993 424.132 289.064 422.873 288.946 421.437L288.631 417.577C288.514 416.141 287.253 415.072 285.815 415.189Z" fill="#C1367C"/>
<path d="M301.38 413.92L294.063 414.515C292.625 414.632 291.554 415.891 291.671 417.327L291.986 421.187C292.104 422.623 293.365 423.692 294.803 423.575L302.12 422.979C303.558 422.862 304.629 421.604 304.512 420.168L304.197 416.307C304.079 414.872 302.819 413.803 301.38 413.92Z" fill="#C1367C"/>
<path d="M316.738 412.668L309.42 413.263C307.982 413.38 306.911 414.639 307.029 416.074L307.344 419.935C307.461 421.371 308.722 422.44 310.16 422.323L317.478 421.727C318.916 421.61 319.986 420.351 319.869 418.916L319.554 415.055C319.437 413.62 318.176 412.551 316.738 412.668Z" fill="#C1367C"/>
<path d="M331.997 411.423L324.679 412.018C323.241 412.135 322.17 413.394 322.287 414.829L322.603 418.69C322.72 420.125 323.981 421.194 325.419 421.077L332.736 420.482C334.174 420.365 335.245 419.106 335.128 417.671L334.813 413.81C334.696 412.374 333.435 411.306 331.997 411.423Z" fill="#C1367C"/>
<path d="M346.972 410.202L339.655 410.797C338.217 410.914 337.146 412.173 337.263 413.608L337.578 417.469C337.696 418.905 338.956 419.973 340.394 419.856L347.712 419.261C349.15 419.144 350.221 417.885 350.104 416.45L349.788 412.589C349.671 411.153 348.41 410.085 346.972 410.202Z" fill="#C1367C"/>
<path d="M362.013 408.986L354.696 409.582C353.258 409.699 352.187 410.957 352.304 412.393L352.619 416.254C352.737 417.689 353.997 418.758 355.436 418.641L362.753 418.046C364.191 417.929 365.262 416.67 365.145 415.234L364.829 411.374C364.712 409.938 363.451 408.869 362.013 408.986Z" fill="#C1367C"/>
<path d="M377.273 407.741L369.956 408.336C368.517 408.453 367.447 409.712 367.564 411.148L367.879 415.008C367.996 416.444 369.257 417.513 370.695 417.396L378.013 416.8C379.451 416.683 380.522 415.425 380.404 413.989L380.089 410.129C379.972 408.693 378.711 407.624 377.273 407.741Z" fill="#C1367C"/>
<path d="M392.838 406.472L385.521 407.067C384.083 407.184 383.012 408.443 383.129 409.879L383.444 413.739C383.562 415.175 384.823 416.244 386.261 416.127L393.578 415.531C395.016 415.414 396.087 414.156 395.97 412.72L395.655 408.859C395.537 407.424 394.277 406.355 392.838 406.472Z" fill="#C1367C"/>
<path d="M408.284 405.224L400.966 405.819C399.528 405.936 398.457 407.195 398.575 408.63L398.89 412.491C399.007 413.926 400.268 414.995 401.706 414.878L409.023 414.283C410.462 414.166 411.532 412.907 411.415 411.472L411.1 407.611C410.983 406.175 409.722 405.107 408.284 405.224Z" fill="#C1367C"/>
<path d="M423.554 403.978L416.237 404.574C414.799 404.691 413.728 405.949 413.845 407.385L414.16 411.246C414.278 412.681 415.538 413.75 416.977 413.633L424.294 413.038C425.732 412.921 426.803 411.662 426.686 410.227L426.37 406.366C426.253 404.93 424.992 403.861 423.554 403.978Z" fill="#C1367C"/>
<path d="M438.541 402.756L431.223 403.352C429.785 403.469 428.714 404.728 428.831 406.163L429.147 410.024C429.264 411.459 430.525 412.528 431.963 412.411L439.28 411.816C440.718 411.699 441.789 410.44 441.672 409.005L441.357 405.144C441.24 403.708 439.979 402.639 438.541 402.756Z" fill="#C1367C"/>
<path d="M453.571 401.541L446.253 402.137C444.815 402.254 443.744 403.512 443.862 404.948L444.177 408.808C444.294 410.244 445.555 411.313 446.993 411.196L454.311 410.601C455.749 410.483 456.82 409.225 456.702 407.789L456.387 403.929C456.27 402.493 455.009 401.424 453.571 401.541Z" fill="#C1367C"/>
<path d="M468.841 400.296L461.524 400.891C460.086 401.008 459.015 402.267 459.132 403.703L459.447 407.563C459.565 408.999 460.826 410.068 462.264 409.951L469.581 409.355C471.019 409.238 472.09 407.98 471.973 406.544L471.658 402.683C471.54 401.248 470.279 400.179 468.841 400.296Z" fill="#C1367C"/>
<path d="M484.406 399.016L477.088 399.611C475.65 399.728 474.579 400.987 474.697 402.423L475.012 406.283C475.129 407.719 476.39 408.788 477.828 408.671L485.146 408.075C486.584 407.958 487.654 406.7 487.537 405.264L487.222 401.403C487.105 399.968 485.844 398.899 484.406 399.016Z" fill="#C1367C"/>
<path d="M499.752 397.776L492.435 398.371C490.997 398.488 489.926 399.747 490.043 401.182L490.359 405.043C490.476 406.478 491.737 407.547 493.175 407.43L500.492 406.835C501.93 406.718 503.001 405.459 502.884 404.024L502.569 400.163C502.451 398.727 501.191 397.659 499.752 397.776Z" fill="#C1367C"/>
<path d="M515.023 396.529L507.706 397.125C506.267 397.242 505.197 398.501 505.314 399.936L505.629 403.797C505.746 405.232 507.007 406.301 508.445 406.184L515.763 405.589C517.201 405.472 518.272 404.213 518.154 402.778L517.839 398.917C517.722 397.481 516.461 396.412 515.023 396.529Z" fill="#C1367C"/>
<path d="M935.102 489.951C950.888 489.951 963.741 502.771 963.741 518.54C963.741 534.309 950.899 547.129 935.102 547.129C919.305 547.129 906.463 534.309 906.463 518.54C906.463 502.771 919.305 489.951 935.102 489.951ZM935.102 482.248C915.028 482.248 898.746 498.491 898.746 518.54C898.746 538.59 915.017 554.832 935.102 554.832C955.187 554.832 971.458 538.59 971.458 518.54C971.458 498.491 955.187 482.248 935.102 482.248Z" fill="#83053E"/>
<path d="M900.08 580.483C917.218 580.483 931.112 566.614 931.112 549.506C931.112 532.398 917.218 518.529 900.08 518.529C882.942 518.529 869.049 532.398 869.049 549.506C869.049 566.614 882.942 580.483 900.08 580.483Z" fill="#C1367C"/>
<path d="M896.332 557.022L912.504 553.523C913.276 553.358 913.584 552.411 913.044 551.828L901.921 539.591C901.392 539.008 900.422 539.217 900.18 539.965L895.131 555.69C894.888 556.45 895.55 557.176 896.332 557.011V557.022Z" fill="white"/>
<path d="M942.4 511.024L925.347 514.711C924.763 514.832 924.542 515.547 924.939 515.976L936.657 528.873C937.054 529.313 937.781 529.159 937.958 528.587L943.282 512.004C943.459 511.442 942.963 510.892 942.389 511.013L942.4 511.024Z" fill="white"/>
<path d="M935.103 518.529L903.189 549.616" stroke="white" stroke-width="4" stroke-miterlimit="10"/>
<path d="M559.054 155.027C589.788 213.635 550.423 295.727 491.711 326.407C433 357.086 342.981 339.777 312.247 281.179C281.513 222.571 306.195 115.863 364.896 85.1831C423.607 54.5034 528.321 96.4294 559.043 155.027H559.054Z" fill="#FF9FC4"/>
<path d="M427.573 210.99C433.426 210.305 437.134 200.927 435.856 190.044C434.577 179.161 428.795 170.894 422.942 171.579C417.089 172.264 413.38 181.642 414.659 192.526C415.938 203.409 421.72 211.675 427.573 210.99Z" fill="black"/>
<path d="M492.279 203.408C498.132 202.722 501.84 193.344 500.562 182.461C499.283 171.578 493.501 163.311 487.648 163.997C481.795 164.682 478.086 174.06 479.365 184.943C480.644 195.826 486.426 204.093 492.279 203.408Z" fill="black"/>
<path d="M541.056 226.247C551.997 225.356 560.478 219.881 559.999 214.018C559.521 208.154 550.263 204.123 539.323 205.013C528.382 205.903 519.901 211.378 520.38 217.242C520.858 223.105 530.116 227.137 541.056 226.247Z" fill="#F91E68"/>
<path d="M379.735 245.132C390.676 244.242 399.157 238.767 398.678 232.904C398.199 227.04 388.942 223.008 378.001 223.899C367.061 224.789 358.58 230.264 359.058 236.127C359.537 241.991 368.794 246.023 379.735 245.132Z" fill="#F91E68"/>
<path d="M415.307 151.946C405.683 157.228 398.496 162.51 397.328 160.397C396.159 158.284 402.575 147.841 412.198 142.559C421.822 137.277 431.005 139.159 432.173 141.283C433.342 143.406 424.931 146.675 415.307 151.946Z" fill="#F91E68"/>
<path d="M495.537 143.527C506.119 146.444 514.343 149.921 514.982 147.588C515.622 145.255 506.968 136.584 496.385 133.668C485.803 130.752 477.304 134.702 476.664 137.035C476.025 139.368 484.954 140.6 495.537 143.516V143.527Z" fill="#F91E68"/>
<path d="M247.815 363.557C268.52 363.557 285.306 346.801 285.306 326.131C285.306 305.462 268.52 288.706 247.815 288.706C227.109 288.706 210.323 305.462 210.323 326.131C210.323 346.801 227.109 363.557 247.815 363.557Z" fill="#C1367C"/>
<path d="M263.546 324.712L238.952 313.081C238.842 313.025 238.709 313.114 238.72 313.246L240.936 340.327C240.936 340.459 241.09 340.525 241.201 340.448L263.59 324.998C263.7 324.921 263.678 324.767 263.568 324.712H263.546Z" fill="#83053E"/>
<path d="M781.83 637.342C781.83 637.342 785.424 635.108 792.159 635.284" stroke="#C1367C" stroke-width="5" stroke-linecap="round" stroke-linejoin="round"/>
<path d="M800.637 636.979C800.637 636.979 804.462 638.42 809.621 642.228" stroke="#C1367C" stroke-width="5" stroke-linecap="round" stroke-linejoin="round"/>
<path d="M674.813 613.452C674.813 613.452 742.355 602.954 748.484 685.463C748.484 685.463 748.98 655.312 773.783 641.094" stroke="#C1367C" stroke-width="5" stroke-linecap="round" stroke-linejoin="round"/>
<path d="M825.517 670.949C832.987 670.949 839.043 664.904 839.043 657.446C839.043 649.989 832.987 643.944 825.517 643.944C818.047 643.944 811.991 649.989 811.991 657.446C811.991 664.904 818.047 670.949 825.517 670.949Z" fill="#C1367C" stroke="#83053E" stroke-width="5" stroke-linecap="round" stroke-linejoin="round"/>
</svg>
