<svg width="1728" height="1117" viewBox="0 0 1728 1117" fill="none" xmlns="http://www.w3.org/2000/svg">
<g clip-path="url(#clip0_508_974)">
<rect width="1728" height="1117" fill="black"/>
<path d="M1824.95 -177H-95.0503V2026.12H1824.95V-177Z" fill="url(#paint0_linear_508_974)"/>
<path d="M1373.32 866.41C1304.31 809.47 1190.03 690.39 1325.61 551.98C1411.48 464.32 1515.27 390.01 1490.43 286.59C1465.58 183.17 1132.58 153.89 1497.59 -36H1137.68C1126.73 -22.78 1115.35 -9.63 1103.22 3.05C981.54 130.27 1044.05 209.91 1078.86 250.85C1206.41 400.88 1238.65 396.3 1099.4 584.18C993.67 726.84 1030.56 812.31 1193.42 878.56C1296.25 920.39 1429.4 1019.35 1282.27 1256.44C1135.14 1493.53 1315.72 1563.19 1315.72 1563.19L1390.74 1575.54C1390.74 1575.54 1225.7 1464.79 1403.68 1262.71C1581.65 1060.64 1462.08 939.61 1373.34 866.4L1373.32 866.41Z" fill="url(#paint1_linear_508_974)" stroke="white" stroke-miterlimit="10"/>
<path d="M1823.83 499.15C1767.26 589.81 1687.54 652.87 1626.27 682.11C1482.47 750.74 1481.99 858.73 1574.54 960.56C1632.98 1024.86 1690.25 1146.53 1484.73 1309.19C1279.21 1471.85 1383.38 1581.5 1383.38 1581.5L1433.47 1612.83C1433.47 1612.83 1357.59 1472.23 1571.42 1348.13C1785.25 1224.03 1747.01 1087.18 1711.82 999.87C1684.45 931.97 1649.31 798.26 1805.83 717.03C1812.11 713.77 1818.1 710.72 1823.83 707.82V499.16V499.15Z" fill="url(#paint2_linear_508_974)" stroke="white" stroke-miterlimit="10"/>
<path d="M747.01 469.02C825.39 579.85 713.36 648.33 696.02 767.09C668.63 954.6 828.6 975.77 916.5 977.16C1029.52 978.95 1194.82 998.38 1170.71 1260.02C1146.59 1521.66 1342.06 1505.69 1342.06 1505.69L1275.27 1541.83C1275.27 1541.83 1091.32 1598.47 1070.59 1328.94C1049.86 1059.4 886.59 1064.99 780.58 1095.6C612.68 1144.09 503.71 1098.66 534.94 928.88C557.27 807.51 701.31 652.22 313.98 498.03C313.98 498.03 67.6898 407.69 194.79 215.91C295.54 63.87 291.74 27.23 224.04 -36H587.39C587.39 -36 605.2 30.83 559.05 97.17C491.88 193.73 427.78 230.03 464.03 309.95C505.15 400.61 686.72 383.76 747.02 469.02H747.01Z" fill="url(#paint3_linear_508_974)" stroke="white" stroke-miterlimit="10"/>
<path d="M-96.99 866.51C194.77 852.96 300.94 1032.59 346.14 1143.77C408.42 1296.97 557.82 1271.5 637.13 1233.57C739.11 1184.81 895.75 1128.54 990.76 1373.51C1085.77 1618.48 1253.63 1517.07 1253.63 1517.07L1209.94 1579.19C1209.94 1579.19 1070.51 1711.88 931.83 1479.82C793.15 1247.77 655.46 1332.62 568.22 1400.18C500.37 1452.72 363.47 1505.02 274.02 1360.4C209.11 1255.45 115.02 1087.79 -97 1147.74" fill="url(#paint4_linear_508_974)"/>
<path d="M-96.99 866.51C194.77 852.96 300.94 1032.59 346.14 1143.77C408.42 1296.97 557.82 1271.5 637.13 1233.57C739.11 1184.81 895.75 1128.54 990.76 1373.51C1085.77 1618.48 1253.63 1517.07 1253.63 1517.07L1209.94 1579.19C1209.94 1579.19 1070.51 1711.88 931.83 1479.82C793.15 1247.77 655.46 1332.62 568.22 1400.18C500.37 1452.72 363.47 1505.02 274.02 1360.4C209.11 1255.45 115.02 1087.79 -97 1147.74" stroke="white" stroke-miterlimit="10"/>
<rect opacity="0.7" x="-97" y="-15" width="1922" height="1132" fill="black"/>
<g clip-path="url(#clip1_508_974)">
<path d="M206.66 466.555C180.413 469.147 154.676 461.422 134.19 444.802C113.685 428.176 100.82 404.565 97.9571 378.316C92.02 323.777 131.565 274.566 186.122 268.627C186.464 268.593 186.806 268.559 187.138 268.526C213.386 265.934 239.123 273.66 259.609 290.279C280.114 306.906 292.979 330.526 295.841 356.766C298.722 383.191 291.136 409.148 274.487 429.864C257.838 450.58 234.111 463.583 207.676 466.455C207.335 466.488 206.993 466.522 206.66 466.555Z" fill="#9FEDFF"/>
<path d="M187.192 268.978C241.175 263.646 289.501 302.77 295.388 356.801C301.308 411.174 262.02 460.061 207.63 465.984C207.288 466.017 206.955 466.05 206.613 466.084C152.631 471.416 104.305 432.292 98.418 378.261C92.4982 323.897 131.786 275.01 186.177 269.088C186.519 269.054 186.851 269.021 187.193 268.987M187.102 268.064C186.76 268.098 186.418 268.131 186.076 268.165C159.523 271.058 135.69 284.118 118.956 304.926C102.223 325.735 94.6036 351.826 97.496 378.371C100.371 404.74 113.293 428.457 133.899 445.167C154.486 461.86 180.347 469.62 206.706 467.017C207.047 466.983 207.389 466.949 207.731 466.915C234.285 464.022 258.118 450.962 274.851 430.154C291.584 409.346 299.204 383.255 296.312 356.71C293.437 330.35 280.506 306.624 259.908 289.914C239.321 273.211 213.459 265.451 187.101 268.055L187.102 268.064Z" fill="white"/>
<path d="M255.82 441.584C234.211 443.718 231.722 425.89 229.311 408.661C227.41 395.074 225.452 381.018 214.575 375.638C213.163 374.939 211.625 374.671 209.99 374.832C199.91 375.828 187.438 392.457 175.378 408.541L172.838 411.916C165.812 421.246 156.798 426.52 146.053 427.581C128.269 429.338 111.699 418.748 111.53 418.643C111.47 418.603 111.418 418.542 111.375 418.481C99.1148 396.648 99.5049 388.319 99.5275 387.981C99.5397 387.821 99.6286 387.682 99.77 387.602C99.8227 387.569 99.8865 387.554 99.9419 387.548C100.034 387.539 100.129 387.558 100.218 387.605C100.386 387.7 117.482 397.296 135.221 395.544C145.984 394.481 154.794 389.507 161.404 380.778C175.292 362.424 195.929 340.149 215.377 338.228C222.112 337.562 228.248 339.428 233.632 343.783C246.051 353.822 247.576 362.745 250.6 380.511C251.82 387.674 253.336 396.598 255.968 407.567C257.703 414.837 262.229 418.158 269.398 417.45C277.113 416.688 285.197 411.45 285.275 411.396C285.336 411.353 285.408 411.327 285.482 411.32C285.603 411.308 285.727 411.342 285.819 411.426C285.972 411.551 286.031 411.769 285.956 411.963C280.014 426.697 265.667 439.464 265.531 439.589C265.479 439.632 265.417 439.666 265.354 439.691C261.896 440.666 258.685 441.31 255.812 441.594L255.82 441.584Z" fill="#404DF1"/>
<path d="M215.431 338.679C221.75 338.055 227.803 339.649 233.35 344.137C250.737 358.19 246.562 370.232 255.521 407.667C257.634 416.495 263.476 418.501 269.453 417.911C277.38 417.128 285.538 411.79 285.538 411.79C279.565 426.592 265.235 439.245 265.235 439.245C261.723 440.236 258.584 440.854 255.775 441.131C218.026 444.86 240.034 387.728 214.786 375.226C213.246 374.464 211.635 374.204 209.953 374.37C198.941 375.457 185.136 394.839 172.476 411.645C164.608 422.093 155.126 426.218 146.017 427.118C128.186 428.879 111.79 418.254 111.79 418.254C99.4533 396.298 100.006 388.008 100.006 388.008C100.006 388.008 117.186 397.791 135.285 396.004C144.625 395.081 154.202 391.077 161.795 381.057C178.201 359.386 197.841 340.426 215.441 338.688M215.35 337.764C195.736 339.701 174.996 362.071 161.05 380.496C154.513 389.125 145.818 394.031 135.194 395.08C117.612 396.817 100.635 387.293 100.467 387.198C100.299 387.103 100.109 387.065 99.9147 387.085C99.7946 387.096 99.6773 387.136 99.5617 387.194C99.2779 387.343 99.0919 387.632 99.0767 387.951C99.055 388.298 98.65 396.759 110.978 418.716C111.056 418.849 111.161 418.96 111.281 419.041C111.959 419.487 128.158 429.824 146.1 428.052C156.983 426.977 166.103 421.646 173.212 412.206C174.053 411.088 174.903 409.959 175.752 408.831C187.193 393.572 200.169 376.278 210.036 375.303C211.598 375.149 213.022 375.4 214.366 376.069C225.018 381.34 226.963 395.277 228.844 408.744C231.286 426.194 233.805 444.243 255.858 442.065C258.769 441.777 261.998 441.132 265.483 440.144C265.619 440.103 265.742 440.035 265.846 439.95C266.438 439.425 280.415 426.984 286.404 412.152C286.553 411.773 286.446 411.346 286.131 411.088C285.938 410.93 285.689 410.861 285.449 410.885C285.301 410.899 285.157 410.951 285.034 411.028C284.955 411.083 276.958 416.256 269.364 417.006C262.453 417.688 258.106 414.481 256.425 407.475C253.805 396.524 252.29 387.609 251.07 380.455C248.025 362.57 246.495 353.591 233.934 343.445C228.45 339.016 222.198 337.116 215.343 337.793L215.35 337.764Z" fill="white"/>
<path d="M206.88 466.608C204.191 466.873 201.509 467.008 198.934 467.01C181.722 467.013 170.215 464.885 159.231 459.647C159.064 459.571 158.964 459.403 158.964 459.217C158.964 459.03 159.079 458.87 159.249 458.797C159.312 458.772 165.89 455.949 173.357 450.791C180.221 446.047 189.269 438.29 193.374 428.288C198.149 416.653 202.511 410.571 206.336 410.193C207.805 410.048 209.149 410.717 210.321 412.187C211.428 413.57 211.818 416.292 212.367 420.061C213.334 426.736 214.657 435.876 220.801 444.716C227.391 454.202 229.575 455.255 236.899 457.805C237.072 457.862 237.2 458.027 237.21 458.222C237.229 458.406 237.116 458.586 236.947 458.667C236.813 458.727 223.576 464.977 206.891 466.625L206.88 466.608Z" fill="#404DF1"/>
<path d="M206.373 410.656C207.823 410.513 209.011 411.3 209.948 412.476C212.823 416.081 210.76 431.085 220.406 444.969C227.137 454.656 229.374 455.666 236.736 458.231C236.736 458.231 223.631 464.487 206.834 466.146C204.275 466.399 201.631 466.548 198.935 466.544C180.147 466.553 169.328 463.938 159.432 459.227C159.432 459.227 185.772 448.036 193.811 428.459C199.233 415.25 203.378 410.942 206.381 410.646M206.29 409.722C202.225 410.124 197.856 416.141 192.946 428.107C185.149 447.109 159.326 458.258 159.067 458.367C158.727 458.513 158.506 458.833 158.505 459.197C158.494 459.562 158.705 459.895 159.038 460.058C170.091 465.327 181.655 467.467 198.942 467.466C201.535 467.462 204.227 467.327 206.934 467.059C223.693 465.404 237.011 459.127 237.144 459.058C237.482 458.894 237.69 458.547 237.671 458.167C237.652 457.786 237.406 457.466 237.049 457.342C229.688 454.787 227.708 453.826 221.183 444.426C215.103 435.673 213.787 426.598 212.834 419.968C212.278 416.134 211.873 413.358 210.691 411.871C209.103 409.873 207.424 409.591 206.297 409.703L206.29 409.722Z" fill="white"/>
<path d="M285.47 376.815C282.181 377.14 279.205 376.576 276.618 375.125C267.237 369.877 264.031 358.201 260.645 345.833C259.085 340.14 257.467 334.247 255.197 329.109C249.752 316.768 233.814 305.305 213.877 307.274C208.851 307.77 203.844 309.123 199.001 311.28C186.555 316.836 176.841 331.542 167.45 345.75C160.689 355.976 153.702 366.561 145.794 373.479C142.789 376.116 139.339 377.642 135.56 378.015C126.414 378.918 116.724 372.9 110.201 367.687C103.172 362.077 98.2044 356.17 98.1611 356.109C98.0864 356.014 98.0468 355.897 98.0534 355.775C98.6066 349.285 101.84 338.008 101.876 337.902C101.925 337.738 102.062 337.613 102.227 337.578C102.245 337.576 102.264 337.574 102.273 337.573C102.43 337.558 102.576 337.618 102.672 337.739C102.757 337.843 111.084 347.82 119.378 351.887C119.584 351.988 119.8 352.097 120.026 352.215C121.96 353.19 124.887 354.672 128.259 354.339C131.446 354.025 134.466 352.113 137.242 348.668C138.729 346.814 140.488 342.994 142.706 338.159C148.535 325.478 158.305 304.257 177.05 289.741C182.553 285.477 189.464 282.91 197.575 282.109C211.702 280.714 226.51 284.81 236.445 288.491C252.103 294.294 271.843 308.646 280.277 331.51C282.06 336.342 283.477 338.029 284.353 338.586C285.35 339.234 286.31 339.512 287.206 339.424C289.451 339.202 290.68 336.721 290.688 336.702C290.757 336.555 290.897 336.457 291.063 336.441C291.091 336.438 291.118 336.435 291.146 336.433C291.335 336.451 291.497 336.585 291.552 336.766C291.568 336.829 293.355 343.022 295.225 351.287C297.11 359.597 296.29 372.547 296.284 372.679C296.27 372.82 296.2 372.957 296.077 373.035C295.884 373.166 291.206 376.239 285.441 376.808L285.47 376.815Z" fill="#404DF1"/>
<path d="M197.639 282.56C212.642 281.078 228.351 285.971 236.301 288.916C252.327 294.859 271.547 309.141 279.863 331.663C280.869 334.389 282.406 337.865 284.13 338.972C285.325 339.74 286.383 339.971 287.28 339.883C289.811 339.633 291.136 336.9 291.136 336.9C291.136 336.9 292.92 343.056 294.807 351.394C296.694 359.731 295.853 372.656 295.853 372.656C295.853 372.656 291.144 375.798 285.425 376.362C282.663 376.635 279.664 376.307 276.84 374.73C263.203 367.096 262.65 344.88 255.618 328.937C249.705 315.542 233.022 304.935 213.833 306.83C208.946 307.313 203.887 308.606 198.812 310.879C177.191 320.54 164.261 356.724 145.491 373.154C142.365 375.888 138.99 377.228 135.516 377.572C118.12 379.29 98.5162 355.832 98.5162 355.832C99.0666 349.314 102.319 338.044 102.319 338.044C102.319 338.044 110.697 348.156 119.186 352.307C121.118 353.254 124.406 355.186 128.314 354.8C131.168 354.518 134.367 352.999 137.607 348.958C143.156 342.05 151.618 310.038 177.338 290.105C183.3 285.487 190.387 283.286 197.63 282.57M197.539 281.647C189.335 282.457 182.343 285.059 176.771 289.377C157.931 303.968 148.14 325.256 142.287 337.976C140.075 342.783 138.332 346.574 136.879 348.387C134.186 351.73 131.272 353.585 128.214 353.887C124.971 354.207 122.123 352.763 120.238 351.812C120.003 351.695 119.787 351.586 119.581 351.485C111.366 347.465 103.112 337.565 103.027 337.462C102.826 337.22 102.525 337.101 102.22 337.131C102.183 337.135 102.155 337.137 102.118 337.141C101.78 337.212 101.516 337.462 101.417 337.789C101.285 338.249 98.1337 349.22 97.5759 355.757C97.5534 356.001 97.6242 356.246 97.7912 356.425C97.8438 356.486 102.834 362.428 109.903 368.071C119.493 375.722 128.133 379.233 135.598 378.496C139.479 378.113 143.009 376.552 146.092 373.85C154.043 366.891 161.056 356.285 167.832 346.029C177.19 331.871 186.864 317.225 199.185 311.728C203.983 309.585 208.936 308.247 213.915 307.755C233.631 305.808 249.386 317.131 254.76 329.311C257.018 334.422 258.625 340.298 260.183 345.972C263.45 357.885 266.83 370.197 276.379 375.54C279.045 377.03 282.116 377.622 285.507 377.287C291.392 376.706 296.157 373.568 296.359 373.436C296.595 373.273 296.756 373.014 296.774 372.724C296.805 372.189 297.602 359.576 295.702 351.203C293.831 342.929 292.042 336.717 292.017 336.654C291.906 336.283 291.59 336.016 291.205 335.989C291.149 335.985 291.092 335.981 291.037 335.987C290.723 336.018 290.434 336.214 290.295 336.507C290.288 336.527 289.157 338.774 287.18 338.969C286.395 339.047 285.529 338.787 284.623 338.205C283.956 337.777 282.552 336.312 280.728 331.353C272.232 308.337 252.372 293.894 236.626 288.054C218.547 281.353 205.392 280.871 197.548 281.646L197.539 281.647Z" fill="white"/>
<path d="M121.768 327.441C114.552 328.154 108.687 322.895 108.442 322.677C108.308 322.55 108.253 322.369 108.311 322.196C108.453 321.753 112.007 311.068 130.515 293.405C147.949 276.762 170.296 271.141 173.068 270.867C173.595 270.815 173.7 271.122 173.723 271.26C173.8 271.765 173.39 271.861 171.874 272.188C163.872 273.911 158.609 279.663 151.316 287.62L150.98 287.989C147.881 291.373 144.562 297.818 141.039 304.648C136.154 314.13 131.104 323.926 126.128 326.246C124.737 326.896 123.274 327.292 121.777 327.44L121.768 327.441Z" fill="#404DF1"/>
<path d="M173.114 271.329C173.511 271.29 173.125 271.44 171.773 271.732C163.506 273.509 158.135 279.486 150.632 287.678C143.137 295.861 134.239 321.948 125.928 325.827C124.501 326.491 123.09 326.854 121.732 326.988C114.637 327.689 108.772 322.337 108.772 322.337C108.772 322.337 112.219 311.523 130.856 293.735C148.672 276.718 171.09 271.529 173.114 271.329ZM173.022 270.406C170.232 270.681 147.72 276.337 130.201 293.063C111.608 310.809 108.018 321.6 107.876 322.052C107.771 322.398 107.864 322.771 108.131 323.025C108.387 323.251 114.386 328.646 121.814 327.912C123.366 327.759 124.883 327.339 126.319 326.675C131.438 324.285 136.527 314.419 141.452 304.868C144.96 298.068 148.263 291.652 151.319 288.31L151.656 287.941C158.89 280.046 164.11 274.335 171.966 272.646C173.536 272.304 174.322 272.133 174.173 271.197C174.164 271.104 174.003 270.318 173.014 270.416L173.022 270.406Z" fill="white"/>
<g opacity="0.52">
<path d="M242.688 439.542C188.937 455.622 132.328 425.103 116.246 371.371C109.715 349.54 110.87 327.24 118.163 307.374C99.6595 331.704 92.6388 364.237 102.077 395.758C117.757 448.16 172.967 477.922 225.386 462.243C250.83 454.629 270.941 437.703 283.102 416.311C271.97 426.774 258.311 434.875 242.689 439.551L242.688 439.542Z" fill="#404DF1"/>
</g>
<path d="M128.91 439.896C84.3331 444.299 55.0253 437.915 50.5112 422.814C46.597 409.725 64.6412 389.627 97.6013 370.368C97.6632 370.334 97.7261 370.309 97.7908 370.303C97.8739 370.294 97.969 370.313 98.0475 370.352C98.185 370.422 98.2828 370.562 98.2983 370.719C98.3969 371.623 98.4448 372.486 98.5001 373.329C98.576 374.664 98.653 375.916 98.9007 377.29C98.9245 377.437 98.8744 377.591 98.7736 377.704C92.2557 384.157 85.8992 393.095 87.6232 398.837C90.8098 409.471 111.904 413.925 144.074 410.747C162.625 408.915 183.555 404.619 204.595 398.326C263.873 380.59 307.85 351.971 302.628 334.515C300.973 328.999 295.618 325.509 285.767 323.526C285.614 323.494 285.493 323.394 285.432 323.251C284.887 321.98 284.255 320.877 283.58 319.703C283.152 318.962 282.702 318.186 282.285 317.369C282.215 317.227 282.218 317.059 282.298 316.93C282.369 316.801 282.51 316.713 282.658 316.698L282.676 316.696C320.616 314.702 342.8 320.746 346.822 334.17C350.399 346.108 338.265 361.92 312.662 378.68C287.207 395.342 251.44 411.026 211.952 422.844C183.092 431.477 154.381 437.371 128.937 439.884L128.91 439.896Z" fill="#3A86FF"/>
<path d="M282.685 317.162C318.267 315.289 342.251 320.576 346.36 334.309C353.615 358.558 293.375 398.006 211.797 422.412C181.977 431.335 153.431 437.008 128.865 439.435C86.2274 443.646 55.5625 438.067 50.9555 422.686C46.8472 408.954 67.0734 388.752 97.8371 370.774C98.091 373.061 98.0294 375.082 98.4524 377.381C91.152 384.602 85.4812 393.304 87.1794 398.974C90.5472 410.215 112.957 414.296 144.12 411.218C162.071 409.445 182.94 405.295 204.733 398.778C264.347 380.944 308.377 352.114 303.072 334.388C301.374 328.717 295.923 325.106 285.853 323.079C284.941 320.931 283.737 319.222 282.686 317.171M282.594 316.248C282.299 316.277 282.035 316.443 281.884 316.709C281.725 316.986 281.72 317.313 281.86 317.598C282.287 318.423 282.727 319.2 283.165 319.95C283.83 321.106 284.469 322.199 284.994 323.443C285.114 323.721 285.368 323.929 285.664 323.993C295.334 325.938 300.576 329.328 302.175 334.663C304.582 342.688 295.665 354.032 277.728 365.773C259.222 377.887 233.201 389.298 204.449 397.892C183.428 404.184 162.534 408.467 144.01 410.297C112.561 413.403 91.1234 408.964 88.049 398.711C86.658 394.073 90.885 386.149 99.0871 378.046C99.3081 377.828 99.399 377.52 99.3505 377.218C99.1055 375.871 99.0295 374.629 98.9554 373.312C98.9093 372.468 98.8513 371.597 98.7517 370.683C98.7207 370.369 98.5261 370.099 98.251 369.959C98.0941 369.881 97.9131 369.843 97.7375 369.86C97.6082 369.873 97.4816 369.913 97.3577 369.982C81.6754 379.14 68.9746 388.732 60.6245 397.699C51.6509 407.342 47.9893 416.078 50.0499 422.962C52.3755 430.734 61.1525 436.386 75.446 439.33C89.044 442.127 107.541 442.483 128.938 440.369C154.419 437.852 183.157 431.955 212.044 423.311C251.578 411.479 287.39 395.781 312.879 379.088C338.667 362.207 350.866 346.211 347.23 334.055C343.138 320.396 320.803 314.236 282.622 316.245C282.604 316.247 282.594 316.248 282.576 316.249L282.594 316.248Z" fill="white"/>
</g>
<g clip-path="url(#clip2_508_974)">
<path d="M1416.06 1027.68C1411.24 1027.68 1406.39 1027.07 1401.67 1025.89C1370.1 1017.96 1350.86 985.813 1358.77 954.204C1365.37 927.867 1388.89 909.473 1415.98 909.473C1420.8 909.473 1425.64 910.075 1430.37 911.26C1445.66 915.099 1458.55 924.668 1466.64 938.206C1474.75 951.744 1477.09 967.632 1473.27 982.938C1466.67 1009.28 1443.15 1027.67 1416.06 1027.67V1027.68Z" fill="#F4A6FF"/>
<path d="M1415.98 909.796C1420.7 909.796 1425.5 910.373 1430.29 911.577C1461.74 919.469 1480.84 951.388 1472.96 982.867C1466.28 1009.55 1442.35 1027.35 1416.07 1027.35C1411.34 1027.35 1406.54 1026.78 1401.75 1025.57C1370.31 1017.68 1351.21 985.761 1359.09 954.282C1365.77 927.601 1389.69 909.796 1415.98 909.796ZM1415.98 909.149C1402.99 909.149 1390.14 913.545 1379.79 921.522C1369.12 929.744 1361.75 941.023 1358.46 954.127C1350.51 985.903 1369.85 1018.24 1401.59 1026.2C1406.34 1027.39 1411.21 1028 1416.06 1028C1429.05 1028 1441.9 1023.6 1452.25 1015.63C1462.92 1007.4 1470.29 996.126 1473.58 983.022C1477.43 967.632 1475.07 951.654 1466.92 938.044C1458.77 924.435 1445.82 914.808 1430.45 910.949C1425.7 909.758 1420.83 909.149 1415.98 909.149Z" fill="white"/>
<path d="M1373.21 1009.11C1373.13 1009.11 1373.05 1009.08 1372.99 1009.02C1366.01 1002.68 1361.86 992.06 1361.81 991.95C1361.79 991.905 1361.79 991.86 1361.79 991.808C1362.63 981.106 1366.67 976.328 1374.89 976.328C1378.47 976.328 1382.56 977.221 1386.5 978.089C1390.56 978.982 1394.77 979.901 1398.54 979.901C1402.53 979.901 1405.57 978.853 1407.84 976.703C1412.91 971.919 1404.77 959.313 1397.6 948.183L1396.24 946.079C1383.84 926.759 1404.9 910.683 1405.11 910.521C1405.15 910.489 1405.2 910.47 1405.25 910.463C1410.01 909.706 1414.2 909.324 1417.71 909.324C1422.75 909.324 1424.6 910.12 1424.67 910.152C1424.77 910.198 1424.84 910.295 1424.86 910.405C1424.87 910.515 1424.83 910.625 1424.75 910.696C1424.54 910.871 1404.48 928.074 1415.98 946.079C1423.22 957.422 1431.3 973.298 1428.64 984.524C1427.68 988.603 1425.33 991.769 1421.69 993.945C1417.55 996.405 1414.01 997.454 1409.83 997.454C1406.37 997.454 1402.57 996.735 1397.75 995.835C1393.51 995.039 1388.24 994.048 1381.61 993.252C1381.11 993.193 1380.64 993.161 1380.19 993.161C1377.9 993.161 1376.12 993.932 1374.91 995.453C1371.5 999.739 1373.48 1008.62 1373.5 1008.71C1373.54 1008.84 1373.47 1008.98 1373.35 1009.06C1373.3 1009.09 1373.24 1009.1 1373.19 1009.1L1373.21 1009.11Z" fill="#853793"/>
<path d="M1417.72 909.647C1422.76 909.647 1424.55 910.45 1424.55 910.45C1424.55 910.45 1403.93 927.795 1415.72 946.254C1427.51 964.712 1435.29 985.476 1421.53 993.666C1417.24 996.217 1413.75 997.13 1409.85 997.13C1403.37 997.13 1395.79 994.624 1381.66 992.928C1381.15 992.863 1380.67 992.837 1380.21 992.837C1369.56 992.837 1373.21 1008.78 1373.21 1008.78C1366.21 1002.41 1362.12 991.834 1362.12 991.834C1363.06 979.772 1368.19 976.651 1374.89 976.651C1382.07 976.651 1391.02 980.225 1398.54 980.225C1402.17 980.225 1405.46 979.396 1408.07 976.936C1413.65 971.66 1404.29 958.005 1396.52 945.904C1384.13 926.617 1405.31 910.78 1405.31 910.78C1410.75 909.919 1414.78 909.647 1417.72 909.647M1417.72 909C1414.19 909 1409.98 909.382 1405.21 910.146C1405.11 910.165 1405.01 910.204 1404.93 910.269C1404.71 910.431 1399.48 914.38 1395.71 920.79C1392.2 926.759 1389.39 936.024 1395.97 946.26C1396.41 946.96 1396.87 947.659 1397.33 948.371C1404.43 959.39 1412.48 971.88 1407.62 976.476C1405.4 978.568 1402.44 979.591 1398.54 979.591C1394.65 979.591 1390.62 978.671 1386.57 977.784C1382.6 976.917 1378.5 976.017 1374.89 976.017C1369.66 976.017 1362.58 977.655 1361.47 991.795C1361.46 991.892 1361.47 991.989 1361.51 992.08C1361.68 992.52 1365.73 1002.87 1372.77 1009.27C1372.89 1009.38 1373.04 1009.44 1373.2 1009.44C1373.31 1009.44 1373.43 1009.41 1373.52 1009.35C1373.77 1009.2 1373.89 1008.92 1373.83 1008.64C1373.81 1008.55 1371.86 999.817 1375.17 995.66C1376.32 994.216 1378.01 993.491 1380.2 993.491C1380.64 993.491 1381.1 993.517 1381.57 993.575C1388.2 994.372 1393.46 995.362 1397.69 996.152C1402.53 997.059 1406.35 997.777 1409.83 997.777C1414.08 997.777 1417.66 996.716 1421.85 994.223C1425.58 992.002 1427.97 988.765 1428.96 984.595C1431.64 973.259 1423.53 957.299 1416.25 945.904C1411.5 938.472 1411.5 930.359 1416.25 921.774C1419.82 915.3 1424.9 910.988 1424.95 910.942C1425.12 910.8 1425.2 910.58 1425.18 910.36C1425.15 910.139 1425 909.952 1424.8 909.861C1424.73 909.829 1422.83 909 1417.71 909H1417.72Z" fill="white"/>
<path d="M1357.41 972.391C1357.41 972.391 1357.35 972.391 1357.32 972.378C1357.19 972.339 1357.1 972.229 1357.09 972.1C1357.08 971.983 1356.09 960.504 1360.26 949.219C1363.8 939.637 1367.35 933.668 1372.52 928.624C1372.58 928.566 1372.66 928.533 1372.75 928.533C1372.79 928.533 1372.82 928.54 1372.86 928.553C1372.98 928.598 1373.06 928.715 1373.07 928.838C1373.08 929.006 1373.98 945.762 1383 954.068C1388.42 959.054 1390.92 962.712 1390.44 964.946C1390.25 965.852 1389.56 966.525 1388.45 966.888C1388.18 966.978 1387.87 967.024 1387.48 967.024C1386.51 967.024 1385.24 966.752 1383.64 966.409C1381.19 965.884 1378.13 965.23 1374.62 965.23C1372.38 965.23 1370.29 965.489 1368.23 966.027C1361.62 967.736 1360.58 968.733 1357.67 972.275C1357.6 972.352 1357.51 972.391 1357.41 972.391Z" fill="#853793"/>
<path d="M1372.75 928.851C1372.75 928.851 1373.55 945.807 1382.78 954.308C1392.01 962.809 1390.96 965.722 1388.35 966.584C1388.1 966.668 1387.81 966.7 1387.48 966.7C1385.08 966.7 1380.44 964.907 1374.62 964.907C1372.58 964.907 1370.41 965.127 1368.14 965.709C1361.37 967.464 1360.35 968.493 1357.41 972.061C1357.41 972.061 1356.37 960.672 1360.56 949.323C1364.42 938.867 1368.1 933.383 1372.75 928.851ZM1372.75 928.203C1372.58 928.203 1372.42 928.268 1372.29 928.384C1367.08 933.46 1363.51 939.462 1359.96 949.096C1355.76 960.452 1356.76 972.003 1356.77 972.119C1356.79 972.378 1356.97 972.605 1357.22 972.676C1357.28 972.695 1357.35 972.702 1357.41 972.702C1357.59 972.702 1357.78 972.618 1357.91 972.469C1360.82 968.921 1361.76 968.021 1368.29 966.331C1370.33 965.8 1372.4 965.548 1374.6 965.548C1378.08 965.548 1381.11 966.195 1383.56 966.72C1385.18 967.069 1386.46 967.341 1387.47 967.341C1387.89 967.341 1388.25 967.289 1388.55 967.192C1390.09 966.681 1390.59 965.722 1390.75 965.01C1391.26 962.621 1388.8 958.963 1383.22 953.829C1374.29 945.606 1373.39 928.987 1373.39 928.818C1373.37 928.566 1373.21 928.339 1372.98 928.248C1372.9 928.216 1372.82 928.203 1372.74 928.203H1372.75Z" fill="white"/>
<path d="M1413.67 1027.62C1413.63 1027.62 1409.81 1027.34 1404.83 1026.68C1399.82 1026.02 1392.78 1022.89 1392.72 1022.87C1392.63 1022.83 1392.55 1022.74 1392.53 1022.65C1392.46 1022.34 1390.83 1015.22 1395.39 1011.32C1398.1 1009.01 1401.69 1007.98 1407.01 1007.98C1409.58 1007.98 1412.33 1008.22 1414.99 1008.45C1417.7 1008.69 1420.49 1008.93 1423.14 1008.93C1423.94 1008.93 1424.69 1008.91 1425.41 1008.87C1430.82 1008.54 1436.28 1005.68 1440.38 1001.02C1445.02 995.738 1447.31 988.746 1446.82 981.326C1446.29 973.272 1440.12 964.848 1434.15 956.704C1429.85 950.838 1425.41 944.765 1423.18 938.938C1422.07 936.037 1422.17 933.137 1423.47 930.307C1425.62 925.639 1430.73 921.981 1434.64 919.735C1438.86 917.307 1442.62 915.96 1442.66 915.947C1442.69 915.934 1442.73 915.928 1442.77 915.928C1442.81 915.928 1442.87 915.941 1442.9 915.96C1446.4 917.605 1451.83 921.599 1452.07 921.768C1452.16 921.839 1452.21 921.955 1452.2 922.078C1452.18 922.195 1452.1 922.299 1451.98 922.337C1451.91 922.363 1444.66 924.94 1440.71 928.715L1440.39 929.006C1438.66 930.612 1435.45 933.596 1438.83 939.255C1439.55 940.459 1441.31 942.22 1443.54 944.448C1449.39 950.307 1459.19 960.109 1463.41 973.537C1465.12 978.976 1465.9 990.545 1451.89 1006.89C1445.45 1014.4 1433.41 1022.44 1418.96 1022.44C1415.89 1022.44 1414.67 1022.87 1414.19 1023.24C1413.51 1023.75 1413.14 1024.32 1413.1 1024.96C1413.01 1026.1 1413.93 1027.07 1413.94 1027.08C1414.03 1027.18 1414.06 1027.32 1414 1027.44C1413.95 1027.56 1413.83 1027.63 1413.71 1027.63C1413.7 1027.63 1413.69 1027.63 1413.68 1027.63L1413.67 1027.62Z" fill="#853793"/>
<path d="M1442.75 916.245C1446.26 917.889 1451.85 922.02 1451.85 922.02C1451.85 922.02 1444.51 924.597 1440.46 928.469C1438.86 929.997 1434.79 933.156 1438.53 939.41C1441.23 943.917 1457.29 955.215 1463.08 973.628C1467.21 986.745 1456.47 1001.01 1451.62 1006.67C1445.03 1014.36 1433.15 1022.11 1418.94 1022.11H1418.88C1417.16 1022.11 1414.93 1022.25 1413.97 1022.98C1411.39 1024.92 1413.68 1027.3 1413.68 1027.3C1413.68 1027.3 1409.9 1027.02 1404.87 1026.36C1399.84 1025.7 1392.83 1022.57 1392.83 1022.57C1392.83 1022.57 1391.12 1015.39 1395.59 1011.57C1398.6 1009 1402.6 1008.31 1406.99 1008.31C1412.14 1008.31 1417.83 1009.26 1423.12 1009.26C1423.89 1009.26 1424.66 1009.24 1425.41 1009.19C1436.27 1008.52 1448.19 997.512 1447.12 981.306C1446.2 967.289 1428.74 952.651 1423.46 938.828C1418.18 925.005 1442.74 916.258 1442.74 916.258M1442.74 915.61C1442.67 915.61 1442.59 915.623 1442.52 915.649C1441.9 915.869 1427.31 921.153 1423.15 930.184C1421.82 933.091 1421.71 936.083 1422.85 939.067C1425.09 944.94 1429.55 951.026 1433.86 956.911C1439.81 965.017 1445.95 973.401 1446.47 981.358C1446.96 988.694 1444.7 995.602 1440.11 1000.82C1436.13 1005.34 1430.62 1008.23 1425.37 1008.56C1424.66 1008.6 1423.91 1008.62 1423.12 1008.62C1420.48 1008.62 1417.7 1008.38 1415 1008.14C1412.34 1007.91 1409.57 1007.67 1406.99 1007.67C1401.58 1007.67 1397.93 1008.73 1395.17 1011.09C1390.46 1015.12 1392.13 1022.43 1392.2 1022.73C1392.25 1022.92 1392.39 1023.09 1392.57 1023.17C1392.86 1023.3 1399.73 1026.34 1404.78 1027.01C1409.77 1027.67 1413.6 1027.95 1413.64 1027.95C1413.65 1027.95 1413.67 1027.95 1413.68 1027.95C1413.93 1027.95 1414.16 1027.81 1414.26 1027.58C1414.38 1027.33 1414.33 1027.05 1414.15 1026.85C1414.14 1026.85 1413.31 1025.96 1413.4 1024.98C1413.44 1024.44 1413.77 1023.94 1414.36 1023.49C1414.73 1023.22 1415.8 1022.76 1418.89 1022.76L1418.93 1022.11V1022.76C1433.5 1022.76 1445.62 1014.66 1452.11 1007.09C1454.82 1003.94 1458.61 998.975 1461.3 993.226C1464.72 985.929 1465.53 979.267 1463.69 973.44C1459.45 959.934 1449.62 950.093 1443.74 944.221C1441.53 942.007 1439.79 940.259 1439.09 939.087C1435.84 933.655 1438.81 930.897 1440.59 929.246C1440.7 929.142 1440.81 929.038 1440.91 928.948C1444.81 925.225 1452 922.668 1452.07 922.642C1452.29 922.564 1452.46 922.363 1452.49 922.124C1452.53 921.884 1452.43 921.651 1452.24 921.509C1452 921.34 1446.55 917.32 1443.02 915.662C1442.94 915.623 1442.84 915.604 1442.75 915.604L1442.74 915.61Z" fill="white"/>
<path d="M1474.35 975.538C1474.26 975.538 1474.17 975.492 1474.11 975.421C1474.01 975.311 1473.97 975.266 1474.12 974.256C1474.8 969.465 1472.69 965.36 1469.77 959.669L1469.63 959.403C1468.39 956.988 1465.49 953.816 1462.42 950.456C1458.15 945.781 1453.74 940.945 1453.46 937.688C1452.98 931.784 1459.05 928.572 1459.1 928.546C1459.15 928.52 1459.2 928.507 1459.25 928.507C1459.32 928.507 1459.39 928.533 1459.45 928.579C1459.67 928.747 1464.88 932.936 1470.91 946.875C1476.97 960.899 1474.94 974.916 1474.62 975.389C1474.57 975.479 1474.46 975.538 1474.35 975.538H1474.35Z" fill="#853793"/>
<path d="M1459.26 928.838C1459.26 928.838 1464.56 932.981 1470.61 947.011C1476.68 961.048 1474.51 975.22 1474.35 975.22C1474.33 975.22 1474.35 974.929 1474.44 974.308C1475.15 969.342 1472.93 965.12 1469.92 959.267C1466.91 953.408 1454.23 943.094 1453.79 937.675C1453.32 931.919 1459.26 928.844 1459.26 928.844M1459.26 928.197C1459.16 928.197 1459.06 928.223 1458.96 928.268C1458.7 928.404 1452.64 931.615 1453.15 937.727C1453.43 941.1 1457.88 945.975 1462.19 950.689C1465.24 954.03 1468.12 957.189 1469.35 959.565L1469.48 959.831C1472.38 965.463 1474.47 969.536 1473.8 974.223C1473.67 975.195 1473.65 975.402 1473.87 975.648C1473.99 975.79 1474.17 975.874 1474.36 975.874C1474.58 975.874 1474.79 975.758 1474.91 975.577C1475.23 975.091 1477.31 960.854 1471.22 946.759C1465.17 932.742 1459.89 928.507 1459.67 928.333C1459.55 928.242 1459.41 928.197 1459.27 928.197H1459.26Z" fill="white"/>
<g opacity="0.49">
<path d="M1417.43 1019.19C1385.19 1011.1 1365.61 978.374 1373.69 946.098C1376.98 932.981 1384.32 921.962 1394.05 914.037C1377.25 920.842 1363.83 935.299 1359.09 954.237C1351.21 985.716 1370.3 1017.63 1401.75 1025.53C1417.01 1029.36 1432.38 1026.82 1445.05 1019.6C1436.22 1021.56 1426.81 1021.55 1417.43 1019.19Z" fill="#853793"/>
</g>
<path d="M1465.51 1009.53C1448.55 1009.53 1427.7 1006.65 1406.81 1001.4C1383.11 995.453 1361.52 987.114 1346.01 977.914C1330.39 968.655 1322.78 959.591 1324.58 952.392C1326.54 944.558 1341.03 939.877 1363.34 939.877C1363.73 939.877 1364.11 939.877 1364.49 939.877C1364.6 939.877 1364.71 939.935 1364.77 940.025C1364.82 940.116 1364.83 940.233 1364.79 940.336C1364.57 940.828 1364.33 941.282 1364.1 941.728C1363.74 942.428 1363.4 943.094 1363.11 943.865C1363.07 943.962 1362.99 944.04 1362.88 944.066C1357.63 945.373 1351.7 947.996 1350.84 951.427C1348.22 961.883 1375 977.648 1410.53 986.564C1425.76 990.384 1440.94 992.488 1453.3 992.488C1468.7 992.488 1478.33 989.309 1479.72 983.767C1480.55 980.471 1478.88 977.085 1474.47 973.097C1474.4 973.026 1474.36 972.922 1474.37 972.812C1474.48 972.003 1474.49 971.245 1474.5 970.449C1474.5 969.931 1474.51 969.406 1474.55 968.863C1474.55 968.753 1474.62 968.655 1474.71 968.604C1474.76 968.578 1474.81 968.565 1474.87 968.565C1474.93 968.565 1474.97 968.578 1475.02 968.604C1494.97 979.099 1504.44 988.92 1502.42 997.013C1500.43 1004.96 1486.98 1009.52 1465.52 1009.52L1465.51 1009.53Z" fill="#1F3D68"/>
<path d="M1363.34 940.2C1363.73 940.2 1364.11 940.2 1364.49 940.2C1363.93 941.443 1363.29 942.46 1362.81 943.755C1356.9 945.224 1351.38 947.944 1350.53 951.349C1347.86 962 1374.69 977.907 1410.45 986.881C1426.34 990.869 1441.32 992.818 1453.29 992.818C1468.27 992.818 1478.54 989.769 1480.02 983.851C1480.88 980.445 1479.2 976.949 1474.68 972.864C1474.87 971.491 1474.77 970.255 1474.86 968.888C1493.55 978.723 1504.16 988.687 1502.09 996.936C1500.06 1005.04 1486 1009.2 1465.51 1009.2C1449.12 1009.2 1428.62 1006.54 1406.88 1001.08C1357.96 988.81 1321.25 967.043 1324.9 952.469C1326.93 944.37 1342.79 940.2 1363.34 940.2ZM1363.34 939.553C1340.88 939.553 1326.27 944.325 1324.27 952.314C1322.43 959.662 1330.09 968.856 1345.85 978.199C1361.39 987.412 1383.02 995.764 1406.74 1001.72C1427.66 1006.97 1448.53 1009.87 1465.52 1009.87C1475.99 1009.87 1484.54 1008.81 1490.93 1006.74C1497.71 1004.54 1501.68 1001.3 1502.73 997.111C1504.8 988.856 1495.27 978.904 1475.17 968.332C1475.07 968.28 1474.97 968.26 1474.86 968.26C1474.75 968.26 1474.64 968.286 1474.55 968.345C1474.35 968.455 1474.23 968.649 1474.22 968.869C1474.18 969.419 1474.18 969.957 1474.17 970.468C1474.16 971.258 1474.15 972.003 1474.05 972.793C1474.02 973.006 1474.1 973.213 1474.26 973.362C1478.56 977.26 1480.2 980.549 1479.4 983.715C1478.05 989.102 1468.54 992.19 1453.3 992.19C1440.97 992.19 1425.81 990.086 1410.61 986.272C1393.38 981.947 1377.67 975.887 1366.41 969.206C1355.52 962.751 1349.96 956.302 1351.15 951.524C1351.85 948.772 1356.37 946.04 1362.96 944.402C1363.17 944.35 1363.34 944.201 1363.41 944.001C1363.7 943.243 1364.04 942.589 1364.39 941.897C1364.62 941.45 1364.86 940.99 1365.09 940.492C1365.18 940.291 1365.17 940.058 1365.04 939.877C1364.93 939.689 1364.72 939.579 1364.5 939.579C1364.11 939.579 1363.73 939.579 1363.35 939.579L1363.34 939.553Z" fill="white"/>
</g>
<g clip-path="url(#clip3_508_974)">
<path d="M1565.16 275.622C1614.63 275.622 1654.72 235.519 1654.72 186.049C1654.72 136.579 1614.63 96.4752 1565.16 96.4752C1515.7 96.4752 1475.6 136.579 1475.6 186.049C1475.6 235.519 1515.7 275.622 1565.16 275.622Z" fill="#00C684" stroke="white" stroke-miterlimit="10"/>
<path d="M1477.96 206.548C1477.96 206.548 1503.6 237.684 1532.07 217.405C1549.93 204.683 1570.04 189.426 1578.47 197.55C1598.19 216.536 1556.82 265.05 1604.49 266.522C1604.49 266.522 1620.3 259.522 1629.49 248.394C1629.49 248.394 1603.36 255.71 1604.73 236.652C1607.23 201.929 1614.11 192.686 1602.96 175.819C1589.49 155.448 1558.45 168.809 1531.2 188.118C1503.96 207.426 1476.06 177.25 1476.06 177.25C1476.06 177.25 1473.32 184.245 1477.96 206.548H1477.96Z" fill="#C1EF00" stroke="white" stroke-miterlimit="10"/>
<path d="M1507.83 254.888C1507.83 254.888 1533.59 252.43 1545.86 237.741C1558.13 223.051 1562.65 224.456 1564.14 228.36C1565.64 232.248 1559.76 244.628 1564.29 259.236C1567.44 269.429 1569.09 270.911 1574.74 275.126C1574.74 275.126 1557.47 277.538 1539.89 271.974C1523.69 266.849 1515.08 261.648 1507.84 254.883L1507.83 254.888Z" fill="#C1EF00" stroke="white" stroke-miterlimit="10"/>
<path d="M1485.48 145.214C1485.48 145.214 1497 181.261 1518.19 173.52C1539.37 165.774 1562.07 139.456 1583.46 138.357C1608.18 137.085 1624.7 155.52 1625.47 172.115C1626.21 187.862 1619.42 206.783 1628.44 217.666C1634.15 224.563 1645.14 222.116 1645.14 222.116C1645.14 222.116 1650.06 211.493 1651.18 203.84C1652.31 196.186 1652.81 190.412 1652.81 190.412C1652.81 190.412 1649.12 193.856 1646.23 189.881C1645.13 188.384 1644.98 184.95 1645.02 182.324C1645.35 160.619 1633.8 142.302 1622.22 132.062C1613.71 124.536 1592.2 107.839 1572.12 113.842C1543.93 122.268 1526.36 146.522 1519.43 150.538C1509.82 156.107 1505.08 149.828 1502.8 147.355C1496.99 141.086 1493.92 131.725 1493.92 131.725C1493.92 131.725 1488.07 139.895 1485.48 145.214Z" fill="#C1EF00" stroke="white" stroke-miterlimit="10"/>
<path d="M1501.53 123.014C1501.53 123.014 1506.64 131.848 1515.37 130.708C1523.59 129.635 1538.38 109.571 1547.07 104.558C1555.77 99.5459 1562.03 95.8569 1569.64 96.5773C1577.25 97.2978 1552.29 92.6533 1528.36 104.379C1507.45 114.634 1501.53 123.014 1501.53 123.014Z" fill="#C1EF00" stroke="white" stroke-miterlimit="10"/>
<g opacity="0.52">
<path d="M1565.31 275.745C1564.83 275.745 1564.35 275.745 1563.86 275.734C1514.34 274.947 1474.69 234.021 1475.48 184.495C1475.71 170.107 1479.42 155.857 1486.21 143.283C1492.79 131.117 1502.25 120.459 1513.58 112.468L1514.97 111.487L1513.93 112.83C1501.78 128.557 1495.19 147.411 1494.87 167.343C1494.07 217.839 1534.5 259.573 1584.99 260.375C1585.48 260.386 1585.97 260.386 1586.46 260.386C1600.31 260.386 1613.63 257.361 1626.05 251.393L1627.58 250.657L1626.33 251.807C1609.68 267.242 1588.01 275.739 1565.32 275.739L1565.31 275.745Z" fill="#404DF1"/>
<path d="M1513.72 112.677C1502.02 127.821 1494.93 146.731 1494.6 167.343C1493.8 218.064 1534.26 259.829 1584.97 260.636C1585.47 260.646 1585.96 260.646 1586.45 260.646C1600.65 260.646 1614.12 257.407 1626.15 251.628C1610.15 266.45 1588.76 275.494 1565.31 275.494C1564.83 275.494 1564.35 275.494 1563.87 275.484C1514.41 274.697 1474.95 233.96 1475.74 184.5C1476.21 154.743 1491.14 128.613 1513.72 112.682M1516.21 110.306L1513.43 112.263C1502.07 120.28 1492.58 130.964 1485.98 143.165C1479.17 155.77 1475.45 170.061 1475.22 184.49C1475.03 196.651 1477.23 208.484 1481.75 219.663C1486.12 230.46 1492.46 240.198 1500.6 248.598C1508.73 257.003 1518.26 263.65 1528.92 268.356C1539.95 273.231 1551.7 275.796 1563.86 275.99C1564.35 276 1564.83 276 1565.32 276C1588.07 276 1609.8 267.477 1626.5 252.001L1628.99 249.697L1625.93 251.163C1613.55 257.116 1600.26 260.135 1586.46 260.135C1585.97 260.135 1585.48 260.135 1584.99 260.125C1572.66 259.931 1560.74 257.325 1549.56 252.384C1538.76 247.612 1529.1 240.873 1520.84 232.35C1512.59 223.828 1506.16 213.961 1501.73 203.012C1497.15 191.679 1494.92 179.677 1495.12 167.348C1495.44 147.467 1502.01 128.67 1514.13 112.989L1516.21 110.301V110.306Z" fill="white"/>
</g>
<path d="M1501.13 234.629L1504.52 247.212L1517.1 250.597L1504.52 253.985L1501.13 266.565L1497.74 253.985L1485.16 250.597L1497.74 247.212L1501.13 234.629Z" fill="white"/>
</g>
<path d="M1641.5 100L1648.82 126.792L1676 134L1648.82 141.215L1641.5 168L1634.18 141.215L1607 134L1634.18 126.792L1641.5 100Z" fill="white"/>
</g>
<defs>
<linearGradient id="paint0_linear_508_974" x1="309.39" y1="1664.73" x2="1915.88" y2="-475.57" gradientUnits="userSpaceOnUse">
<stop stop-color="#FF9D00"/>
<stop offset="0.14" stop-color="#FF9D00"/>
<stop offset="0.37" stop-color="#F91E68"/>
<stop offset="0.64" stop-color="#F63DFF"/>
<stop offset="1" stop-color="#3A86FF"/>
</linearGradient>
<linearGradient id="paint1_linear_508_974" x1="1337.36" y1="1418.52" x2="1239.34" y2="-111.64" gradientUnits="userSpaceOnUse">
<stop stop-color="#FFBE0B"/>
<stop offset="0.67" stop-color="#FF99CC"/>
<stop offset="1" stop-color="#9FEDFF"/>
</linearGradient>
<linearGradient id="paint2_linear_508_974" x1="1368.84" y1="1473.85" x2="2060.4" y2="145.17" gradientUnits="userSpaceOnUse">
<stop stop-color="#FFBE0B"/>
<stop offset="0.67" stop-color="#FF99CC"/>
<stop offset="1" stop-color="#9FEDFF"/>
</linearGradient>
<linearGradient id="paint3_linear_508_974" x1="1008.88" y1="1343.69" x2="242.66" y2="-82.6401" gradientUnits="userSpaceOnUse">
<stop stop-color="#FFBE0B"/>
<stop offset="0.67" stop-color="#FF99CC"/>
<stop offset="1" stop-color="#9FEDFF"/>
</linearGradient>
<linearGradient id="paint4_linear_508_974" x1="966.39" y1="1536.59" x2="-654.1" y2="569.85" gradientUnits="userSpaceOnUse">
<stop stop-color="#FFBE0B"/>
<stop offset="0.67" stop-color="#FF99CC"/>
<stop offset="1" stop-color="#9FEDFF"/>
</linearGradient>
<clipPath id="clip0_508_974">
<rect width="1728" height="1117" fill="white"/>
</clipPath>
<clipPath id="clip1_508_974">
<rect width="305" height="200" fill="white" transform="translate(36 282.979) rotate(-5.64075)"/>
</clipPath>
<clipPath id="clip2_508_974">
<rect width="179" height="119" fill="white" transform="translate(1324 909)"/>
</clipPath>
<clipPath id="clip3_508_974">
<rect width="180" height="180" fill="white" transform="translate(1475 96)"/>
</clipPath>
</defs>
</svg>
