<svg width="477" height="739" viewBox="0 0 477 739" fill="none" xmlns="http://www.w3.org/2000/svg">
<g clip-path="url(#clip0_479_475)">
<path d="M358.358 256.883C372.63 306.526 380.177 358.072 380.787 410.095C381.334 456.231 376.476 501.603 366.352 544.954C348.792 620.192 315.883 683.289 282.525 705.696C273.884 711.498 264.812 712.537 254.782 708.888C231.48 700.392 204.479 666.796 176.689 611.729C152.322 563.46 128.592 501.002 109.863 435.857C105.44 420.475 101.362 405.144 97.7535 390.297C96.7285 386.106 95.5726 381.773 94.2064 377.021C89.4367 360.431 83.1745 342.541 76.5453 323.618C69.2947 302.915 61.7976 281.494 55.5608 259.801C42.5036 214.384 38.6467 179.529 43.4291 150.122C49.5196 112.687 69.7393 84.436 105.237 63.7711C148.811 38.3966 188.634 32.432 223.61 46.0228C255.261 58.3319 283.811 86.9267 308.48 131.033C330.372 170.174 345.368 214.724 354.741 244.826C355.99 248.822 357.197 252.881 358.351 256.895L358.358 256.883Z" fill="#C1EF00"/>
<path d="M59.2584 258.728C46.3631 213.874 42.5387 179.549 47.2297 150.728C53.1271 114.497 72.7323 87.132 107.177 67.0795C129.546 54.055 151.014 46.1648 170.975 43.6327C188.932 41.3572 206.173 43.3638 222.221 49.5991C253.016 61.5746 280.913 89.5982 305.123 132.908C326.836 171.74 341.746 216.025 351.065 245.973C352.303 249.932 353.505 253.973 354.654 257.968C368.83 307.279 376.328 358.48 376.931 410.164C377.47 455.993 372.652 501.055 362.601 544.104C353.708 582.215 340.847 617.541 325.416 646.253C311.308 672.517 295.306 692.502 280.376 702.528C272.831 707.594 264.881 708.502 256.087 705.296C244.827 701.19 232.41 690.594 219.175 673.82C206.502 657.743 193.355 636.268 180.101 610.009C155.844 561.948 132.201 499.724 113.535 434.801C109.126 419.465 105.064 404.189 101.459 389.392C100.43 385.152 99.2585 380.764 97.8791 375.966C93.0775 359.264 86.802 341.328 80.1543 322.34C72.9261 301.681 65.4476 280.325 59.24 258.733M51.8581 260.855C63.8383 302.526 80.561 343.492 90.5065 378.085C91.7957 382.57 92.974 386.946 94.0084 391.204C97.628 406.088 101.706 421.419 106.163 436.921C148.592 584.502 225.934 748.34 284.655 708.9C348.323 666.131 422.989 467.862 362.036 255.846C360.871 251.795 359.658 247.748 358.393 243.696C328.717 148.432 261.19 -31.4744 103.297 60.4628C23.9552 106.64 30.0439 184.909 51.8766 260.85L51.8581 260.855Z" fill="black"/>
<path d="M149.685 185.657C145.605 174.09 137.267 166.489 131.061 168.678C124.855 170.867 123.132 182.017 127.212 193.584C131.292 205.15 139.63 212.752 145.836 210.563C152.041 208.374 153.764 197.223 149.685 185.657Z" fill="black"/>
<path d="M224.34 159.329C220.26 147.763 211.922 140.161 205.717 142.35C199.511 144.539 197.788 155.69 201.868 167.257C205.947 178.823 214.286 186.425 220.491 184.236C226.697 182.047 228.42 170.896 224.34 159.329Z" fill="black"/>
<path d="M251.474 104.359C249.067 98.2351 237.862 96.9079 226.447 101.395C215.033 105.882 207.731 114.484 210.138 120.608C212.546 126.733 223.751 128.06 235.165 123.573C246.58 119.086 253.881 110.484 251.474 104.359Z" fill="#00CD00"/>
<path d="M124.826 138.169C122.418 132.045 111.213 130.717 99.7988 135.204C88.3843 139.691 81.0826 148.294 83.4901 154.418C85.8975 160.542 97.1024 161.869 108.517 157.382C119.931 152.895 127.233 144.293 124.826 138.169Z" fill="#00CD00"/>
<path d="M135.058 227.475C122.806 226.902 112.985 225.129 112.863 227.832C112.741 230.534 124.319 237.865 136.572 238.438C148.825 239.012 157.112 232.603 157.234 229.901C157.356 227.198 147.311 228.048 135.058 227.475Z" fill="#00CD00"/>
<path d="M238.374 194.845C247.554 186.711 254.087 179.169 255.877 181.191C257.668 183.214 253.257 196.191 244.077 204.324C234.897 212.458 224.428 212.67 222.626 210.641C220.833 208.609 229.182 202.972 238.372 194.836L238.374 194.845Z" fill="#00CD00"/>
</g>
<defs>
<clipPath id="clip0_479_475">
<rect width="681.772" height="299.486" fill="white" transform="translate(189.12 738.225) rotate(-106.04)"/>
</clipPath>
</defs>
</svg>
