<svg width="408" height="560" viewBox="0 0 408 560" fill="none" xmlns="http://www.w3.org/2000/svg">
<g clip-path="url(#clip0_395_1295)">
<path d="M236.121 554.699C205.981 554.699 175.405 543.086 142.64 519.2C113.338 497.845 86.0467 469.681 59.6603 442.435C38.8372 420.946 19.1647 400.643 -0.664215 384.405C-67.6691 329.533 -138.193 261.134 -189.301 201.458C-250.966 129.463 -282.245 74.0091 -279.743 41.0859C-278.861 29.518 -273.789 21.1416 -264.215 15.4864C-252.251 8.40908 -232.522 4.66882 -207.175 4.66882C-141.142 4.66882 -42.5115 28.9133 56.6664 69.5185C169.775 115.835 272.125 178.624 344.883 246.33C385.502 284.124 406.582 336.017 402.739 388.717C398.784 442.917 369.583 491.372 320.53 525.169C291.675 545.046 264.06 554.71 236.121 554.71V554.699Z" fill="#FF9FC4"/>
<path d="M-207.153 9.13692C-141.667 9.13692 -43.6624 33.2582 54.9905 73.6619C108.489 95.5659 159.542 121.087 206.751 149.497C258.44 180.606 303.896 214.291 341.845 249.599C381.458 286.464 402.035 337.047 398.281 388.381C396.427 413.745 388.864 437.945 375.805 460.308C361.964 484.004 342.515 504.575 317.994 521.462C289.91 540.813 263.121 550.208 236.109 550.208C206.952 550.208 177.226 538.876 145.254 515.572C116.264 494.44 89.1073 466.411 62.8438 439.311C41.9313 417.72 22.1695 397.328 2.13953 380.934C-64.6754 326.219 -134.987 258.032 -185.939 198.535C-245.928 128.478 -277.666 72.6876 -275.286 41.4218C-274.515 31.2873 -270.281 24.2659 -261.936 19.3386C-250.654 12.6644 -231.718 9.13692 -207.153 9.13692ZM-207.175 0.178223C-233.003 0.178223 -253.424 3.89608 -266.483 11.623C-344.816 57.9506 -148.761 268.905 -3.50192 387.877C66.7761 445.436 139.556 559.178 236.12 559.178C263.088 559.178 291.92 550.309 323.066 528.853C429.349 455.649 433.024 322.21 347.933 243.037C186.744 93.0575 -78.0474 0.178223 -207.175 0.178223Z" fill="black"/>
<path d="M223.339 445.188C228.753 439.761 224.962 427.161 214.871 417.046C204.781 406.93 192.212 403.13 186.798 408.557C181.384 413.984 185.175 426.584 195.266 436.699C205.356 446.814 217.925 450.615 223.339 445.188Z" fill="black"/>
<path d="M288.487 379.895C293.901 374.468 290.11 361.868 280.019 351.753C269.928 341.637 257.359 337.837 251.945 343.264C246.531 348.691 250.322 361.291 260.413 371.406C270.504 381.521 283.073 385.322 288.487 379.895Z" fill="black"/>
<path d="M341.891 378.712C352.333 368.961 356.567 356.504 351.348 350.888C346.129 345.272 333.434 348.624 322.992 358.375C312.55 368.125 308.316 380.582 313.535 386.198C318.754 391.815 331.449 388.463 341.891 378.712Z" fill="#F91E68"/>
<path d="M216.447 504.442C226.889 494.691 231.123 482.234 225.904 476.618C220.686 471.002 207.99 474.354 197.548 484.104C187.106 493.855 182.872 506.312 188.091 511.928C193.31 517.544 206.005 514.192 216.447 504.442Z" fill="#F91E68"/>
<path d="M163.675 411.36C158.123 424.54 155.062 435.761 152.158 434.529C149.253 433.297 147.376 417.429 152.928 404.249C158.48 391.068 169.372 385.581 172.266 386.802C175.17 388.034 169.227 398.168 163.675 411.349V411.36Z" fill="#F91E68"/>
<path d="M249.805 319.085C262.954 313.52 274.147 310.451 272.929 307.54C271.712 304.628 255.871 302.747 242.723 308.312C229.574 313.878 224.1 324.785 225.318 327.697C226.547 330.608 236.657 324.651 249.805 319.085Z" fill="#F91E68"/>
</g>
<defs>
<clipPath id="clip0_395_1295">
<rect width="692" height="559" fill="white" transform="translate(-284.346 0.178223)"/>
</clipPath>
</defs>
</svg>
