<svg width="948" height="967" viewBox="0 0 948 967" fill="none" xmlns="http://www.w3.org/2000/svg">
<path d="M93.991 96.726C120.527 -41.9273 251.821 -187.01 428.536 -208.1C635.13 -232.756 684.621 -197.456 1118.13 -77.8503C1275.09 -34.5448 1550.83 22.6543 1563.45 255.058C1574.22 453.316 1425.8 608.869 1274.42 677.492C1080.77 765.259 901.618 821.644 641.721 775.281C452.659 741.558 284.353 633.212 178.79 472.753C153.343 434.051 63.2123 257.457 93.986 96.7073L93.991 96.726Z" fill="#D0D0D2"/>
<path d="M452.606 0L467.288 54.4825L521.794 69.1578L467.288 83.8331L452.606 138.316L437.939 83.8331L383.419 69.1578L437.939 54.4825L452.606 0Z" fill="#3A86FF"/>
<path d="M521.794 0L527.952 22.8359L550.798 28.9909L527.952 35.1322L521.794 57.9681L515.65 35.1322L492.805 28.9909L515.65 22.8359L521.794 0Z" fill="#3A86FF"/>
<path d="M545.428 89.7391C551.114 89.7391 555.723 85.1318 555.723 79.4484C555.723 73.765 551.114 69.1577 545.428 69.1577C539.742 69.1577 535.133 73.765 535.133 79.4484C535.133 85.1318 539.742 89.7391 545.428 89.7391Z" fill="white"/>
<path d="M404.438 134.042C410.124 134.042 414.733 129.434 414.733 123.751C414.733 118.068 410.124 113.46 404.438 113.46C398.752 113.46 394.143 118.068 394.143 123.751C394.143 129.434 398.752 134.042 404.438 134.042Z" fill="white"/>
<path d="M507.306 123.018C510.324 123.018 512.771 120.572 512.771 117.554C512.771 114.537 510.324 112.091 507.306 112.091C504.287 112.091 501.84 114.537 501.84 117.554C501.84 120.572 504.287 123.018 507.306 123.018Z" fill="white"/>
<path d="M878.913 715.011L893.595 769.493L948.101 784.169L893.595 798.83L878.913 853.326L864.245 798.83L809.726 784.169L864.245 769.493L878.913 715.011Z" fill="#3A86FF"/>
<path d="M948.101 715.011L954.259 737.847L977.104 743.988L954.259 750.143L948.101 772.979L941.957 750.143L919.111 743.988L941.957 737.847L948.101 715.011Z" fill="#3A86FF"/>
<path d="M830.732 849.052C836.417 849.052 841.027 844.445 841.027 838.762C841.027 833.078 836.417 828.471 830.732 828.471C825.046 828.471 820.437 833.078 820.437 838.762C820.437 844.445 825.046 849.052 830.732 849.052Z" fill="white"/>
<path d="M933.612 838.029C936.631 838.029 939.078 835.583 939.078 832.565C939.078 829.548 936.631 827.102 933.612 827.102C930.594 827.102 928.146 829.548 928.146 832.565C928.146 835.583 930.594 838.029 933.612 838.029Z" fill="white"/>
<path d="M275.971 517.3L290.638 571.783L345.158 586.458L290.638 601.119L275.971 655.616L261.289 601.119L206.783 586.458L261.289 571.783L275.971 517.3Z" fill="#3A86FF"/>
<path d="M345.159 517.3L351.303 540.136L374.148 546.277L351.303 552.432L345.159 575.268L339.001 552.432L316.155 546.277L339.001 540.136L345.159 517.3Z" fill="#3A86FF"/>
<path d="M368.779 607.039C374.464 607.039 379.074 602.432 379.074 596.749C379.074 591.065 374.464 586.458 368.779 586.458C363.093 586.458 358.483 591.065 358.483 596.749C358.483 602.432 363.093 607.039 368.779 607.039Z" fill="white"/>
<path d="M227.788 651.342C233.474 651.342 238.083 646.734 238.083 641.051C238.083 635.368 233.474 630.76 227.788 630.76C222.102 630.76 217.493 635.368 217.493 641.051C217.493 646.734 222.102 651.342 227.788 651.342Z" fill="white"/>
<path d="M330.656 640.318C333.675 640.318 336.122 637.872 336.122 634.855C336.122 631.837 333.675 629.391 330.656 629.391C327.638 629.391 325.19 631.837 325.19 634.855C325.19 637.872 327.638 640.318 330.656 640.318Z" fill="white"/>
<g clip-path="url(#clip0_616_6)">
<path d="M838.566 186.991L838.625 72.4982C838.625 68.963 835.76 66.1113 832.235 66.1113H647.619C644.082 66.1113 641.229 68.9748 641.229 72.4982V187.086L603.08 229.52C602.019 230.698 601.441 232.218 601.441 233.797V237.556C601.441 241.091 604.306 243.943 607.831 243.943H867.131C870.668 243.943 873.521 241.08 873.521 237.556V233.561C873.521 232.124 873.037 230.733 872.153 229.602L838.566 187.003V186.991Z" fill="#3A86FF"/>
<path d="M822.392 77.801H656.025C654.534 77.801 653.325 79.0092 653.325 80.4996V175.184C653.325 176.674 654.534 177.882 656.025 177.882H822.392C823.883 177.882 825.091 176.674 825.091 175.184V80.4996C825.091 79.0092 823.883 77.801 822.392 77.801Z" fill="#9FEDFF"/>
<path d="M641.606 186.991H838.566" stroke="#404DF1" stroke-linejoin="round"/>
<path opacity="0.57" d="M855.448 219.103H625.939L647.549 190.951H833.309L855.448 219.103Z" fill="#404DF1"/>
<path opacity="0.57" d="M766.406 229.237H709.099C707.849 229.237 707.142 227.799 707.908 226.809L711.575 222.037C711.858 221.66 712.306 221.448 712.766 221.448H762.645C763.105 221.448 763.541 221.66 763.824 222.025L767.573 226.797C768.351 227.787 767.643 229.237 766.394 229.237H766.406Z" fill="#404DF1"/>
<path d="M602.043 233.196L873.521 233.55" stroke="#404DF1" stroke-linejoin="round"/>
<path d="M970.144 391.113C991.604 391.113 1009 373.724 1009 352.273C1009 330.822 991.604 313.433 970.144 313.433C948.684 313.433 931.287 330.822 931.287 352.273C931.287 373.724 948.684 391.113 970.144 391.113Z" fill="#3A86FF"/>
<path d="M959.934 339.323L944.608 351.366L959.934 363.409" stroke="#404DF1" stroke-width="3" stroke-linecap="round" stroke-linejoin="round"/>
<path d="M527.418 249.835C560.285 312.597 518.187 400.505 455.398 433.359C392.61 466.212 296.341 447.676 263.473 384.927C230.605 322.165 257.001 207.896 319.777 175.042C382.566 142.189 494.55 187.086 527.406 249.835H527.418Z" fill="#9FEDFF"/>
<path d="M386.815 309.767C393.074 309.033 397.04 298.991 395.673 287.336C394.305 275.682 388.122 266.83 381.862 267.564C375.603 268.297 371.637 278.34 373.005 289.994C374.372 301.648 380.555 310.501 386.815 309.767Z" fill="black"/>
<path d="M456.002 301.648C462.262 300.914 466.228 290.871 464.86 279.217C463.493 267.563 457.31 258.71 451.05 259.444C444.79 260.178 440.824 270.22 442.192 281.875C443.56 293.529 449.743 302.382 456.002 301.648Z" fill="black"/>
<path d="M508.162 326.117C519.862 325.164 528.932 319.301 528.42 313.022C527.908 306.743 518.008 302.426 506.307 303.379C494.607 304.332 485.537 310.195 486.049 316.474C486.561 322.753 496.461 327.071 508.162 326.117Z" fill="#3A86FF"/>
<path d="M335.627 346.33C347.327 345.377 356.397 339.514 355.885 333.235C355.373 326.956 345.473 322.639 333.772 323.592C322.072 324.545 313.002 330.408 313.514 336.687C314.026 342.966 323.926 347.284 335.627 346.33Z" fill="#3A86FF"/>
<path d="M373.689 246.547C363.397 252.204 355.711 257.86 354.461 255.597C353.211 253.335 360.073 242.152 370.364 236.496C380.656 230.839 390.477 232.854 391.726 235.129C392.976 237.403 383.981 240.903 373.689 246.547Z" fill="#3A86FF"/>
<path d="M459.489 237.521C470.806 240.644 479.601 244.367 480.285 241.869C480.969 239.371 471.714 230.085 460.397 226.962C449.079 223.84 439.99 228.07 439.306 230.568C438.622 233.067 448.171 234.386 459.489 237.509V237.521Z" fill="#3A86FF"/>
<path d="M925.393 495.578C910.916 564.915 822.557 606.123 753.19 591.664C683.824 577.194 621.2 501.788 635.677 432.439C650.154 363.103 743.122 291.55 812.489 306.021C881.856 320.492 939.87 426.241 925.393 495.578Z" fill="#9FEDFF"/>
<path d="M708.605 406.24C711.002 394.753 707.943 384.398 701.773 383.112C695.603 381.826 688.659 390.095 686.262 401.582C683.866 413.069 686.924 423.424 693.094 424.71C699.264 425.996 706.209 417.727 708.605 406.24Z" fill="black"/>
<path d="M776.152 420.329C778.549 408.842 775.49 398.488 769.32 397.202C763.15 395.915 756.206 404.185 753.809 415.672C751.413 427.159 754.471 437.513 760.641 438.8C766.811 440.086 773.755 431.816 776.152 420.329Z" fill="black"/>
<path d="M800.61 471.68C802.114 465.562 794.093 458.332 782.693 455.531C771.293 452.73 760.832 455.419 759.328 461.537C757.823 467.655 765.845 474.885 777.245 477.686C788.645 480.487 799.105 477.798 800.61 471.68Z" fill="#3A86FF"/>
<path d="M681.46 446.847C682.964 440.729 674.942 433.499 663.542 430.698C652.143 427.897 641.682 430.586 640.177 436.704C638.673 442.821 646.694 450.051 658.094 452.852C669.494 455.653 679.955 452.965 681.46 446.847Z" fill="#3A86FF"/>
<path d="M702.073 350.741C690.519 352.839 681.43 355.785 680.97 353.228C680.51 350.682 690.555 342.245 702.108 340.147C713.661 338.05 722.338 343.07 722.798 345.615C723.258 348.161 713.626 348.632 702.073 350.741Z" fill="#3A86FF"/>
<path d="M794.712 374.757C804.461 381.297 811.617 387.625 813.055 385.469C814.494 383.312 808.658 371.575 798.92 365.035C789.171 358.495 779.209 359.626 777.771 361.783C776.332 363.939 784.974 368.217 794.723 374.757H794.712Z" fill="#3A86FF"/>
<path d="M582.119 431.414C552.104 415.907 515.192 427.643 499.666 457.657C484.152 487.659 495.894 524.555 525.92 540.074C555.935 555.582 592.847 543.845 608.373 513.831C623.887 483.829 612.145 446.934 582.119 431.414ZM536.554 525.686C514.438 514.256 505.785 487.07 517.22 464.963C528.656 442.856 555.853 434.207 577.969 445.637C600.085 457.068 608.738 484.254 597.303 506.36C585.868 528.467 558.67 537.116 536.554 525.686Z" fill="#404DF1"/>
<path d="M577.273 440.783C552.434 427.95 521.888 437.672 509.038 462.5C496.2 487.329 505.926 517.861 530.766 530.706C555.605 543.539 586.15 533.817 599 508.988C611.839 484.159 602.113 453.627 577.273 440.783ZM535.87 520.831C516.477 510.815 508.885 486.976 518.918 467.591C528.95 448.206 552.787 440.618 572.18 450.646C591.573 460.662 599.165 484.501 589.133 503.886C579.112 523.27 555.263 530.859 535.87 520.831Z" fill="#3A86FF"/>
<path d="M541.93 541.205L520.592 620.405L558.163 623.634L554.226 542.82L541.93 541.205Z" fill="#404DF1"/>
<path d="M220.286 145.072C213.036 145.072 207.153 151.742 207.153 159.979C207.153 168.216 213.036 174.886 220.286 174.886C227.537 174.886 233.419 168.216 233.419 159.979C233.419 151.742 227.537 145.072 220.286 145.072ZM220.286 170.137C215.347 170.137 211.338 165.588 211.338 159.979C211.338 154.37 215.347 149.821 220.286 149.821C225.226 149.821 229.234 154.37 229.234 159.979C229.234 165.588 225.226 170.137 220.286 170.137Z" fill="#3A86FF"/>
<path d="M278.607 145.072C271.356 145.072 265.474 151.742 265.474 159.979C265.474 168.216 271.356 174.886 278.607 174.886C285.857 174.886 291.74 168.216 291.74 159.979C291.74 151.742 285.857 145.072 278.607 145.072ZM278.607 170.137C273.667 170.137 269.659 165.588 269.659 159.979C269.659 154.37 273.667 149.821 278.607 149.821C283.546 149.821 287.554 154.37 287.554 159.979C287.554 165.588 283.546 170.137 278.607 170.137Z" fill="#3A86FF"/>
<path d="M239.998 175.734H245.351V144.236H239.998V175.734Z" fill="#3A86FF"/>
<path d="M197.498 175.734H202.851V144.236H197.498V175.734Z" fill="#3A86FF"/>
<path d="M186.416 175.734H191.769V144.236H186.416V175.734Z" fill="#3A86FF"/>
<path d="M259.026 211.345H264.378V179.847H259.026V211.345Z" fill="#3A86FF"/>
<path d="M247.955 211.345H253.308V179.847H247.955V211.345Z" fill="#3A86FF"/>
<path d="M270.378 211.345H275.73V179.847H270.378V211.345Z" fill="#3A86FF"/>
<path d="M258.837 144H253.484V175.499H258.837V144Z" fill="#3A86FF"/>
<path d="M303.423 144H298.07V175.499H303.423V144Z" fill="#3A86FF"/>
<path d="M197.133 180.683C189.883 180.683 184 187.353 184 195.59C184 203.827 189.883 210.497 197.133 210.497C204.383 210.497 210.266 203.827 210.266 195.59C210.266 187.353 204.383 180.683 197.133 180.683ZM197.133 205.748C192.193 205.748 188.185 201.199 188.185 195.59C188.185 189.981 192.193 185.432 197.133 185.432C202.073 185.432 206.081 189.981 206.081 195.59C206.081 201.199 202.073 205.748 197.133 205.748Z" fill="#3A86FF"/>
<path d="M294.321 180.683C287.071 180.683 281.188 187.353 281.188 195.59C281.188 203.827 287.071 210.497 294.321 210.497C301.572 210.497 307.454 203.827 307.454 195.59C307.454 187.353 301.572 180.683 294.321 180.683ZM294.321 205.748C289.382 205.748 285.374 201.199 285.374 195.59C285.374 189.981 289.382 185.432 294.321 185.432C299.261 185.432 303.269 189.981 303.269 195.59C303.269 201.199 299.261 205.748 294.321 205.748Z" fill="#3A86FF"/>
<path d="M229.235 180.683C221.984 180.683 216.102 187.353 216.102 195.59C216.102 203.827 221.984 210.497 229.235 210.497C236.485 210.497 242.368 203.827 242.368 195.59C242.368 187.353 236.485 180.683 229.235 180.683ZM229.235 205.748C224.295 205.748 220.287 201.199 220.287 195.59C220.287 189.981 224.295 185.432 229.235 185.432C234.174 185.432 238.182 189.981 238.182 195.59C238.182 201.199 234.174 205.748 229.235 205.748Z" fill="#3A86FF"/>
</g>
<defs>
<clipPath id="clip0_616_6">
<rect width="935" height="727" fill="white" transform="translate(74 34)"/>
</clipPath>
</defs>
</svg>
