<svg width="1729" height="715" viewBox="0 0 1729 715" fill="none" xmlns="http://www.w3.org/2000/svg">
<mask id="mask0_557_959" style="mask-type:alpha" maskUnits="userSpaceOnUse" x="0" y="0" width="1729" height="715">
<rect width="1729" height="715" fill="#D9D9D9"/>
</mask>
<g mask="url(#mask0_557_959)">
<g clip-path="url(#clip0_557_959)">
<rect x="-4" y="-61" width="1800" height="706" fill="url(#paint0_linear_557_959)"/>
<path d="M1341 89.1529C1297.81 39.3047 1229.32 -61.279 1344.84 -145.296C1418 -198.507 1502.57 -239.816 1497.18 -318.051C1491.78 -396.281 1253.28 -458.373 1541.9 -551.711L1280.25 -595.81C1270.67 -587.54 1260.78 -579.372 1250.41 -571.641C1146.36 -494.055 1182.05 -428.493 1202.34 -394.469C1276.69 -269.757 1300.68 -269.147 1176.43 -149.607C1082.09 -58.8408 1098.43 7.82068 1208.72 75.9382C1278.35 118.95 1363.02 207.217 1227.01 361.562C1091.01 515.911 1213.75 588.681 1213.75 588.681L1266.77 606.856C1266.77 606.856 1160.36 506.113 1314.5 381.003C1468.64 255.894 1396.54 153.247 1341 89.1529H1341Z" fill="url(#paint1_linear_557_959)"/>
<path d="M1784.68 -34.7283C1724.04 15.5674 1608.94 78.7251 1559.29 84.9476C1442.72 99.554 1417.3 175.001 1458.4 267.762C1484.34 326.332 1496.14 424.777 1314.55 490.835C1132.96 556.894 1180.37 657.826 1180.37 657.826L1208.14 691.388C1208.14 691.388 1187.72 575.375 1366.16 538.226C1544.6 501.073 1549.65 396.436 1545.32 327.17C1541.95 273.298 1548.43 171.57 1676.81 151.105C1681.96 150.282 1781.47 144.666 1786.15 143.968L1784.69 -34.7283H1784.68Z" fill="url(#paint2_linear_557_959)"/>
<path d="M778.84 -217.285C836.623 -135.57 754.035 -85.0805 741.246 2.47803C721.056 140.73 838.986 156.334 903.791 157.362C987.115 158.685 1108.98 173.011 1091.2 365.916C1073.42 558.82 1217.53 547.043 1217.53 547.043L1168.29 573.688C1168.29 573.688 1032.67 615.452 1017.39 416.723C1002.1 217.994 881.732 222.112 803.576 244.685C679.796 280.435 599.456 246.941 622.482 121.759C638.941 32.2747 745.14 -82.2215 459.58 -195.902C459.58 -195.902 278.005 -262.511 371.706 -403.906C445.995 -516.01 443.193 -543.02 393.281 -589.641H661.152C661.152 -589.641 674.283 -540.369 640.257 -491.454C590.739 -420.265 543.484 -393.494 570.207 -334.568C600.521 -267.728 734.387 -280.151 778.836 -217.289L778.84 -217.285Z" fill="url(#paint3_linear_557_959)"/>
<path d="M1735.4 445.144C1673.71 501.507 1594.38 539.34 1508.16 553.533C1472.53 559.399 1438.8 563.129 1417.63 561.821C1218.97 549.56 1240.7 676.434 1240.7 676.434L1259.94 724C1259.94 724 1269.08 593.442 1457.22 634.545C1484.18 640.436 1781.81 585.678 1802.76 586.008L1812 367L1735.4 445.144Z" fill="url(#paint4_linear_557_959)"/>
<path d="M-91.4399 -33.5907C123.661 -43.5823 318.226 -150.256 434.29 225.267C464.195 322.024 639.355 374.375 697.825 346.414C773.005 310.463 888.485 268.972 958.531 449.587C1028.58 630.202 1152.33 555.434 1152.33 555.434L1120.12 601.232C1120.12 601.232 1017.33 699.063 915.094 527.969C812.858 356.875 737.974 435.094 647.029 454.084C585.093 467.015 442.992 445.742 318.844 304.005C244.381 218.995 64.8683 89.2893 -91.4399 133.484" fill="url(#paint5_linear_557_959)"/>
<g filter="url(#filter0_d_557_959)">
<path d="M1200.76 673.453C1179.09 673.453 1158.72 665.016 1143.4 649.693C1128.09 634.374 1119.65 614.004 1119.65 592.337C1119.65 573.829 1126.04 555.726 1137.66 541.366C1149.1 527.211 1165.12 517.219 1182.77 513.223C1188.64 511.896 1194.69 511.221 1200.76 511.221C1222.42 511.221 1242.79 519.658 1258.11 534.981C1273.43 550.3 1281.87 570.67 1281.87 592.337C1281.87 614.004 1273.43 634.374 1258.11 649.693C1242.79 665.012 1222.42 673.453 1200.76 673.453Z" fill="#FFBFD4"/>
</g>
<path d="M1739.25 600.682C1739.25 600.682 1720.91 587.506 1702.82 584.973C1689 583.035 1673.75 600.747 1665.72 606.393C1653.19 615.209 1650.49 613.7 1643.6 608.718C1630.3 599.101 1610.59 584.984 1603.65 580.714C1597.7 577.055 1589.1 572.751 1580.2 571.512C1572.87 570.491 1565.33 571.546 1558.9 576.752C1544.67 588.279 1536 604.725 1524.32 603.875C1502.17 602.264 1480.93 581.283 1454.49 580.711C1428.04 580.142 1410.43 610.261 1396.18 609.976C1367.25 609.396 1337.3 573.95 1296.01 571.656C1253.57 569.297 1221.78 613.556 1198.87 610.655C1171.06 607.136 1153.78 548.271 1110.04 548.271C1066.31 548.271 1048.56 607.747 1011.27 615.205V649.647L1739.25 659.389" fill="#FFCFE9"/>
<path d="M1739.25 600.682C1739.25 600.682 1720.91 587.506 1702.82 584.973C1689 583.035 1673.75 600.747 1665.72 606.393C1653.19 615.209 1650.49 613.7 1643.6 608.718C1630.3 599.101 1610.59 584.984 1603.65 580.714C1597.7 577.055 1589.1 572.751 1580.2 571.512C1572.87 570.491 1565.33 571.546 1558.9 576.752C1544.67 588.279 1536 604.725 1524.32 603.875C1502.17 602.264 1480.93 581.283 1454.49 580.711C1428.04 580.142 1410.43 610.261 1396.18 609.976C1367.25 609.396 1337.3 573.95 1296.01 571.656C1253.57 569.297 1221.78 613.556 1198.87 610.655C1171.06 607.136 1153.78 548.271 1110.04 548.271C1066.31 548.271 1048.56 607.747 1011.27 615.205V649.647L1739.25 659.389" stroke="white" stroke-linecap="round" stroke-linejoin="round"/>
<path d="M1739.37 612.911C1739.37 612.911 1721.03 599.735 1702.94 597.202C1689.12 595.264 1673.87 612.976 1665.84 618.622C1653.31 627.438 1650.61 625.929 1643.72 620.947C1630.42 611.33 1610.71 597.213 1603.77 592.943C1597.82 589.284 1589.22 584.98 1580.32 583.741C1572.99 582.72 1565.45 583.775 1559.02 588.981C1544.79 600.508 1536.12 616.954 1524.44 616.104C1502.29 614.493 1481.05 593.512 1454.61 592.94C1428.16 592.371 1410.55 622.49 1396.3 622.205C1367.37 621.625 1337.42 586.179 1296.13 583.885C1253.69 581.526 1221.9 625.785 1198.99 622.884C1171.18 619.365 1153.9 560.5 1110.16 560.5C1066.43 560.5 1048.68 619.976 1011.39 627.434V661.876L1739.37 671.618" fill="#F63DFF"/>
<path d="M1739.37 612.911C1739.37 612.911 1721.03 599.735 1702.94 597.202C1689.12 595.264 1673.87 612.976 1665.84 618.622C1653.31 627.438 1650.61 625.929 1643.72 620.947C1630.42 611.33 1610.71 597.213 1603.77 592.943C1597.82 589.284 1589.22 584.98 1580.32 583.741C1572.99 582.72 1565.45 583.775 1559.02 588.981C1544.79 600.508 1536.12 616.954 1524.44 616.104C1502.29 614.493 1481.05 593.512 1454.61 592.94C1428.16 592.371 1410.55 622.49 1396.3 622.205C1367.37 621.625 1337.42 586.179 1296.13 583.885C1253.69 581.526 1221.9 625.785 1198.99 622.884C1171.18 619.365 1153.9 560.5 1110.16 560.5C1066.43 560.5 1048.68 619.976 1011.39 627.434V661.876L1739.37 671.618" stroke="white" stroke-linecap="round" stroke-linejoin="round"/>
<path d="M1739.56 623.775C1739.56 623.775 1721.22 610.598 1703.13 608.065C1689.31 606.128 1674.06 623.84 1666.03 629.486C1653.5 638.302 1650.8 636.793 1643.91 631.81C1630.61 622.194 1610.9 608.077 1603.96 603.807C1598.01 600.148 1589.41 595.844 1580.51 594.604C1573.18 593.584 1565.64 594.638 1559.21 599.845C1544.98 611.372 1536.31 627.817 1524.63 626.968C1502.48 625.356 1481.24 604.376 1454.8 603.803C1428.35 603.235 1410.74 633.354 1396.49 633.069C1367.56 632.489 1337.61 597.042 1296.32 594.748C1253.88 592.39 1222.09 636.649 1199.18 633.748C1171.37 630.229 1154.09 571.364 1110.35 571.364C1103.96 571.364 1098.13 572.607 1092.72 574.761C1060.74 587.483 1043.29 631.935 1011.39 638.317L1011.58 672.74L1739.56 682.481" fill="url(#paint6_linear_557_959)"/>
<path d="M1739.56 623.775C1739.56 623.775 1721.22 610.598 1703.13 608.065C1689.31 606.128 1674.06 623.84 1666.03 629.486C1653.5 638.302 1650.8 636.793 1643.91 631.81C1630.61 622.194 1610.9 608.077 1603.96 603.807C1598.01 600.148 1589.41 595.844 1580.51 594.604C1573.18 593.584 1565.64 594.638 1559.21 599.845C1544.98 611.372 1536.31 627.817 1524.63 626.968C1502.48 625.356 1481.24 604.376 1454.8 603.803C1428.35 603.235 1410.74 633.354 1396.49 633.069C1367.56 632.489 1337.61 597.042 1296.32 594.748C1253.88 592.39 1222.09 636.649 1199.18 633.748C1171.37 630.229 1154.09 571.364 1110.35 571.364C1103.96 571.364 1098.13 572.607 1092.72 574.761C1060.74 587.483 1043.29 631.935 1011.39 638.317L1011.58 672.74L1739.56 682.481" stroke="white" stroke-linecap="round" stroke-linejoin="round"/>
<path d="M1567.87 617.094C1566.57 616.025 1562.02 617.761 1558.35 620.021C1555.04 622.054 1549.89 622.274 1549.81 624.022C1549.74 625.77 1557.91 624.094 1562.16 623.407C1566.41 622.721 1571.14 619.767 1567.87 617.094Z" fill="#9FEDFF"/>
<path d="M1448.75 633.354C1446.91 631.867 1440.54 634.355 1435.41 637.562C1430.79 640.448 1423.55 640.812 1423.47 643.269C1423.39 645.726 1434.83 643.288 1440.79 642.28C1446.75 641.271 1453.36 637.077 1448.75 633.357V633.354Z" fill="#9FEDFF"/>
<path d="M1591.95 598.381C1591.95 598.381 1609.07 608.57 1599.97 612.153C1590.87 615.737 1582.56 611.274 1580.1 613.841C1578.93 615.058 1580.31 617.902 1579.93 619.794C1579.49 622.001 1573.47 623.317 1574.86 626.919C1577.99 634.996 1615.14 623.931 1619.56 630.87C1619.56 630.87 1623.98 635.864 1615.46 635.864C1608.01 635.864 1609.72 644.343 1615.89 646.368C1620.88 648.002 1625.32 646.936 1628.67 645.063C1637.76 639.99 1637.21 638.458 1644.77 636.501C1646.08 636.164 1649.63 635.765 1649.63 635.765L1647.17 634.036C1639.67 628.747 1629.75 621.694 1622.97 616.798C1611.91 608.813 1602 601.422 1591.94 598.377L1591.95 598.381Z" fill="#9FEDFF"/>
<path d="M1589.69 601.578C1589.69 601.578 1592.05 603.277 1589.65 605.123C1587.25 606.97 1581.82 608.631 1578.15 606.822C1575.11 605.328 1577.65 597.816 1580.16 597.543C1582.66 597.27 1587.58 600.205 1589.69 601.578Z" fill="#9FEDFF"/>
<path d="M1469.69 641.153C1469.69 641.153 1472.05 642.852 1469.65 644.699C1467.24 646.546 1461.82 648.206 1458.14 646.398C1455.1 644.904 1457.65 637.392 1460.15 637.119C1462.66 636.846 1467.58 639.781 1469.69 641.153Z" fill="#9FEDFF"/>
<path d="M1454.79 603.803C1454.79 603.803 1479.37 616.131 1470.73 620.196C1461.44 624.564 1461.12 628.936 1466.69 633.274C1475.23 639.91 1477.17 637.024 1485.63 643.865C1498.95 654.634 1473.07 643.008 1471.78 650.436C1471.78 650.447 1471.77 650.451 1471.78 650.455C1482.96 659.715 1493.95 652.787 1501.66 644.756C1501.74 644.672 1501.82 644.589 1501.9 644.509C1514.01 632.917 1526.85 626.926 1526.85 626.926C1513.01 626.35 1499.86 619.126 1499.86 619.126C1499.86 619.126 1471.93 602.567 1454.79 603.807V603.803Z" fill="#9FEDFF"/>
<path d="M1481.04 623.741C1479.13 622.346 1480.16 619.756 1483.22 620.26C1488.17 621.075 1490.17 622.357 1493.19 624.261C1506.23 632.485 1487.22 628.25 1481.04 623.741Z" fill="#FF99CC"/>
<path d="M1300.51 595.097C1300.51 595.097 1314.81 600.486 1310.97 603.098C1307.14 605.715 1298.29 608.71 1296.33 611.118C1293.86 614.159 1298.95 617.378 1296.33 620.787C1295.19 622.277 1293.39 622.463 1291.65 622.717C1288.21 623.214 1286.84 627.423 1289.29 629.884C1293.42 634.032 1304.89 642.803 1315.71 637.1C1324.17 632.648 1312.43 627.328 1344.18 623.533C1356.15 622.099 1373.92 626.923 1373.92 626.923C1373.92 626.923 1324.12 593.888 1300.51 595.101V595.097Z" fill="#9FEDFF"/>
<path d="M1283.56 595.397C1283.56 595.397 1300.21 598.067 1295.79 602.658C1291.37 607.247 1288.99 607.85 1288.31 611.63C1287.63 615.411 1281.34 618.471 1274.2 613.879C1267.06 609.29 1261.08 602.617 1261.08 602.617C1261.08 602.617 1275.05 595.397 1283.56 595.397Z" fill="#9FEDFF"/>
<path d="M1278.29 624.208C1278.82 624.147 1279 623.468 1278.57 623.161C1277.83 622.642 1276.75 622.061 1275.48 621.948C1274.02 621.815 1273.04 622.634 1272.51 623.286C1272.23 623.631 1272.44 624.151 1272.88 624.219C1273.84 624.367 1275.61 624.511 1278.29 624.211V624.208Z" fill="#9FEDFF"/>
<path d="M1263.29 622.035C1267.51 619.824 1266.38 614.565 1261.63 614.568C1260.14 614.568 1258.54 614.948 1256.96 615.964C1250.72 619.945 1242.55 622.649 1240.43 626.953C1240.43 626.953 1252.3 627.794 1263.3 622.035H1263.29Z" fill="#9FEDFF"/>
<path d="M1111.31 571.455C1111.31 571.455 1130.14 580.441 1122.61 584.245C1115.07 588.048 1105.11 581.587 1097.79 589.125C1095.56 591.423 1087.63 590.388 1086.55 595.582C1085.2 602.04 1101.33 596.034 1106.46 595.063C1119.38 592.621 1121.39 596.53 1123.15 598.434C1125.83 601.342 1135.26 608.498 1129.33 610.651C1123.42 612.805 1105.92 603.799 1097.79 610.651C1088.64 618.357 1099.19 622.224 1095.16 625.455C1091.12 628.686 1082 627.01 1081.99 632.72C1081.97 638.965 1097.79 632.451 1108.47 635.352C1117.37 637.767 1121.39 645.101 1131.04 646.371C1137.52 647.22 1141.67 637.13 1159.47 628.955C1169.43 624.386 1184.08 626.361 1184.08 626.361C1184.08 626.361 1175.88 619.066 1169.66 611.626C1160.01 600.091 1146.32 583.543 1131.48 576.354C1124 572.729 1117.87 571.667 1111.32 571.451L1111.31 571.455Z" fill="#9FEDFF"/>
<path d="M1089.91 616.745C1089.91 616.745 1092.27 618.444 1089.87 620.291C1087.47 622.137 1082.04 623.798 1078.36 621.989C1075.33 620.495 1077.87 612.984 1080.38 612.711C1082.88 612.438 1087.8 615.373 1089.91 616.745Z" fill="#9FEDFF"/>
<path d="M1260.9 630.786C1259.59 629.717 1255.04 631.454 1251.37 633.714C1248.07 635.746 1242.91 635.966 1242.84 637.714C1242.77 639.462 1250.93 637.786 1255.18 637.1C1259.44 636.414 1264.16 633.46 1260.9 630.786Z" fill="#9FEDFF"/>
<path d="M1208.57 643.876L480.586 653.618V597.79C480.586 597.79 498.93 587.252 517.019 584.719C530.84 582.781 546.086 594.976 554.112 600.622C566.647 609.438 569.347 607.929 576.236 602.947C589.533 593.33 609.242 579.213 616.184 574.943C622.133 571.284 630.733 566.98 639.636 565.741C646.968 564.72 654.502 565.775 660.933 570.981C675.17 582.508 683.838 598.954 695.512 598.104C717.67 596.493 738.907 575.512 765.349 574.94C791.792 574.371 809.408 604.49 823.66 604.205C852.59 603.625 882.536 568.179 923.827 565.885C966.262 563.526 998.054 607.785 1020.97 604.884C1048.77 601.365 1066.06 542.5 1109.79 542.5C1153.53 542.5 1171.27 601.976 1208.57 609.434" fill="#FFCFE9"/>
<path d="M1208.57 643.876L480.586 653.618V597.79C480.586 597.79 498.93 587.252 517.019 584.719C530.84 582.781 546.086 594.976 554.112 600.622C566.647 609.438 569.347 607.929 576.236 602.947C589.533 593.33 609.242 579.213 616.184 574.943C622.133 571.284 630.733 566.98 639.636 565.741C646.968 564.72 654.502 565.775 660.933 570.981C675.17 582.508 683.838 598.954 695.512 598.104C717.67 596.493 738.907 575.512 765.349 574.94C791.792 574.371 809.408 604.49 823.66 604.205C852.59 603.625 882.536 568.179 923.827 565.885C966.262 563.526 998.054 607.785 1020.97 604.884C1048.77 601.365 1066.06 542.5 1109.79 542.5C1153.53 542.5 1171.27 601.976 1208.57 609.434" stroke="white" stroke-linecap="round" stroke-linejoin="round"/>
<path d="M1208.45 656.105L480.465 665.846V610.018C480.465 610.018 498.809 599.481 516.898 596.948C530.719 595.01 545.965 607.205 553.991 612.851C566.526 621.667 569.226 620.158 576.115 615.175C589.412 605.559 609.121 591.442 616.063 587.172C622.012 583.513 630.612 579.209 639.514 577.969C646.847 576.949 654.381 578.003 660.812 583.21C675.049 594.737 683.717 611.182 695.391 610.333C717.549 608.722 738.786 587.741 765.228 587.168C791.671 586.6 809.287 616.719 823.539 616.434C852.469 615.854 882.415 580.407 923.705 578.113C966.141 575.755 997.933 620.014 1020.85 617.113C1048.65 613.594 1065.94 554.729 1109.67 554.729C1153.41 554.729 1171.15 614.205 1208.45 621.663" fill="#F63DFF"/>
<path d="M1208.45 656.105L480.465 665.846V610.018C480.465 610.018 498.809 599.481 516.898 596.948C530.719 595.01 545.965 607.205 553.991 612.851C566.526 621.667 569.226 620.158 576.115 615.175C589.412 605.559 609.121 591.442 616.063 587.172C622.012 583.513 630.612 579.209 639.514 577.969C646.847 576.949 654.381 578.003 660.812 583.21C675.049 594.737 683.717 611.182 695.391 610.333C717.549 608.722 738.786 587.741 765.228 587.168C791.671 586.6 809.287 616.719 823.539 616.434C852.469 615.854 882.415 580.407 923.705 578.113C966.141 575.755 997.933 620.014 1020.85 617.113C1048.65 613.594 1065.94 554.729 1109.67 554.729C1153.41 554.729 1171.15 614.205 1208.45 621.663" stroke="white" stroke-linecap="round" stroke-linejoin="round"/>
<path d="M1208.81 666.357L480 676V620.733C480 620.733 498.365 610.302 516.475 607.794C530.311 605.876 545.574 617.948 553.61 623.537C566.159 632.265 568.862 630.771 575.759 625.839C589.072 616.319 608.803 602.344 615.753 598.117C621.709 594.495 630.318 590.234 639.231 589.007C646.572 587.997 654.114 589.041 660.552 594.194C674.806 605.606 683.483 621.886 695.171 621.045C717.354 619.45 738.615 598.68 765.088 598.113C791.56 597.55 809.196 627.366 823.465 627.085C852.428 626.511 882.408 591.42 923.745 589.149C966.229 586.815 998.058 630.628 1021 627.757C1048.84 624.273 1066.14 566 1109.92 566C1116.32 566 1122.16 567.231 1127.57 569.363C1159.59 581.957 1177.07 625.962 1209 632.28" fill="url(#paint7_linear_557_959)"/>
<path d="M1208.81 666.357L480 676V620.733C480 620.733 498.365 610.302 516.475 607.794C530.311 605.876 545.574 617.948 553.61 623.537C566.159 632.265 568.862 630.771 575.759 625.839C589.072 616.319 608.803 602.344 615.753 598.117C621.709 594.495 630.318 590.234 639.231 589.007C646.572 587.997 654.114 589.041 660.552 594.194C674.806 605.606 683.483 621.886 695.171 621.045C717.354 619.45 738.615 598.68 765.088 598.113C791.56 597.55 809.196 627.366 823.465 627.085C852.428 626.511 882.408 591.42 923.745 589.149C966.229 586.815 998.058 630.628 1021 627.757C1048.84 624.273 1066.14 566 1109.92 566C1116.32 566 1122.16 567.231 1127.57 569.363C1159.59 581.957 1177.07 625.962 1209 632.28" stroke="white" stroke-linecap="round" stroke-linejoin="round"/>
<path d="M651.962 611.323C653.267 610.253 657.816 611.99 661.487 614.25C664.793 616.282 669.95 616.502 670.022 618.25C670.094 619.998 661.927 618.323 657.676 617.636C653.426 616.95 648.698 613.996 651.962 611.323Z" fill="#9FEDFF"/>
<path d="M771.086 627.582C772.929 626.096 779.295 628.583 784.425 631.791C789.043 634.677 796.281 635.041 796.364 637.498C796.448 639.955 785.001 637.517 779.041 636.508C773.084 635.5 766.475 631.306 771.086 627.586V627.582Z" fill="#9FEDFF"/>
<path d="M627.889 592.61C627.889 592.61 610.763 602.798 619.866 606.382C628.97 609.965 637.274 605.502 639.738 608.069C640.906 609.286 639.53 612.13 639.905 614.023C640.345 616.229 646.362 617.545 644.971 621.148C641.846 629.224 604.693 618.159 600.279 625.099C600.279 625.099 595.854 630.093 604.37 630.093C611.821 630.093 610.118 638.571 603.946 640.596C598.96 642.23 594.52 641.165 591.168 639.292C582.076 634.218 582.625 632.686 575.065 630.73C573.757 630.392 570.208 629.994 570.208 629.994L572.661 628.265C580.161 622.975 590.087 615.922 596.867 611.027C607.927 603.041 617.83 595.651 627.893 592.606L627.889 592.61Z" fill="#9FEDFF"/>
<path d="M630.145 595.806C630.145 595.806 627.783 597.505 630.183 599.352C632.587 601.198 638.013 602.859 641.69 601.051C644.728 599.557 642.183 592.045 639.677 591.772C637.171 591.499 632.253 594.434 630.145 595.806Z" fill="#9FEDFF"/>
<path d="M750.149 635.379C750.149 635.379 747.787 637.077 750.187 638.924C752.591 640.771 758.017 642.431 761.694 640.623C764.731 639.129 762.187 631.617 759.681 631.344C757.175 631.071 752.257 634.006 750.149 635.379Z" fill="#9FEDFF"/>
<path d="M765.043 598.032C765.043 598.032 740.469 610.36 749.11 614.425C758.4 618.793 758.718 623.165 753.145 627.503C744.61 634.139 742.665 631.253 734.206 638.094C720.89 648.863 746.767 637.237 748.056 644.665C748.056 644.676 748.068 644.68 748.056 644.684C736.879 653.944 725.887 647.016 718.175 638.985C718.095 638.901 718.016 638.818 717.932 638.738C705.826 627.146 692.987 621.155 692.987 621.155C706.827 620.579 719.976 613.355 719.976 613.355C719.976 613.355 747.908 596.796 765.043 598.036V598.032Z" fill="#9FEDFF"/>
<path d="M738.793 617.97C740.704 616.575 739.676 613.985 736.617 614.489C731.665 615.304 729.663 616.586 726.645 618.489C713.609 626.714 732.617 622.478 738.793 617.97Z" fill="#FF99CC"/>
<path d="M919.322 589.326C919.322 589.326 905.028 594.715 908.861 597.327C912.694 599.944 921.544 602.939 923.504 605.347C925.98 608.388 920.888 611.607 923.504 615.016C924.649 616.506 926.447 616.692 928.183 616.946C931.622 617.443 932.998 621.652 930.545 624.113C926.416 628.261 914.947 637.032 904.122 631.329C895.67 626.877 907.401 621.557 875.658 617.762C863.688 616.328 845.917 621.152 845.917 621.152C845.917 621.152 895.719 588.117 919.322 589.33V589.326Z" fill="#9FEDFF"/>
<path d="M936.278 589.625C936.278 589.625 919.629 592.295 924.047 596.887C928.467 601.475 930.845 602.078 931.527 605.859C932.206 609.639 938.496 612.699 945.636 608.107C952.775 603.519 958.751 596.845 958.751 596.845C958.751 596.845 944.787 589.625 936.278 589.625Z" fill="#9FEDFF"/>
<path d="M941.541 618.436C941.014 618.376 940.836 617.697 941.268 617.39C942.004 616.87 943.084 616.29 944.351 616.176C945.818 616.044 946.792 616.863 947.323 617.515C947.604 617.86 947.399 618.379 946.959 618.448C946 618.596 944.222 618.74 941.541 618.44V618.436Z" fill="#9FEDFF"/>
<path d="M956.541 616.264C952.321 614.053 953.454 608.794 958.205 608.797C959.699 608.797 961.291 609.177 962.88 610.193C969.114 614.174 977.281 616.878 979.404 621.182C979.404 621.182 967.536 622.023 956.537 616.264H956.541Z" fill="#9FEDFF"/>
<path d="M1108.52 565.68C1108.52 565.68 1089.69 574.667 1097.23 578.47C1104.76 582.273 1114.72 575.812 1122.04 583.35C1124.28 585.648 1132.2 584.613 1133.29 589.808C1134.63 596.265 1118.51 590.259 1113.38 589.288C1100.46 586.846 1098.45 590.756 1096.69 592.659C1094 595.567 1084.58 602.723 1090.5 604.877C1096.42 607.03 1113.91 598.025 1122.05 604.877C1131.19 612.582 1120.64 616.449 1124.68 619.68C1128.72 622.911 1137.83 621.235 1137.85 626.945C1137.87 633.191 1122.05 626.676 1111.36 629.577C1102.46 631.992 1098.45 639.326 1088.79 640.596C1082.31 641.446 1078.17 631.355 1060.36 623.18C1050.4 618.611 1035.76 620.586 1035.76 620.586C1035.76 620.586 1043.95 613.291 1050.17 605.851C1059.83 594.316 1073.51 577.768 1088.35 570.579C1095.83 566.954 1101.96 565.892 1108.52 565.676L1108.52 565.68Z" fill="#9FEDFF"/>
<path d="M1129.92 610.97C1129.92 610.97 1127.56 612.669 1129.96 614.516C1132.36 616.362 1137.79 618.023 1141.47 616.214C1144.5 614.72 1141.96 607.209 1139.45 606.936C1136.95 606.663 1132.03 609.597 1129.92 610.97Z" fill="#9FEDFF"/>
<path d="M958.937 625.015C960.241 623.946 964.791 625.683 968.461 627.943C971.768 629.975 976.924 630.195 976.996 631.943C977.068 633.691 968.901 632.015 964.651 631.329C960.401 630.642 955.672 627.689 958.937 625.015Z" fill="#9FEDFF"/>
<path d="M547.034 595.67C547.034 595.67 528.69 582.493 510.6 579.96C496.78 578.022 481.534 595.734 473.507 601.38C460.972 610.197 458.272 608.687 451.383 603.705C438.086 594.089 418.377 579.971 411.435 575.702C405.486 572.043 396.887 567.739 387.984 566.499C380.651 565.479 373.117 566.533 366.687 571.739C352.449 583.267 343.782 599.712 332.107 598.863C309.949 597.251 288.713 576.271 262.27 575.698C235.827 575.129 218.212 605.248 203.959 604.964C175.029 604.384 145.083 568.937 103.793 566.643C61.3575 564.284 29.5651 608.543 6.64871 605.642C-21.155 602.124 -38.4371 543.258 -82.1731 543.258C-125.909 543.258 -143.654 602.734 -180.948 610.193V644.635L547.037 654.376" fill="#FFCFE9"/>
<path d="M547.034 595.67C547.034 595.67 528.69 582.493 510.6 579.96C496.78 578.022 481.534 595.734 473.507 601.38C460.972 610.197 458.272 608.687 451.383 603.705C438.086 594.089 418.377 579.971 411.435 575.702C405.486 572.043 396.887 567.739 387.984 566.499C380.651 565.479 373.117 566.533 366.687 571.739C352.449 583.267 343.782 599.712 332.107 598.863C309.949 597.251 288.713 576.271 262.27 575.698C235.827 575.129 218.212 605.248 203.959 604.964C175.029 604.384 145.083 568.937 103.793 566.643C61.3575 564.284 29.5651 608.543 6.64871 605.642C-21.155 602.124 -38.4371 543.258 -82.1731 543.258C-125.909 543.258 -143.654 602.734 -180.948 610.193V644.635L547.037 654.376" stroke="white" stroke-linecap="round" stroke-linejoin="round"/>
<path d="M547.155 607.899C547.155 607.899 528.811 594.722 510.721 592.189C496.901 590.251 481.655 607.963 473.628 613.609C461.093 622.426 458.394 620.916 451.504 615.934C438.207 606.318 418.498 592.2 411.556 587.931C405.607 584.272 397.008 579.968 388.105 578.728C380.772 577.708 373.238 578.762 366.808 583.968C352.57 595.496 343.903 611.941 332.228 611.092C310.07 609.48 288.834 588.5 262.391 587.927C235.949 587.358 218.333 617.477 204.08 617.193C175.15 616.613 145.204 581.166 103.914 578.872C61.4786 576.513 29.6861 620.772 6.76978 617.871C-21.034 614.353 -38.316 555.487 -82.052 555.487C-125.788 555.487 -143.533 614.963 -180.827 622.422V656.864L547.158 666.605" fill="#F63DFF"/>
<path d="M547.155 607.899C547.155 607.899 528.811 594.722 510.721 592.189C496.901 590.251 481.655 607.963 473.628 613.609C461.093 622.426 458.394 620.916 451.504 615.934C438.207 606.318 418.498 592.2 411.556 587.931C405.607 584.272 397.008 579.968 388.105 578.728C380.772 577.708 373.238 578.762 366.808 583.968C352.57 595.496 343.903 611.941 332.228 611.092C310.07 609.48 288.834 588.5 262.391 587.927C235.949 587.358 218.333 617.477 204.08 617.193C175.15 616.613 145.205 581.166 103.914 578.872C61.4786 576.513 29.6861 620.772 6.76978 617.871C-21.0339 614.353 -38.316 555.487 -82.052 555.487C-125.788 555.487 -143.533 614.963 -180.827 622.422V656.864L547.158 666.605" stroke="white" stroke-linecap="round" stroke-linejoin="round"/>
<path d="M547.344 618.759C547.344 618.759 529.001 605.582 510.911 603.049C497.091 601.111 481.845 618.823 473.818 624.469C461.283 633.285 458.583 631.776 451.694 626.794C438.397 617.177 418.688 603.06 411.746 598.791C405.797 595.131 397.197 590.828 388.295 589.588C380.962 588.568 373.428 589.622 366.997 594.828C352.76 606.355 344.092 622.801 332.418 621.951C310.26 620.34 289.023 599.359 262.581 598.787C236.138 598.218 218.522 628.337 204.27 628.053C175.34 627.472 145.394 592.026 104.104 589.732C61.6682 587.373 29.8757 631.632 6.95937 628.731C-20.8444 625.212 -38.1264 566.347 -81.8624 566.347C-88.255 566.347 -94.0865 567.591 -99.4933 569.745C-131.475 582.466 -148.928 626.919 -180.827 633.301L-180.637 667.723L547.348 677.465" fill="url(#paint8_linear_557_959)"/>
<path d="M547.344 618.759C547.344 618.759 529.001 605.582 510.911 603.049C497.091 601.111 481.845 618.823 473.818 624.469C461.283 633.285 458.583 631.776 451.694 626.794C438.397 617.177 418.688 603.06 411.746 598.791C405.797 595.131 397.197 590.828 388.295 589.588C380.962 588.568 373.428 589.622 366.997 594.828C352.76 606.355 344.092 622.801 332.418 621.951C310.26 620.34 289.023 599.359 262.581 598.787C236.138 598.218 218.522 628.337 204.27 628.053C175.34 627.472 145.394 592.026 104.104 589.732C61.6682 587.373 29.8757 631.632 6.95936 628.731C-20.8444 625.212 -38.1264 566.347 -81.8624 566.347C-88.255 566.347 -94.0865 567.591 -99.4933 569.745C-131.475 582.466 -148.928 626.919 -180.827 633.301L-180.637 667.723L547.348 677.465" stroke="white" stroke-linecap="round" stroke-linejoin="round"/>
<path d="M375.654 612.081C374.349 611.012 369.799 612.748 366.129 615.008C362.823 617.041 357.666 617.261 357.594 619.009C357.522 620.757 365.689 619.081 369.94 618.394C374.19 617.708 378.918 614.754 375.654 612.081Z" fill="#9FEDFF"/>
<path d="M256.533 628.341C254.69 626.854 248.324 629.342 243.194 632.55C238.576 635.435 231.338 635.799 231.254 638.256C231.171 640.713 242.618 638.275 248.578 637.267C254.535 636.258 261.143 632.064 256.533 628.344V628.341Z" fill="#9FEDFF"/>
<path d="M399.727 593.368C399.727 593.368 416.854 603.557 407.75 607.14C398.646 610.723 390.343 606.26 387.878 608.828C386.71 610.045 388.087 612.889 387.711 614.781C387.272 616.988 381.254 618.304 382.646 621.906C385.77 629.983 422.924 618.918 427.337 625.857C427.337 625.857 431.762 630.851 423.246 630.851C415.796 630.851 417.498 639.329 423.671 641.354C428.657 642.989 433.097 641.923 436.449 640.05C445.541 634.976 444.991 633.444 452.551 631.488C453.859 631.15 457.408 630.752 457.408 630.752L454.955 629.023C447.455 623.733 437.529 616.681 430.75 611.785C419.69 603.799 409.786 596.409 399.723 593.364L399.727 593.368Z" fill="#9FEDFF"/>
<path d="M397.474 596.565C397.474 596.565 399.836 598.263 397.436 600.11C395.032 601.957 389.606 603.618 385.928 601.809C382.891 600.315 385.436 592.803 387.942 592.53C390.448 592.257 395.366 595.192 397.474 596.565Z" fill="#9FEDFF"/>
<path d="M277.471 636.137C277.471 636.137 279.833 637.836 277.433 639.682C275.029 641.529 269.603 643.19 265.926 641.381C262.888 639.887 265.433 632.375 267.939 632.102C270.445 631.829 275.363 634.764 277.471 636.137Z" fill="#9FEDFF"/>
<path d="M262.577 598.791C262.577 598.791 287.15 611.118 278.509 615.183C269.22 619.551 268.902 623.923 274.475 628.261C283.01 634.897 284.955 632.011 293.414 638.852C306.73 649.621 280.853 637.995 279.563 645.423C279.563 645.435 279.552 645.438 279.563 645.442C290.741 654.702 301.733 647.774 309.445 639.743C309.525 639.66 309.604 639.576 309.688 639.497C321.794 627.905 334.633 621.913 334.633 621.913C320.793 621.337 307.644 614.114 307.644 614.114C307.644 614.114 279.711 597.554 262.577 598.794V598.791Z" fill="#9FEDFF"/>
<path d="M288.826 618.728C286.915 617.333 287.943 614.743 291.003 615.247C295.954 616.063 297.956 617.344 300.974 619.248C314.01 627.472 295.003 623.237 288.826 618.728Z" fill="#FF99CC"/>
<path d="M108.297 590.084C108.297 590.084 122.592 595.473 118.758 598.085C114.925 600.702 106.076 603.697 104.115 606.105C101.639 609.146 106.732 612.366 104.115 615.775C102.97 617.265 101.173 617.451 99.4365 617.705C95.9975 618.201 94.6212 622.41 97.0743 624.871C101.203 629.02 112.673 637.79 123.498 632.087C131.949 627.636 120.218 622.316 151.961 618.52C163.931 617.087 181.703 621.91 181.703 621.91C181.703 621.91 131.9 588.875 108.297 590.088V590.084Z" fill="#9FEDFF"/>
<path d="M91.3414 590.384C91.3414 590.384 107.99 593.053 103.573 597.645C99.1521 602.233 96.7747 602.836 96.0923 606.617C95.4136 610.397 89.1233 613.457 81.9838 608.865C74.8442 604.277 68.8687 597.604 68.8687 597.604C68.8687 597.604 82.8331 590.384 91.3414 590.384Z" fill="#9FEDFF"/>
<path d="M86.0786 619.195C86.6057 619.134 86.7839 618.455 86.3516 618.148C85.6161 617.629 84.5355 617.048 83.2691 616.935C81.8017 616.802 80.8273 617.621 80.2965 618.273C80.0159 618.618 80.2206 619.138 80.6604 619.206C81.6197 619.354 83.398 619.498 86.0786 619.198V619.195Z" fill="#9FEDFF"/>
<path d="M71.0752 617.022C75.2952 614.811 74.1615 609.552 69.4107 609.556C67.9168 609.556 66.3243 609.935 64.7356 610.951C58.5023 614.933 50.3352 617.636 48.2119 621.94C48.2119 621.94 60.0796 622.782 71.079 617.022H71.0752Z" fill="#9FEDFF"/>
<path d="M68.6829 625.774C67.3786 624.704 62.8286 626.441 59.1584 628.701C55.8521 630.734 50.6956 630.954 50.6235 632.702C50.5515 634.45 58.7186 632.774 62.9689 632.087C67.2193 631.401 71.9474 628.447 68.6829 625.774Z" fill="#9FEDFF"/>
<path d="M486.823 644.453C486.823 644.453 489.545 640.6 493.735 639.216C496.916 638.166 500.439 638.586 502.114 639.216C503.79 639.845 498.971 643.406 494.467 644.453C489.962 645.499 485.564 648.851 484.514 648.434C483.467 648.013 486.819 644.453 486.819 644.453H486.823Z" fill="#FF99CC"/>
<path d="M530.453 621.322C529.926 621.261 529.748 620.583 530.18 620.276C530.916 619.756 531.996 619.176 533.263 619.062C534.73 618.929 535.705 619.748 536.235 620.401C536.516 620.746 536.311 621.265 535.871 621.333C534.912 621.481 533.134 621.625 530.453 621.326V621.322Z" fill="#9FEDFF"/>
<path d="M539.154 627.886C540.402 626.752 545.031 628.265 548.815 630.335C552.216 632.201 557.38 632.163 557.54 633.907C557.699 635.652 549.456 634.381 545.179 633.907C540.898 633.433 536.03 630.718 539.158 627.886H539.154Z" fill="#9FEDFF"/>
<path d="M768.159 603.629C771.242 602.109 779.473 607.652 785.726 613.829C791.356 619.388 801.499 622.202 800.835 625.706C800.172 629.213 784.725 622.122 776.603 618.8C768.482 615.479 760.447 607.44 768.159 603.629Z" fill="#9FEDFF"/>
<path d="M601.992 617.386C601.992 617.386 605.109 612.642 608.768 612.642C612.427 612.642 615.68 617.386 615.68 617.386C615.68 617.386 611.615 616.161 608.836 616.229C606.057 616.301 605.245 616.028 601.992 617.386Z" fill="#FF99CC"/>
<path d="M568.032 642.189C563.812 639.978 564.945 634.719 569.696 634.723C571.19 634.723 572.783 635.102 574.371 636.118C580.605 640.1 588.772 642.803 590.895 647.107C590.895 647.107 579.027 647.949 568.028 642.189H568.032Z" fill="#9FEDFF"/>
<path d="M1060.53 616.62C1060.53 616.62 1066.66 607.296 1073.85 607.296C1081.04 607.296 1087.44 616.62 1087.44 616.62C1087.44 616.62 1079.44 614.212 1073.98 614.349C1068.52 614.485 1066.92 613.954 1060.53 616.62Z" fill="#FF99CC"/>
<path d="M894.412 600.952C896.486 600.383 898.563 601.555 899.424 603.523C899.849 604.493 900.979 605.457 903.538 606.018C910.124 607.459 896.543 610.341 894.07 610.75C891.602 611.16 887.075 610.75 884.398 609.105C882.32 607.823 888.072 602.689 894.412 600.948V600.952Z" fill="url(#paint9_linear_557_959)"/>
<path d="M571.702 522.774C571.702 522.774 574.8 516.836 578.675 518.641C582.546 520.45 578.675 529.486 578.675 529.486C578.675 529.486 580.999 525.615 582.807 527.162C584.616 528.713 582.807 533.1 582.807 533.1C582.807 533.1 586.163 529.744 588.487 531.549C590.811 533.354 590.296 535.163 590.296 535.163C590.296 535.163 594.686 533.354 596.233 535.163C597.784 536.971 597.523 538.261 597.523 538.261C597.523 538.261 606.52 534.253 606.558 539.482C606.607 546.326 550.12 541.851 550.12 541.851C548.573 541.851 547.311 540.6 547.311 539.049C547.311 536.535 548.422 533.615 554.439 536.232C554.458 536.239 554.477 536.221 554.465 536.202C554.097 535.678 551.5 531.826 554.147 530.074C556.987 528.193 558.018 531.807 558.018 531.807C558.018 531.807 555.576 526.847 559.049 524.318C560.729 523.093 563.201 525.023 563.201 525.023C563.201 525.023 559.758 517.667 565.351 516.233C568.881 515.327 570.011 518.054 571.702 522.771V522.774Z" fill="#FFCCFE" stroke="white" stroke-linecap="round" stroke-linejoin="round"/>
<path d="M584.749 531.689C584.749 531.689 580.92 533.453 582.558 535.917C584.856 539.368 589.136 535.663 587.479 533.851C586.66 532.952 585.841 532.755 585 533.422C584.662 533.692 583.779 534.947 585.303 535.212" stroke="white" stroke-linecap="round" stroke-linejoin="round"/>
<path d="M557.999 531.772C557.999 531.772 560.024 536.038 563.459 532.334C565.537 530.093 562.428 526.145 560.665 527.954C558.518 530.157 561.074 532.049 561.95 530.457" stroke="white" stroke-linecap="round" stroke-linejoin="round"/>
<path d="M201.125 310.275C201.125 310.275 208.633 295.881 218.026 300.256C227.41 304.64 218.026 326.544 218.026 326.544C218.026 326.544 223.66 317.159 228.044 320.909C232.428 324.669 228.044 335.303 228.044 335.303C228.044 335.303 236.178 327.169 241.812 331.544C247.446 335.919 246.196 340.304 246.196 340.304C246.196 340.304 256.84 335.919 260.589 340.304C264.349 344.688 263.714 347.813 263.714 347.813C263.714 347.813 285.524 338.098 285.616 350.773C285.736 367.364 148.81 356.518 148.81 356.518C145.06 356.518 142 353.485 142 349.725C142 343.631 144.692 336.553 159.278 342.896C159.324 342.914 159.37 342.868 159.343 342.822C158.451 341.554 152.155 332.215 158.571 327.968C165.455 323.409 167.955 332.169 167.955 332.169C167.955 332.169 162.036 320.146 170.454 314.016C174.526 311.047 180.518 315.725 180.518 315.725C180.518 315.725 172.173 297.894 185.73 294.419C194.287 292.222 197.025 298.831 201.125 310.265V310.275Z" fill="#FFCCFE" stroke="white" stroke-linecap="round" stroke-linejoin="round"/>
<path d="M232.752 331.885C232.752 331.885 223.469 336.159 227.44 342.134C233.009 350.498 243.386 341.518 239.37 337.124C237.384 334.946 235.399 334.468 233.359 336.085C232.541 336.738 230.399 339.78 234.094 340.424" stroke="white" stroke-linecap="round" stroke-linejoin="round"/>
<path d="M167.909 332.086C167.909 332.086 172.817 342.426 181.143 333.446C186.18 328.014 178.644 318.446 174.37 322.83C169.168 328.17 175.362 332.757 177.486 328.896" stroke="white" stroke-linecap="round" stroke-linejoin="round"/>
<path d="M334.263 377.85C334.263 377.85 329.257 368.254 322.995 371.171C316.739 374.094 322.995 388.696 322.995 388.696C322.995 388.696 319.239 382.439 316.316 384.94C313.394 387.446 316.316 394.536 316.316 394.536C316.316 394.536 310.894 389.113 307.138 392.029C303.382 394.946 304.215 397.869 304.215 397.869C304.215 397.869 297.12 394.946 294.62 397.869C292.114 400.792 292.536 402.876 292.536 402.876C292.536 402.876 277.996 396.398 277.935 404.849C277.856 415.909 369.139 408.678 369.139 408.678C371.639 408.678 373.68 406.656 373.68 404.15C373.68 400.087 371.884 395.369 362.16 399.597C362.13 399.609 362.099 399.579 362.118 399.548C362.712 398.703 366.909 392.477 362.632 389.646C358.043 386.606 356.376 392.446 356.376 392.446C356.376 392.446 360.322 384.431 354.71 380.344C351.995 378.365 348 381.484 348 381.484C348 381.484 353.564 369.596 344.526 367.279C338.822 365.815 336.996 370.221 334.263 377.844V377.85Z" fill="#FFCCFE" stroke="white" stroke-linecap="round" stroke-linejoin="round"/>
<path d="M313.178 392.257C313.178 392.257 319.366 395.106 316.719 399.089C313.006 404.665 306.089 398.678 308.766 395.749C310.09 394.297 311.413 393.979 312.774 395.057C313.319 395.492 314.747 397.52 312.283 397.949" stroke="white" stroke-linecap="round" stroke-linejoin="round"/>
<path d="M356.407 392.391C356.407 392.391 353.135 399.284 347.584 393.297C344.226 389.676 349.251 383.297 352.1 386.22C355.568 389.78 351.438 392.838 350.023 390.264" stroke="white" stroke-linecap="round" stroke-linejoin="round"/>
<path d="M1567.33 490.781C1567.33 490.781 1574.61 476.824 1583.72 481.066C1592.82 485.318 1583.72 506.558 1583.72 506.558C1583.72 506.558 1589.19 497.457 1593.44 501.094C1597.69 504.739 1593.44 515.052 1593.44 515.052C1593.44 515.052 1601.32 507.164 1606.79 511.406C1612.25 515.649 1611.04 519.901 1611.04 519.901C1611.04 519.901 1621.36 515.649 1625 519.901C1628.64 524.152 1628.03 527.183 1628.03 527.183C1628.03 527.183 1649.18 517.761 1649.26 530.053C1649.38 546.141 1516.6 535.623 1516.6 535.623C1512.97 535.623 1510 532.682 1510 529.037C1510 523.127 1512.61 516.264 1526.76 522.414C1526.8 522.432 1526.84 522.387 1526.82 522.343C1525.95 521.113 1519.85 512.057 1526.07 507.939C1532.74 503.518 1535.17 512.012 1535.17 512.012C1535.17 512.012 1529.43 500.354 1537.59 494.409C1541.54 491.53 1547.35 496.067 1547.35 496.067C1547.35 496.067 1539.26 478.776 1552.41 475.406C1560.7 473.276 1563.36 479.685 1567.33 490.773V490.781Z" fill="#FFCCFE" stroke="white" stroke-linecap="round" stroke-linejoin="round"/>
<path d="M1598 511.737C1598 511.737 1589 515.882 1592.85 521.675C1598.25 529.786 1608.31 521.078 1604.42 516.817C1602.49 514.705 1600.57 514.241 1598.59 515.81C1597.8 516.443 1595.72 519.393 1599.3 520.017" stroke="white" stroke-linecap="round" stroke-linejoin="round"/>
<path d="M1535.12 511.931C1535.12 511.931 1539.88 521.959 1547.96 513.25C1552.84 507.983 1545.53 498.704 1541.39 502.956C1536.35 508.135 1542.35 512.582 1544.41 508.839" stroke="white" stroke-linecap="round" stroke-linejoin="round"/>
<path d="M1414.58 470.822C1414.58 470.822 1420.5 459.482 1427.9 462.929C1435.29 466.383 1427.9 483.641 1427.9 483.641C1427.9 483.641 1432.34 476.247 1435.79 479.201C1439.25 482.163 1435.79 490.542 1435.79 490.542C1435.79 490.542 1442.2 484.133 1446.64 487.58C1451.08 491.027 1450.09 494.482 1450.09 494.482C1450.09 494.482 1458.48 491.027 1461.43 494.482C1464.4 497.936 1463.9 500.398 1463.9 500.398C1463.9 500.398 1481.08 492.744 1481.15 502.73C1481.25 515.802 1373.37 507.256 1373.37 507.256C1370.41 507.256 1368 504.867 1368 501.905C1368 497.103 1370.12 491.527 1381.61 496.524C1381.65 496.538 1381.69 496.502 1381.66 496.466C1380.96 495.467 1376 488.109 1381.06 484.763C1386.48 481.171 1388.45 488.073 1388.45 488.073C1388.45 488.073 1383.79 478.6 1390.42 473.77C1393.63 471.431 1398.35 475.117 1398.35 475.117C1398.35 475.117 1391.77 461.068 1402.45 458.33C1409.2 456.599 1411.35 461.806 1414.58 470.815V470.822Z" fill="#FFCCFE" stroke="white" stroke-linecap="round" stroke-linejoin="round"/>
<path d="M1439.5 487.849C1439.5 487.849 1432.19 491.216 1435.32 495.923C1439.7 502.514 1447.88 495.438 1444.72 491.976C1443.15 490.26 1441.59 489.884 1439.98 491.158C1439.34 491.672 1437.65 494.069 1440.56 494.576" stroke="white" stroke-linecap="round" stroke-linejoin="round"/>
<path d="M1388.41 488.007C1388.41 488.007 1392.28 496.154 1398.84 489.079C1402.81 484.799 1396.87 477.26 1393.5 480.715C1389.41 484.922 1394.29 488.536 1395.96 485.494" stroke="white" stroke-linecap="round" stroke-linejoin="round"/>
<path d="M906.317 676.812C907.538 676.812 907.538 674.917 906.317 674.917C905.096 674.917 905.096 676.812 906.317 676.812Z" fill="#F78DFF"/>
<path d="M565.419 308.15L568.1 324.428L584.377 327.109L568.1 329.794L565.419 346.069L562.738 329.794L546.461 327.109L562.738 324.428L565.419 308.15Z" fill="white"/>
<path d="M1487.7 359L1491.67 373.936L1506.41 377.959L1491.67 381.983L1487.7 396.919L1483.74 381.983L1469 377.959L1483.74 373.936L1487.7 359Z" fill="white"/>
<path d="M139.957 456L143.977 470.94L158.915 474.959L143.977 478.983L139.957 493.919L135.935 478.983L121 474.959L135.935 470.94L139.957 456Z" fill="white"/>
<path d="M531.465 263.656L535.488 278.592L550.423 282.615L535.488 286.638L531.465 301.575L527.442 286.638L512.507 282.615L527.442 278.592L531.465 263.656Z" fill="white"/>
<path d="M538.215 83.9087L542.238 98.8487L557.173 102.868L542.238 106.891L538.215 121.828L534.196 106.891L519.257 102.868L534.196 98.8487L538.215 83.9087Z" fill="white"/>
<path d="M1498.96 169L1502.98 183.94L1517.92 187.959L1502.98 191.983L1498.96 206.919L1494.94 191.983L1480 187.959L1494.94 183.94L1498.96 169Z" fill="white"/>
<path d="M633.326 301.575L635.764 310.63L644.815 313.064L635.764 315.502L633.326 324.557L630.888 315.502L621.838 313.064L630.888 310.63L633.326 301.575Z" fill="white"/>
<path d="M880.329 301.575L882.767 310.63L891.822 313.064L882.767 315.502L880.329 324.557L877.895 315.502L868.841 313.064L877.895 310.63L880.329 301.575Z" fill="white"/>
<path d="M1329.34 84L1331.74 93.0512L1340.67 95.4894L1331.74 97.9276L1329.34 106.983L1326.93 97.9276L1318 95.4894L1326.93 93.0512L1329.34 84Z" fill="white"/>
<path d="M1190.75 344.127L1193.19 353.178L1202.24 355.617L1193.19 358.055L1190.75 367.106L1188.32 358.055L1179.26 355.617L1188.32 353.178L1190.75 344.127Z" fill="white"/>
<path d="M103.821 440.642C105.378 440.642 106.641 439.379 106.641 437.821C106.641 436.263 105.378 435 103.821 435C102.263 435 101 436.263 101 437.821C101 439.379 102.263 440.642 103.821 440.642Z" fill="white"/>
<path d="M1147.06 99.3305C1145.98 100.434 1144.21 100.434 1143.12 99.3305C1142.04 98.227 1142.04 96.441 1143.12 95.3376C1144.21 94.2341 1145.98 94.2341 1147.06 95.3376C1148.15 96.441 1148.15 98.227 1147.06 99.3305Z" fill="white"/>
<path d="M557.172 120.66C558.73 120.66 559.993 119.397 559.993 117.839C559.993 116.28 558.73 115.017 557.172 115.017C555.615 115.017 554.352 116.28 554.352 117.839C554.352 119.397 555.615 120.66 557.172 120.66Z" fill="white"/>
<path d="M524.761 92.2356C526.319 92.2356 527.582 90.9725 527.582 89.4144C527.582 87.8563 526.319 86.5933 524.761 86.5933C523.203 86.5933 521.94 87.8563 521.94 89.4144C521.94 90.9725 523.203 92.2356 524.761 92.2356Z" fill="white"/>
<path d="M512.507 326.662C514.065 326.662 515.328 325.399 515.328 323.841C515.328 322.283 514.065 321.02 512.507 321.02C510.949 321.02 509.687 322.283 509.687 323.841C509.687 325.399 510.949 326.662 512.507 326.662Z" fill="white"/>
<path d="M896.255 335.266C897.813 335.266 899.076 334.003 899.076 332.444C899.076 330.886 897.813 329.623 896.255 329.623C894.697 329.623 893.434 330.886 893.434 332.444C893.434 334.003 894.697 335.266 896.255 335.266Z" fill="white"/>
<path d="M1024.8 231.164C1061.51 231.164 1091.27 201.402 1091.27 164.688C1091.27 127.975 1061.51 98.2124 1024.8 98.2124C988.088 98.2124 958.328 127.975 958.328 164.688C958.328 201.402 988.088 231.164 1024.8 231.164Z" fill="#00C684" stroke="white" stroke-miterlimit="10"/>
<path d="M960.079 179.905C960.079 179.905 979.109 203.013 1000.24 187.963C1013.49 178.521 1028.42 167.199 1034.68 173.228C1049.31 187.318 1018.61 223.322 1053.99 224.414C1053.99 224.414 1065.72 219.22 1072.54 210.961C1072.54 210.961 1053.15 216.391 1054.17 202.247C1056.02 176.477 1061.13 169.618 1052.85 157.101C1042.86 141.983 1019.82 151.898 999.595 166.228C979.375 180.557 958.665 158.163 958.665 158.163C958.665 158.163 956.636 163.354 960.079 179.905Z" fill="#C1EF00" stroke="white" stroke-miterlimit="10"/>
<path d="M982.249 215.776C982.249 215.776 1001.37 213.952 1010.47 203.051C1019.57 192.149 1022.93 193.192 1024.04 196.089C1025.15 198.974 1020.79 208.162 1024.15 219.003C1026.49 226.568 1027.71 227.668 1031.9 230.796C1031.9 230.796 1019.09 232.586 1006.04 228.456C994.018 224.653 987.629 220.793 982.253 215.773L982.249 215.776Z" fill="#C1EF00" stroke="white" stroke-miterlimit="10"/>
<path d="M965.665 134.387C965.665 134.387 974.215 161.139 989.939 155.394C1005.66 149.646 1022.5 130.114 1038.38 129.299C1056.73 128.354 1068.99 142.036 1069.56 154.352C1070.1 166.038 1065.07 180.08 1071.76 188.156C1076 193.275 1084.16 191.459 1084.16 191.459C1084.16 191.459 1087.81 183.576 1088.64 177.895C1089.48 172.215 1089.85 167.93 1089.85 167.93C1089.85 167.93 1087.11 170.486 1084.96 167.536C1084.15 166.425 1084.03 163.877 1084.07 161.928C1084.31 145.82 1075.74 132.226 1067.15 124.627C1060.83 119.042 1044.87 106.65 1029.96 111.105C1009.04 117.358 996.002 135.358 990.856 138.338C983.724 142.472 980.21 137.811 978.515 135.976C974.208 131.323 971.929 124.377 971.929 124.377C971.929 124.377 967.587 130.44 965.665 134.387Z" fill="#C1EF00" stroke="white" stroke-miterlimit="10"/>
<path d="M977.57 117.908C977.57 117.908 981.366 124.464 987.842 123.618C993.946 122.822 1004.92 107.931 1011.37 104.211C1017.83 100.492 1022.47 97.7576 1028.12 98.2923C1033.77 98.827 1015.24 95.3801 997.487 104.083C981.965 111.693 977.57 117.912 977.57 117.912V117.908Z" fill="#C1EF00" stroke="white" stroke-miterlimit="10"/>
<g opacity="0.52">
<path d="M1024.91 231.259C1024.55 231.259 1024.19 231.259 1023.83 231.251C987.08 230.667 957.653 200.294 958.237 163.539C958.408 152.861 961.16 142.286 966.203 132.954C971.083 123.925 978.105 116.016 986.515 110.085L987.546 109.357L986.776 110.354C977.752 122.026 972.861 136.018 972.626 150.81C972.031 188.285 1002.04 219.257 1039.51 219.853C1039.88 219.86 1040.24 219.86 1040.61 219.86C1050.88 219.86 1060.77 217.615 1069.98 213.183L1071.12 212.637L1070.2 213.49C1057.83 224.945 1041.75 231.251 1024.92 231.251L1024.91 231.259Z" fill="#404DF1"/>
<path d="M986.621 110.24C977.935 121.479 972.676 135.513 972.433 150.81C971.838 188.452 1001.86 219.447 1039.5 220.046C1039.87 220.053 1040.23 220.053 1040.6 220.053C1051.14 220.053 1061.14 217.649 1070.06 213.361C1058.19 224.361 1042.31 231.073 1024.91 231.073C1024.56 231.073 1024.2 231.073 1023.84 231.065C987.133 230.485 957.85 200.256 958.431 163.547C958.779 141.463 969.862 122.071 986.625 110.248M988.464 108.477L986.401 109.929C977.969 115.879 970.928 123.808 966.033 132.863C960.979 142.221 958.215 152.827 958.044 163.535C957.9 172.56 959.53 181.342 962.886 189.639C966.128 197.651 970.833 204.878 976.873 211.112C982.913 217.35 989.984 222.283 997.893 225.775C1006.08 229.393 1014.8 231.296 1023.83 231.44C1024.19 231.448 1024.55 231.448 1024.91 231.448C1041.8 231.448 1057.92 225.123 1070.32 213.638L1072.16 211.927L1069.89 213.016C1060.7 217.433 1050.84 219.674 1040.6 219.674C1040.23 219.674 1039.87 219.674 1039.51 219.667C1030.36 219.522 1021.51 217.589 1013.21 213.922C1005.2 210.38 998.026 205.379 991.899 199.054C985.772 192.729 981.002 185.407 977.715 177.281C974.314 168.87 972.66 159.963 972.808 150.813C973.043 136.059 977.919 122.109 986.917 110.472L988.46 108.477H988.464Z" fill="white"/>
</g>
<path d="M998.291 55L1000.73 64.055L1009.78 66.4932L1000.73 68.9314L998.291 77.9826L995.853 68.9314L986.803 66.4932L995.853 64.055L998.291 55Z" fill="white"/>
<path d="M1094.42 123.694L1097.11 139.973L1113.38 142.654L1097.11 145.335L1094.42 161.613L1091.74 145.335L1075.46 142.654L1091.74 139.973L1094.42 123.694Z" fill="white"/>
<path d="M963.958 167.809L966.639 184.088L982.916 186.769L966.639 189.453L963.958 205.728L961.277 189.453L945 186.769L961.277 184.088L963.958 167.809Z" fill="white"/>
<path d="M1621.98 305.509C1619.15 305.509 1616.31 305.157 1613.54 304.463C1595.03 299.821 1583.74 280.991 1588.39 262.479C1592.25 247.054 1606.04 236.281 1621.92 236.281C1624.75 236.281 1627.59 236.633 1630.36 237.327C1639.33 239.576 1646.88 245.18 1651.63 253.109C1656.38 261.038 1657.76 270.343 1655.51 279.311C1651.64 294.737 1637.85 305.509 1621.97 305.509H1621.98Z" fill="#F4A6FF"/>
<path d="M1621.92 236.47C1624.69 236.47 1627.51 236.808 1630.32 237.513C1648.75 242.136 1659.95 260.83 1655.33 279.266C1651.41 294.892 1637.38 305.32 1621.98 305.32C1619.2 305.32 1616.39 304.982 1613.58 304.277C1595.15 299.655 1583.95 280.961 1588.57 262.525C1592.48 246.898 1606.51 236.47 1621.92 236.47ZM1621.93 236.091C1614.31 236.091 1606.78 238.666 1600.71 243.338C1594.45 248.153 1590.13 254.759 1588.2 262.434C1585.94 271.447 1587.33 280.805 1592.11 288.776C1596.88 296.75 1604.48 302.385 1613.49 304.645C1616.28 305.343 1619.13 305.699 1621.98 305.699C1629.59 305.699 1637.13 303.124 1643.19 298.453C1649.45 293.637 1653.77 287.032 1655.7 279.357C1657.96 270.343 1656.57 260.985 1651.8 253.014C1647.02 245.044 1639.42 239.405 1630.41 237.145C1627.63 236.448 1624.77 236.091 1621.93 236.091Z" fill="white"/>
<path d="M1596.85 294.634C1596.8 294.634 1596.76 294.619 1596.72 294.585C1592.63 290.869 1590.19 284.65 1590.17 284.585C1590.16 284.559 1590.15 284.529 1590.16 284.502C1590.65 278.234 1593.02 275.436 1597.84 275.436C1599.94 275.436 1602.33 275.959 1604.65 276.467C1607.03 276.99 1609.49 277.529 1611.71 277.529C1614.04 277.529 1615.83 276.914 1617.16 275.656C1620.13 272.853 1615.36 265.467 1611.15 258.952L1610.36 257.72C1603.09 246.405 1615.44 236.99 1615.56 236.895C1615.58 236.876 1615.61 236.865 1615.64 236.861C1618.43 236.417 1620.89 236.193 1622.95 236.193C1625.9 236.193 1626.98 236.66 1627.03 236.679C1627.09 236.705 1627.13 236.762 1627.14 236.827C1627.14 236.891 1627.12 236.955 1627.07 236.997C1626.95 237.1 1615.19 247.175 1621.93 257.72C1626.18 264.363 1630.91 273.661 1629.35 280.236C1628.79 282.625 1627.42 284.483 1625.28 285.753C1622.86 287.194 1620.78 287.809 1618.33 287.809C1616.3 287.809 1614.07 287.388 1611.24 286.861C1608.76 286.394 1605.67 285.814 1601.78 285.348C1601.49 285.313 1601.21 285.295 1600.95 285.295C1599.61 285.295 1598.57 285.746 1597.86 286.637C1595.86 289.147 1597.02 294.35 1597.03 294.399C1597.05 294.478 1597.01 294.562 1596.94 294.604C1596.91 294.623 1596.88 294.63 1596.85 294.63V294.634Z" fill="#853793"/>
<path d="M1622.95 236.383C1625.9 236.383 1626.95 236.853 1626.95 236.853C1626.95 236.853 1614.86 247.012 1621.77 257.822C1628.69 268.633 1633.25 280.794 1625.18 285.59C1622.67 287.084 1620.62 287.619 1618.33 287.619C1614.54 287.619 1610.09 286.151 1601.81 285.158C1601.51 285.12 1601.22 285.105 1600.96 285.105C1594.71 285.105 1596.85 294.444 1596.85 294.444C1592.75 290.713 1590.35 284.521 1590.35 284.521C1590.9 277.457 1593.91 275.629 1597.84 275.629C1602.04 275.629 1607.29 277.722 1611.7 277.722C1613.83 277.722 1615.76 277.237 1617.29 275.796C1620.56 272.705 1615.07 264.708 1610.52 257.621C1603.26 246.325 1615.67 237.05 1615.67 237.05C1618.86 236.546 1621.22 236.387 1622.95 236.387M1622.95 236.004C1620.88 236.004 1618.42 236.228 1615.62 236.675C1615.56 236.686 1615.5 236.709 1615.45 236.747C1615.32 236.842 1612.26 239.155 1610.05 242.909C1607.99 246.405 1606.35 251.831 1610.2 257.826C1610.46 258.236 1610.73 258.645 1611 259.059C1615.17 265.512 1619.89 272.827 1617.04 275.519C1615.73 276.744 1613.99 277.343 1611.71 277.343C1609.43 277.343 1607.07 276.805 1604.69 276.285C1602.37 275.777 1599.96 275.25 1597.85 275.25C1594.78 275.25 1590.63 276.209 1589.97 284.491C1589.97 284.548 1589.98 284.604 1590 284.658C1590.1 284.915 1592.47 290.979 1596.6 294.725C1596.67 294.789 1596.76 294.824 1596.85 294.824C1596.92 294.824 1596.99 294.808 1597.04 294.77C1597.19 294.687 1597.26 294.52 1597.22 294.357C1597.21 294.304 1596.07 289.189 1598.01 286.754C1598.68 285.909 1599.67 285.484 1600.96 285.484C1601.21 285.484 1601.48 285.499 1601.76 285.533C1605.65 286 1608.73 286.58 1611.21 287.043C1614.05 287.573 1616.29 287.994 1618.33 287.994C1620.82 287.994 1622.92 287.372 1625.38 285.913C1627.56 284.612 1628.96 282.716 1629.54 280.274C1631.12 273.635 1626.36 264.287 1622.09 257.614C1619.31 253.261 1619.31 248.509 1622.09 243.481C1624.19 239.69 1627.17 237.164 1627.2 237.138C1627.3 237.054 1627.34 236.925 1627.33 236.796C1627.31 236.667 1627.23 236.557 1627.11 236.504C1627.06 236.485 1625.95 236 1622.95 236V236.004Z" fill="white"/>
<path d="M1587.59 273.13C1587.59 273.13 1587.55 273.13 1587.53 273.123C1587.46 273.1 1587.41 273.035 1587.4 272.959C1587.39 272.891 1586.82 266.168 1589.26 259.559C1591.33 253.943 1593.41 250.451 1596.45 247.497C1596.48 247.463 1596.53 247.444 1596.58 247.444C1596.6 247.444 1596.63 247.448 1596.65 247.459C1596.72 247.486 1596.77 247.55 1596.77 247.626C1596.77 247.724 1597.3 257.538 1602.59 262.403C1605.77 265.323 1607.23 267.465 1606.95 268.773C1606.84 269.304 1606.44 269.698 1605.79 269.911C1605.63 269.964 1605.44 269.99 1605.22 269.99C1604.65 269.99 1603.91 269.831 1602.96 269.63C1601.53 269.323 1599.73 268.94 1597.68 268.94C1596.36 268.94 1595.14 269.092 1593.93 269.406C1590.05 270.408 1589.44 270.992 1587.73 273.066C1587.7 273.111 1587.64 273.134 1587.59 273.134L1587.59 273.13Z" fill="#853793"/>
<path d="M1596.58 247.63C1596.58 247.63 1597.05 257.561 1602.46 262.539C1607.88 267.518 1607.26 269.225 1605.73 269.729C1605.58 269.778 1605.41 269.797 1605.22 269.797C1603.81 269.797 1601.09 268.747 1597.68 268.747C1596.48 268.747 1595.21 268.876 1593.88 269.217C1589.91 270.244 1589.31 270.847 1587.59 272.937C1587.59 272.937 1586.98 266.267 1589.44 259.62C1591.7 253.496 1593.85 250.284 1596.58 247.63ZM1596.58 247.25C1596.48 247.25 1596.39 247.288 1596.31 247.357C1593.26 250.33 1591.16 253.845 1589.08 259.487C1586.62 266.138 1587.21 272.903 1587.21 272.971C1587.23 273.123 1587.33 273.255 1587.48 273.297C1587.51 273.308 1587.55 273.312 1587.59 273.312C1587.7 273.312 1587.81 273.263 1587.88 273.176C1589.59 271.098 1590.14 270.571 1593.97 269.581C1595.17 269.27 1596.37 269.122 1597.67 269.122C1599.71 269.122 1601.49 269.501 1602.92 269.808C1603.87 270.013 1604.62 270.172 1605.21 270.172C1605.46 270.172 1605.67 270.142 1605.85 270.085C1606.75 269.786 1607.04 269.225 1607.14 268.807C1607.44 267.408 1605.99 265.266 1602.72 262.259C1597.48 257.443 1596.96 247.709 1596.96 247.611C1596.95 247.463 1596.85 247.33 1596.72 247.277C1596.67 247.258 1596.63 247.25 1596.58 247.25H1596.58Z" fill="white"/>
<path d="M1620.57 305.479C1620.55 305.479 1618.31 305.312 1615.39 304.925C1612.45 304.535 1608.32 302.707 1608.28 302.692C1608.23 302.669 1608.19 302.62 1608.18 302.563C1608.14 302.385 1607.18 298.213 1609.85 295.931C1611.44 294.577 1613.54 293.974 1616.67 293.974C1618.17 293.974 1619.78 294.114 1621.35 294.251C1622.93 294.387 1624.57 294.532 1626.12 294.532C1626.59 294.532 1627.03 294.52 1627.45 294.494C1630.63 294.3 1633.83 292.624 1636.23 289.898C1638.95 286.804 1640.29 282.708 1640 278.363C1639.69 273.646 1636.08 268.713 1632.58 263.942C1630.06 260.507 1627.45 256.954 1626.15 253.537C1625.5 251.839 1625.55 250.14 1626.32 248.483C1627.58 245.749 1630.57 243.606 1632.87 242.291C1635.34 240.869 1637.54 240.08 1637.57 240.072C1637.59 240.065 1637.61 240.061 1637.63 240.061C1637.66 240.061 1637.69 240.069 1637.71 240.08C1639.76 241.043 1642.95 243.383 1643.08 243.485C1643.14 243.527 1643.17 243.595 1643.16 243.667C1643.15 243.739 1643.1 243.796 1643.03 243.819C1642.99 243.834 1638.74 245.343 1636.42 247.554L1636.24 247.724C1635.23 248.665 1633.34 250.413 1635.33 253.727C1635.75 254.432 1636.78 255.464 1638.09 256.768C1641.52 260.2 1647.26 265.941 1649.74 273.805C1650.74 276.99 1651.2 283.766 1642.98 293.337C1639.2 297.739 1632.14 302.445 1623.67 302.445C1621.87 302.445 1621.16 302.699 1620.87 302.915C1620.48 303.211 1620.27 303.549 1620.24 303.92C1620.18 304.584 1620.72 305.16 1620.73 305.168C1620.78 305.225 1620.8 305.308 1620.76 305.38C1620.73 305.448 1620.66 305.49 1620.59 305.49C1620.59 305.49 1620.58 305.49 1620.58 305.49L1620.57 305.479Z" fill="#853793"/>
<path d="M1637.62 240.247C1639.68 241.21 1642.96 243.629 1642.96 243.629C1642.96 243.629 1638.66 245.138 1636.28 247.406C1635.34 248.301 1632.96 250.151 1635.15 253.814C1636.73 256.453 1646.15 263.07 1649.54 273.854C1651.96 281.537 1645.67 289.894 1642.83 293.208C1638.96 297.713 1632 302.248 1623.66 302.248H1623.63C1622.62 302.248 1621.32 302.332 1620.75 302.756C1619.24 303.894 1620.58 305.289 1620.58 305.289C1620.58 305.289 1618.37 305.126 1615.42 304.739C1612.47 304.349 1608.36 302.521 1608.36 302.521C1608.36 302.521 1607.36 298.312 1609.97 296.079C1611.74 294.573 1614.09 294.168 1616.66 294.168C1619.68 294.168 1623.01 294.721 1626.12 294.721C1626.57 294.721 1627.02 294.71 1627.46 294.683C1633.83 294.293 1640.82 287.843 1640.19 278.352C1639.65 270.142 1629.41 261.569 1626.32 253.473C1623.22 245.377 1637.62 240.254 1637.62 240.254M1637.62 239.868C1637.58 239.868 1637.54 239.875 1637.49 239.89C1637.13 240.019 1628.58 243.114 1626.14 248.403C1625.35 250.106 1625.29 251.858 1625.96 253.606C1627.28 257.045 1629.89 260.609 1632.42 264.056C1635.9 268.804 1639.5 273.714 1639.81 278.374C1640.1 282.671 1638.77 286.717 1636.08 289.773C1633.75 292.42 1630.52 294.114 1627.44 294.304C1627.02 294.331 1626.58 294.342 1626.12 294.342C1624.57 294.342 1622.94 294.202 1621.36 294.061C1619.8 293.925 1618.18 293.785 1616.66 293.785C1613.49 293.785 1611.35 294.403 1609.73 295.787C1606.97 298.145 1607.95 302.422 1607.99 302.604C1608.02 302.718 1608.1 302.817 1608.21 302.862C1608.38 302.938 1612.4 304.72 1615.37 305.111C1618.29 305.498 1620.53 305.665 1620.56 305.665C1620.56 305.665 1620.58 305.665 1620.58 305.665C1620.73 305.665 1620.86 305.581 1620.93 305.445C1621 305.3 1620.97 305.134 1620.86 305.02C1620.86 305.016 1620.37 304.497 1620.42 303.92C1620.45 303.606 1620.64 303.314 1620.99 303.052C1621.2 302.889 1621.83 302.62 1623.64 302.62H1623.67C1632.21 302.62 1639.31 297.88 1643.12 293.447C1644.71 291.6 1646.93 288.692 1648.51 285.325C1650.51 281.051 1650.99 277.15 1649.91 273.737C1647.42 265.827 1641.66 260.063 1638.21 256.624C1636.92 255.327 1635.89 254.303 1635.48 253.617C1633.58 250.439 1635.32 248.82 1636.36 247.853C1636.43 247.793 1636.49 247.732 1636.55 247.679C1638.84 245.499 1643.05 244.001 1643.09 243.986C1643.23 243.94 1643.32 243.823 1643.34 243.682C1643.36 243.542 1643.31 243.406 1643.19 243.322C1643.06 243.224 1639.86 240.869 1637.79 239.902C1637.74 239.879 1637.68 239.868 1637.63 239.868H1637.62Z" fill="white"/>
<path d="M1656.15 274.973C1656.1 274.973 1656.05 274.946 1656.01 274.905C1655.95 274.84 1655.93 274.814 1656.02 274.222C1656.42 271.416 1655.18 269.008 1653.46 265.679L1653.38 265.524C1652.66 264.109 1650.96 262.251 1649.16 260.283C1646.65 257.546 1644.07 254.717 1643.91 252.806C1643.62 249.347 1647.18 247.467 1647.21 247.451C1647.24 247.436 1647.27 247.429 1647.3 247.429C1647.34 247.429 1647.38 247.444 1647.42 247.47C1647.55 247.569 1650.6 250.022 1654.14 258.186C1657.69 266.4 1656.5 274.605 1656.31 274.886C1656.28 274.939 1656.21 274.973 1656.15 274.973H1656.15Z" fill="#853793"/>
<path d="M1647.3 247.622C1647.3 247.622 1650.41 250.049 1653.96 258.266C1657.52 266.487 1656.25 274.787 1656.15 274.787C1656.14 274.787 1656.15 274.616 1656.2 274.252C1656.62 271.344 1655.32 268.872 1653.55 265.444C1651.79 262.016 1644.36 255.972 1644.1 252.798C1643.82 249.427 1647.3 247.626 1647.3 247.626M1647.3 247.243C1647.24 247.243 1647.19 247.258 1647.13 247.284C1646.98 247.364 1643.42 249.245 1643.72 252.824C1643.88 254.8 1646.5 257.655 1649.02 260.416C1650.81 262.372 1652.5 264.223 1653.22 265.614L1653.3 265.77C1655 269.069 1656.22 271.454 1655.83 274.199C1655.75 274.768 1655.74 274.889 1655.87 275.033C1655.94 275.117 1656.05 275.166 1656.16 275.166C1656.29 275.166 1656.41 275.098 1656.48 274.992C1656.67 274.707 1657.89 266.369 1654.32 258.114C1650.77 249.905 1647.68 247.425 1647.54 247.322C1647.47 247.269 1647.39 247.243 1647.31 247.243H1647.3Z" fill="white"/>
<g opacity="0.49">
<path d="M1622.78 300.542C1603.87 295.802 1592.39 276.634 1597.13 257.732C1599.06 250.049 1603.37 243.595 1609.07 238.954C1599.22 242.939 1591.35 251.407 1588.57 262.498C1583.95 280.934 1595.15 299.628 1613.58 304.25C1622.53 306.495 1631.55 305.009 1638.97 300.777C1633.79 301.926 1628.28 301.922 1622.78 300.542Z" fill="#853793"/>
</g>
<path d="M1650.97 294.884C1641.02 294.884 1628.8 293.193 1616.55 290.122C1602.66 286.637 1590 281.753 1580.9 276.365C1571.74 270.939 1567.28 265.63 1568.34 261.417C1569.48 256.829 1577.98 254.087 1591.06 254.087C1591.28 254.087 1591.51 254.087 1591.73 254.087C1591.8 254.087 1591.86 254.122 1591.89 254.175C1591.93 254.228 1591.93 254.296 1591.9 254.357C1591.78 254.645 1591.63 254.91 1591.5 255.172C1591.29 255.581 1591.09 255.972 1590.92 256.423C1590.9 256.48 1590.85 256.526 1590.79 256.541C1587.71 257.307 1584.23 258.842 1583.73 260.852C1582.19 266.976 1597.89 276.209 1618.73 281.431C1627.65 283.668 1636.56 284.904 1643.8 284.9C1652.83 284.9 1658.48 283.038 1659.29 279.793C1659.78 277.863 1658.8 275.879 1656.22 273.544C1656.17 273.502 1656.15 273.441 1656.16 273.377C1656.22 272.903 1656.22 272.459 1656.23 271.993C1656.23 271.689 1656.24 271.382 1656.26 271.064C1656.26 270.999 1656.3 270.942 1656.35 270.912C1656.38 270.897 1656.41 270.889 1656.45 270.889C1656.48 270.889 1656.51 270.897 1656.54 270.912C1668.23 277.059 1673.79 282.811 1672.6 287.551C1671.43 292.207 1663.55 294.877 1650.97 294.877V294.884Z" fill="#1F3D68"/>
<path d="M1591.07 254.277C1591.29 254.277 1591.51 254.277 1591.74 254.277C1591.41 255.005 1591.03 255.601 1590.75 256.359C1587.29 257.22 1584.05 258.812 1583.55 260.807C1581.99 267.044 1597.72 276.361 1618.68 281.617C1628 283.953 1636.78 285.094 1643.8 285.094C1652.59 285.094 1658.61 283.308 1659.48 279.842C1659.98 277.847 1658.99 275.8 1656.35 273.407C1656.46 272.603 1656.4 271.879 1656.45 271.079C1667.41 276.839 1673.63 282.675 1672.42 287.506C1671.22 292.249 1662.98 294.691 1650.97 294.691C1641.36 294.691 1629.34 293.129 1616.6 289.932C1587.9 282.739 1566.38 269.991 1568.52 261.459C1569.71 256.715 1579.01 254.273 1591.06 254.273M1591.07 253.898C1577.89 253.898 1569.33 256.693 1568.16 261.372C1567.08 265.676 1571.57 271.06 1580.81 276.532C1589.92 281.928 1602.6 286.819 1616.51 290.308C1628.77 293.383 1641.01 295.078 1650.97 295.078C1657.11 295.078 1662.12 294.46 1665.87 293.246C1669.85 291.957 1672.18 290.061 1672.79 287.608C1674 282.773 1668.42 276.945 1656.63 270.753C1656.57 270.723 1656.51 270.711 1656.45 270.711C1656.39 270.711 1656.32 270.726 1656.27 270.76C1656.15 270.825 1656.08 270.939 1656.07 271.068C1656.05 271.39 1656.05 271.705 1656.05 272.004C1656.04 272.467 1656.04 272.903 1655.97 273.366C1655.96 273.491 1656.01 273.612 1656.1 273.699C1658.62 275.982 1659.58 277.908 1659.11 279.762C1658.32 282.917 1652.74 284.726 1643.81 284.726C1636.58 284.726 1627.69 283.494 1618.78 281.26C1608.67 278.727 1599.47 275.178 1592.86 271.265C1586.48 267.484 1583.22 263.708 1583.92 260.909C1584.33 259.298 1586.98 257.697 1590.84 256.738C1590.96 256.708 1591.06 256.621 1591.11 256.503C1591.28 256.059 1591.47 255.676 1591.68 255.271C1591.82 255.009 1591.95 254.74 1592.09 254.448C1592.14 254.33 1592.13 254.194 1592.06 254.088C1591.99 253.981 1591.87 253.913 1591.74 253.913C1591.51 253.913 1591.29 253.913 1591.07 253.913V253.898Z" fill="white"/>
<path d="M768.005 441.495C757.233 441.495 747.083 437.32 739.424 429.74C731.757 422.156 727.476 412.04 727.366 401.252C727.139 378.838 745.191 360.417 767.603 360.189C767.743 360.189 767.883 360.189 768.024 360.189C778.795 360.189 788.946 364.364 796.605 371.944C804.271 379.528 808.552 389.645 808.662 400.433C808.889 422.847 790.838 441.268 768.425 441.495C768.289 441.495 768.145 441.495 768.008 441.495H768.005Z" fill="#9FEDFF"/>
<path d="M768.02 360.379C790.178 360.379 808.245 378.224 808.468 400.433C808.692 422.778 790.762 441.078 768.418 441.302C768.281 441.302 768.137 441.302 768.001 441.302C745.843 441.302 727.776 423.457 727.552 401.248C727.328 378.903 745.259 360.603 767.603 360.379C767.739 360.379 767.883 360.379 768.02 360.379ZM768.024 360H768.02C767.88 360 767.739 360 767.599 360C756.691 360.11 746.48 364.463 738.843 372.252C731.207 380.044 727.063 390.343 727.173 401.252C727.283 412.089 731.583 422.251 739.287 429.873C746.984 437.487 757.183 441.681 768.005 441.681C768.145 441.681 768.285 441.681 768.425 441.681C779.334 441.571 789.545 437.218 797.181 429.429C804.817 421.637 808.961 411.338 808.851 400.429C808.741 389.592 804.442 379.43 796.741 371.808C789.044 364.194 778.849 360 768.027 360H768.024Z" fill="white"/>
<path d="M788.983 433.316C780.115 433.316 779.819 425.968 779.531 418.866C779.303 413.265 779.072 407.475 774.867 404.847C774.321 404.506 773.707 404.335 773.036 404.335C768.899 404.335 763.163 410.595 757.615 416.651L756.448 417.925C753.217 421.437 749.342 423.219 744.933 423.219C737.634 423.219 731.325 418.248 731.26 418.198C731.237 418.179 731.218 418.153 731.203 418.126C727.097 408.756 727.59 405.385 727.613 405.249C727.624 405.184 727.666 405.131 727.726 405.105C727.749 405.093 727.776 405.09 727.798 405.09C727.836 405.09 727.874 405.101 727.908 405.124C727.973 405.169 734.536 409.758 741.816 409.758C746.233 409.758 750.013 408.089 753.05 404.805C759.432 397.9 768.713 389.672 776.695 389.672C779.459 389.672 781.878 390.677 783.891 392.664C788.536 397.244 788.797 400.934 789.313 408.279C789.522 411.24 789.779 414.93 790.409 419.495C790.822 422.521 792.528 424.057 795.471 424.057C798.637 424.057 802.132 422.252 802.167 422.233C802.193 422.218 802.224 422.21 802.254 422.21C802.303 422.21 802.352 422.229 802.387 422.267C802.443 422.324 802.459 422.415 802.421 422.487C799.414 428.239 793.071 432.854 793.01 432.899C792.987 432.915 792.961 432.926 792.934 432.933C791.49 433.191 790.159 433.324 788.98 433.324L788.983 433.316Z" fill="#404DF1"/>
<path d="M776.702 389.854C779.295 389.854 781.692 390.745 783.766 392.793C790.268 399.205 788.088 403.933 790.226 419.514C790.731 423.188 793.025 424.239 795.478 424.239C798.731 424.239 802.261 422.396 802.261 422.396C799.239 428.175 792.907 432.744 792.907 432.744C791.44 433.005 790.139 433.131 788.986 433.131C773.494 433.131 784.732 410.785 774.973 404.688C774.377 404.316 773.733 404.145 773.043 404.145C768.523 404.145 762.134 411.471 756.314 417.796C752.697 421.728 748.678 423.025 744.94 423.025C737.622 423.025 731.385 418.046 731.385 418.046C727.252 408.624 727.809 405.275 727.809 405.275C727.809 405.275 734.399 409.943 741.827 409.943C745.66 409.943 749.713 408.699 753.202 404.93C760.739 396.778 769.483 389.858 776.706 389.858M776.702 389.475C768.652 389.475 759.325 397.737 752.917 404.669C749.914 407.915 746.183 409.56 741.823 409.56C734.608 409.56 728.09 405.006 728.025 404.961C727.961 404.915 727.885 404.892 727.805 404.892C727.756 404.892 727.707 404.904 727.658 404.923C727.536 404.972 727.449 405.082 727.43 405.211C727.407 405.351 726.903 408.775 731.032 418.198C731.059 418.255 731.097 418.304 731.142 418.342C731.4 418.547 737.569 423.404 744.932 423.404C749.399 423.404 753.319 421.603 756.587 418.05C756.974 417.629 757.365 417.205 757.755 416.78C763.018 411.035 768.986 404.525 773.039 404.525C773.68 404.525 774.249 404.684 774.768 405.01C778.886 407.585 779.117 413.326 779.341 418.877C779.633 426.07 779.932 433.51 788.983 433.51C790.177 433.51 791.515 433.377 792.971 433.115C793.028 433.104 793.081 433.081 793.127 433.051C793.389 432.861 799.569 428.364 802.598 422.574C802.674 422.426 802.648 422.248 802.53 422.13C802.458 422.058 802.359 422.02 802.261 422.02C802.2 422.02 802.14 422.036 802.086 422.062C802.052 422.081 798.598 423.863 795.478 423.863C792.642 423.863 791.004 422.384 790.602 419.468C789.976 414.911 789.718 411.225 789.51 408.267C788.99 400.873 788.729 397.161 784.031 392.531C781.98 390.51 779.515 389.486 776.702 389.486V389.475Z" fill="white"/>
<path d="M768.088 441.526C766.985 441.526 765.889 441.473 764.842 441.37C757.847 440.68 753.255 439.353 749.001 436.782C748.937 436.744 748.903 436.672 748.91 436.596C748.918 436.521 748.971 436.46 749.043 436.437C749.07 436.429 751.856 435.546 755.098 433.749C758.078 432.095 762.067 429.305 764.137 425.403C766.545 420.864 768.562 418.566 770.132 418.566C770.735 418.566 771.254 418.892 771.671 419.537C772.065 420.143 772.115 421.266 772.187 422.82C772.312 425.573 772.483 429.342 774.625 433.184C776.923 437.305 777.768 437.821 780.642 439.152C780.71 439.182 780.756 439.254 780.752 439.334C780.752 439.41 780.699 439.478 780.627 439.505C780.57 439.524 774.94 441.53 768.092 441.53L768.088 441.526Z" fill="#404DF1"/>
<path d="M770.131 418.755C770.726 418.755 771.178 419.123 771.511 419.639C772.535 421.22 771.094 427.238 774.457 433.271C776.804 437.48 777.672 437.98 780.562 439.319C780.562 439.319 774.984 441.336 768.091 441.336C767.041 441.336 765.96 441.291 764.865 441.181C757.228 440.43 752.936 438.932 749.103 436.619C749.103 436.619 760.258 433.127 764.311 425.49C767.045 420.337 768.903 418.752 770.135 418.752M770.131 418.376C768.463 418.376 766.449 420.648 763.97 425.315C760.042 432.725 749.095 436.225 748.985 436.259C748.841 436.304 748.739 436.426 748.724 436.574C748.705 436.721 748.777 436.865 748.906 436.945C753.186 439.531 757.801 440.866 764.827 441.56C765.881 441.662 766.98 441.715 768.091 441.715C774.969 441.715 780.634 439.698 780.691 439.675C780.835 439.622 780.933 439.489 780.941 439.334C780.948 439.179 780.861 439.038 780.721 438.974C777.832 437.639 777.066 437.165 774.791 433.085C772.671 429.286 772.501 425.539 772.379 422.805C772.307 421.224 772.254 420.079 771.833 419.427C771.268 418.551 770.597 418.369 770.135 418.369L770.131 418.376Z" fill="white"/>
<path d="M803.633 408.169C802.284 408.169 801.097 407.82 800.104 407.126C796.501 404.616 795.667 399.739 794.788 394.575C794.382 392.197 793.961 389.736 793.245 387.556C791.527 382.319 785.51 377.018 777.327 377.018C775.265 377.018 773.176 377.367 771.121 378.05C765.839 379.809 761.3 385.398 756.914 390.798C753.755 394.685 750.491 398.708 746.998 401.203C745.671 402.155 744.208 402.636 742.657 402.636C738.903 402.636 735.207 399.8 732.765 397.419C730.134 394.855 728.351 392.254 728.336 392.228C728.31 392.186 728.298 392.136 728.306 392.087C728.791 389.471 730.558 385.015 730.577 384.974C730.604 384.909 730.664 384.864 730.733 384.856C730.74 384.856 730.748 384.856 730.752 384.856C730.816 384.856 730.873 384.886 730.907 384.94C730.937 384.985 733.921 389.376 737.129 391.363C737.209 391.412 737.292 391.465 737.379 391.522C738.126 391.996 739.256 392.717 740.64 392.717C741.948 392.717 743.252 392.061 744.519 390.771C745.198 390.078 746.066 388.595 747.165 386.718C750.043 381.796 754.866 373.56 763.067 368.407C765.475 366.894 768.387 366.128 771.716 366.128C777.513 366.128 783.367 368.388 787.258 370.284C793.389 373.272 800.835 379.9 803.345 389.535C803.876 391.572 804.384 392.315 804.718 392.576C805.097 392.876 805.476 393.031 805.844 393.031C806.762 393.031 807.364 392.072 807.368 392.064C807.402 392.008 807.463 391.973 807.531 391.973C807.543 391.973 807.554 391.973 807.565 391.973C807.641 391.989 807.702 392.049 807.717 392.125C807.721 392.152 808.199 394.742 808.627 398.177C809.059 401.631 808.206 406.864 808.199 406.917C808.187 406.974 808.153 407.027 808.1 407.054C808.017 407.099 805.992 408.161 803.626 408.161L803.633 408.169Z" fill="#404DF1"/>
<path d="M771.72 366.321C777.877 366.321 784.065 368.941 787.178 370.458C793.453 373.518 800.691 380.097 803.167 389.588C803.467 390.737 803.952 392.212 804.608 392.732C805.063 393.096 805.484 393.228 805.852 393.228C806.89 393.228 807.539 392.17 807.539 392.17C807.539 392.17 808.017 394.745 808.449 398.211C808.881 401.677 808.02 406.898 808.02 406.898C808.02 406.898 805.98 407.986 803.633 407.986C802.5 407.986 801.294 407.732 800.213 406.978C794.977 403.326 795.645 394.271 793.427 387.506C791.561 381.822 785.206 376.84 777.331 376.84C775.325 376.84 773.217 377.162 771.064 377.883C761.888 380.943 755.181 395.136 746.892 401.062C745.512 402.048 744.087 402.458 742.661 402.458C735.521 402.458 728.496 392.133 728.496 392.133C728.981 389.505 730.755 385.053 730.755 385.053C730.755 385.053 733.755 389.501 737.038 391.53C737.785 391.992 739.044 392.91 740.648 392.91C741.819 392.91 743.18 392.421 744.659 390.908C747.192 388.322 751.916 375.645 763.17 368.573C765.778 366.935 768.747 366.325 771.72 366.325M771.72 365.942C768.353 365.942 765.407 366.719 762.969 368.251C754.726 373.427 749.891 381.69 747.002 386.627C745.91 388.492 745.05 389.963 744.386 390.642C743.158 391.894 741.899 392.531 740.644 392.531C739.313 392.531 738.213 391.829 737.485 391.367C737.394 391.31 737.311 391.257 737.231 391.207C734.058 389.247 731.097 384.886 731.066 384.841C730.994 384.735 730.877 384.674 730.752 384.674C730.736 384.674 730.725 384.674 730.71 384.674C730.57 384.689 730.452 384.78 730.399 384.909C730.327 385.091 728.606 389.429 728.116 392.06C728.097 392.159 728.116 392.261 728.177 392.341C728.196 392.368 729.986 394.984 732.632 397.562C736.223 401.059 739.594 402.833 742.657 402.833C744.25 402.833 745.747 402.34 747.108 401.366C750.619 398.855 753.895 394.825 757.061 390.927C761.433 385.546 765.953 379.979 771.181 378.239C773.217 377.56 775.284 377.215 777.327 377.215C785.419 377.215 791.368 382.452 793.062 387.62C793.775 389.789 794.192 392.242 794.598 394.612C795.447 399.587 796.327 404.729 799.994 407.285C801.017 407.998 802.242 408.362 803.633 408.362C806.049 408.362 808.111 407.277 808.199 407.232C808.301 407.175 808.377 407.076 808.396 406.959C808.43 406.743 809.26 401.646 808.824 398.165C808.396 394.726 807.918 392.129 807.91 392.102C807.88 391.947 807.763 391.825 807.607 391.799C807.584 391.795 807.562 391.791 807.539 391.791C807.41 391.791 807.285 391.859 807.217 391.973C807.213 391.981 806.663 392.849 805.852 392.849C805.529 392.849 805.188 392.709 804.843 392.436C804.589 392.235 804.077 391.583 803.535 389.493C801.006 379.794 793.514 373.124 787.349 370.117C780.27 366.666 774.943 365.942 771.723 365.942H771.72Z" fill="white"/>
<path d="M739.082 381.523C736.121 381.523 733.948 379.149 733.857 379.051C733.808 378.994 733.793 378.918 733.823 378.85C733.899 378.675 735.772 374.474 744.004 368.035C751.754 361.972 761.062 360.584 762.2 360.584C762.416 360.584 762.446 360.713 762.45 360.77C762.461 360.978 762.291 361.001 761.661 361.073C758.34 361.452 755.97 363.58 752.686 366.522L752.535 366.659C751.139 367.91 749.532 370.397 747.826 373.033C745.46 376.688 743.014 380.473 740.898 381.216C740.307 381.424 739.696 381.53 739.082 381.53V381.523Z" fill="#404DF1"/>
<path d="M762.203 360.77C762.366 360.77 762.203 360.815 761.642 360.88C758.211 361.274 755.788 363.485 752.41 366.514C749.035 369.54 744.371 379.79 740.838 381.034C740.231 381.246 739.643 381.337 739.086 381.337C736.174 381.337 734.005 378.925 734.005 378.925C734.005 378.925 735.84 374.667 744.129 368.183C752.057 361.979 761.381 360.77 762.207 360.77M762.203 360.391C761.058 360.391 751.682 361.786 743.89 367.883C735.621 374.352 733.729 378.595 733.653 378.774C733.596 378.91 733.619 379.066 733.717 379.176C733.812 379.278 736.034 381.712 739.082 381.712C739.719 381.712 740.352 381.602 740.963 381.39C743.139 380.624 745.604 376.817 747.989 373.131C749.687 370.507 751.287 368.031 752.664 366.795L752.815 366.659C756.072 363.739 758.427 361.627 761.688 361.255C762.34 361.179 762.666 361.141 762.643 360.755C762.643 360.717 762.609 360.391 762.203 360.391Z" fill="white"/>
<g opacity="0.52">
<path d="M783.731 431.959C761.24 436.339 739.457 421.656 735.078 399.163C733.299 390.024 734.664 381.003 738.426 373.219C729.929 382.369 725.769 395.314 728.34 408.51C732.609 430.446 753.854 444.764 775.788 440.495C786.435 438.42 795.288 432.346 801.089 424.136C796.145 427.943 790.268 430.689 783.731 431.963V431.959Z" fill="#404DF1"/>
</g>
<path d="M737.474 427.534C719.18 427.534 707.525 423.761 706.296 417.44C705.231 411.96 713.371 404.513 727.541 398.006C727.567 397.995 727.594 397.987 727.62 397.987C727.654 397.987 727.692 397.999 727.723 398.018C727.776 398.052 727.81 398.112 727.81 398.177C727.813 398.549 727.798 398.905 727.787 399.246C727.764 399.792 727.745 400.304 727.791 400.873C727.795 400.934 727.768 400.994 727.723 401.036C724.814 403.395 721.872 406.777 722.342 409.177C723.211 413.629 731.609 416.287 744.807 416.287C752.421 416.287 761.1 415.381 769.904 413.667C794.709 408.836 813.731 398.966 812.309 391.659C811.858 389.349 809.822 387.715 805.897 386.513C805.837 386.494 805.791 386.449 805.772 386.388C805.602 385.846 805.389 385.372 805.158 384.871C805.014 384.553 804.862 384.219 804.726 383.87C804.703 383.809 804.711 383.741 804.749 383.692C804.783 383.643 804.843 383.612 804.904 383.612H804.912C820.412 384.325 829.185 387.673 830.281 393.293C831.256 398.291 825.69 404.233 814.611 410.019C803.596 415.771 788.43 420.712 771.906 423.931C759.83 426.282 747.924 427.526 737.482 427.526L737.474 427.534Z" fill="#3A86FF"/>
<path d="M804.896 383.805C819.433 384.473 828.969 387.586 830.087 393.334C832.063 403.485 805.996 417.106 771.86 423.753C759.382 426.184 747.552 427.344 737.47 427.344C719.972 427.344 707.733 423.844 706.478 417.405C705.359 411.657 714.391 404.255 727.616 398.18C727.627 399.121 727.521 399.94 727.601 400.892C724.344 403.535 721.69 406.845 722.152 409.219C723.07 413.924 732.014 416.484 744.803 416.484C752.17 416.484 760.819 415.634 769.938 413.86C794.883 409.002 813.935 399.049 812.491 391.628C812.028 389.254 809.958 387.567 805.946 386.338C805.662 385.428 805.241 384.685 804.896 383.809M804.896 383.426C804.775 383.426 804.661 383.483 804.589 383.585C804.513 383.692 804.498 383.824 804.544 383.946C804.684 384.298 804.832 384.632 804.98 384.954C805.203 385.451 805.419 385.921 805.582 386.448C805.62 386.566 805.715 386.661 805.833 386.699C809.685 387.878 811.679 389.467 812.115 391.7C812.771 395.06 808.691 399.314 800.93 403.368C792.922 407.55 781.889 411.145 769.858 413.484C761.062 415.198 752.398 416.101 744.796 416.101C731.889 416.101 723.354 413.435 722.516 409.143C722.137 407.201 724.173 404.149 727.832 401.184C727.931 401.104 727.98 400.983 727.972 400.858C727.927 400.3 727.946 399.792 727.969 399.254C727.984 398.909 727.995 398.552 727.991 398.177C727.991 398.048 727.923 397.93 727.817 397.862C727.756 397.824 727.684 397.801 727.612 397.801C727.559 397.801 727.506 397.813 727.453 397.835C720.712 400.93 715.164 404.32 711.411 407.63C707.377 411.19 705.538 414.596 706.099 417.477C706.732 420.731 710.072 423.385 715.763 425.152C721.178 426.836 728.681 427.723 737.463 427.723C747.92 427.723 759.837 426.479 771.924 424.125C788.467 420.901 803.652 415.957 814.682 410.193C825.841 404.365 831.441 398.351 830.451 393.262C829.337 387.544 820.506 384.143 804.908 383.426C804.9 383.426 804.896 383.426 804.889 383.426H804.896Z" fill="white"/>
<rect x="1" y="663" width="1729" height="50" fill="#9FEDFF"/>
</g>
</g>
<defs>
<filter id="filter0_d_557_959" x="1109.65" y="505.221" width="182.22" height="182.232" filterUnits="userSpaceOnUse" color-interpolation-filters="sRGB">
<feFlood flood-opacity="0" result="BackgroundImageFix"/>
<feColorMatrix in="SourceAlpha" type="matrix" values="0 0 0 0 0 0 0 0 0 0 0 0 0 0 0 0 0 0 127 0" result="hardAlpha"/>
<feOffset dy="4"/>
<feGaussianBlur stdDeviation="5"/>
<feComposite in2="hardAlpha" operator="out"/>
<feColorMatrix type="matrix" values="0 0 0 0 1 0 0 0 0 1 0 0 0 0 1 0 0 0 0.25 0"/>
<feBlend mode="normal" in2="BackgroundImageFix" result="effect1_dropShadow_557_959"/>
<feBlend mode="normal" in="SourceGraphic" in2="effect1_dropShadow_557_959" result="shape"/>
</filter>
<linearGradient id="paint0_linear_557_959" x1="895.998" y1="34.0811" x2="896" y2="817" gradientUnits="userSpaceOnUse">
<stop stop-opacity="0.1"/>
<stop offset="0.165471" stop-color="#F63DFF" stop-opacity="0.4"/>
<stop offset="0.513891" stop-color="#F91E68"/>
<stop offset="0.759257" stop-color="#FF9D00"/>
<stop offset="1" stop-color="#3A86FF"/>
</linearGradient>
<linearGradient id="paint1_linear_557_959" x1="1191.5" y1="551" x2="1055.91" y2="188.399" gradientUnits="userSpaceOnUse">
<stop stop-color="#FF99CC" stop-opacity="0.5"/>
<stop offset="1" stop-color="#F63DFF" stop-opacity="0"/>
</linearGradient>
<linearGradient id="paint2_linear_557_959" x1="1210.5" y1="602" x2="1643.34" y2="143.849" gradientUnits="userSpaceOnUse">
<stop stop-color="#FF99CC" stop-opacity="0.5"/>
<stop offset="1" stop-color="#F63DFF" stop-opacity="0"/>
</linearGradient>
<linearGradient id="paint3_linear_557_959" x1="1186" y1="554.5" x2="776.366" y2="111.953" gradientUnits="userSpaceOnUse">
<stop stop-color="#FF99CC" stop-opacity="0.5"/>
<stop offset="1" stop-color="#F63DFF" stop-opacity="0"/>
</linearGradient>
<linearGradient id="paint4_linear_557_959" x1="1302" y1="707" x2="1953.84" y2="976.675" gradientUnits="userSpaceOnUse">
<stop stop-color="#FF99CC" stop-opacity="0.5"/>
<stop offset="1" stop-color="#F63DFF" stop-opacity="0"/>
</linearGradient>
<linearGradient id="paint5_linear_557_959" x1="1135.5" y1="602" x2="977.554" y2="-73.0045" gradientUnits="userSpaceOnUse">
<stop stop-color="#FF99CC" stop-opacity="0.5"/>
<stop offset="1" stop-color="#F63DFF" stop-opacity="0"/>
</linearGradient>
<linearGradient id="paint6_linear_557_959" x1="1377.14" y1="680.362" x2="1373.4" y2="603.777" gradientUnits="userSpaceOnUse">
<stop stop-color="#FFBE0B"/>
<stop offset="1" stop-color="#FF99CC"/>
</linearGradient>
<linearGradient id="paint7_linear_557_959" x1="842.908" y1="673.909" x2="846.564" y2="598.087" gradientUnits="userSpaceOnUse">
<stop stop-color="#FFBE0B"/>
<stop offset="1" stop-color="#FF99CC"/>
</linearGradient>
<linearGradient id="paint8_linear_557_959" x1="184.921" y1="675.349" x2="181.182" y2="598.764" gradientUnits="userSpaceOnUse">
<stop stop-color="#FFBE0B"/>
<stop offset="1" stop-color="#FF99CC"/>
</linearGradient>
<linearGradient id="paint9_linear_557_959" x1="892.702" y1="598.518" x2="995.504" y2="731.497" gradientUnits="userSpaceOnUse">
<stop stop-color="#FF99CC"/>
<stop offset="1" stop-color="#FB5607"/>
</linearGradient>
<clipPath id="clip0_557_959">
<rect width="2222" height="1529" fill="white" transform="translate(-246 -596)"/>
</clipPath>
</defs>
</svg>
