<svg width="82" height="81" viewBox="0 0 82 81" fill="none" xmlns="http://www.w3.org/2000/svg">
<g clip-path="url(#clip0_316_132)">
<path d="M40.8094 79.9798C31.5944 79.9798 21.467 75.9858 13.7184 69.2934C5.64444 62.3205 1.0166 53.2434 1.0166 44.3831C1.0166 35.5228 5.78422 24.4181 13.7692 15.4992C21.8838 6.43228 31.9604 1.0202 40.723 1.0202C49.4857 1.0202 59.6614 6.57 67.9539 15.8664C76.1117 25.0124 80.9835 35.9513 80.9835 45.1227C80.9835 54.2942 76.409 62.7617 68.1063 69.6505C60.3094 76.1184 50.1058 79.9798 40.8094 79.9798Z" fill="white"/>
<path d="M40.723 2.04037C45.0815 2.04037 49.6991 3.39466 54.4464 6.06499C58.9091 8.57719 63.3184 12.2014 67.1965 16.5474C71.0213 20.8372 74.2234 25.7035 76.4573 30.6208C78.7547 35.6809 79.9669 40.6951 79.9669 45.1227C79.9669 49.5503 78.8131 53.8606 76.536 58.0484C74.4064 61.9634 71.2678 65.7049 67.4583 68.8649C63.7351 71.9535 59.3538 74.5091 54.7895 76.2536C50.1566 78.0236 45.3229 78.9596 40.8094 78.9596C36.2959 78.9596 31.5181 77.9879 26.9182 76.149C22.4098 74.3459 18.0743 71.7087 14.3816 68.5206C10.6255 65.2764 7.52501 61.4482 5.41821 57.4491C3.17164 53.1873 2.0331 48.7928 2.0331 44.3856C2.0331 39.9784 3.21738 34.977 5.46141 29.9934C7.64191 25.1475 10.7754 20.3731 14.5265 16.1827C18.3259 11.9387 22.6665 8.40121 27.0758 5.95787C31.7646 3.35895 36.3569 2.04292 40.723 2.04292M40.723 0C21.1264 0 0 24.7165 0 44.3831C0 64.0497 21.2129 81 40.8094 81C60.4059 81 82 64.7918 82 45.1227C82 25.4536 60.3221 0 40.723 0Z" fill="black"/>
<path d="M29.846 42.0927C31.5878 42.0927 32.9998 39.4516 32.9998 36.1935C32.9998 32.9355 31.5878 30.2943 29.846 30.2943C28.1042 30.2943 26.6921 32.9355 26.6921 36.1935C26.6921 39.4516 28.1042 42.0927 29.846 42.0927Z" fill="black"/>
<path d="M50.802 42.0927C52.5439 42.0927 53.9559 39.4516 53.9559 36.1935C53.9559 32.9355 52.5439 30.2943 50.802 30.2943C49.0602 30.2943 47.6482 32.9355 47.6482 36.1935C47.6482 39.4516 49.0602 42.0927 50.802 42.0927Z" fill="black"/>
<path d="M65.5778 47.5671C65.6395 45.8201 63.0594 44.3104 59.815 44.195C56.5706 44.0795 53.8905 45.4022 53.8288 47.1491C53.7671 48.8961 56.3471 50.4058 59.5915 50.5212C62.836 50.6366 65.5161 49.314 65.5778 47.5671Z" fill="black"/>
<path d="M25.2221 47.5672C25.2838 45.8202 22.7037 44.3105 19.4593 44.1951C16.2149 44.0797 13.5347 45.4023 13.473 47.1492C13.4113 48.8962 15.9914 50.4059 19.2358 50.5213C22.4802 50.6368 25.1604 49.3141 25.2221 47.5672Z" fill="black"/>
<path d="M25.6781 27.0094C22.6691 28.2361 20.3768 29.5496 20.1074 28.8814C19.838 28.2132 22.082 25.3541 25.091 24.1299C28.1 22.9031 30.7329 23.7779 31.0023 24.4436C31.2716 25.1093 28.6896 25.7851 25.6806 27.0094H25.6781Z" fill="black"/>
<path d="M54.3423 26.0529C57.3513 27.2797 59.6436 28.5932 59.913 27.925C60.1824 27.2568 57.9384 24.3977 54.9294 23.1735C51.9204 21.9467 49.2875 22.8215 49.0181 23.4872C48.7487 24.1528 51.3308 24.8287 54.3398 26.0529H54.3423Z" fill="black"/>
</g>
<defs>
<clipPath id="clip0_316_132">
<rect width="82" height="81" fill="white"/>
</clipPath>
</defs>
</svg>
