<svg width="1728" height="1117" viewBox="0 0 1728 1117" fill="none" xmlns="http://www.w3.org/2000/svg">
<g clip-path="url(#clip0_508_1430)">
<rect width="1728" height="1117" fill="black"/>
<path d="M1824.95 -177H-95.0503V2026.12H1824.95V-177Z" fill="url(#paint0_linear_508_1430)"/>
<path d="M1373.32 866.41C1304.31 809.47 1190.03 690.39 1325.61 551.98C1411.48 464.32 1515.27 390.01 1490.43 286.59C1465.58 183.17 1132.58 153.89 1497.59 -36H1137.68C1126.73 -22.78 1115.35 -9.63 1103.22 3.05C981.54 130.27 1044.05 209.91 1078.86 250.85C1206.41 400.88 1238.65 396.3 1099.4 584.18C993.67 726.84 1030.56 812.31 1193.42 878.56C1296.25 920.39 1429.4 1019.35 1282.27 1256.44C1135.14 1493.53 1315.72 1563.19 1315.72 1563.19L1390.74 1575.54C1390.74 1575.54 1225.7 1464.79 1403.68 1262.71C1581.65 1060.64 1462.08 939.61 1373.34 866.4L1373.32 866.41Z" fill="url(#paint1_linear_508_1430)" stroke="white" stroke-miterlimit="10"/>
<path d="M1823.83 499.15C1767.26 589.81 1687.54 652.87 1626.27 682.11C1482.47 750.74 1481.99 858.73 1574.54 960.56C1632.98 1024.86 1690.25 1146.53 1484.73 1309.19C1279.21 1471.85 1383.38 1581.5 1383.38 1581.5L1433.47 1612.83C1433.47 1612.83 1357.59 1472.23 1571.42 1348.13C1785.25 1224.03 1747.01 1087.18 1711.82 999.87C1684.45 931.97 1649.31 798.26 1805.83 717.03C1812.11 713.77 1818.1 710.72 1823.83 707.82V499.16V499.15Z" fill="url(#paint2_linear_508_1430)" stroke="white" stroke-miterlimit="10"/>
<path d="M747.01 469.02C825.39 579.85 713.36 648.33 696.02 767.09C668.63 954.6 828.6 975.77 916.5 977.16C1029.52 978.95 1194.82 998.38 1170.71 1260.02C1146.59 1521.66 1342.06 1505.69 1342.06 1505.69L1275.27 1541.83C1275.27 1541.83 1091.32 1598.47 1070.59 1328.94C1049.86 1059.4 886.59 1064.99 780.58 1095.6C612.68 1144.09 503.71 1098.66 534.94 928.88C557.27 807.51 701.31 652.22 313.98 498.03C313.98 498.03 67.6901 407.69 194.79 215.91C295.54 63.87 291.74 27.23 224.04 -36H587.39C587.39 -36 605.2 30.83 559.05 97.17C491.88 193.73 427.78 230.03 464.03 309.95C505.15 400.61 686.72 383.76 747.02 469.02H747.01Z" fill="url(#paint3_linear_508_1430)" stroke="white" stroke-miterlimit="10"/>
<path d="M-96.99 866.51C194.77 852.96 300.94 1032.59 346.14 1143.77C408.42 1296.97 557.82 1271.5 637.13 1233.57C739.11 1184.81 895.75 1128.54 990.76 1373.51C1085.77 1618.48 1253.63 1517.07 1253.63 1517.07L1209.94 1579.19C1209.94 1579.19 1070.51 1711.88 931.83 1479.82C793.15 1247.77 655.46 1332.62 568.22 1400.18C500.37 1452.72 363.47 1505.02 274.02 1360.4C209.11 1255.45 115.02 1087.79 -97 1147.74" fill="url(#paint4_linear_508_1430)"/>
<path d="M-96.99 866.51C194.77 852.96 300.94 1032.59 346.14 1143.77C408.42 1296.97 557.82 1271.5 637.13 1233.57C739.11 1184.81 895.75 1128.54 990.76 1373.51C1085.77 1618.48 1253.63 1517.07 1253.63 1517.07L1209.94 1579.19C1209.94 1579.19 1070.51 1711.88 931.83 1479.82C793.15 1247.77 655.46 1332.62 568.22 1400.18C500.37 1452.72 363.47 1505.02 274.02 1360.4C209.11 1255.45 115.02 1087.79 -97 1147.74" stroke="white" stroke-miterlimit="10"/>
<rect opacity="0.7" x="-97" y="-15" width="1922" height="1132" fill="black"/>
</g>
<defs>
<linearGradient id="paint0_linear_508_1430" x1="309.39" y1="1664.73" x2="1915.88" y2="-475.57" gradientUnits="userSpaceOnUse">
<stop stop-color="#FF9D00"/>
<stop offset="0.14" stop-color="#FF9D00"/>
<stop offset="0.37" stop-color="#F91E68"/>
<stop offset="0.64" stop-color="#F63DFF"/>
<stop offset="1" stop-color="#3A86FF"/>
</linearGradient>
<linearGradient id="paint1_linear_508_1430" x1="1337.36" y1="1418.52" x2="1239.34" y2="-111.64" gradientUnits="userSpaceOnUse">
<stop stop-color="#FFBE0B"/>
<stop offset="0.67" stop-color="#FF99CC"/>
<stop offset="1" stop-color="#9FEDFF"/>
</linearGradient>
<linearGradient id="paint2_linear_508_1430" x1="1368.84" y1="1473.85" x2="2060.4" y2="145.17" gradientUnits="userSpaceOnUse">
<stop stop-color="#FFBE0B"/>
<stop offset="0.67" stop-color="#FF99CC"/>
<stop offset="1" stop-color="#9FEDFF"/>
</linearGradient>
<linearGradient id="paint3_linear_508_1430" x1="1008.88" y1="1343.69" x2="242.66" y2="-82.6401" gradientUnits="userSpaceOnUse">
<stop stop-color="#FFBE0B"/>
<stop offset="0.67" stop-color="#FF99CC"/>
<stop offset="1" stop-color="#9FEDFF"/>
</linearGradient>
<linearGradient id="paint4_linear_508_1430" x1="966.39" y1="1536.59" x2="-654.1" y2="569.85" gradientUnits="userSpaceOnUse">
<stop stop-color="#FFBE0B"/>
<stop offset="0.67" stop-color="#FF99CC"/>
<stop offset="1" stop-color="#9FEDFF"/>
</linearGradient>
<clipPath id="clip0_508_1430">
<rect width="1728" height="1117" fill="white"/>
</clipPath>
</defs>
</svg>
