<?xml version="1.0" encoding="UTF-8"?>
<svg id="Laag_1" data-name="Laag 1" xmlns="http://www.w3.org/2000/svg" xmlns:xlink="http://www.w3.org/1999/xlink" viewBox="0 0 1728 905.18">
  <defs>
    <style>
      .cls-1 {
        fill: #404df1;
      }

      .cls-1, .cls-2, .cls-3, .cls-4, .cls-5, .cls-6, .cls-7, .cls-8, .cls-9, .cls-10, .cls-11, .cls-12, .cls-13, .cls-14, .cls-15, .cls-16, .cls-17, .cls-18, .cls-19, .cls-20, .cls-21, .cls-22, .cls-23, .cls-24, .cls-25 {
        stroke-width: 0px;
      }

      .cls-2 {
        fill: #1f3d68;
      }

      .cls-26 {
        fill: #c1ef00;
      }

      .cls-26, .cls-27, .cls-28, .cls-29, .cls-30, .cls-31, .cls-32, .cls-33, .cls-34, .cls-35, .cls-36, .cls-37 {
        stroke: #fff;
      }

      .cls-26, .cls-32, .cls-35 {
        stroke-miterlimit: 10;
      }

      .cls-27 {
        stroke-width: 1.06px;
      }

      .cls-27, .cls-28, .cls-29, .cls-30, .cls-31, .cls-33, .cls-34, .cls-35, .cls-36, .cls-37 {
        stroke-linecap: round;
      }

      .cls-27, .cls-28, .cls-29, .cls-30, .cls-31, .cls-33, .cls-34, .cls-36, .cls-37 {
        stroke-linejoin: round;
      }

      .cls-27, .cls-34, .cls-35, .cls-36 {
        fill: none;
      }

      .cls-3 {
        fill: #ffcfe9;
      }

      .cls-28 {
        fill: url(#Naamloos_verloop_2);
      }

      .cls-29 {
        fill: url(#Naamloos_verloop_3);
      }

      .cls-30 {
        fill: url(#Naamloos_verloop_5);
      }

      .cls-31 {
        fill: url(#Naamloos_verloop_4);
      }

      .cls-32 {
        fill: #00c684;
      }

      .cls-38 {
        mask: url(#mask);
      }

      .cls-4 {
        fill: #f4a6ff;
      }

      .cls-5, .cls-33, .cls-37 {
        fill: #ffccfe;
      }

      .cls-33, .cls-35, .cls-36 {
        stroke-width: 2px;
      }

      .cls-6 {
        fill: url(#Naamloos_verloop_14);
      }

      .cls-7 {
        fill: url(#Naamloos_verloop_12);
      }

      .cls-8 {
        fill: url(#Naamloos_verloop_10);
      }

      .cls-9 {
        fill: url(#Naamloos_verloop_13);
      }

      .cls-10 {
        fill: url(#Naamloos_verloop_15);
      }

      .cls-11 {
        fill: url(#Naamloos_verloop_16);
      }

      .cls-12 {
        fill: url(#Naamloos_verloop_11);
      }

      .cls-13 {
        fill: #853793;
      }

      .cls-14 {
        fill: #9fedff;
      }

      .cls-15 {
        fill: #3a86ff;
      }

      .cls-16 {
        fill: #f78dff;
      }

      .cls-39 {
        opacity: .52;
      }

      .cls-40 {
        opacity: .49;
      }

      .cls-41 {
        opacity: .88;
      }

      .cls-17 {
        fill: #f63dff;
      }

      .cls-18 {
        fill: url(#Naamloos_verloop_7);
      }

      .cls-19 {
        fill: url(#Naamloos_verloop_9);
      }

      .cls-20 {
        fill: url(#Naamloos_verloop_6);
      }

      .cls-21 {
        fill: url(#Naamloos_verloop_8);
      }

      .cls-22 {
        fill: #f9c;
      }

      .cls-23 {
        fill: #fff;
      }

      .cls-24 {
        fill: #ffe164;
      }

      .cls-25 {
        fill: url(#Naamloos_verloop);
      }
    </style>
    <mask id="mask" x="-249.31" y="-624.13" width="2222.64" height="1529.62" maskUnits="userSpaceOnUse">
      <g id="mask0_420_2986" data-name="mask0 420 2986">
        <path class="cls-23" d="M1727.39-6.21H-6.5v906.32h1733.89V-6.21Z"/>
      </g>
    </mask>
    <linearGradient id="Naamloos_verloop" data-name="Naamloos verloop" x1="842" y1="210.71" x2="842" y2="-671.24" gradientTransform="translate(0 279.65) scale(1 -1)" gradientUnits="userSpaceOnUse">
      <stop offset="0" stop-color="#e1d303"/>
      <stop offset=".18" stop-color="#ff9d00"/>
      <stop offset=".37" stop-color="#f91e68"/>
      <stop offset=".64" stop-color="#f63dff"/>
      <stop offset="1" stop-color="#3a86ff"/>
    </linearGradient>
    <linearGradient id="Naamloos_verloop_2" data-name="Naamloos verloop 2" x1="1244.14" y1="-178.81" x2="1360.45" y2="945.68" gradientTransform="translate(0 279.65) scale(1 -1)" gradientUnits="userSpaceOnUse">
      <stop offset="0" stop-color="#ffbe0b"/>
      <stop offset="1" stop-color="#c2ea00"/>
    </linearGradient>
    <linearGradient id="Naamloos_verloop_3" data-name="Naamloos verloop 3" x1="1195.55" y1="-268.37" x2="2041.77" y2="552.55" gradientTransform="translate(0 279.65) scale(1 -1)" gradientUnits="userSpaceOnUse">
      <stop offset="0" stop-color="#ffbe0b"/>
      <stop offset="1" stop-color="#c2ea00"/>
    </linearGradient>
    <linearGradient id="Naamloos_verloop_4" data-name="Naamloos verloop 4" x1="968.95" y1="-120.12" x2="404" y2="931.48" gradientTransform="translate(0 279.65) scale(1 -1)" gradientUnits="userSpaceOnUse">
      <stop offset="0" stop-color="#ffbe0b"/>
      <stop offset="1" stop-color="#c2ea00"/>
    </linearGradient>
    <linearGradient id="Naamloos_verloop_5" data-name="Naamloos verloop 5" x1="1268.49" y1="-294.82" x2="2863.55" y2="91.88" gradientTransform="translate(0 279.65) scale(1 -1)" gradientUnits="userSpaceOnUse">
      <stop offset="0" stop-color="#ffbe0b"/>
      <stop offset="1" stop-color="#c2ea00"/>
    </linearGradient>
    <linearGradient id="Naamloos_verloop_6" data-name="Naamloos verloop 6" x1="904.87" y1="-233.95" x2="-581.86" y2="652.93" gradientTransform="translate(0 279.65) scale(1 -1)" gradientUnits="userSpaceOnUse">
      <stop offset="0" stop-color="#ffbe0b"/>
      <stop offset="1" stop-color="#c2ea00"/>
    </linearGradient>
    <linearGradient id="Naamloos_verloop_7" data-name="Naamloos verloop 7" x1="1374.14" y1="-372.9" x2="1370.4" y2="-296.32" gradientTransform="translate(0 279.65) scale(1 -1)" gradientUnits="userSpaceOnUse">
      <stop offset="0" stop-color="#ffbe0b"/>
      <stop offset="1" stop-color="#f9c"/>
    </linearGradient>
    <linearGradient id="Naamloos_verloop_8" data-name="Naamloos verloop 8" x1="1372.51" y1="-381.96" x2="1373.73" y2="-344.01" gradientTransform="translate(0 279.65) scale(1 -1)" gradientUnits="userSpaceOnUse">
      <stop offset="0" stop-color="#00cd00"/>
      <stop offset="1" stop-color="#c2ea00"/>
    </linearGradient>
    <linearGradient id="Naamloos_verloop_9" data-name="Naamloos verloop 9" x1="839.77" y1="-367.13" x2="843.51" y2="-290.55" gradientTransform="translate(0 279.65) scale(1 -1)" gradientUnits="userSpaceOnUse">
      <stop offset="0" stop-color="#ffbe0b"/>
      <stop offset="1" stop-color="#f9c"/>
    </linearGradient>
    <linearGradient id="Naamloos_verloop_10" data-name="Naamloos verloop 10" x1="841.72" y1="-388.42" x2="840.5" y2="-350.47" gradientTransform="translate(0 279.65) scale(1 -1)" gradientUnits="userSpaceOnUse">
      <stop offset="0" stop-color="#00cd00"/>
      <stop offset="1" stop-color="#c2ea00"/>
    </linearGradient>
    <linearGradient id="Naamloos_verloop_11" data-name="Naamloos verloop 11" x1="181.92" y1="-367.89" x2="178.18" y2="-291.3" gradientTransform="translate(0 279.65) scale(1 -1)" gradientUnits="userSpaceOnUse">
      <stop offset="0" stop-color="#ffbe0b"/>
      <stop offset="1" stop-color="#f9c"/>
    </linearGradient>
    <linearGradient id="Naamloos_verloop_12" data-name="Naamloos verloop 12" x1="179.9" y1="-389.18" x2="181.12" y2="-351.23" gradientTransform="translate(0 279.65) scale(1 -1)" gradientUnits="userSpaceOnUse">
      <stop offset="0" stop-color="#00cd00"/>
      <stop offset="1" stop-color="#c2ea00"/>
    </linearGradient>
    <linearGradient id="Naamloos_verloop_13" data-name="Naamloos verloop 13" x1="841.46" y1="-732.08" x2="841.46" y2="-487.13" gradientTransform="translate(0 279.65) scale(1 -1)" gradientUnits="userSpaceOnUse">
      <stop offset="0" stop-color="#ffbe0b"/>
      <stop offset="1" stop-color="#c2ea00"/>
    </linearGradient>
    <linearGradient id="Naamloos_verloop_14" data-name="Naamloos verloop 14" x1="115.18" y1="-736.61" x2="115.18" y2="-492.02" gradientTransform="translate(0 279.65) scale(1 -1)" gradientUnits="userSpaceOnUse">
      <stop offset="0" stop-color="#ffbe0b"/>
      <stop offset="1" stop-color="#c2ea00"/>
    </linearGradient>
    <linearGradient id="Naamloos_verloop_15" data-name="Naamloos verloop 15" x1="1588.55" y1="-735.49" x2="1588.55" y2="-483.81" gradientTransform="translate(0 279.65) scale(1 -1)" gradientUnits="userSpaceOnUse">
      <stop offset="0" stop-color="#ffbe0b"/>
      <stop offset="1" stop-color="#c2ea00"/>
    </linearGradient>
    <linearGradient id="Naamloos_verloop_16" data-name="Naamloos verloop 16" x1="889.7" y1="-291.06" x2="893.4" y2="-308.51" gradientTransform="translate(0 279.65) scale(1 -1)" gradientUnits="userSpaceOnUse">
      <stop offset="0" stop-color="#c1ef00"/>
      <stop offset="1" stop-color="#00cd00"/>
    </linearGradient>
  </defs>
  <g class="cls-38">
    <g>
      <path class="cls-25" d="M1777.76-60.42H-93.76v960.53h1871.52V-60.42Z"/>
      <path class="cls-28" d="M1338,61.34c-43.19-49.85-111.68-150.43,3.84-234.45,73.16-53.21,157.73-94.52,152.34-172.76-5.4-78.23-243.9-140.32,44.72-233.66l-261.65-44.1c-9.58,8.27-19.47,16.44-29.84,24.17-104.05,77.59-68.36,143.15-48.07,177.17,74.35,124.71,98.34,125.32-25.91,244.86-94.34,90.77-78,157.43,32.29,225.54,69.63,43.01,154.3,131.28,18.29,285.62-136,154.35-13.26,227.12-13.26,227.12l53.02,18.18s-106.41-100.75,47.73-225.86c154.14-125.11,82.04-227.76,26.5-291.85h0Z"/>
      <path class="cls-29" d="M1781.68-62.54c-60.64,50.3-175.74,113.45-225.4,119.68-116.56,14.61-141.98,90.05-100.89,182.81,25.95,58.57,37.75,157.02-143.84,223.08-181.59,66.05-134.18,166.99-134.18,166.99l27.77,33.56s-20.42-116.01,158.02-153.16c178.44-37.16,183.49-141.79,179.16-211.06-3.37-53.87,3.11-155.6,131.49-176.07,5.15-.82,104.66-6.44,109.34-7.14l-1.46-178.7h0Z"/>
      <path class="cls-31" d="M775.84-245.1c57.78,81.71-24.81,132.2-37.59,219.76-20.19,138.25,97.74,153.86,162.55,154.88,83.32,1.32,205.19,15.65,187.41,208.55-17.78,192.9,126.33,181.13,126.33,181.13l-49.24,26.65s-135.62,41.76-150.9-156.97c-15.29-198.73-135.66-194.61-213.81-172.03-123.78,35.75-204.12,2.26-181.09-122.93,16.46-89.48,122.66-203.98-162.9-317.66,0,0-181.57-66.61-87.87-208,74.29-112.1,71.49-139.11,21.58-185.73h267.87s13.13,49.27-20.89,98.19c-49.52,71.19-96.77,97.96-70.05,156.89,30.31,66.84,164.18,54.42,208.63,117.28h0Z"/>
      <path class="cls-30" d="M1670.76,414.4c-61.75,62.3-141.14,104.11-227.43,119.8-35.67,6.48-69.43,10.61-90.62,9.16-198.83-13.55-177.08,126.68-177.08,126.68l19.26,52.58s9.14-144.31,197.45-98.88c26.99,6.51,324.88-54.01,345.84-53.65l9.25-242.06-76.67,86.37Z"/>
      <path class="cls-20" d="M-94.44-61.41c215.1-9.99,409.67-116.67,525.73,258.86,29.9,96.76,205.06,149.11,263.54,121.15,75.18-35.95,190.66-77.44,260.71,103.18,70.05,180.61,193.8,105.84,193.8,105.84l-32.21,45.8s-102.79,97.83-205.03-73.26c-102.24-171.09-177.12-92.88-268.07-73.89-61.94,12.93-204.04-8.34-328.18-150.07C241.38,191.18,61.87,61.47-94.44,105.67"/>
      <path class="cls-34" d="M-94.44-61.41c215.1-9.99,409.67-116.67,525.73,258.86,29.9,96.76,205.06,149.11,263.54,121.15,75.18-35.95,190.66-77.44,260.71,103.18,70.05,180.61,193.8,105.84,193.8,105.84l-32.21,45.8s-102.79,97.83-205.03-73.26c-102.24-171.09-177.12-92.88-268.07-73.89-61.94,12.93-204.04-8.34-328.18-150.07C241.38,191.18,61.87,61.47-94.44,105.67"/>
      <path class="cls-24" d="M1197.76,645.63c-21.67,0-42.04-8.43-57.36-23.76-15.31-15.32-23.75-35.69-23.75-57.35,0-18.51,6.39-36.61,18.01-50.97,11.44-14.16,27.46-24.15,45.11-28.15,5.87-1.32,11.92-2,17.99-2,21.66,0,42.03,8.44,57.35,23.76s23.76,35.69,23.76,57.36-8.44,42.03-23.76,57.35c-15.32,15.32-35.69,23.76-57.35,23.76Z"/>
      <path class="cls-23" d="M1197.76,483.77c44.59,0,80.73,36.15,80.73,80.75s-36.14,80.74-80.73,80.74-80.74-36.15-80.74-80.74c0-38.45,26.86-70.61,62.84-78.76,5.76-1.3,11.75-1.99,17.9-1.99ZM1197.76,483.04c-6.1,0-12.18.67-18.07,2.01-17.73,4.01-33.82,14.05-45.32,28.27-5.73,7.09-10.21,15.03-13.29,23.57-3.19,8.85-4.8,18.14-4.8,27.63,0,11,2.15,21.67,6.4,31.72,4.11,9.7,9.98,18.42,17.46,25.9s16.2,13.36,25.9,17.46c10.04,4.25,20.72,6.4,31.72,6.4s21.67-2.15,31.71-6.4c9.71-4.1,18.42-9.98,25.9-17.46s13.36-16.2,17.46-25.9c4.25-10.05,6.4-20.72,6.4-31.72s-2.15-21.67-6.4-31.72c-4.1-9.7-9.98-18.42-17.46-25.9s-16.2-13.36-25.9-17.46c-10.04-4.25-20.71-6.4-31.71-6.4Z"/>
      <path class="cls-3" d="M1736.25,572.87s-18.34-13.17-36.43-15.71c-13.82-1.94-29.07,15.78-37.1,21.42-12.53,8.82-15.23,7.31-22.12,2.33-13.3-9.62-33.01-23.74-39.95-28.01-5.95-3.65-14.55-7.96-23.45-9.2-7.33-1.02-14.87.04-21.3,5.24-14.24,11.53-22.9,27.97-34.58,27.13-22.15-1.62-43.39-22.6-69.83-23.17-26.45-.57-44.06,29.55-58.31,29.27-28.93-.58-58.88-36.03-100.17-38.32-42.44-2.36-74.23,41.9-97.15,39-27.8-3.52-45.08-62.39-88.82-62.39s-61.48,59.48-98.77,66.94v34.44l727.98,9.74"/>
      <path class="cls-34" d="M1736.25,572.87s-18.34-13.17-36.43-15.71c-13.82-1.94-29.07,15.78-37.1,21.42-12.53,8.82-15.23,7.31-22.12,2.33-13.3-9.62-33.01-23.74-39.95-28.01-5.95-3.65-14.55-7.96-23.45-9.2-7.33-1.02-14.87.04-21.3,5.24-14.24,11.53-22.9,27.97-34.58,27.13-22.15-1.62-43.39-22.6-69.83-23.17-26.45-.57-44.06,29.55-58.31,29.27-28.93-.58-58.88-36.03-100.17-38.32-42.44-2.36-74.23,41.9-97.15,39-27.8-3.52-45.08-62.39-88.82-62.39s-61.48,59.48-98.77,66.94v34.44l727.98,9.74"/>
      <path class="cls-17" d="M1736.37,585.1s-18.34-13.18-36.43-15.71c-13.82-1.94-29.07,15.78-37.1,21.42-12.53,8.82-15.23,7.31-22.12,2.33-13.3-9.62-33.01-23.74-39.95-28.01-5.95-3.66-14.55-7.96-23.45-9.2-7.33-1.02-14.87.03-21.3,5.24-14.23,11.53-22.9,27.97-34.58,27.12-22.15-1.61-43.39-22.59-69.83-23.16-26.45-.57-44.06,29.55-58.31,29.27-28.93-.58-58.88-36.03-100.17-38.33-42.44-2.35-74.23,41.9-97.14,39-27.81-3.51-45.09-62.38-88.83-62.38s-61.48,59.48-98.77,66.93v34.45l727.98,9.74"/>
      <path class="cls-34" d="M1736.37,585.1s-18.34-13.18-36.43-15.71c-13.82-1.94-29.07,15.78-37.1,21.42-12.53,8.82-15.23,7.31-22.12,2.33-13.3-9.62-33.01-23.74-39.95-28.01-5.95-3.66-14.55-7.96-23.45-9.2-7.33-1.02-14.87.03-21.3,5.24-14.23,11.53-22.9,27.97-34.58,27.12-22.15-1.61-43.39-22.59-69.83-23.16-26.45-.57-44.06,29.55-58.31,29.27-28.93-.58-58.88-36.03-100.17-38.33-42.44-2.35-74.23,41.9-97.14,39-27.81-3.51-45.09-62.38-88.83-62.38s-61.48,59.48-98.77,66.93v34.45l727.98,9.74"/>
      <path class="cls-18" d="M1736.56,595.97s-18.34-13.18-36.43-15.71c-13.82-1.94-29.07,15.77-37.1,21.42-12.53,8.81-15.23,7.3-22.12,2.32-13.3-9.62-33.01-23.73-39.95-28-5.95-3.66-14.55-7.97-23.45-9.21-7.33-1.02-14.87.04-21.3,5.24-14.23,11.53-22.9,27.98-34.58,27.13-22.15-1.61-43.39-22.59-69.83-23.17-26.45-.57-44.06,29.55-58.31,29.27-28.93-.58-58.88-36.03-100.17-38.32-42.44-2.36-74.23,41.9-97.14,39-27.81-3.52-45.09-62.39-88.83-62.39-6.39,0-12.22,1.25-17.63,3.4-31.98,12.72-49.43,57.18-81.33,63.56l.19,34.42,727.98,9.74"/>
      <path class="cls-34" d="M1736.56,595.97s-18.34-13.18-36.43-15.71c-13.82-1.94-29.07,15.77-37.1,21.42-12.53,8.81-15.23,7.3-22.12,2.32-13.3-9.62-33.01-23.73-39.95-28-5.95-3.66-14.55-7.97-23.45-9.21-7.33-1.02-14.87.04-21.3,5.24-14.23,11.53-22.9,27.98-34.58,27.13-22.15-1.61-43.39-22.59-69.83-23.17-26.45-.57-44.06,29.55-58.31,29.27-28.93-.58-58.88-36.03-100.17-38.32-42.44-2.36-74.23,41.9-97.14,39-27.81-3.52-45.09-62.39-88.83-62.39-6.39,0-12.22,1.25-17.63,3.4-31.98,12.72-49.43,57.18-81.33,63.56l.19,34.42,727.98,9.74"/>
      <path class="cls-14" d="M1564.87,589.27c-1.3-1.07-5.85.67-9.52,2.93-3.31,2.03-8.46,2.25-8.54,4-.07,1.75,8.1.07,12.35-.61,4.25-.69,8.98-3.64,5.71-6.32Z"/>
      <path class="cls-14" d="M1445.75,605.53c-1.84-1.48-8.21,1-13.34,4.21-4.62,2.89-11.86,3.25-11.94,5.71-.08,2.46,11.36.02,17.32-.99,5.96-1.01,12.57-5.2,7.96-8.92h0Z"/>
      <path class="cls-14" d="M1588.95,570.57s17.12,10.19,8.02,13.77c-9.1,3.59-17.41-.88-19.87,1.69-1.17,1.22.21,4.06-.17,5.95-.44,2.21-6.46,3.53-5.06,7.13,3.12,8.08,40.27-2.99,44.69,3.95,0,0,4.42,4.99-4.09,4.99-7.46,0-5.75,8.48.42,10.51,4.99,1.63,9.43.57,12.78-1.31,9.09-5.07,8.54-6.6,16.1-8.56,1.31-.34,4.86-.73,4.86-.73l-2.46-1.73c-7.5-5.29-17.42-12.35-24.2-17.24-11.06-7.99-20.96-15.38-31.03-18.42h.01Z"/>
      <path class="cls-14" d="M1586.69,573.76s2.36,1.7-.04,3.54c-2.4,1.85-7.83,3.51-11.51,1.7-3.03-1.49-.49-9,2.02-9.28,2.5-.27,7.42,2.66,9.53,4.04Z"/>
      <path class="cls-14" d="M1466.69,613.34s2.36,1.7-.04,3.55c-2.41,1.85-7.83,3.51-11.51,1.7-3.04-1.5-.49-9.01,2.01-9.28,2.51-.27,7.43,2.66,9.54,4.03Z"/>
      <path class="cls-14" d="M1451.79,575.99s24.58,12.33,15.94,16.4c-9.29,4.36-9.61,8.74-4.04,13.07,8.54,6.64,10.48,3.75,18.94,10.59,13.32,10.77-12.56-.85-13.85,6.58,0,.01-.01.01,0,.01,11.18,9.26,22.17,2.34,29.88-5.69.08-.09.16-.17.24-.25,12.11-11.59,24.95-17.58,24.95-17.58-13.84-.58-26.99-7.8-26.99-7.8,0,0-27.93-16.56-45.07-15.32h0Z"/>
      <path class="cls-21" d="M1736.56,636.65s-147.69-8.84-171.63-14.68c-23.94-5.84-23.35,16.34-33.86,16.34s-26.85-8.97-40.28-5.36c-13.43,3.61-15.18,8.28-21.6,8.87-6.42.58-77.65-20.06-103.92-20.83-26.27-.77-65.97-2.73-83.48,0-17.51,2.73-26.27,7.98-37.95,7.4-11.67-.58-54.18-.29-69.11,3.2-18.07,4.22-29.55,3.8-38.89,3.8s-42.91-7.59-57.8-7c-14.88.58-69.46,6.42-69.46,6.42v49.74h727.98"/>
      <path class="cls-34" d="M1736.56,636.65s-147.69-8.84-171.63-14.68c-23.94-5.84-23.35,16.34-33.86,16.34s-26.85-8.97-40.28-5.36c-13.43,3.61-15.18,8.28-21.6,8.87-6.42.58-77.65-20.06-103.92-20.83-26.27-.77-65.97-2.73-83.48,0-17.51,2.73-26.27,7.98-37.95,7.4-11.67-.58-54.18-.29-69.11,3.2-18.07,4.22-29.55,3.8-38.89,3.8s-42.91-7.59-57.8-7c-14.88.58-69.46,6.42-69.46,6.42v49.74h727.98"/>
      <path class="cls-22" d="M1478.04,595.92c-1.91-1.39-.88-3.98,2.18-3.48,4.95.82,6.95,2.1,9.97,4,13.04,8.23-5.97,3.99-12.15-.52Z"/>
      <path class="cls-14" d="M1297.51,567.28s14.3,5.39,10.46,8c-3.83,2.61-12.68,5.61-14.64,8.02-2.47,3.04,2.62,6.26,0,9.67-1.14,1.49-2.94,1.67-4.68,1.93-3.44.49-4.81,4.7-2.36,7.16,4.13,4.15,15.6,12.92,26.42,7.22,8.46-4.45-3.28-9.77,28.47-13.57,11.97-1.43,29.74,3.39,29.74,3.39,0,0-49.8-33.03-73.41-31.82h0Z"/>
      <path class="cls-14" d="M1280.56,567.59s16.65,2.67,12.23,7.26c-4.42,4.59-6.8,5.19-7.48,8.97-.68,3.78-6.97,6.84-14.11,2.25-7.14-4.59-13.12-11.26-13.12-11.26,0,0,13.97-7.22,22.48-7.22Z"/>
      <path class="cls-14" d="M1275.29,596.39c.53-.06.71-.74.28-1.05-.74-.52-1.82-1.1-3.09-1.21-1.46-.14-2.44.68-2.97,1.34-.28.34-.07.86.37.93.96.15,2.73.29,5.41-.01h0Z"/>
      <path class="cls-14" d="M1260.29,594.22c4.22-2.21,3.09-7.47-1.66-7.46-1.49,0-3.09.38-4.67,1.39-6.24,3.99-14.41,6.69-16.53,10.99,0,0,11.87.84,22.87-4.92h-.01Z"/>
      <path class="cls-14" d="M1108.31,543.63s18.83,8.99,11.3,12.79c-7.54,3.81-17.5-2.65-24.82,4.88-2.23,2.3-10.16,1.27-11.24,6.46-1.35,6.46,14.78.45,19.91-.52,12.92-2.44,14.93,1.47,16.69,3.37,2.68,2.91,12.11,10.07,6.18,12.22-5.91,2.16-23.41-6.85-31.54,0-9.15,7.71,1.4,11.57-2.63,14.8-4.04,3.24-13.16,1.56-13.18,7.27-.01,6.25,15.81-.27,26.49,2.63,8.9,2.42,12.92,9.75,22.57,11.02,6.48.85,10.63-9.24,28.43-17.42,9.96-4.56,24.61-2.59,24.61-2.59,0,0-8.2-7.29-14.42-14.73-9.65-11.54-23.34-28.09-38.18-35.28-7.48-3.62-13.61-4.68-20.16-4.9h0Z"/>
      <path class="cls-14" d="M1086.91,588.92s2.36,1.7-.04,3.55c-2.4,1.85-7.83,3.51-11.51,1.7-3.03-1.49-.49-9.01,2.02-9.28,2.5-.27,7.42,2.66,9.53,4.03Z"/>
      <path class="cls-14" d="M1257.9,602.98c-1.31-1.07-5.86.66-9.53,2.92-3.3,2.04-8.46,2.26-8.53,4-.07,1.75,8.09.08,12.34-.61,4.26-.69,8.98-3.64,5.72-6.31Z"/>
      <path class="cls-3" d="M1205.57,616.07l-727.98,9.74v-55.83s18.34-10.54,36.43-13.07c13.82-1.94,29.07,10.26,37.09,15.9,12.53,8.82,15.23,7.31,22.12,2.33,13.3-9.62,33.01-23.74,39.95-28.01,5.95-3.66,14.55-7.96,23.45-9.2,7.33-1.02,14.87.03,21.3,5.24,14.24,11.53,22.91,27.97,34.58,27.12,22.16-1.61,43.39-22.59,69.84-23.16,26.44-.57,44.06,29.55,58.31,29.27,28.93-.58,58.88-36.03,100.17-38.33,42.43-2.35,74.23,41.9,97.14,39,27.8-3.51,45.09-62.38,88.82-62.38s61.48,59.48,98.78,66.93"/>
      <path class="cls-34" d="M1205.57,616.07l-727.98,9.74v-55.83s18.34-10.54,36.43-13.07c13.82-1.94,29.07,10.26,37.09,15.9,12.53,8.82,15.23,7.31,22.12,2.33,13.3-9.62,33.01-23.74,39.95-28.01,5.95-3.66,14.55-7.96,23.45-9.2,7.33-1.02,14.87.03,21.3,5.24,14.24,11.53,22.91,27.97,34.58,27.12,22.16-1.61,43.39-22.59,69.84-23.16,26.44-.57,44.06,29.55,58.31,29.27,28.93-.58,58.88-36.03,100.17-38.33,42.43-2.35,74.23,41.9,97.14,39,27.8-3.51,45.09-62.38,88.82-62.38s61.48,59.48,98.78,66.93"/>
      <path class="cls-17" d="M1205.45,628.28l-727.99,9.75v-55.83s18.34-10.54,36.43-13.07c13.82-1.94,29.07,10.25,37.09,15.9,12.53,8.82,15.23,7.31,22.12,2.33,13.3-9.62,33.01-23.74,39.95-28.01,5.95-3.66,14.55-7.96,23.45-9.2,7.33-1.02,14.87.03,21.3,5.24,14.24,11.53,22.91,27.97,34.58,27.12,22.16-1.61,43.39-22.59,69.84-23.16,26.44-.57,44.06,29.55,58.31,29.26,28.93-.58,58.88-36.02,100.17-38.32,42.43-2.36,74.23,41.9,97.14,39,27.8-3.52,45.08-62.38,88.82-62.38s61.48,59.47,98.78,66.93"/>
      <path class="cls-34" d="M1205.45,628.28l-727.99,9.75v-55.83s18.34-10.54,36.43-13.07c13.82-1.94,29.07,10.25,37.09,15.9,12.53,8.82,15.23,7.31,22.12,2.33,13.3-9.62,33.01-23.74,39.95-28.01,5.95-3.66,14.55-7.96,23.45-9.2,7.33-1.02,14.87.03,21.3,5.24,14.24,11.53,22.91,27.97,34.58,27.12,22.16-1.61,43.39-22.59,69.84-23.16,26.44-.57,44.06,29.55,58.31,29.26,28.93-.58,58.88-36.02,100.17-38.32,42.43-2.36,74.23,41.9,97.14,39,27.8-3.52,45.09-62.38,88.82-62.38s61.48,59.47,98.78,66.93"/>
      <path class="cls-19" d="M1205.26,639.14l-727.99,9.75v-55.83s18.34-10.54,36.43-13.07c13.82-1.94,29.07,10.25,37.09,15.9,12.53,8.82,15.23,7.31,22.12,2.33,13.3-9.62,33.01-23.74,39.95-28.01,5.95-3.66,14.55-7.96,23.45-9.2,7.33-1.02,14.87.03,21.3,5.24,14.24,11.53,22.9,27.97,34.58,27.12,22.16-1.61,43.4-22.59,69.84-23.16,26.44-.57,44.06,29.55,58.31,29.26,28.93-.58,58.88-36.02,100.17-38.32,42.44-2.36,74.23,41.9,97.14,39,27.8-3.52,45.09-62.38,88.82-62.38,6.39,0,12.23,1.24,17.63,3.4,31.98,12.72,49.44,57.17,81.34,63.55"/>
      <path class="cls-34" d="M1205.26,639.14l-727.99,9.75v-55.83s18.34-10.54,36.43-13.07c13.82-1.94,29.07,10.25,37.09,15.9,12.53,8.82,15.23,7.31,22.12,2.33,13.3-9.62,33.01-23.74,39.95-28.01,5.95-3.66,14.55-7.96,23.45-9.2,7.33-1.02,14.87.03,21.3,5.24,14.24,11.53,22.9,27.97,34.58,27.12,22.16-1.61,43.4-22.59,69.84-23.16,26.44-.57,44.06,29.55,58.31,29.26,28.93-.58,58.88-36.02,100.17-38.32,42.44-2.36,74.23,41.9,97.14,39,27.8-3.52,45.09-62.38,88.82-62.38,6.39,0,12.23,1.24,17.63,3.4,31.98,12.72,49.44,57.17,81.34,63.55"/>
      <path class="cls-14" d="M648.96,583.5c1.3-1.07,5.85.67,9.52,2.93,3.31,2.03,8.46,2.25,8.53,4s-8.09.07-12.34-.61c-4.25-.69-8.98-3.64-5.71-6.32Z"/>
      <path class="cls-14" d="M768.09,599.76c1.84-1.48,8.21,1,13.34,4.21,4.62,2.89,11.86,3.25,11.94,5.71.08,2.46-11.36.02-17.32-.99-5.96-1.01-12.57-5.2-7.96-8.92h0Z"/>
      <path class="cls-14" d="M624.89,564.79s-17.13,10.19-8.02,13.77c9.1,3.59,17.41-.88,19.87,1.69,1.17,1.22-.21,4.06.17,5.95.44,2.21,6.46,3.53,5.06,7.13-3.12,8.07-40.28-2.99-44.69,3.95,0,0-4.42,4.99,4.09,4.99,7.45,0,5.75,8.48-.42,10.51-4.99,1.63-9.43.56-12.78-1.31-9.09-5.07-8.54-6.6-16.1-8.56-1.31-.34-4.86-.74-4.86-.74l2.45-1.73c7.5-5.28,17.43-12.34,24.21-17.23,11.06-7.99,20.96-15.38,31.03-18.42h0Z"/>
      <path class="cls-14" d="M627.15,568s-2.36,1.69.04,3.54c2.4,1.85,7.83,3.51,11.51,1.7,3.04-1.49.49-9.01-2.01-9.28s-7.42,2.66-9.53,4.04Z"/>
      <path class="cls-14" d="M747.15,607.57s-2.36,1.7.04,3.54c2.4,1.85,7.83,3.51,11.51,1.7,3.04-1.49.49-9-2.01-9.28-2.51-.27-7.42,2.67-9.53,4.04Z"/>
      <path class="cls-14" d="M762.04,570.22s-24.57,12.33-15.93,16.39c9.29,4.37,9.61,8.74,4.03,13.08-8.53,6.64-10.48,3.75-18.94,10.59-13.32,10.77,12.56-.85,13.85,6.57,0,.02.01.02,0,.02-11.18,9.26-22.17,2.34-29.88-5.7-.08-.08-.16-.16-.24-.24-12.11-11.59-24.95-17.58-24.95-17.58,13.84-.58,26.99-7.8,26.99-7.8,0,0,27.93-16.56,45.07-15.32h0Z"/>
      <path class="cls-8" d="M1205.26,678.77H477.27v-39.63s147.69-17.11,171.63-22.94c23.94-5.84,23.35,16.34,33.86,16.34s26.86-8.97,40.28-5.36c13.43,3.61,15.18,8.28,21.6,8.87,6.42.58,77.65-20.06,103.92-20.83,26.27-.78,65.97-2.73,83.48,0,17.51,2.73,26.27,7.98,37.95,7.4,11.67-.58,54.54-12.3,69.48-8.81,18.06,4.23,29.19,15.82,38.53,15.82s42.9-7.59,57.79-7.01c14.89.58,69.47,6.42,69.47,6.42"/>
      <path class="cls-34" d="M1205.26,678.77H477.27v-39.63s147.69-17.11,171.63-22.94c23.94-5.84,23.35,16.34,33.86,16.34s26.86-8.97,40.28-5.36c13.43,3.61,15.18,8.28,21.6,8.87,6.42.58,77.65-20.06,103.92-20.83,26.27-.78,65.97-2.73,83.48,0,17.51,2.73,26.27,7.98,37.95,7.4,11.67-.58,54.54-12.3,69.48-8.81,18.06,4.23,29.19,15.82,38.53,15.82s42.9-7.59,57.79-7.01c14.89.58,69.47,6.42,69.47,6.42"/>
      <path class="cls-22" d="M735.79,590.15c1.91-1.4.88-3.99-2.18-3.48-4.95.81-6.95,2.1-9.97,4-13.04,8.22,5.97,3.99,12.15-.52Z"/>
      <path class="cls-14" d="M916.32,561.51s-14.29,5.38-10.46,8c3.83,2.61,12.68,5.61,14.64,8.02,2.48,3.04-2.62,6.26,0,9.67,1.14,1.49,2.94,1.67,4.68,1.93,3.44.49,4.82,4.7,2.36,7.16-4.13,4.15-15.6,12.92-26.42,7.22-8.45-4.45,3.28-9.77-28.46-13.57-11.97-1.43-29.74,3.39-29.74,3.39,0,0,49.8-33.03,73.41-31.82h0Z"/>
      <path class="cls-14" d="M933.28,561.82s-16.65,2.66-12.23,7.26c4.42,4.58,6.8,5.19,7.48,8.97.68,3.78,6.97,6.84,14.11,2.25,7.14-4.59,13.11-11.26,13.11-11.26,0,0-13.96-7.22-22.47-7.22Z"/>
      <path class="cls-14" d="M938.54,590.62c-.53-.06-.71-.74-.27-1.05.73-.52,1.82-1.1,3.08-1.21,1.47-.14,2.44.68,2.97,1.33.28.35.08.87-.36.94-.96.15-2.74.29-5.42-.01h0Z"/>
      <path class="cls-14" d="M953.54,588.45c-4.22-2.21-3.09-7.47,1.67-7.46,1.49,0,3.09.38,4.67,1.39,6.23,3.98,14.4,6.69,16.52,10.99,0,0-11.87.84-22.87-4.92h0Z"/>
      <path class="cls-14" d="M1105.52,537.87s-18.83,8.99-11.29,12.79c7.53,3.8,17.49-2.66,24.81,4.88,2.24,2.3,10.16,1.26,11.25,6.46,1.34,6.46-14.78.45-19.91-.52-12.92-2.44-14.93,1.47-16.69,3.37-2.69,2.91-12.11,10.06-6.19,12.22,5.92,2.15,23.41-6.86,31.55,0,9.14,7.7-1.41,11.57,2.63,14.8,4.04,3.23,13.15,1.55,13.17,7.27.02,6.24-15.8-.27-26.49,2.63-8.9,2.41-12.91,9.75-22.57,11.02-6.48.85-10.62-9.24-28.43-17.42-9.96-4.57-24.6-2.59-24.6-2.59,0,0,8.19-7.3,14.41-14.74,9.66-11.53,23.34-28.08,38.18-35.27,7.48-3.63,13.61-4.69,20.17-4.9h0Z"/>
      <path class="cls-14" d="M1126.92,583.15s-2.36,1.7.04,3.55c2.4,1.84,7.83,3.5,11.51,1.69,3.03-1.49.49-9-2.02-9.27-2.5-.28-7.42,2.66-9.53,4.03Z"/>
      <path class="cls-14" d="M955.94,597.21c1.31-1.07,5.86.66,9.53,2.92,3.31,2.03,8.46,2.25,8.53,4,.07,1.75-8.09.07-12.35-.61-4.25-.69-8.98-3.64-5.71-6.31Z"/>
      <path class="cls-3" d="M544.03,567.86s-18.34-13.18-36.43-15.71c-13.82-1.94-29.07,15.77-37.09,21.42-12.54,8.82-15.23,7.31-22.12,2.32-13.3-9.61-33.01-23.73-39.95-28-5.95-3.66-14.55-7.96-23.45-9.2-7.33-1.02-14.87.03-21.3,5.24-14.24,11.53-22.9,27.97-34.58,27.12-22.16-1.61-43.39-22.59-69.84-23.16-26.44-.57-44.06,29.55-58.31,29.26-28.93-.58-58.88-36.02-100.17-38.32-42.44-2.36-74.23,41.9-97.14,39-27.8-3.52-45.09-62.38-88.82-62.38s-61.48,59.47-98.77,66.93v34.44l727.98,9.75"/>
      <path class="cls-34" d="M544.03,567.86s-18.34-13.18-36.43-15.71c-13.82-1.94-29.07,15.77-37.09,21.42-12.54,8.82-15.23,7.31-22.12,2.32-13.3-9.61-33.01-23.73-39.95-28-5.95-3.66-14.55-7.96-23.45-9.2-7.33-1.02-14.87.03-21.3,5.24-14.24,11.53-22.9,27.97-34.58,27.12-22.16-1.61-43.39-22.59-69.84-23.16-26.44-.57-44.06,29.55-58.31,29.26-28.93-.58-58.88-36.02-100.17-38.32-42.44-2.36-74.23,41.9-97.14,39-27.8-3.52-45.09-62.38-88.82-62.38s-61.48,59.47-98.77,66.93v34.44l727.98,9.75"/>
      <path class="cls-17" d="M544.16,580.09s-18.34-13.18-36.43-15.71c-13.82-1.94-29.07,15.77-37.09,21.42-12.54,8.82-15.23,7.31-22.12,2.32-13.3-9.61-33.01-23.73-39.95-28-5.95-3.66-14.55-7.96-23.45-9.2-7.33-1.02-14.87.03-21.3,5.24-14.24,11.53-22.9,27.97-34.58,27.12-22.16-1.61-43.39-22.59-69.84-23.16-26.44-.57-44.06,29.55-58.31,29.26-28.93-.58-58.88-36.02-100.17-38.32-42.44-2.36-74.23,41.9-97.14,39-27.8-3.52-45.09-62.38-88.82-62.38s-61.48,59.47-98.77,66.93v34.44l727.99,9.74"/>
      <path class="cls-34" d="M544.16,580.09s-18.34-13.18-36.43-15.71c-13.82-1.94-29.07,15.77-37.09,21.42-12.54,8.82-15.23,7.31-22.12,2.32-13.3-9.61-33.01-23.73-39.95-28-5.95-3.66-14.55-7.96-23.45-9.2-7.33-1.02-14.87.03-21.3,5.24-14.24,11.53-22.9,27.97-34.58,27.12-22.16-1.61-43.39-22.59-69.84-23.16-26.44-.57-44.06,29.55-58.31,29.26-28.93-.58-58.88-36.02-100.17-38.32-42.44-2.36-74.23,41.9-97.14,39-27.8-3.52-45.09-62.38-88.82-62.38s-61.48,59.47-98.77,66.93v34.44l727.99,9.74"/>
      <path class="cls-12" d="M544.34,590.95s-18.34-13.18-36.43-15.71c-13.82-1.94-29.07,15.77-37.09,21.42-12.54,8.82-15.23,7.31-22.12,2.32-13.3-9.61-33.01-23.73-39.95-28-5.95-3.66-14.55-7.96-23.45-9.2-7.33-1.02-14.87.03-21.3,5.24-14.24,11.53-22.9,27.97-34.58,27.12-22.16-1.61-43.39-22.59-69.84-23.16-26.44-.57-44.06,29.55-58.31,29.26-28.93-.58-58.88-36.02-100.17-38.32-42.44-2.36-74.23,41.9-97.14,39-27.8-3.52-45.09-62.38-88.82-62.38-6.39,0-12.22,1.24-17.63,3.39-31.98,12.73-49.43,57.18-81.33,63.56l.19,34.42,727.99,9.74"/>
      <path class="cls-34" d="M544.34,590.95s-18.34-13.18-36.43-15.71c-13.82-1.94-29.07,15.77-37.09,21.42-12.54,8.82-15.23,7.31-22.12,2.32-13.3-9.61-33.01-23.73-39.95-28-5.95-3.66-14.55-7.96-23.45-9.2-7.33-1.02-14.87.03-21.3,5.24-14.24,11.53-22.9,27.97-34.58,27.12-22.16-1.61-43.39-22.59-69.84-23.16-26.44-.57-44.06,29.55-58.31,29.26-28.93-.58-58.88-36.02-100.17-38.32-42.44-2.36-74.23,41.9-97.14,39-27.8-3.52-45.09-62.38-88.82-62.38-6.39,0-12.22,1.24-17.63,3.39-31.98,12.73-49.43,57.18-81.33,63.56l.19,34.42,727.99,9.74"/>
      <path class="cls-14" d="M372.65,584.26c-1.3-1.07-5.85.67-9.52,2.93-3.31,2.03-8.46,2.25-8.54,4s8.1.07,12.35-.62c4.25-.68,8.98-3.64,5.71-6.31Z"/>
      <path class="cls-14" d="M253.53,600.52c-1.84-1.49-8.21,1-13.34,4.21-4.62,2.89-11.86,3.25-11.94,5.71-.08,2.45,11.36.02,17.32-.99,5.96-1.01,12.57-5.21,7.95-8.93h0Z"/>
      <path class="cls-14" d="M396.73,565.55s17.13,10.19,8.02,13.77c-9.1,3.58-17.41-.88-19.87,1.69-1.17,1.21.21,4.06-.17,5.95-.44,2.21-6.46,3.52-5.07,7.13,3.12,8.07,40.28-2.99,44.69,3.95,0,0,4.42,4.99-4.09,4.99-7.45,0-5.75,8.48.42,10.5,4.99,1.64,9.43.57,12.78-1.3,9.09-5.07,8.54-6.61,16.1-8.56,1.31-.34,4.86-.74,4.86-.74l-2.45-1.73c-7.5-5.29-17.43-12.34-24.21-17.23-11.06-7.99-20.96-15.38-31.03-18.43h0Z"/>
      <path class="cls-14" d="M394.47,568.75s2.36,1.7-.04,3.55c-2.4,1.85-7.83,3.51-11.51,1.7-3.04-1.5-.49-9.01,2.01-9.28,2.51-.27,7.42,2.66,9.53,4.03Z"/>
      <path class="cls-14" d="M274.47,608.33s2.36,1.7-.04,3.54c-2.4,1.85-7.83,3.51-11.51,1.7-3.04-1.49-.49-9,2.01-9.28,2.51-.27,7.42,2.66,9.53,4.04Z"/>
      <path class="cls-14" d="M259.58,570.98s24.57,12.33,15.93,16.39c-9.29,4.37-9.61,8.74-4.03,13.08,8.54,6.64,10.48,3.75,18.94,10.59,13.32,10.77-12.56-.86-13.85,6.57,0,.01-.01.02,0,.02,11.18,9.26,22.17,2.33,29.88-5.7.08-.08.16-.16.24-.24,12.11-11.6,24.95-17.59,24.95-17.59-13.84-.57-26.99-7.8-26.99-7.8,0,0-27.93-16.56-45.07-15.32h0Z"/>
      <path class="cls-7" d="M544.34,631.64s-147.69-8.85-171.63-14.69c-23.94-5.83-23.35,16.35-33.86,16.35s-26.86-8.97-40.28-5.36-15.18,8.28-21.6,8.87c-6.42.58-77.64-20.06-103.92-20.83-26.27-.78-65.97-2.73-83.48,0-17.51,2.73-26.27,7.98-37.95,7.4-11.67-.59-54.53-12.3-69.47-8.81-18.07,4.23-29.19,15.82-38.53,15.82s-42.91-7.6-57.8-7.01c-14.89.58-69.47,6.42-69.47,6.42v49.74h727.99"/>
      <path class="cls-34" d="M544.34,631.64s-147.69-8.85-171.63-14.69c-23.94-5.83-23.35,16.35-33.86,16.35s-26.86-8.97-40.28-5.36-15.18,8.28-21.6,8.87c-6.42.58-77.64-20.06-103.92-20.83-26.27-.78-65.97-2.73-83.48,0-17.51,2.73-26.27,7.98-37.95,7.4-11.67-.59-54.53-12.3-69.47-8.81-18.07,4.23-29.19,15.82-38.53,15.82s-42.91-7.6-57.8-7.01c-14.89.58-69.47,6.42-69.47,6.42v49.74h727.99"/>
      <path class="cls-22" d="M285.83,590.91c-1.91-1.4-.88-3.99,2.18-3.48,4.95.81,6.95,2.09,9.97,4,13.04,8.22-5.97,3.99-12.15-.52Z"/>
      <path class="cls-14" d="M105.3,562.26s14.3,5.39,10.46,8.01c-3.83,2.61-12.68,5.61-14.64,8.01-2.48,3.05,2.62,6.27,0,9.67-1.14,1.49-2.94,1.68-4.68,1.93-3.44.5-4.82,4.71-2.36,7.17,4.13,4.15,15.6,12.92,26.42,7.22,8.45-4.45-3.28-9.77,28.46-13.57,11.97-1.43,29.74,3.39,29.74,3.39,0,0-49.8-33.04-73.41-31.82h0Z"/>
      <path class="cls-14" d="M88.34,562.57s16.65,2.67,12.23,7.27c-4.42,4.58-6.8,5.19-7.48,8.97-.68,3.78-6.97,6.84-14.11,2.25-7.14-4.59-13.12-11.27-13.12-11.27,0,0,13.96-7.22,22.47-7.22Z"/>
      <path class="cls-14" d="M83.08,591.37c.53-.06.71-.73.27-1.04-.74-.52-1.82-1.1-3.08-1.22-1.47-.13-2.44.69-2.97,1.34-.28.35-.08.87.36.94.96.14,2.74.29,5.42-.01h0Z"/>
      <path class="cls-14" d="M68.08,589.21c4.22-2.21,3.09-7.47-1.66-7.46-1.49,0-3.09.37-4.68,1.39-6.23,3.98-14.4,6.69-16.52,10.99,0,0,11.87.84,22.87-4.92h0Z"/>
      <path class="cls-14" d="M65.68,597.96c-1.3-1.07-5.85.67-9.52,2.93-3.31,2.03-8.46,2.25-8.53,4-.07,1.75,8.1.07,12.35-.61,4.25-.69,8.98-3.64,5.71-6.32Z"/>
      <path class="cls-22" d="M483.82,616.63s2.72-3.85,6.91-5.23c3.18-1.05,6.7-.63,8.38,0,1.68.63-3.14,4.19-7.65,5.23-4.51,1.05-8.9,4.4-9.95,3.98-1.05-.42,2.3-3.98,2.3-3.98h0Z"/>
      <path class="cls-14" d="M527.45,593.5c-.53-.06-.71-.74-.27-1.04.73-.52,1.82-1.1,3.08-1.22,1.47-.13,2.44.69,2.97,1.34.28.35.08.87-.36.93-.96.15-2.74.3-5.42,0h0Z"/>
      <path class="cls-14" d="M536.16,600.08c1.25-1.14,5.88.37,9.66,2.45,3.4,1.86,8.57,1.82,8.72,3.57.16,1.74-8.08.47-12.36,0-4.28-.48-9.15-3.19-6.02-6.02h0Z"/>
      <path class="cls-17" d="M765.16,575.82c3.08-1.52,11.31,4.02,17.57,10.2,5.63,5.56,15.77,8.37,15.11,11.88-.66,3.5-16.11-3.59-24.23-6.91-8.12-3.32-16.16-11.36-8.44-15.17Z"/>
      <path class="cls-22" d="M598.99,589.58s3.12-4.75,6.78-4.75,6.91,4.75,6.91,4.75c0,0-4.06-1.23-6.84-1.16-2.78.07-3.59-.2-6.84,1.16Z"/>
      <path class="cls-14" d="M565.03,614.37c-4.22-2.21-3.09-7.47,1.66-7.47,1.49,0,3.09.38,4.67,1.4,6.23,3.98,14.4,6.68,16.52,10.99,0,0-11.87.84-22.87-4.92h0Z"/>
      <path class="cls-22" d="M1057.53,588.8s6.13-9.32,13.32-9.32,13.59,9.32,13.59,9.32c0,0-8-2.41-13.46-2.27-5.46.13-7.06-.4-13.45,2.27Z"/>
      <path class="cls-9" d="M477.46,900.3c-.11,0-.19-.09-.19-.19v-240.57c0-.1.08-.18.17-.19,1.28-.09,128.43-9.49,185.41-9.49,17.59,0,26.65.87,27.7,2.65.16.27.16.58,0,.88-3.76,6.77-5.82,11.41-4.51,13.64.64,1.08,2.09,1.61,4.45,1.61,1.9,0,20.36-2.26,45.91-5.4,69.18-8.48,197.95-24.28,234.43-24.28,4.91,0,7.95.27,9.28.84,4.31,1.85,6.6,3.52,7.19,5.24.47,1.35-.17,2.51-.79,3.63-.94,1.71-1.76,3.19,1.39,5.15.77.48,3,.73,6.62.73,7.28,0,19.75-.94,35.53-2.13,26.58-2.01,62.99-4.75,98.89-4.75,30.73,0,56.48,2.06,76.54,6.13.09.02.16.09.16.18v246.12c0,.11-.09.19-.19.19H477.46h0Z"/>
      <path class="cls-23" d="M970.83,639.14c4.7,0,7.87.27,9.2.84,15.54,6.65,0,9.15,7.77,14.01.85.53,3.17.75,6.72.75,19.69,0,77.43-6.88,134.42-6.88,27.06,0,53.94,1.55,76.51,6.13v246.11H477.46v-240.56s127.76-9.49,185.4-9.49c17.73,0,28.83.9,27.52,3.25-5.55,9.98-7.56,15.54.1,15.54,7.01,0,230.24-29.69,280.35-29.69M970.83,638.77c-36.49,0-165.27,15.8-234.46,24.29-25.55,3.13-44.01,5.4-45.89,5.4-2.28,0-3.68-.5-4.28-1.52-1.27-2.16.78-6.75,4.51-13.46.25-.46.14-.83,0-1.06-.69-1.18-4.34-2.75-27.86-2.75-57,0-184.15,9.4-185.43,9.5-.2.01-.35.17-.35.38v240.56c0,.21.17.38.38.38h727.99c.2,0,.37-.17.37-.38v-246.12c0-.18-.12-.33-.3-.37-20.07-4.07-45.84-6.13-76.58-6.13-35.91,0-72.32,2.74-98.91,4.75-15.78,1.19-28.23,2.13-35.51,2.13-3.59,0-5.78-.24-6.52-.7-2.99-1.87-2.26-3.21-1.32-4.9.61-1.1,1.3-2.35.8-3.79-.61-1.78-2.93-3.48-7.3-5.35-1.35-.58-4.41-.86-9.35-.86h0Z"/>
      <path class="cls-6" d="M479.17,905H-248.81v-240.56s218.47-16.24,212.92-6.25-7.56,15.54.1,15.54,274.01-35.52,289.55-28.86c15.54,6.66,0,9.16,7.77,14.01,7.77,4.86,138.97-15.95,217.64,0"/>
      <path class="cls-34" d="M479.17,905H-248.81v-240.56s218.47-16.24,212.92-6.25-7.56,15.54.1,15.54,274.01-35.52,289.55-28.86c15.54,6.66,0,9.16,7.77,14.01,7.77,4.86,138.97-15.95,217.64,0"/>
      <path class="cls-10" d="M1204.29,653.66s230.63-17.14,224.78-6.59c-5.86,10.54-7.99,16.4.1,16.4s289.27-37.49,305.67-30.46c16.41,7.03,0,9.66,8.2,14.79,8.21,5.12,146.72-16.85,229.76,0v252.85h-768.51"/>
      <path class="cls-27" d="M1204.29,653.66s230.63-17.14,224.78-6.59c-5.86,10.54-7.99,16.4.1,16.4s289.27-37.49,305.67-30.46c16.41,7.03,0,9.66,8.2,14.79,8.21,5.12,146.72-16.85,229.76,0v252.85h-768.51"/>
      <path class="cls-11" d="M891.41,573.13c2.07-.57,4.15.6,5.01,2.57.42.97,1.55,1.94,4.11,2.5,6.59,1.44-7,4.32-9.47,4.73-2.47.41-7,0-9.67-1.65-2.08-1.28,3.67-6.41,10.01-8.15h0Z"/>
      <g class="cls-41">
        <path class="cls-5" d="M401.08,373.13c-44.7,0-96.89-4.1-97.41-4.14h0c-2.23,0-4.35-.88-5.94-2.47-1.6-1.6-2.48-3.72-2.48-5.97,0-7.48,3.29-11.44,9.5-11.44,2.87,0,6.42.86,10.54,2.56-1.47-2.28-4.47-7.65-3.61-12.25.39-2.09,1.54-3.78,3.4-5.01,1.63-1.08,3.18-1.62,4.63-1.62,2.06,0,3.61,1.07,4.74,2.41-1.23-4.83-1.83-12.55,4.74-17.34,1.13-.82,2.47-1.24,3.98-1.24,2.93,0,5.81,1.55,7.33,2.52-.48-1.21-1.21-3.22-1.76-5.58-.83-3.57-1.41-8.67.51-12.74,1.49-3.15,4.24-5.26,8.19-6.28,1.32-.34,2.56-.51,3.68-.51,7.47,0,10.56,7.11,14.76,18.76,1.61-2.79,7.69-12.34,15.7-12.34,1.5,0,2.99.34,4.44,1.02,9.18,4.28,3.94,21.67,1.35,28.73,1.81-2.31,4.73-5.3,7.69-5.3,1.06,0,2.05.38,2.93,1.14,4.32,3.71,1.87,12.52.65,16.04,2.05-1.75,6.48-5.04,10.91-5.04,1.78,0,3.39.54,4.77,1.62,5.45,4.24,5.63,8.47,5.46,10.11,1.62-.6,6.05-2.09,10.19-2.09,3.06,0,5.31.82,6.7,2.44,3.48,4.06,3.87,7.24,3.85,8.57,2.19-.91,10.13-4.01,16.57-4.01,6.1,0,9.34,2.81,9.38,8.11,0,1.13-.47,2.18-1.42,3.14-5.4,5.43-26.91,8.19-63.95,8.19h0Z"/>
        <path class="cls-23" d="M351.1,294.42c7.43,0,10.44,7.47,14.68,19.3,0,0,6.72-12.87,15.77-12.87,1.38,0,2.81.3,4.29.99,11.14,5.2,0,31.2,0,31.2,0,0,4.64-7.74,9.2-7.74.91,0,1.82.31,2.68,1.05,5.2,4.46,0,17.09,0,17.09,0,0,5.99-5.99,11.81-5.99,1.57,0,3.12.44,4.54,1.54,6.68,5.2,5.2,10.4,5.2,10.4,0,0,5.61-2.31,10.67-2.31,2.53,0,4.92.58,6.41,2.31,4.46,5.2,3.72,8.92,3.72,8.92,0,0,9.49-4.23,17-4.23,4.9,0,8.96,1.8,9,7.73.06,8.54-30.42,10.95-64.99,10.95-45.2,0-97.38-4.13-97.38-4.13-4.45,0-8.08-3.61-8.08-8.06,0-5.22,1.67-11.06,9.12-11.06,2.86,0,6.58.86,11.39,2.95,0,0,.01,0,.03,0,.04,0,.08-.05.05-.09-1.06-1.5-8.53-12.59-.92-17.63,1.69-1.12,3.15-1.56,4.42-1.56,3.04,0,4.91,2.57,5.88,4.49.46,1.28.84,2.06.84,2.06,0,0-.26-.91-.84-2.06-1.51-4.22-3.85-13.9,3.82-19.49,1.16-.85,2.46-1.17,3.76-1.17,4.09,0,8.19,3.2,8.19,3.2,0,0-9.91-21.17,6.18-25.29,1.3-.33,2.49-.5,3.59-.5M351.1,293.66c-1.16,0-2.43.17-3.78.52-4.06,1.04-6.9,3.22-8.44,6.48-1.58,3.35-1.76,7.72-.53,12.99.42,1.81.94,3.41,1.38,4.6-1.65-.94-4.09-2.01-6.58-2.01-1.59,0-3.01.44-4.2,1.32-6.18,4.5-6.18,11.52-5.17,16.45-1.21-1.05-2.6-1.6-4.08-1.6s-3.14.57-4.83,1.69c-1.95,1.29-3.15,3.06-3.56,5.26-.78,4.15,1.49,8.88,3.06,11.55-3.72-1.44-6.95-2.16-9.62-2.16-3.64,0-6.33,1.32-8,3.92-1.25,1.96-1.88,4.61-1.88,7.9,0,2.35.92,4.57,2.59,6.24,1.67,1.66,3.87,2.57,6.22,2.58,1.5.12,53.13,4.13,97.41,4.13,16.81,0,30.59-.58,40.98-1.71,12.6-1.38,20.21-3.53,23.24-6.59,1.02-1.03,1.54-2.18,1.53-3.41-.04-5.55-3.42-8.49-9.76-8.49s-13.47,2.72-16.21,3.83c-.11-1.62-.8-4.61-3.92-8.26-1.46-1.71-3.81-2.58-6.99-2.58-3.8,0-7.82,1.23-9.78,1.92.05-2.01-.62-5.95-5.63-9.85-1.45-1.13-3.13-1.7-5-1.7-3.91,0-7.81,2.48-10.15,4.32,1.26-4.11,2.88-11.76-1.17-15.22-.96-.82-2.02-1.24-3.18-1.24-2.45,0-4.84,1.92-6.66,3.89,2.69-7.98,6.47-23.22-2.22-27.28-1.5-.7-3.05-1.05-4.6-1.05-3.93,0-8.03,2.31-11.86,6.7-1.48,1.7-2.65,3.39-3.37,4.52-.15.23-.28.44-.39.62-1.91-5.27-3.61-9.58-5.68-12.71-2.51-3.79-5.42-5.55-9.17-5.55h.01Z"/>
      </g>
      <path class="cls-36" d="M403.33,339.37s-11.02,5.08-6.3,12.16c6.61,9.92,18.93-.73,14.16-5.95-2.36-2.58-4.72-3.15-7.13-1.23-.97.77-3.51,4.38.88,5.15"/>
      <path class="cls-36" d="M326.37,339.61s5.83,12.27,15.71,1.61c5.98-6.45-2.97-17.8-8.04-12.6-6.17,6.34,1.17,11.78,3.69,7.2"/>
      <path class="cls-36" d="M365.79,313.72s-5.38,9.89,7.69,12.1c8.74,1.47,10.47-13.56,3.42-13.57-7.83,0-6.24,6.84-2.79,6.83"/>
      <path class="cls-5" d="M385.84,381.64c-26.25,0-56.89-2.4-57.2-2.43-1.3,0-2.54-.51-3.47-1.44-.93-.93-1.45-2.16-1.45-3.48,0-4.37,1.92-6.68,5.55-6.68,1.71,0,3.82.52,6.27,1.54-.83-1.28-2.69-4.51-2.17-7.26.23-1.22.9-2.2,1.98-2.92.95-.63,1.86-.95,2.7-.95,1.26,0,2.19.69,2.85,1.52-.74-2.81-1.18-7.45,2.73-10.29.66-.48,1.44-.72,2.32-.72,1.77,0,3.51.97,4.37,1.53-.73-1.79-2.56-7.03-.77-10.83.87-1.84,2.48-3.08,4.79-3.67.77-.2,1.49-.29,2.15-.29,4.38,0,6.19,4.19,8.66,11.06.88-1.55,4.48-7.29,9.22-7.29.88,0,1.75.2,2.6.6,5.45,2.54,2.19,13.03.7,17.03,1.05-1.37,2.82-3.27,4.62-3.27.61,0,1.19.22,1.7.66,2.57,2.2,1.03,7.52.33,9.5,1.16-1,3.82-3.03,6.48-3.03,1.04,0,1.98.32,2.78.94,3.25,2.53,3.3,5.05,3.18,5.96.91-.34,3.55-1.25,6.02-1.25,1.79,0,3.1.48,3.91,1.42,2.08,2.43,2.27,4.32,2.26,5.06,1.21-.51,5.94-2.37,9.76-2.37,3.56,0,5.45,1.64,5.48,4.73,0,.65-.27,1.27-.82,1.82-3.16,3.19-15.79,4.8-37.53,4.8h0,0Z"/>
      <path class="cls-23" d="M356.49,335.45c4.36,0,6.14,4.39,8.63,11.33,0,0,3.94-7.56,9.26-7.56.81,0,1.65.17,2.51.58,6.55,3.05,0,18.32,0,18.32,0,0,2.73-4.54,5.4-4.54.54,0,1.07.18,1.58.62,3.05,2.62,0,10.03,0,10.03,0,0,3.52-3.52,6.93-3.52.92,0,1.83.25,2.66.9,3.92,3.05,3.05,6.11,3.05,6.11,0,0,3.3-1.36,6.27-1.36,1.49,0,2.89.34,3.77,1.36,2.62,3.05,2.18,5.24,2.18,5.24,0,0,5.57-2.48,9.98-2.48,2.88,0,5.26,1.05,5.29,4.54.04,5.01-17.87,6.43-38.17,6.43-26.55,0-57.19-2.43-57.19-2.43-2.62,0-4.75-2.11-4.75-4.73,0-3.07.98-6.5,5.36-6.5,1.68,0,3.86.51,6.69,1.73h.02s.05-.03.03-.05c-.62-.88-5.01-7.39-.54-10.36.99-.66,1.85-.92,2.59-.92,1.79,0,2.89,1.51,3.45,2.64.27.75.49,1.21.49,1.21,0,0-.15-.54-.49-1.21-.89-2.48-2.26-8.17,2.24-11.44.68-.5,1.44-.69,2.21-.69,2.4,0,4.81,1.88,4.81,1.88,0,0-5.82-12.43,3.63-14.85.77-.2,1.46-.29,2.11-.29ZM356.49,335.07c-.67,0-1.41.1-2.2.3-2.37.61-4.02,1.87-4.91,3.77-.92,1.95-1.03,4.51-.31,7.59.27,1.15.6,2.15.87,2.87-.96-.57-2.46-1.26-3.99-1.26-.92,0-1.74.25-2.43.76-3.68,2.68-3.6,6.89-2.97,9.78-.64-.61-1.46-1.04-2.5-1.04-.88,0-1.82.33-2.8.98-1.13.75-1.82,1.78-2.06,3.04-.47,2.51.97,5.38,1.89,6.9-2.25-.89-4.2-1.33-5.8-1.33-3.75,0-5.74,2.38-5.74,6.87,0,1.36.53,2.65,1.51,3.62.97.96,2.24,1.49,3.61,1.5.82.06,31.17,2.42,57.2,2.42,21.79,0,34.47-1.63,37.67-4.85.59-.6.88-1.26.88-1.96-.02-3.22-1.98-4.92-5.67-4.92s-8.05,1.65-9.58,2.28c-.04-.91-.41-2.7-2.29-4.9-.85-.99-2.21-1.49-4.05-1.49-2.28,0-4.71.76-5.81,1.16.05-1.13-.27-3.48-3.28-5.83-.84-.65-1.81-.98-2.9-.98-2.37,0-4.74,1.57-6.08,2.65.74-2.34,1.81-7-.6-9.07-.55-.47-1.16-.71-1.82-.71-1.51,0-3,1.27-4.08,2.49,1.58-4.58,4-13.83-1.17-16.24-.87-.41-1.77-.61-2.68-.61-4.37,0-7.96,4.94-9.19,7.03-2.43-6.72-4.28-10.81-8.7-10.81h0Z"/>
      <path class="cls-34" d="M387.16,361.84s-6.47,2.98-3.7,7.14c3.88,5.83,11.11-.43,8.32-3.49-1.38-1.52-2.77-1.86-4.19-.73-.57.45-2.06,2.58.52,3.03"/>
      <path class="cls-34" d="M341.97,361.99s3.42,7.21,9.23.95c3.52-3.79-1.74-10.46-4.72-7.4-3.62,3.72.69,6.92,2.17,4.23"/>
      <path class="cls-33" d="M545.72,461.77s5.27-10.11,11.87-7.03c6.59,3.08,0,18.46,0,18.46,0,0,3.96-6.59,7.03-3.95,3.08,2.63,0,10.11,0,10.11,0,0,5.71-5.72,9.67-2.64,3.96,3.08,3.08,6.15,3.08,6.15,0,0,7.47-3.08,10.11,0,2.64,3.08,2.2,5.28,2.2,5.28,0,0,15.32-6.83,15.39,2.07.08,11.66-96.1,4.04-96.1,4.04-2.64,0-4.79-2.14-4.79-4.77,0-4.28,1.89-9.26,12.14-4.8.03.01.07-.02.04-.05-.63-.89-5.05-7.45-.55-10.43,4.83-3.21,6.59,2.95,6.59,2.95,0,0-4.16-8.45,1.76-12.76,2.86-2.08,7.07,1.21,7.07,1.21,0,0-5.86-12.53,3.66-14.98,6.01-1.53,7.94,3.1,10.81,11.13h0Z"/>
      <path class="cls-36" d="M567.94,476.96s-6.53,3-3.73,7.2c3.91,5.87,11.2-.43,8.38-3.52-1.4-1.53-2.79-1.87-4.22-.73-.57.46-2.08,2.59.52,3.05"/>
      <path class="cls-36" d="M522.39,477.1s3.45,7.27,9.3.96c3.54-3.82-1.76-10.54-4.76-7.45-3.66,3.75.69,6.97,2.19,4.25"/>
      <path class="cls-35" d="M545.72,461.77s-3.18,5.86,4.55,7.16c5.17.88,6.2-8.02,2.02-8.03-4.64,0-3.69,4.05-1.65,4.05"/>
      <path class="cls-37" d="M568.7,494.96s3.1-5.93,6.97-4.13c3.87,1.81,0,10.85,0,10.85,0,0,2.32-3.88,4.13-2.33,1.81,1.55,0,5.94,0,5.94,0,0,3.35-3.36,5.68-1.55,2.32,1.8,1.81,3.61,1.81,3.61,0,0,4.39-1.81,5.94,0,1.55,1.81,1.29,3.1,1.29,3.1,0,0,9-4.01,9.04,1.22.05,6.85-56.44,2.37-56.44,2.37-1.55,0-2.81-1.25-2.81-2.8,0-2.51,1.11-5.43,7.13-2.82.02.01.04-.01.03-.03-.37-.52-2.97-4.37-.32-6.13,2.84-1.88,3.87,1.74,3.87,1.74,0,0-2.44-4.96,1.03-7.49,1.68-1.23,4.15.7,4.15.7,0,0-3.44-7.35,2.15-8.79,3.53-.9,4.66,1.82,6.35,6.54h0Z"/>
      <path class="cls-34" d="M581.75,503.87s-3.83,1.76-2.19,4.23c2.3,3.45,6.58-.26,4.92-2.07-.82-.9-1.64-1.1-2.48-.43-.34.27-1.22,1.53.3,1.79"/>
      <path class="cls-34" d="M555,503.96s2.02,4.27,5.46.56c2.08-2.24-1.03-6.18-2.79-4.38-2.15,2.21.41,4.1,1.28,2.51"/>
      <path class="cls-16" d="M903.32,649c1.22,0,1.22-1.89,0-1.89s-1.22,1.89,0,1.89Z"/>
      <path class="cls-4" d="M1088.29,367.9c-2.83,0-5.67-.35-8.44-1.05-18.51-4.64-29.79-23.47-25.15-41.98,3.87-15.43,17.66-26.2,33.54-26.2,2.82,0,5.66.35,8.44,1.05,8.96,2.25,16.52,7.85,21.26,15.78,4.75,7.93,6.13,17.23,3.89,26.2-3.87,15.43-17.66,26.2-33.54,26.2h0Z"/>
      <path class="cls-23" d="M1088.24,298.86c2.77,0,5.58.34,8.39,1.04,18.44,4.62,29.64,23.32,25.01,41.75-3.91,15.63-17.94,26.05-33.35,26.05-2.77,0-5.59-.34-8.4-1.04-18.43-4.62-29.63-23.32-25.01-41.75,3.92-15.63,17.95-26.05,33.36-26.05ZM1088.24,298.48c-7.61,0-15.15,2.57-21.22,7.25-6.25,4.82-10.58,11.42-12.5,19.1-2.26,9.01-.88,18.37,3.9,26.34,4.78,7.97,12.37,13.61,21.38,15.87,2.79.7,5.65,1.05,8.49,1.05,7.61,0,15.15-2.57,21.22-7.25,6.25-4.82,10.58-11.42,12.5-19.1,2.26-9.01.88-18.37-3.9-26.34s-12.37-13.61-21.38-15.87c-2.79-.7-5.65-1.05-8.49-1.05Z"/>
      <path class="cls-13" d="M1063.16,357.02s-.09-.01-.13-.05c-4.09-3.72-6.52-9.93-6.55-10-.01-.03-.01-.06-.01-.08.49-6.27,2.86-9.07,7.68-9.07,2.1,0,4.5.52,6.81,1.03,2.38.52,4.85,1.06,7.06,1.06,2.34,0,4.12-.61,5.45-1.87,2.97-2.8-1.8-10.19-6-16.7l-.8-1.23c-7.27-11.32,5.08-20.73,5.2-20.82.03-.02.06-.03.09-.03,2.79-.44,5.25-.67,7.3-.67,2.96,0,4.04.47,4.08.49.06.03.1.08.11.15.01.07-.02.13-.06.17-.13.1-11.89,10.18-5.15,20.72,4.25,6.64,8.99,15.94,7.43,22.52-.57,2.39-1.94,4.25-4.08,5.52-2.42,1.44-4.5,2.05-6.95,2.05-2.03,0-4.26-.42-7.08-.95-2.49-.47-5.57-1.05-9.46-1.51-.29-.03-.57-.05-.83-.05-1.35,0-2.39.45-3.1,1.34-2,2.51-.84,7.71-.83,7.76.02.08-.01.16-.08.21-.03.02-.07.03-.1.03h0Z"/>
      <path class="cls-23" d="M1089.26,298.77c2.96,0,4.01.47,4.01.47,0,0-12.09,10.16-5.18,20.97,6.91,10.81,11.47,22.97,3.41,27.77-2.52,1.49-4.56,2.03-6.85,2.03-3.8,0-8.25-1.47-16.53-2.46-.3-.04-.58-.05-.85-.05-6.25,0-4.11,9.34-4.11,9.34-4.1-3.73-6.5-9.92-6.5-9.92.55-7.06,3.56-8.89,7.49-8.89,4.21,0,9.46,2.09,13.87,2.09,2.13,0,4.06-.48,5.58-1.93,3.28-3.09-2.21-11.09-6.77-18.18-7.26-11.3,5.16-20.57,5.16-20.57,3.18-.5,5.55-.66,7.27-.66M1089.26,298.39c-2.06,0-4.53.22-7.33.67-.06.01-.12.03-.17.07-.12.09-3.19,2.41-5.4,6.16-2.05,3.5-3.7,8.92.16,14.92.26.41.52.82.79,1.23,4.17,6.45,8.89,13.77,6.04,16.46-1.3,1.23-3.04,1.82-5.32,1.82s-4.65-.54-7.02-1.06c-2.33-.51-4.73-1.03-6.85-1.03-3.07,0-7.22.96-7.87,9.24-.01.06,0,.11.02.17.1.26,2.48,6.32,6.6,10.07.07.06.17.1.26.1.06,0,.13-.02.19-.05.14-.08.21-.25.17-.41-.01-.05-1.15-5.17.79-7.6.67-.84,1.67-1.27,2.95-1.27.26,0,.53.02.81.05,3.88.47,6.97,1.05,9.45,1.51,2.83.53,5.07.95,7.12.95,2.48,0,4.59-.62,7.04-2.08,2.19-1.3,3.59-3.2,4.17-5.64,1.57-6.64-3.18-15.99-7.45-22.66-2.79-4.35-2.79-9.11,0-14.13,2.09-3.79,5.07-6.32,5.1-6.34.1-.08.15-.21.13-.34-.02-.13-.1-.24-.22-.29-.04-.02-1.16-.5-4.16-.5h0Z"/>
      <path class="cls-13" d="M1053.9,335.52s-.03,0-.05,0c-.08-.02-.13-.09-.14-.16,0-.07-.58-6.79,1.86-13.4,2.08-5.62,4.16-9.11,7.19-12.06.03-.03.08-.05.13-.05.03,0,.05,0,.07.02.07.03.12.09.12.17.01.1.53,9.91,5.83,14.78,3.17,2.92,4.64,5.06,4.36,6.37-.12.53-.52.92-1.17,1.14-.16.05-.34.08-.57.08-.57,0-1.31-.16-2.25-.36-1.44-.31-3.23-.69-5.29-.69-1.31,0-2.54.15-3.75.47-3.88,1-4.48,1.58-6.19,3.66-.04.05-.09.07-.15.07h0Z"/>
      <path class="cls-23" d="M1062.89,310.02s.48,9.93,5.89,14.91c5.41,4.98,4.79,6.68,3.26,7.19-.14.05-.31.07-.51.07-1.4,0-4.13-1.05-7.54-1.05-1.19,0-2.47.13-3.8.47-3.97,1.03-4.57,1.63-6.29,3.72,0,0-.61-6.67,1.85-13.32,2.26-6.12,4.42-9.34,7.14-11.99ZM1062.89,309.64c-.1,0-.19.04-.26.11-3.06,2.97-5.16,6.49-7.24,12.13-2.45,6.65-1.87,13.42-1.87,13.48.02.15.12.28.27.33.04.01.08.02.11.02.11,0,.22-.05.29-.14,1.71-2.08,2.26-2.61,6.09-3.6,1.2-.31,2.41-.46,3.7-.46,2.04,0,3.82.38,5.25.69.95.21,1.71.36,2.3.36.24,0,.45-.03.63-.09.9-.3,1.2-.86,1.29-1.28.3-1.4-1.15-3.54-4.42-6.55-5.23-4.82-5.76-14.55-5.76-14.65-.01-.15-.1-.28-.24-.33-.05-.02-.09-.03-.14-.03h0Z"/>
      <path class="cls-13" d="M1086.88,367.87s-2.26-.17-5.18-.55c-2.94-.39-7.06-2.22-7.1-2.23-.06-.02-.1-.07-.11-.13-.04-.18-1-4.35,1.68-6.63,1.58-1.35,3.69-1.96,6.81-1.96,1.51,0,3.12.14,4.68.28,1.58.14,3.22.28,4.78.28.46,0,.91-.01,1.32-.04,3.19-.19,6.38-1.87,8.78-4.6,2.72-3.09,4.07-7.19,3.78-11.54-.31-4.72-3.93-9.65-7.43-14.42-2.52-3.43-5.13-6.99-6.43-10.41-.65-1.7-.59-3.4.17-5.05,1.26-2.73,4.25-4.88,6.55-6.19,2.47-1.42,4.68-2.21,4.7-2.22.02,0,.04-.01.06-.01.03,0,.06,0,.08.02,2.06.96,5.24,3.3,5.38,3.4.05.04.08.11.07.18,0,.07-.05.13-.12.15-.04.02-4.3,1.52-6.61,3.74l-.19.17c-1.01.94-2.89,2.69-.91,6,.42.71,1.45,1.74,2.76,3.04,3.43,3.43,9.18,9.17,11.65,17.04,1.01,3.18,1.46,9.96-6.76,19.53-3.77,4.4-10.83,9.11-19.3,9.11-1.81,0-2.52.25-2.8.47-.4.3-.61.63-.64,1.01-.05.66.49,1.24.49,1.25.05.06.07.14.04.21-.03.07-.1.11-.17.11h-.03Z"/>
      <path class="cls-23" d="M1103.94,302.64c2.06.96,5.34,3.38,5.34,3.38,0,0-4.31,1.51-6.68,3.78-.94.9-3.33,2.74-1.13,6.41,1.58,2.64,10.99,9.26,14.39,20.04,2.42,7.68-3.88,16.04-6.72,19.35-3.86,4.51-10.83,9.04-19.16,9.04h-.03c-1.01,0-2.32.08-2.88.51-1.52,1.14-.17,2.53-.17,2.53,0,0-2.22-.16-5.17-.55-2.95-.39-7.06-2.22-7.06-2.22,0,0-1-4.21,1.62-6.44,1.77-1.51,4.11-1.91,6.69-1.91,3.02,0,6.35.55,9.45.55.46,0,.9-.01,1.34-.04,6.37-.39,13.36-6.84,12.73-16.33-.54-8.21-10.77-16.78-13.87-24.88-3.09-8.1,11.31-13.22,11.31-13.22M1103.94,302.26s-.09,0-.13.02c-.37.13-8.92,3.22-11.36,8.51-.78,1.7-.84,3.45-.18,5.2,1.32,3.44,3.93,7,6.46,10.45,3.49,4.75,7.09,9.66,7.4,14.32.28,4.3-1.05,8.34-3.74,11.4-2.33,2.65-5.56,4.34-8.64,4.53-.41.03-.85.04-1.32.04-1.54,0-3.18-.14-4.76-.28-1.56-.14-3.18-.28-4.69-.28-3.18,0-5.31.62-6.94,2-2.76,2.36-1.78,6.64-1.73,6.82.02.11.1.21.21.26.17.08,4.2,1.86,7.16,2.25,2.92.39,5.17.55,5.19.55h.03c.15,0,.28-.08.34-.22.07-.14.04-.31-.06-.42-.01,0-.49-.52-.44-1.1.02-.32.21-.61.56-.87.22-.16.85-.43,2.65-.43h.03c8.54,0,15.65-4.74,19.46-9.17,1.58-1.85,3.8-4.76,5.38-8.12,2.01-4.27,2.48-8.18,1.41-11.59-2.49-7.91-8.26-13.67-11.7-17.11-1.3-1.3-2.32-2.32-2.73-3.01-1.9-3.18-.16-4.8.88-5.76.06-.06.13-.12.18-.17,2.29-2.18,6.51-3.68,6.55-3.69.13-.05.23-.16.25-.3.02-.14-.04-.28-.15-.36-.14-.1-3.34-2.45-5.41-3.42-.04-.02-.1-.03-.15-.03h-.01Z"/>
      <path class="cls-13" d="M1122.47,337.36c-.06,0-.11-.03-.15-.07-.05-.06-.08-.09.01-.68.4-2.81-.84-5.21-2.55-8.54l-.08-.16c-.73-1.41-2.43-3.27-4.23-5.24-2.5-2.74-5.09-5.57-5.25-7.48-.28-3.46,3.27-5.34,3.31-5.35.02-.02.05-.02.08-.02.05,0,.09.01.12.04.13.1,3.19,2.55,6.72,10.72,3.55,8.21,2.36,16.42,2.18,16.7-.04.05-.1.09-.17.09h.01Z"/>
      <path class="cls-23" d="M1113.62,310.01s3.11,2.43,6.66,10.64c3.55,8.22,2.28,16.52,2.19,16.52-.02,0,0-.17.05-.53.41-2.91-.89-5.38-2.65-8.81-1.77-3.43-9.2-9.47-9.46-12.65-.28-3.37,3.21-5.17,3.21-5.17M1113.62,309.63c-.06,0-.12.02-.18.04-.15.08-3.7,1.96-3.41,5.54.17,1.98,2.78,4.83,5.3,7.59,1.79,1.96,3.49,3.81,4.2,5.2l.08.16c1.7,3.3,2.92,5.68,2.53,8.43-.08.57-.08.69.04.83.07.08.18.13.29.13.13,0,.25-.07.32-.17.19-.29,1.41-8.62-2.16-16.88-3.55-8.21-6.64-10.69-6.77-10.79-.07-.05-.16-.08-.24-.08h0Z"/>
      <g class="cls-40">
        <path class="cls-13" d="M1089.09,362.93c-18.9-4.74-30.38-23.91-25.64-42.81,1.92-7.68,6.23-14.14,11.93-18.78-9.84,3.99-17.72,12.45-20.49,23.54-4.63,18.44,6.57,37.13,25.01,41.75,8.95,2.24,17.96.76,25.39-3.47-5.18,1.15-10.7,1.15-16.2-.23Z"/>
      </g>
      <path class="cls-2" d="M1117.28,357.27c-9.94,0-22.17-1.69-34.42-4.76-13.89-3.48-26.55-8.37-35.64-13.76-9.17-5.43-13.62-10.73-12.57-14.95,1.15-4.59,9.65-7.33,22.72-7.33h.68c.06,0,.12.03.16.09.03.05.03.12.01.18-.13.29-.27.55-.4.82-.22.41-.42.8-.58,1.25-.03.06-.08.1-.14.12-3.08.77-6.56,2.3-7.06,4.31-1.53,6.12,14.17,15.36,35,20.58,8.93,2.24,17.83,3.47,25.07,3.47,9.04,0,14.68-1.86,15.5-5.11.48-1.93-.5-3.91-3.08-6.25-.04-.04-.07-.1-.06-.17.07-.47.07-.92.08-1.38,0-.3,0-.61.02-.93.01-.06.04-.12.1-.15.03-.02.06-.02.09-.02.04,0,.06,0,.09.02,11.7,6.15,17.25,11.9,16.06,16.64-1.16,4.66-9.05,7.33-21.63,7.33h0Z"/>
      <path class="cls-23" d="M1057.38,316.66h.68c-.34.73-.71,1.32-.99,2.08-3.47.86-6.7,2.45-7.2,4.45-1.57,6.24,14.16,15.56,35.13,20.81,9.31,2.34,18.1,3.48,25.12,3.48,8.78,0,14.8-1.79,15.67-5.25.5-1.99-.48-4.04-3.13-6.43.11-.8.05-1.53.1-2.33,10.96,5.76,17.18,11.6,15.97,16.43-1.19,4.74-9.43,7.19-21.45,7.19-9.61,0-21.63-1.56-34.37-4.76-28.69-7.19-50.21-19.94-48.07-28.47,1.19-4.74,10.49-7.18,22.54-7.18M1057.38,316.28c-13.17,0-21.74,2.8-22.91,7.47-1.08,4.3,3.41,9.69,12.65,15.16,9.12,5.4,21.79,10.29,35.7,13.78,12.27,3.08,24.51,4.77,34.47,4.77,6.14,0,11.15-.62,14.9-1.83,3.97-1.29,6.3-3.18,6.91-5.64,1.22-4.83-4.37-10.66-16.16-16.85-.05-.03-.11-.04-.17-.04-.07,0-.13.02-.19.05-.11.06-.19.18-.19.31-.02.32-.03.64-.03.94,0,.46-.01.9-.07,1.36-.02.12.03.25.12.33,2.52,2.28,3.48,4.21,3.02,6.06-.79,3.15-6.37,4.96-15.31,4.96-7.23,0-16.11-1.23-25.03-3.47-10.1-2.53-19.31-6.08-25.91-10-6.39-3.78-9.65-7.56-8.95-10.35.41-1.61,3.06-3.21,6.93-4.17.12-.03.22-.12.26-.23.17-.44.37-.83.57-1.23.14-.26.28-.53.41-.82.05-.12.05-.25-.03-.36-.07-.11-.19-.17-.31-.17h-.68v-.02Z"/>
      <path class="cls-14" d="M617.77,236c-10.77,0-20.92-4.17-28.58-11.76-7.67-7.58-11.95-17.7-12.06-28.49-.23-22.41,17.82-40.83,40.24-41.06h.42c10.77,0,20.92,4.18,28.58,11.76,7.67,7.58,11.95,17.7,12.06,28.49.23,22.41-17.82,40.83-40.24,41.06h-.42Z"/>
      <path class="cls-23" d="M617.79,154.88c22.16,0,40.23,17.84,40.45,40.05.22,22.35-17.71,40.65-40.05,40.87h-.42c-22.16,0-40.22-17.84-40.45-40.05-.22-22.35,17.71-40.65,40.05-40.87h.42ZM617.79,154.51h-.42c-10.91.11-21.12,4.46-28.76,12.25-7.64,7.79-11.78,18.09-11.67,29,.11,10.84,4.41,21,12.11,28.62,7.7,7.61,17.9,11.81,28.72,11.81h.42c10.91-.11,21.12-4.46,28.76-12.25,7.64-7.79,11.78-18.09,11.67-29-.11-10.84-4.41-21-12.11-28.62-7.7-7.61-17.89-11.81-28.71-11.81h0Z"/>
      <path class="cls-1" d="M638.75,227.82c-8.87,0-9.16-7.35-9.45-14.45-.23-5.6-.46-11.39-4.66-14.02-.55-.34-1.16-.51-1.83-.51-4.14,0-9.87,6.26-15.42,12.32l-1.17,1.27c-3.23,3.51-7.11,5.29-11.52,5.29-7.3,0-13.61-4.97-13.67-5.02-.02-.02-.04-.05-.06-.07-4.11-9.37-3.61-12.74-3.59-12.88.01-.06.05-.12.11-.14.02-.01.05-.02.07-.02.04,0,.08.01.11.03.07.05,6.63,4.63,13.91,4.63,4.42,0,8.2-1.67,11.23-4.95,6.38-6.91,15.66-15.13,23.65-15.13,2.76,0,5.18,1,7.2,2.99,4.65,4.58,4.91,8.27,5.42,15.62.21,2.96.47,6.65,1.1,11.22.41,3.03,2.12,4.56,5.06,4.56,3.17,0,6.66-1.8,6.7-1.82.03-.02.06-.02.09-.02.05,0,.1.02.13.06.06.06.07.15.03.22-3.01,5.75-9.35,10.37-9.41,10.41-.02.02-.05.03-.08.03-1.44.26-2.78.39-3.95.39h0Z"/>
      <path class="cls-23" d="M626.47,184.36c2.59,0,4.99.89,7.06,2.94,6.5,6.41,4.32,11.14,6.46,26.72.5,3.67,2.8,4.72,5.25,4.72,3.25,0,6.78-1.84,6.78-1.84-3.02,5.78-9.35,10.35-9.35,10.35-1.47.26-2.77.39-3.92.39-15.49,0-4.25-22.35-14.01-28.44-.6-.37-1.24-.54-1.93-.54-4.52,0-10.91,7.33-16.73,13.65-3.62,3.93-7.64,5.23-11.38,5.23-7.32,0-13.55-4.98-13.55-4.98-4.13-9.42-3.58-12.77-3.58-12.77,0,0,6.59,4.67,14.02,4.67,3.83,0,7.89-1.24,11.38-5.01,7.54-8.15,16.28-15.07,23.5-15.07M626.47,183.98c-8.05,0-17.38,8.26-23.78,15.19-3,3.25-6.73,4.89-11.09,4.89-7.22,0-13.73-4.55-13.8-4.6-.07-.05-.14-.07-.22-.07-.05,0-.1.01-.15.03-.12.05-.21.16-.23.29-.02.14-.53,3.56,3.6,12.99.03.06.06.11.11.14.26.2,6.43,5.06,13.79,5.06,4.47,0,8.39-1.8,11.66-5.35.39-.42.78-.85,1.17-1.27,5.26-5.74,11.23-12.26,15.28-12.26.64,0,1.21.16,1.73.48,4.12,2.58,4.35,8.32,4.57,13.87.29,7.19.59,14.63,9.64,14.63,1.2,0,2.53-.13,3.99-.39.06-.01.11-.03.16-.07.26-.19,6.44-4.69,9.47-10.48.08-.15.05-.33-.07-.44-.07-.07-.17-.11-.27-.11-.06,0-.12.01-.17.04-.03.02-3.49,1.8-6.61,1.8-2.84,0-4.47-1.48-4.88-4.39-.62-4.56-.88-8.24-1.09-11.2-.52-7.39-.78-11.11-5.48-15.74-2.05-2.02-4.52-3.04-7.33-3.04h0Z"/>
      <path class="cls-1" d="M617.86,236.03c-1.1,0-2.2-.05-3.25-.15-6.99-.69-11.59-2.02-15.84-4.59-.07-.04-.1-.11-.09-.19,0-.08.06-.14.13-.16.03,0,2.81-.89,6.06-2.69,2.98-1.65,6.97-4.44,9.04-8.35,2.41-4.54,4.42-6.84,5.99-6.84.6,0,1.12.33,1.54.97.39.61.44,1.73.51,3.28.13,2.75.3,6.52,2.44,10.36,2.3,4.12,3.14,4.64,6.02,5.97.07.03.11.1.11.18,0,.08-.05.14-.13.17-.06.02-5.69,2.03-12.53,2.03h0Z"/>
      <path class="cls-23" d="M619.9,213.26c.59,0,1.05.37,1.38.88,1.02,1.58-.42,7.6,2.95,13.63,2.35,4.21,3.21,4.71,6.1,6.05,0,0-5.58,2.02-12.47,2.02-1.05,0-2.13-.05-3.23-.16-7.64-.75-11.93-2.25-15.76-4.56,0,0,11.16-3.49,15.21-11.13,2.73-5.15,4.59-6.74,5.82-6.74M619.9,212.88c-1.67,0-3.68,2.27-6.16,6.94-3.93,7.41-14.87,10.91-14.98,10.94-.14.05-.25.17-.26.32-.02.15.05.29.18.37,4.28,2.59,8.89,3.92,15.92,4.61,1.05.1,2.15.16,3.27.16,6.88,0,12.54-2.02,12.6-2.04.14-.05.24-.19.25-.34,0-.16-.08-.3-.22-.36-2.89-1.33-3.66-1.81-5.93-5.89-2.12-3.8-2.29-7.54-2.41-10.28-.07-1.58-.12-2.73-.55-3.38-.57-.88-1.24-1.06-1.7-1.06h0Z"/>
      <path class="cls-1" d="M653.4,202.67c-1.35,0-2.54-.35-3.53-1.04-3.6-2.51-4.44-7.39-5.32-12.55-.41-2.38-.83-4.84-1.54-7.02-1.72-5.24-7.73-10.54-15.92-10.54-2.06,0-4.15.35-6.21,1.03-5.28,1.76-9.82,7.35-14.21,12.75-3.16,3.89-6.42,7.91-9.91,10.4-1.33.95-2.79,1.43-4.34,1.43-3.75,0-7.45-2.84-9.89-5.22-2.63-2.56-4.41-5.16-4.43-5.19-.03-.04-.04-.09-.03-.14.48-2.62,2.25-7.07,2.27-7.11.03-.07.09-.11.15-.12h.02c.07,0,.12.03.16.08.03.05,3.01,4.44,6.22,6.42.08.05.16.1.25.16.75.47,1.88,1.19,3.26,1.19,1.31,0,2.61-.66,3.88-1.95.68-.69,1.55-2.18,2.65-4.05,2.88-4.92,7.7-13.16,15.9-18.31,2.41-1.51,5.32-2.28,8.65-2.28,5.8,0,11.65,2.26,15.54,4.16,6.13,2.99,13.58,9.62,16.09,19.25.53,2.04,1.04,2.78,1.37,3.04.38.3.76.46,1.13.46.92,0,1.52-.96,1.52-.97.03-.06.09-.09.16-.09h.03c.08.01.14.08.15.15,0,.03.48,2.62.91,6.05.43,3.46-.42,8.69-.43,8.74-.01.06-.04.11-.1.14-.08.05-2.11,1.11-4.48,1.11h0Z"/>
      <path class="cls-23" d="M621.49,160.83c6.16,0,12.35,2.62,15.46,4.14,6.27,3.06,13.51,9.64,15.99,19.13.3,1.15.79,2.62,1.44,3.14.45.36.88.5,1.24.5,1.04,0,1.69-1.06,1.69-1.06,0,0,.48,2.58.91,6.04.43,3.47-.43,8.69-.43,8.69,0,0-2.04,1.09-4.39,1.09-1.13,0-2.34-.25-3.42-1.01-5.24-3.65-4.57-12.71-6.79-19.47-1.86-5.68-8.22-10.67-16.1-10.67-2.01,0-4.11.32-6.27,1.04-9.17,3.06-15.88,17.25-24.17,23.18-1.38.99-2.81,1.39-4.23,1.39-7.14,0-14.17-10.32-14.17-10.32.49-2.63,2.26-7.08,2.26-7.08,0,0,3,4.45,6.28,6.48.75.46,2.01,1.38,3.61,1.38,1.17,0,2.53-.49,4.01-2,2.53-2.59,7.26-15.26,18.51-22.33,2.61-1.64,5.58-2.25,8.55-2.25M621.49,160.45c-3.37,0-6.31.78-8.75,2.31-8.24,5.18-13.08,13.44-15.97,18.38-1.09,1.87-1.95,3.34-2.62,4.02-1.23,1.25-2.49,1.89-3.74,1.89-1.33,0-2.43-.7-3.16-1.16-.09-.06-.17-.11-.25-.16-3.17-1.96-6.14-6.32-6.16-6.37-.07-.11-.19-.17-.32-.17h-.04c-.14.02-.26.11-.31.24-.07.18-1.79,4.52-2.28,7.15-.02.1,0,.2.06.28.02.03,1.81,2.64,4.46,5.22,3.59,3.5,6.96,5.27,10.03,5.27,1.59,0,3.09-.49,4.45-1.47,3.51-2.51,6.79-6.54,9.95-10.44,4.37-5.38,8.89-10.95,14.12-12.69,2.04-.68,4.1-1.02,6.15-1.02,8.09,0,14.04,5.24,15.73,10.41.71,2.17,1.13,4.62,1.54,6.99.85,4.97,1.73,10.12,5.4,12.67,1.02.71,2.25,1.08,3.64,1.08,2.42,0,4.48-1.08,4.57-1.13.1-.06.18-.16.2-.27.03-.22.86-5.31.43-8.79-.43-3.44-.91-6.04-.91-6.06-.03-.16-.15-.28-.3-.3-.02,0-.05,0-.07,0-.13,0-.25.07-.32.18,0,0-.55.88-1.36.88-.32,0-.66-.14-1.01-.41-.26-.2-.77-.85-1.31-2.94-2.53-9.7-10.02-16.37-16.19-19.38-7.08-3.45-12.41-4.17-15.62-4.17h0Z"/>
      <path class="cls-1" d="M588.85,176.03c-2.96,0-5.13-2.37-5.22-2.47-.05-.06-.07-.13-.03-.2.08-.17,1.95-4.38,10.18-10.81,7.75-6.06,17.06-7.45,18.2-7.45.22,0,.25.13.25.19.01.21-.16.23-.79.3-3.32.38-5.69,2.51-8.98,5.45l-.15.14c-1.4,1.25-3,3.74-4.71,6.37-2.37,3.66-4.81,7.44-6.93,8.18-.59.21-1.2.32-1.82.32h0Z"/>
      <path class="cls-23" d="M611.97,155.27c.16,0,0,.05-.56.11-3.43.4-5.85,2.61-9.23,5.64-3.37,3.03-8.04,13.28-11.57,14.52-.61.21-1.19.3-1.75.3-2.91,0-5.08-2.41-5.08-2.41,0,0,1.83-4.26,10.12-10.74,7.93-6.2,17.25-7.41,18.08-7.41M611.97,154.9c-1.15,0-10.52,1.4-18.31,7.49-8.27,6.47-10.16,10.71-10.24,10.89-.06.14-.03.29.07.4.1.1,2.32,2.54,5.36,2.54.64,0,1.27-.11,1.88-.32,2.18-.77,4.64-4.57,7.03-8.26,1.7-2.62,3.3-5.1,4.68-6.34l.15-.14c3.26-2.92,5.61-5.03,8.87-5.4.65-.08.98-.11.96-.5,0-.04-.03-.36-.44-.36Z"/>
      <g class="cls-39">
        <path class="cls-1" d="M633.5,226.46c-22.49,4.38-44.28-10.3-48.65-32.8-1.78-9.14-.41-18.16,3.35-25.94-8.5,9.15-12.66,22.09-10.08,35.29,4.27,21.94,25.51,36.26,47.45,31.99,10.65-2.07,19.5-8.15,25.3-16.36-4.94,3.81-10.82,6.55-17.36,7.83h0Z"/>
      </g>
      <path class="cls-15" d="M587.24,222.04c-18.29,0-29.95-3.77-31.18-10.09-1.07-5.48,7.07-12.93,21.24-19.43.03-.01.05-.02.08-.02.03,0,.07.01.1.03.05.03.09.1.09.16,0,.37-.01.73-.02,1.07-.02.55-.04,1.06,0,1.63,0,.06-.02.12-.07.16-2.91,2.36-5.85,5.74-5.38,8.14.87,4.45,9.27,7.11,22.47,7.11,7.61,0,16.29-.91,25.1-2.62,24.8-4.83,43.83-14.7,42.41-22.01-.45-2.31-2.49-3.94-6.41-5.15-.06-.02-.11-.06-.13-.12-.17-.54-.38-1.02-.61-1.52-.14-.32-.3-.65-.43-1-.02-.06-.02-.13.02-.18.03-.05.09-.08.15-.08h0c15.5.71,24.27,4.06,25.37,9.68.97,5-4.59,10.94-15.67,16.73-11.02,5.75-26.18,10.69-42.71,13.91-12.08,2.35-23.98,3.59-34.42,3.59h0Z"/>
      <path class="cls-23" d="M654.66,178.31c14.54.67,24.07,3.78,25.19,9.53,1.97,10.15-24.09,23.77-58.23,30.42-12.48,2.43-24.31,3.59-34.39,3.59-17.5,0-29.74-3.5-30.99-9.94-1.12-5.75,7.91-13.15,21.14-19.22.01.94-.09,1.76-.01,2.71-3.26,2.64-5.91,5.95-5.45,8.33.92,4.71,9.86,7.27,22.65,7.27,7.37,0,16.02-.85,25.14-2.62,24.95-4.86,44-14.81,42.55-22.23-.46-2.37-2.53-4.06-6.54-5.29-.29-.91-.71-1.65-1.05-2.53M654.66,177.93c-.12,0-.23.06-.31.16-.08.11-.09.24-.04.36.14.35.29.69.44,1.01.22.5.44.97.6,1.49.04.12.13.21.25.25,3.85,1.18,5.85,2.77,6.28,5,.66,3.36-3.42,7.61-11.18,11.67-8.01,4.18-19.04,7.78-31.07,10.12-8.8,1.71-17.46,2.62-25.06,2.62-12.91,0-21.44-2.67-22.28-6.96-.38-1.94,1.66-4.99,5.32-7.96.1-.08.15-.2.14-.33-.04-.56-.03-1.07,0-1.6.02-.34.03-.7.02-1.08,0-.13-.07-.25-.17-.31-.06-.04-.13-.06-.21-.06-.05,0-.11.01-.16.03-6.74,3.09-12.29,6.48-16.04,9.79-4.03,3.56-5.87,6.97-5.31,9.85.63,3.25,3.97,5.91,9.66,7.67,5.41,1.68,12.92,2.57,21.7,2.57,10.46,0,22.37-1.24,34.46-3.6,16.54-3.22,31.73-8.17,42.76-13.93,11.16-5.83,16.76-11.84,15.77-16.93-1.11-5.72-9.95-9.12-25.54-9.84h-.02,0Z"/>
      <path class="cls-32" d="M904.37,182.52c36.71,0,66.47-29.76,66.47-66.48s-29.76-66.47-66.47-66.47-66.47,29.76-66.47,66.47,29.76,66.48,66.47,66.48Z"/>
      <path class="cls-26" d="M839.65,131.26s19.03,23.11,40.16,8.06c13.26-9.44,28.18-20.77,34.44-14.74,14.63,14.09-16.07,50.09,19.31,51.19,0,0,11.73-5.2,18.55-13.45,0,0-19.39,5.43-18.37-8.71,1.85-25.77,6.96-32.63-1.32-45.15-9.99-15.12-33.04-5.2-53.26,9.13-20.22,14.33-40.93-8.07-40.93-8.07,0,0-2.03,5.19,1.41,21.74Z"/>
      <path class="cls-26" d="M861.82,167.14s19.12-1.82,28.22-12.73c9.1-10.9,12.46-9.86,13.57-6.96,1.11,2.89-3.25,12.07.11,22.91,2.34,7.57,3.57,8.66,7.76,11.79,0,0-12.82,1.79-25.86-2.34-12.02-3.8-18.41-7.66-23.79-12.68h0Z"/>
      <path class="cls-26" d="M845.24,85.75s8.55,26.75,24.27,21.01c15.72-5.75,32.57-25.28,48.44-26.1,18.35-.94,30.61,12.74,31.18,25.05.55,11.69-4.49,25.73,2.2,33.8,4.24,5.12,12.39,3.3,12.39,3.3,0,0,3.65-7.88,4.49-13.56.83-5.68,1.21-9.96,1.21-9.96,0,0-2.74,2.56-4.89-.39-.81-1.11-.93-3.66-.9-5.61.25-16.11-8.32-29.7-16.92-37.3-6.32-5.59-22.28-17.98-37.18-13.52-20.92,6.25-33.96,24.25-39.11,27.23-7.13,4.13-10.65-.53-12.34-2.36-4.31-4.65-6.59-11.6-6.59-11.6,0,0-4.34,6.06-6.26,10.01Z"/>
      <path class="cls-26" d="M857.14,69.27s3.79,6.56,10.27,5.71c6.1-.8,17.08-15.69,23.53-19.41,6.45-3.72,11.1-6.45,16.75-5.92,5.65.53-12.88-2.91-30.64,5.79-15.52,7.61-19.92,13.83-19.92,13.83h0Z"/>
      <g class="cls-39">
        <path class="cls-1" d="M904.48,182.62c-.36,0-.72,0-1.08,0-36.75-.58-66.18-30.96-65.59-67.71.17-10.68,2.92-21.25,7.97-30.59,4.88-9.03,11.9-16.94,20.31-22.87l1.03-.73-.77,1c-9.02,11.67-13.91,25.66-14.15,40.46-.59,37.47,29.41,68.45,66.88,69.04.37,0,.73,0,1.1,0,10.28,0,20.16-2.24,29.38-6.68l1.13-.55-.92.85c-12.36,11.46-28.44,17.76-45.28,17.76h0Z"/>
        <path class="cls-23" d="M866.19,61.6c-8.69,11.24-13.95,25.27-14.19,40.57-.6,37.64,29.43,68.64,67.07,69.24.37,0,.73,0,1.1,0,10.54,0,20.53-2.4,29.46-6.69-11.87,11-27.75,17.71-45.15,17.71-.36,0-.72,0-1.07,0-36.71-.58-65.99-30.81-65.41-67.52.35-22.08,11.43-41.48,28.19-53.3M868.04,59.84l-2.06,1.45c-8.43,5.95-15.47,13.88-20.37,22.93-5.05,9.36-7.82,19.96-7.99,30.67-.14,9.03,1.49,17.81,4.84,26.1,3.24,8.01,7.95,15.24,13.99,21.47,6.04,6.24,13.11,11.17,21.02,14.66,8.19,3.62,16.91,5.52,25.93,5.67.36,0,.72,0,1.08,0,16.89,0,33.01-6.33,45.41-17.81l1.84-1.71-2.27,1.09c-9.19,4.42-19.05,6.66-29.29,6.66-.36,0-.73,0-1.09,0-9.15-.14-17.99-2.08-26.29-5.74-8.02-3.54-15.19-8.54-21.31-14.87-6.13-6.33-10.9-13.65-14.18-21.77-3.4-8.41-5.05-17.32-4.91-26.47.24-14.76,5.11-28.7,14.11-40.34l1.54-1.99h0Z"/>
      </g>
      <path class="cls-23" d="M562.42,280.34l2.68,16.28,16.28,2.68-16.28,2.68-2.68,16.27-2.68-16.27-16.28-2.68,16.28-2.68,2.68-16.28Z"/>
      <path class="cls-23" d="M1123.04,176.39l3.97,14.94,14.74,4.02-14.74,4.02-3.97,14.94-3.96-14.94-14.74-4.02,14.74-4.02,3.96-14.94Z"/>
      <path class="cls-23" d="M869.42,304.63l4.02,14.94,14.94,4.02-14.94,4.02-4.02,14.94-4.02-14.94-14.93-4.02,14.93-4.02,4.02-14.94Z"/>
      <path class="cls-23" d="M528.47,235.84l4.02,14.94,14.93,4.02-14.93,4.02-4.02,14.94-4.02-14.94-14.94-4.02,14.94-4.02,4.02-14.94Z"/>
      <path class="cls-23" d="M535.21,56.09l4.02,14.94,14.93,4.02-14.93,4.02-4.02,14.94-4.02-14.94-14.94-4.02,14.94-4.02,4.02-14.94Z"/>
      <path class="cls-23" d="M1157.84,18.17l4.02,14.94,14.94,4.02-14.94,4.02-4.02,14.94-4.02-14.94-14.94-4.02,14.94-4.02,4.02-14.94Z"/>
      <path class="cls-23" d="M630.33,273.76l2.44,9.06,9.05,2.43-9.05,2.44-2.44,9.05-2.44-9.05-9.05-2.44,9.05-2.43,2.44-9.06Z"/>
      <path class="cls-23" d="M877.33,273.76l2.44,9.06,9.05,2.43-9.05,2.44-2.44,9.05-2.43-9.05-9.05-2.44,9.05-2.43,2.43-9.06Z"/>
      <path class="cls-23" d="M1172.82,63.56l2.4,9.05,8.94,2.44-8.94,2.44-2.4,9.05-2.41-9.05-8.93-2.44,8.93-2.44,2.41-9.05Z"/>
      <path class="cls-23" d="M1187.75,316.31l2.44,9.05,9.05,2.44-9.05,2.44-2.44,9.05-2.43-9.05-9.06-2.44,9.06-2.44,2.43-9.05Z"/>
      <path class="cls-23" d="M877.86,6.36l2.44,9.05,9.05,2.44-9.05,2.44-2.44,9.05-2.44-9.05-9.05-2.44,9.05-2.44,2.44-9.05Z"/>
      <path class="cls-23" d="M974,75.05l2.68,16.28,16.27,2.68-16.27,2.68-2.68,16.28-2.68-16.28-16.28-2.68,16.28-2.68,2.68-16.28Z"/>
      <path class="cls-23" d="M843.53,119.17l2.68,16.28,16.28,2.68-16.28,2.68-2.68,16.27-2.68-16.27-16.28-2.68,16.28-2.68,2.68-16.28Z"/>
      <path class="cls-23" d="M1105.29,210.45c1.56,0,2.82-1.26,2.82-2.82s-1.26-2.82-2.82-2.82-2.82,1.26-2.82,2.82,1.26,2.82,2.82,2.82Z"/>
      <path class="cls-23" d="M1144.06,71.52c-1.08,1.1-2.85,1.1-3.94,0-1.08-1.1-1.08-2.89,0-3.99,1.09-1.1,2.86-1.1,3.94,0,1.09,1.1,1.09,2.89,0,3.99Z"/>
      <path class="cls-23" d="M554.17,92.84c1.56,0,2.82-1.26,2.82-2.82s-1.26-2.82-2.82-2.82-2.82,1.26-2.82,2.82,1.26,2.82,2.82,2.82Z"/>
      <path class="cls-23" d="M521.76,64.42c1.56,0,2.82-1.26,2.82-2.82s-1.26-2.82-2.82-2.82-2.82,1.26-2.82,2.82,1.26,2.82,2.82,2.82Z"/>
      <path class="cls-23" d="M509.51,298.85c1.56,0,2.82-1.26,2.82-2.82s-1.26-2.82-2.82-2.82-2.82,1.26-2.82,2.82,1.26,2.82,2.82,2.82Z"/>
      <path class="cls-23" d="M893.25,307.45c1.56,0,2.82-1.26,2.82-2.82s-1.26-2.82-2.82-2.82-2.82,1.26-2.82,2.82,1.26,2.82,2.82,2.82Z"/>
    </g>
  </g>
</svg>