<svg width="1023" height="953" viewBox="0 0 1023 953" fill="none" xmlns="http://www.w3.org/2000/svg">
<path d="M425.7 -343.225C529.219 -413.564 702.353 -422.307 826.207 -324.826C971.003 -210.863 979.862 -157.717 1176.3 188.887C1247.43 314.379 1384.2 522.999 1246.44 676.67C1128.92 807.765 938.495 812.343 800.723 760.555C624.479 694.289 476.975 617.416 343.322 425.516C246.093 285.921 208.632 112.526 243.116 -54.2472C251.442 -94.4638 305.701 -261.689 425.723 -343.231L425.7 -343.225Z" fill="#EEFFD2"/>
<g clip-path="url(#clip0_616_4)">
<path d="M659.91 209.824C689.91 267.224 651.484 347.622 594.172 377.669C536.861 407.716 448.989 390.763 418.988 333.374C388.987 275.975 413.08 171.468 470.381 141.421C527.693 111.374 629.909 152.436 659.899 209.824H659.91Z" fill="#C1EF00"/>
<path d="M508.463 262.071C514.212 261.867 518.565 253.008 518.186 242.283C517.806 231.558 512.838 223.029 507.089 223.233C501.339 223.437 496.986 232.297 497.366 243.022C497.746 253.747 502.714 262.276 508.463 262.071Z" fill="black"/>
<path d="M572.026 259.818C577.775 259.614 582.128 250.754 581.748 240.029C581.369 229.305 576.4 220.776 570.651 220.98C564.902 221.184 560.549 230.044 560.928 240.769C561.308 251.493 566.276 260.022 572.026 259.818Z" fill="black"/>
<path d="M617.663 285.987C628.378 285.987 637.065 281.316 637.065 275.555C637.065 269.793 628.378 265.122 617.663 265.122C606.948 265.122 598.262 269.793 598.262 275.555C598.262 281.316 606.948 285.987 617.663 285.987Z" fill="#00CD00"/>
<path d="M459.211 291.602C469.926 291.602 478.613 286.931 478.613 281.17C478.613 275.408 469.926 270.737 459.211 270.737C448.496 270.737 439.81 275.408 439.81 281.17C439.81 286.931 448.496 291.602 459.211 291.602Z" fill="#00CD00"/>
<path d="M496.293 206.817C486.899 211.991 479.883 217.164 478.742 215.094C477.602 213.025 483.864 202.798 493.258 197.624C502.653 192.451 511.616 194.294 512.757 196.374C513.897 198.454 505.687 201.655 496.293 206.817Z" fill="#00CD00"/>
<path d="M579.247 206.257C589.577 209.113 597.605 212.519 598.229 210.234C598.853 207.949 590.406 199.457 580.075 196.601C569.745 193.745 561.449 197.614 560.825 199.899C560.2 202.183 568.917 203.39 579.247 206.246V206.257Z" fill="#00CD00"/>
<path d="M705.772 381.667C675.771 439.067 714.197 519.465 771.509 549.512C828.821 579.558 916.693 562.606 946.693 505.217C976.694 447.818 952.601 343.311 895.3 313.264C837.989 283.217 735.773 324.278 705.783 381.667H705.772Z" fill="#C1EF00"/>
<path d="M848.091 437.147C849.339 426.489 845.719 417.304 840.006 416.633C834.292 415.962 828.648 424.058 827.4 434.717C826.152 445.375 829.771 454.56 835.485 455.231C841.199 455.902 846.842 447.806 848.091 437.147Z" fill="black"/>
<path d="M784.946 429.731C786.195 419.073 782.575 409.888 776.861 409.217C771.147 408.546 765.504 416.642 764.255 427.301C763.007 437.959 766.627 447.144 772.341 447.815C778.054 448.486 783.698 440.39 784.946 429.731Z" fill="black"/>
<path d="M744.881 461.333C745.349 455.59 737.07 450.228 726.39 449.356C715.711 448.484 706.674 452.433 706.207 458.175C705.739 463.918 714.018 469.28 724.698 470.152C735.378 471.024 744.414 467.075 744.881 461.333Z" fill="#00CD00"/>
<path d="M902.356 479.836C902.823 474.093 894.545 468.731 883.865 467.859C873.185 466.987 864.149 470.936 863.681 476.678C863.214 482.421 871.493 487.783 882.172 488.655C892.852 489.527 901.889 485.578 902.356 479.836Z" fill="#00CD00"/>
<path d="M847.469 397.413C856.863 402.586 863.879 407.759 865.019 405.69C866.16 403.61 859.897 393.393 850.503 388.22C841.109 383.047 832.145 384.89 831.005 386.97C829.864 389.05 838.074 392.25 847.469 397.413Z" fill="#00CD00"/>
<path d="M769.141 389.157C758.811 392.013 750.784 395.419 750.159 393.134C749.535 390.849 757.983 382.357 768.313 379.501C778.643 376.645 786.94 380.514 787.564 382.799C788.188 385.083 779.472 386.291 769.141 389.146V389.157Z" fill="#00CD00"/>
<path d="M272.804 344.928L284.221 387.379L326.607 398.814L284.221 410.238L272.804 452.7L261.386 410.238L219 398.814L261.386 387.379L272.804 344.928Z" fill="#00CD00"/>
<path d="M635.052 65L641.842 90.2295L667.022 97.0191L641.842 103.809L635.052 129.027L628.273 103.809L603.093 97.0191L628.273 90.2295L635.052 65Z" fill="#00CD00"/>
<path d="M727.476 623.228L738.894 665.679L781.28 677.114L738.894 688.538L727.476 731L716.059 688.538L673.673 677.114L716.059 665.679L727.476 623.228Z" fill="#00CD00"/>
<path d="M803.845 634.652L808.343 651.378L825.044 655.883L808.343 660.388L803.845 677.114L799.347 660.388L782.646 655.883L799.347 651.378L803.845 634.652Z" fill="#00CD00"/>
<path d="M326.607 422.642C328.818 422.642 330.61 420.847 330.61 418.633C330.61 416.419 328.818 414.624 326.607 414.624C324.397 414.624 322.604 416.419 322.604 418.633C322.604 420.847 324.397 422.642 326.607 422.642Z" fill="#00CD00"/>
<path d="M653.97 135.397C656.181 135.397 657.973 133.602 657.973 131.388C657.973 129.173 656.181 127.379 653.97 127.379C651.759 127.379 649.967 129.173 649.967 131.388C649.967 133.602 651.759 135.397 653.97 135.397Z" fill="#00CD00"/>
<path d="M681.323 129.027C685.745 129.027 689.329 125.438 689.329 121.009C689.329 116.581 685.745 112.991 681.323 112.991C676.902 112.991 673.317 116.581 673.317 121.009C673.317 125.438 676.902 129.027 681.323 129.027Z" fill="#00CD00"/>
<path d="M762.255 639.264C766.677 639.264 770.261 635.674 770.261 631.246C770.261 626.818 766.677 623.228 762.255 623.228C757.833 623.228 754.249 626.818 754.249 631.246C754.249 635.674 757.833 639.264 762.255 639.264Z" fill="#00CD00"/>
<path d="M345.664 399.503C350.086 399.503 353.67 395.914 353.67 391.485C353.67 387.057 350.086 383.467 345.664 383.467C341.243 383.467 337.658 387.057 337.658 391.485C337.658 395.914 341.243 399.503 345.664 399.503Z" fill="#00CD00"/>
<path d="M1007.95 374.317C1000.09 385.849 993.459 398.232 988.219 411.186C1000.67 404.655 1013.12 398.124 1025.57 391.582" fill="#0E962A"/>
<path d="M1007.95 374.317C993.492 366.902 987.853 346.307 990.124 330.206C992.384 314.094 1003.3 300.008 1017.1 291.44C1030.92 282.883 1047.36 279.381 1063.6 278.766C1089.65 277.775 1117.05 284.597 1135.9 302.638C1154.74 320.679 1162.54 351.318 1149.68 374.037C1138.89 393.102 1116.28 402.984 1094.44 404.235C1072.59 405.485 1046.64 397.553 1025.58 391.582" fill="#0E962A"/>
<path d="M290.279 238.567H297.941C303.461 238.567 307.937 243.051 307.937 248.579V255.261C307.937 262.902 301.739 269.11 294.11 269.11C286.48 269.11 280.282 262.902 280.282 255.261V248.579C280.282 243.051 284.759 238.567 290.279 238.567Z" fill="#AEC430"/>
<path d="M310.767 241.768C306.581 237.597 309.498 230.15 312.037 224.815C314.577 219.481 321.593 215.957 325.972 212.001C330.825 207.637 335.668 203.142 339.262 197.7C345.74 187.893 347.634 174.982 343.415 164C339.294 153.255 329.674 145.075 318.73 141.551C307.787 138.026 295.713 138.889 284.888 142.747C271.706 147.435 259.955 156.725 253.499 169.151C247.032 181.577 246.289 197.14 252.681 209.598C257.599 219.19 267.359 226.874 278.119 226.68C278.84 233.653 279.561 240.636 280.282 247.609" fill="#C1EF00"/>
<path d="M301.675 233.491C301.61 226.163 302.363 218.78 303.655 211.57C304.838 204.91 306.668 198.616 309.476 192.462C310.724 189.714 312.059 186.955 313.813 184.487C314.458 183.582 315.298 182.58 316.137 181.987C316.61 181.653 316.804 181.556 317.245 181.426C317.428 181.372 317.826 181.362 318.02 181.416C318.44 181.534 318.623 181.631 319.032 181.954C319.301 182.159 319.58 182.429 319.785 182.698C320.043 183.043 319.742 182.633 319.731 182.601C319.86 182.924 319.946 183.291 320.032 183.636C320.517 185.425 320.775 187.311 320.452 189.154C319.817 192.796 317.138 196.892 313.533 198.153C312.188 198.627 310.767 198.756 309.369 199.026C307.776 199.338 306.302 199.64 304.666 199.489C301.276 199.166 298.199 197.172 296.822 194.014C295.121 190.134 295.563 185.651 296.703 181.685C296.994 180.661 297.532 177.687 298.995 177.773C300.824 177.881 300.975 180.446 300.814 181.728C299.845 189.089 293.744 196.568 286.211 197.581C282.714 198.056 278.797 197.258 276.107 194.855C273.643 192.656 272.438 189.294 272.804 186.007C272.976 184.466 273.525 182.924 274.472 181.696C275.279 180.65 276.807 179.206 278.162 180.133C279.411 180.984 279.992 182.795 280.379 184.175C281.025 186.481 281.509 188.852 281.95 191.201C283.726 200.75 284.081 210.557 283.091 220.214C282.854 222.563 282.51 224.891 282.101 227.208C281.649 229.751 285.544 230.84 285.996 228.286C288.041 216.646 288.17 204.802 286.351 193.12C285.899 190.199 285.308 187.289 284.608 184.422C284.07 182.224 283.36 180.025 281.929 178.226C280.498 176.426 278.453 175.467 276.204 175.865C273.826 176.296 271.889 178.182 270.63 180.155C268.338 183.776 268.166 188.604 269.737 192.527C271.48 196.881 275.214 199.963 279.733 201.149C289.429 203.671 298.629 197.581 302.665 188.917C304.602 184.757 306.7 178.333 302.32 174.96C300.394 173.484 297.758 173.225 295.81 174.798C293.862 176.372 293.227 179.001 292.636 181.243C291.312 186.287 291.172 191.869 293.626 196.601C295.713 200.621 299.91 202.981 304.311 203.466C306.485 203.703 308.475 203.261 310.595 202.873C312.414 202.539 314.168 202.291 315.879 201.526C320.387 199.5 323.777 194.359 324.466 189.542C324.81 187.117 324.541 184.681 323.885 182.332C323.336 180.359 322.088 178.829 320.226 177.935C317.116 176.436 314.039 178.053 311.919 180.435C309.476 183.172 307.797 186.535 306.269 189.843C304.741 193.152 303.203 196.665 302.148 200.254C299.533 209.091 298.285 218.446 297.801 227.639C297.704 229.579 297.65 231.53 297.661 233.48C297.682 236.078 301.718 236.088 301.696 233.48L301.675 233.491Z" fill="#99AA33"/>
<path d="M310.821 249.797C310.821 249.797 304.257 253.839 293.841 253.839C284.414 253.839 278.819 249.797 278.819 249.797L278.119 226.691C278.119 226.691 284.016 228.264 294.131 228.437C305.882 228.641 312.037 224.815 312.037 224.815L310.821 249.797Z" fill="#99AA33"/>
<path d="M750.569 248.418C800.638 288.649 835.169 262.913 846.102 254.83C849.556 252.276 856.174 248.094 862.006 240.065C865.762 234.903 869.84 228.189 863.534 220.149C855.572 209.997 851.375 212.691 842.949 213.963C834.524 215.234 825.237 205.039 837.451 199.069C841.809 196.935 844.897 193.303 847.06 189.509C851.009 182.58 852.171 174.378 850.665 166.543C840.291 112.42 786.8 104.014 760.242 115.168C730.973 127.465 687.102 197.42 750.558 248.418H750.569ZM840.646 224.007C844.854 222.153 852.838 220.957 856.508 227.585C859.435 232.866 851.612 239.149 844.337 241.563C838.656 243.449 833.211 239.914 831.694 235.463C830.187 231.023 834.868 226.551 840.636 224.007H840.646Z" fill="#D1E26D"/>
<path d="M809.452 242.167C808.182 237.274 803.329 240.421 801.844 239.386C799.197 237.533 801.349 235.205 798.013 232.155C795.699 230.042 791.395 229.31 787.36 231.39C782.582 233.847 780.634 241.035 782.873 245.529C785.111 250.023 789.135 252.319 794.387 252.114C798.852 251.942 811.496 250.002 809.462 242.178L809.452 242.167Z" fill="#C1EF00"/>
<path d="M764.342 237.877C769.034 236.002 765.311 231.573 766.161 229.967C767.667 227.1 770.239 228.954 772.854 225.268C774.662 222.703 774.845 218.338 772.295 214.577C769.271 210.126 761.9 209.091 757.725 211.872C753.549 214.653 751.774 218.942 752.635 224.126C753.356 228.544 756.853 240.874 764.353 237.867L764.342 237.877Z" fill="#0E962A"/>
<path d="M786.38 125.352C782.958 124.695 781.904 127.228 780.193 127.842C777.148 128.931 776.018 127.95 771.606 128.909C768.55 129.577 765.462 132.681 764.816 137.175C764.052 142.499 768.787 148.254 773.736 149.019C778.686 149.784 782.883 147.823 785.756 143.415C788.199 139.665 794.311 126.872 786.37 125.352H786.38Z" fill="#667700"/>
<path d="M744.79 182.332C750.569 183.011 754.733 188 753.506 198.476C752.516 206.968 747.599 208.402 741.82 207.723C736.042 207.044 731.91 201.806 732.587 196.019C733.265 190.231 739.012 181.653 744.79 182.332Z" fill="#C1EF00"/>
<path d="M761.868 155.798C763.439 161.402 760.415 167.157 750.268 170.002C742.046 172.309 738.861 168.3 737.29 162.685C735.719 157.081 738.99 151.261 744.597 149.687C750.192 148.114 760.307 150.194 761.868 155.798Z" fill="#AEC430"/>
<path d="M824.581 141.141C826.152 146.745 823.128 152.5 812.981 155.345C804.759 157.652 801.574 153.643 800.003 148.028C798.432 142.413 801.703 136.604 807.31 135.03C812.905 133.457 823.02 135.537 824.581 141.141Z" fill="#009900"/>
<path d="M798.787 186.578C809.15 186.211 816.93 186.039 823.3 181.89C827.12 179.4 832.737 174.938 832.737 174.938L827.153 163.849C827.153 163.849 819.695 165.864 815.402 167.416C808.73 169.83 796.431 186.664 798.777 186.589L798.787 186.578Z" fill="#F6FFC0"/>
<path d="M832.748 174.938L827.163 163.849C827.163 163.849 927.378 118.671 932.295 116.601C937.213 114.532 938.892 117.841 934.372 120.395C926.775 124.673 832.748 174.938 832.748 174.938Z" fill="#99AA33"/>
<path d="M832.748 174.938C832.748 174.938 830.069 174.604 827.96 170.401C825.937 166.381 827.163 163.849 827.163 163.849L834.072 160.734C834.072 160.734 833.405 162.372 835.525 166.575C837.644 170.778 839.205 171.35 839.431 171.36L832.759 174.928L832.748 174.938Z" fill="#7F8921"/>
<path d="M807.977 181.857C807.525 179.918 806.363 180.101 803.952 179.81C803.264 179.724 803.264 178.926 803.436 178.29C799.982 182.655 797.657 186.61 798.798 186.578C801.359 186.492 803.759 186.405 806.018 186.276C806.503 183.345 808.257 182.989 807.988 181.847L807.977 181.857Z" fill="#0E962A"/>
<path d="M592.931 549.065L615.675 556.793C617.285 557.34 618.147 559.09 617.601 560.702L615.917 565.673C613.553 572.653 605.978 576.396 599.008 574.028L594.535 572.508C588.206 570.357 584.813 563.469 586.96 557.131L589.034 551.007C589.58 549.395 591.327 548.532 592.937 549.079L592.931 549.065Z" fill="#D1E26D"/>
<path d="M590.868 545.459L620.159 553.025L616.404 564.093C616.404 564.093 609.98 566.324 600.779 563.199C590.707 559.772 587.845 554.383 587.845 554.383L590.868 545.449V545.459Z" fill="#667700"/>
<path d="M663.934 391.485L635.515 427.492L632.125 437.526L656.401 445.781L663.439 434.928L663.934 391.485Z" fill="#D1E26D"/>
<path d="M635.514 427.492C635.514 427.492 639.786 423.741 640.443 429.432C641.099 435.122 640.69 435.747 642.035 436.2C643.38 436.653 647.308 431.005 649.267 431.814C651.225 432.622 650.095 439.196 652.14 439.638C654.184 440.08 658.445 433.98 661.103 433.764C663.094 433.603 663.428 434.928 663.428 434.928L619.481 554.986C619.481 554.986 615.994 559.998 604.254 556.129C593.16 552.475 590.857 545.459 590.857 545.459L635.514 427.503V427.492Z" fill="#AEC430"/>
<path d="M663.934 391.485L657.187 400.032C657.187 400.032 656.574 401.864 658.059 402.629C659.684 403.459 660.555 402.575 661.599 402.694C662.847 402.823 663.783 404.526 663.783 404.526L663.934 391.485Z" fill="#667700"/>
<path d="M640.486 438.765L600.812 547.669" stroke="#667700" stroke-width="2" stroke-linecap="round" stroke-linejoin="round"/>
<path d="M650.677 442.224L611.002 551.128" stroke="#667700" stroke-width="2" stroke-linecap="round" stroke-linejoin="round"/>
<path d="M486.781 487.122L471.135 542.657L526.972 528.464L486.781 487.122Z" fill="#C1EF00"/>
<path d="M418.988 551.656C434.202 551.656 446.535 539.304 446.535 524.067C446.535 508.829 434.202 496.477 418.988 496.477C403.774 496.477 391.44 508.829 391.44 524.067C391.44 539.304 403.774 551.656 418.988 551.656Z" fill="#667700"/>
<path d="M451.258 427.278L419.321 464.048L456.034 496.033L487.971 459.264L451.258 427.278Z" fill="#AEC430"/>
<path d="M950.465 616.887L1096.34 485.29C1099.28 482.641 1099.52 478.109 1096.87 475.168L1081.94 458.568C1079.3 455.627 1074.77 455.39 1071.84 458.039L925.958 589.636C923.021 592.285 922.785 596.817 925.43 599.758L940.359 616.358C943.004 619.299 947.529 619.536 950.465 616.887Z" fill="#AEC430"/>
<path d="M1026.82 519.454L1016.49 507.965" stroke="#667700" stroke-width="3" stroke-miterlimit="10"/>
<path d="M1018.54 526.912L1008.21 515.423" stroke="#667700" stroke-width="3" stroke-miterlimit="10"/>
<path d="M1010.28 534.38L999.938 522.892" stroke="#667700" stroke-width="3" stroke-miterlimit="10"/>
<path d="M1005.01 546.483L991.028 530.932" stroke="#667700" stroke-width="3" stroke-miterlimit="10"/>
<path d="M993.083 549.878L982.753 538.39" stroke="#667700" stroke-width="3" stroke-miterlimit="10"/>
<path d="M984.808 557.347L974.478 545.858" stroke="#667700" stroke-width="3" stroke-miterlimit="10"/>
<path d="M976.437 564.901L966.096 553.413" stroke="#667700" stroke-width="3" stroke-miterlimit="10"/>
<path d="M971.809 576.433L957.831 560.882" stroke="#667700" stroke-width="3" stroke-miterlimit="10"/>
<path d="M959.24 580.41L948.91 568.921" stroke="#667700" stroke-width="3" stroke-miterlimit="10"/>
<path d="M950.966 587.868L940.636 576.379" stroke="#667700" stroke-width="3" stroke-miterlimit="10"/>
<path d="M942.701 595.336L932.36 583.848" stroke="#667700" stroke-width="3" stroke-miterlimit="10"/>
</g>
<defs>
<clipPath id="clip0_616_4">
<rect width="937" height="666" fill="white" transform="translate(219 65)"/>
</clipPath>
</defs>
</svg>
