<svg width="321" height="322" viewBox="0 0 321 322" fill="none" xmlns="http://www.w3.org/2000/svg">
<path d="M317 161C317 247.72 246.921 318 160.5 318C74.0792 318 4 247.72 4 161C4 74.2796 74.0792 4 160.5 4C246.921 4 317 74.2796 317 161Z" fill="white" stroke="black" stroke-width="8"/>
<path d="M86.4592 140.359C86.4592 140.359 82.9434 163.299 77.5928 185.158C74.8047 196.535 74.8304 199.703 68.3112 210.445C62.361 220.244 56.1392 221.756 56.1392 221.756C56.1392 221.756 59.9368 217.876 62.3456 213.289C64.2624 209.63 66.3125 206.417 67.7065 200.559C71.8322 183.226 71.9296 176.45 71.9296 176.45C71.9296 176.45 77.4903 155.294 78.4845 150.676C79.4839 146.058 86.4592 140.359 86.4592 140.359Z" fill="#F91E68"/>
<path d="M86.4592 156.503C86.4592 156.503 82.9434 179.443 77.5928 201.302C74.8047 212.679 74.8304 215.847 68.3112 226.589C62.361 236.388 56.1392 237.9 56.1392 237.9C56.1392 237.9 59.9368 234.02 62.3456 229.433C64.2624 225.774 66.3125 222.56 67.7065 216.702C71.8322 199.369 71.9296 192.594 71.9296 192.594C71.9296 192.594 77.4903 171.438 78.4845 166.82C79.4839 162.202 86.4592 156.503 86.4592 156.503Z" fill="#F91E68"/>
<path d="M86.6794 199.447L69.7666 233.769C69.7666 233.769 77.526 204.08 74.2101 188.684L86.6794 199.447Z" fill="#F91E68"/>
<path d="M247.315 199.098L244.978 249.124C244.978 249.124 240.627 208.774 231.571 190.98L247.315 199.093V199.098Z" fill="#F91E68"/>
<path d="M234.503 187.351C240.505 203.336 239.439 245.921 239.439 245.921C239.439 245.921 234.365 237.434 229.988 228.101L229.322 248.617C229.322 248.617 227.984 240.811 225.442 231.473C223.827 240.816 218.446 247.602 218.446 247.602C218.446 247.602 221.06 239.079 214.623 221.587C214.146 220.29 217.462 220.336 215.258 228.716L209.959 247.002C209.959 247.002 206.674 227.824 200.601 213.623L234.508 187.351H234.503Z" fill="#F91E68"/>
<path d="M79.4485 190.365C73.447 206.35 75.9531 246.464 75.9531 246.464C75.9531 246.464 79.428 241.139 83.9637 231.114L82.3595 248.965C82.3595 248.965 90.7237 243.64 88.5096 234.487C90.124 243.83 96.7456 248.986 96.7456 248.986C96.7456 248.986 94.26 231.012 99.3287 224.6C100.067 223.662 96.3049 226.486 97.335 235.266C98.0679 241.508 103.577 251.03 103.993 250.016C103.993 250.016 107.278 230.838 113.351 216.636L79.4433 190.365H79.4485Z" fill="#F91E68"/>
<path d="M160.419 110.449C175.435 102.316 199.846 70.3865 199.846 70.3865C199.846 70.3865 193.732 72.1239 183.733 76.7211L196.648 64.2979C196.648 64.2979 186.844 62.8321 182.513 71.1963C187.418 63.0833 185.803 54.8524 185.803 54.8524C185.803 54.8524 175.891 70.0534 167.86 71.5653C166.687 71.7857 171.381 72.1239 176.358 64.8207C179.894 59.629 181.98 48.8253 181.006 49.3173C181.006 49.3173 165.949 61.638 152.055 68.3826L160.424 110.454L160.419 110.449Z" fill="#F91E68"/>
<path d="M240.535 182.544C240.535 222.064 196.992 254.639 157.467 254.639C117.942 254.639 75.1685 220.582 75.1685 181.058C75.1685 141.533 117.773 91.8708 157.293 91.8708C196.812 91.8708 240.535 143.024 240.535 182.544Z" fill="#FF9FC4"/>
<path d="M135.229 186.629C138.742 186.629 141.59 181.321 141.59 174.775C141.59 168.228 138.742 162.92 135.229 162.92C131.717 162.92 128.869 168.228 128.869 174.775C128.869 181.321 131.717 186.629 135.229 186.629Z" fill="black"/>
<path d="M177.496 186.629C181.009 186.629 183.856 181.321 183.856 174.775C183.856 168.228 181.009 162.92 177.496 162.92C173.983 162.92 171.136 168.228 171.136 174.775C171.136 181.321 173.983 186.629 177.496 186.629Z" fill="black"/>
<path d="M207.305 197.627C207.429 194.116 202.226 191.083 195.683 190.851C189.14 190.619 183.735 193.277 183.611 196.787C183.487 200.298 188.69 203.331 195.233 203.563C201.775 203.795 207.18 201.137 207.305 197.627Z" fill="#F91E68"/>
<path d="M125.921 197.632C126.045 194.121 120.842 191.087 114.299 190.856C107.756 190.624 102.351 193.281 102.227 196.792C102.102 200.302 107.305 203.336 113.848 203.568C120.391 203.8 125.796 201.142 125.921 197.632Z" fill="#F91E68"/>
<path d="M126.829 156.319C120.761 158.784 116.138 161.423 115.595 160.081C115.052 158.738 119.577 152.993 125.645 150.533C131.713 148.073 137.023 149.825 137.566 151.163C138.11 152.501 132.902 153.859 126.834 156.319H126.829Z" fill="#F91E68"/>
<path d="M184.63 154.397C190.698 156.862 195.321 159.502 195.864 158.159C196.408 156.816 191.882 151.071 185.814 148.611C179.746 146.146 174.436 147.904 173.893 149.241C173.35 150.579 178.557 151.937 184.625 154.397H184.63Z" fill="#F91E68"/>
<path d="M154.956 86.951C156.929 86.6948 155.002 88.6884 133.067 102.803C125.435 107.713 121.438 116.082 120.269 123.119C117.22 141.508 118.839 146.909 118.839 146.909C118.839 146.909 100.989 131.498 109.209 111.649C117.435 91.8045 154.956 86.9459 154.956 86.9459V86.951Z" fill="#F91E68"/>
<path d="M170.541 83.3016C172.515 83.0453 170.587 85.039 148.652 99.1535C141.021 104.063 137.023 112.433 135.855 119.469C132.805 137.858 134.425 143.26 134.425 143.26C134.425 143.26 116.574 127.849 124.795 107.999C133.021 88.1551 170.541 83.2965 170.541 83.2965V83.3016Z" fill="#F91E68"/>
<path d="M169.219 93.8902C167.246 93.634 169.173 95.6276 191.108 109.742C198.74 114.652 202.737 123.021 203.906 130.058C206.955 148.447 205.336 153.849 205.336 153.849C205.336 153.849 223.186 138.438 214.966 118.588C206.745 98.7386 169.219 93.8851 169.219 93.8851V93.8902Z" fill="#F91E68"/>
<path d="M141.001 90.0106C142.974 89.7543 141.047 91.748 119.112 105.862C111.48 110.772 107.483 119.142 106.314 126.178C103.265 144.567 104.884 149.969 104.884 149.969C104.884 149.969 87.0336 134.558 95.2543 114.708C103.48 94.864 141.001 90.0054 141.001 90.0054V90.0106Z" fill="#F91E68"/>
<path d="M134.64 96.2374C136.613 95.9811 134.686 97.9748 112.751 112.089C105.119 116.999 101.122 125.368 99.9534 132.405C96.9039 150.794 98.5234 156.196 98.5234 156.196C98.5234 156.196 80.6728 140.785 88.8934 120.935C97.1192 101.091 134.64 96.2323 134.64 96.2323V96.2374Z" fill="#F91E68"/>
<path d="M155.094 68.3777C134.686 68.6135 104.73 65.5333 83.297 91.8711C71.3402 106.56 56.9233 129.658 75.1686 181.058C75.1686 181.058 75.8349 165.063 83.297 149.974C92.0763 132.216 108.077 114.739 111.464 111.792C128.869 96.6528 177.496 87.4123 202.358 110.106C206.54 113.919 218.159 127.091 227.502 141.082C237.567 156.155 237.209 173.252 237.209 173.252L252.743 175.871C252.743 175.871 260.933 117.107 240.156 93.8648C211.809 62.1507 183.37 68.0497 155.094 68.3726V68.3777Z" fill="#F91E68"/>
<path d="M115.549 108.958L123.934 146.289C123.934 146.289 123.36 115.605 130.197 101.424L115.549 108.958Z" fill="#F91E68"/>
<path d="M195.91 112.638L204.295 149.969C204.295 149.969 203.721 119.285 210.558 105.104L195.91 112.638Z" fill="#F91E68"/>
<path d="M188.115 108.958L196.5 146.289C196.5 146.289 195.926 115.605 202.763 101.424L188.115 108.958Z" fill="#F91E68"/>
<path d="M134.271 103.751L142.656 141.082C142.656 141.082 142.082 110.398 148.919 96.217L134.271 103.751Z" fill="#F91E68"/>
<path d="M157.298 91.8708L175.856 140.154C175.856 140.154 175.282 109.47 182.119 95.2893L157.298 91.8708Z" fill="#F91E68"/>
<path d="M147.474 86.1973C145.5 85.9411 147.427 87.9347 169.363 102.049C176.994 106.959 180.992 115.328 182.16 122.365C185.21 140.754 183.59 146.156 183.59 146.156C183.59 146.156 201.441 130.745 193.22 110.895C184.994 91.0508 147.474 86.1922 147.474 86.1922V86.1973Z" fill="#F91E68"/>
<path d="M123.221 80.2523C121.248 79.996 123.175 81.9897 145.11 96.1042C152.742 101.014 156.739 109.383 157.908 116.42C160.957 134.809 159.338 140.211 159.338 140.211C159.338 140.211 177.188 124.8 168.968 104.95C160.747 85.1006 123.221 80.2472 123.221 80.2472V80.2523Z" fill="#F91E68"/>
<path d="M111.572 80.2523C109.599 79.996 111.526 81.9897 133.461 96.1042C141.093 101.014 145.09 109.383 146.259 116.42C149.308 134.809 147.689 140.211 147.689 140.211C147.689 140.211 165.539 124.8 157.319 104.95C149.098 85.1006 111.572 80.2472 111.572 80.2472V80.2523Z" fill="#F91E68"/>
<path d="M58.8038 188.002C61.3049 198.529 70.7914 204.028 76.3316 203.439C83.0557 202.732 84.1371 189.806 82.8046 183.18C81.4721 176.553 83.0455 167.42 70.8068 167.43C58.5681 167.44 57.2458 181.427 58.8089 188.002H58.8038Z" fill="#FF9FC4"/>
<path d="M234.01 151.056C234.01 151.056 237.526 173.996 242.877 195.854C245.665 207.232 245.639 210.399 252.158 221.141C258.108 230.94 264.33 232.452 264.33 232.452C264.33 232.452 260.533 228.573 258.124 223.986C256.207 220.326 254.157 217.113 252.763 211.255C248.637 193.922 248.54 187.147 248.54 187.147C248.54 187.147 242.979 165.99 241.985 161.372C240.986 156.755 234.01 151.056 234.01 151.056Z" fill="#F91E68"/>
<path d="M257.786 188.002C255.285 198.529 245.799 204.028 240.258 203.439C233.534 202.732 232.453 189.806 233.785 183.18C235.118 176.553 233.544 167.42 245.783 167.43C257.965 167.435 259.344 181.427 257.781 188.002H257.786Z" fill="#FF9FC4"/>
<path d="M216.575 139.165C216.791 135.039 217.313 131.267 216.13 125.358C216.073 125.071 216.017 124.794 215.96 124.513L221.291 122.063C221.531 125.276 221.419 128.828 220.814 134.091C219.502 145.479 214.474 149.451 214.474 149.451C214.474 149.451 216.304 144.342 216.575 139.165Z" fill="#F91E68"/>
</svg>
