<svg width="323" height="323" viewBox="0 0 323 323" fill="none" xmlns="http://www.w3.org/2000/svg">
<circle cx="161.5" cy="161.5" r="157.5" fill="white" stroke="black" stroke-width="8"/>
<path d="M101.78 146.157C101.78 146.157 103.153 201.729 108.15 223.669C110.754 235.093 110.677 238.26 117.022 249.105C122.813 259.001 129.009 260.611 129.009 260.611C129.009 260.611 125.273 256.67 122.941 252.042C121.081 248.352 119.087 245.107 117.791 239.224C113.947 221.824 113.962 215.049 113.962 215.049C113.962 215.049 117.934 163.306 117.012 158.673C116.089 154.04 101.785 146.152 101.785 146.152L101.78 146.157Z" fill="#FB5607"/>
<path d="M209.74 149.54C209.74 149.54 208.366 205.111 203.369 227.052C200.766 238.475 200.843 241.643 194.498 252.487C188.706 262.384 182.51 263.993 182.51 263.993C182.51 263.993 186.246 260.052 188.578 255.424C190.439 251.734 192.432 248.49 193.729 242.606C197.573 225.207 197.558 218.431 197.558 218.431C197.558 218.431 193.586 166.688 194.508 162.055C195.431 157.422 209.735 149.535 209.735 149.535L209.74 149.54Z" fill="#FB5607"/>
<path d="M157.73 50.2258C122.885 50.2258 84.8977 77.1121 73.5815 107.494C61.271 140.54 39.8584 146.89 46.275 171.578C50.8261 189.07 72.0388 200.837 81.7099 225.417C83.7906 230.706 113.895 208.996 113.962 215.054C114.106 227.851 114.813 221.137 127.61 221.281L175.909 225.417C197.081 214.705 167.022 225.76 196.133 215.054C196.389 214.962 248.193 221.547 248.255 221.281C252.924 201.401 260.135 176.4 265.619 149.54C271.389 121.28 238.948 70.6339 187.727 66.867C177.933 66.1495 175.909 50.2258 157.735 50.2258H157.73Z" fill="#FB5607"/>
<path d="M118.052 222.168C115.495 239.05 93.7387 272.845 93.7387 272.845C93.7387 272.845 93.298 266.505 94.2307 255.537L86.9224 271.902C86.9224 271.902 82.2175 263.174 88.6136 256.265C82.648 263.635 74.3556 264.906 74.3556 264.906C74.3556 264.906 85.0876 246.614 83.7858 238.548C83.5962 237.369 83.5757 243.099 78.6402 251.012C75.314 256.342 67.3855 263.353 67.5188 262.266C67.5188 262.266 71.9059 218.36 59.3955 192.734L118.047 222.163L118.052 222.168Z" fill="#FB5607"/>
<path d="M196.128 222.168C198.685 239.05 220.441 272.844 220.441 272.844C220.441 272.844 220.882 266.505 219.949 255.537L227.258 271.901C227.258 271.901 231.963 263.173 225.566 256.265C231.532 263.635 239.824 264.906 239.824 264.906C239.824 264.906 228.888 250.422 230.189 242.36C230.379 241.182 228.467 245.482 233.654 252.641C237.339 257.731 246.795 263.358 246.661 262.271C246.661 262.271 228.155 232.797 254.785 192.739L196.133 222.168H196.128Z" fill="#FB5607"/>
<path d="M84.3591 171.578C84.3591 171.578 80.8433 194.518 75.4927 216.376C72.7046 227.754 72.7303 230.921 66.2112 241.663C60.2609 251.462 54.0391 252.974 54.0391 252.974C54.0391 252.974 57.8368 249.095 60.2455 244.508C62.1623 240.848 64.2124 237.635 65.6064 231.777C69.7321 214.444 69.8295 207.669 69.8295 207.669C69.8295 207.669 75.3902 186.512 76.3845 181.894C77.3838 177.277 84.3591 171.578 84.3591 171.578Z" fill="#FB5607"/>
<path d="M250.761 169.481C250.761 169.481 248.245 192.555 247.783 215.054C247.542 226.765 246.702 229.819 250.233 241.878C253.457 252.882 259.079 255.942 259.079 255.942C259.079 255.942 256.409 251.216 255.266 246.158C254.354 242.13 254.031 238.46 253.37 232.474C251.438 215.049 252.329 210.718 253.303 203.553C254.774 192.734 255.584 186.22 255.809 181.5C256.035 176.785 250.761 169.476 250.761 169.476V169.481Z" fill="#FB5607"/>
<path d="M238.948 168.436C238.948 207.956 195.405 240.531 155.88 240.531C116.356 240.531 73.5815 206.469 73.5815 166.95C73.5815 127.43 116.186 77.7629 155.706 77.7629C195.226 77.7629 238.948 128.916 238.948 168.436Z" fill="#FF9D00"/>
<path d="M256.194 173.894C253.693 184.421 244.206 189.92 238.666 189.331C231.942 188.624 230.86 175.698 232.193 169.071C233.526 162.445 231.952 153.312 244.191 153.322C256.373 153.327 257.752 167.319 256.189 173.894H256.194Z" fill="#FF9D00"/>
<path d="M57.212 173.894C59.7131 184.421 69.1996 189.92 74.7399 189.331C81.464 188.624 82.5454 175.698 81.2128 169.071C79.8803 162.445 81.4537 153.312 69.215 153.322C57.0327 153.327 55.654 167.319 57.2172 173.894H57.212Z" fill="#FF9D00"/>
<path d="M133.642 177.646C137.155 177.646 140.002 172.338 140.002 165.791C140.002 159.244 137.155 153.937 133.642 153.937C130.129 153.937 127.282 159.244 127.282 165.791C127.282 172.338 130.129 177.646 133.642 177.646Z" fill="black"/>
<path d="M175.904 177.646C179.416 177.646 182.264 172.338 182.264 165.791C182.264 159.244 179.416 153.937 175.904 153.937C172.391 153.937 169.543 159.244 169.543 165.791C169.543 172.338 172.391 177.646 175.904 177.646Z" fill="black"/>
<path d="M205.701 188.648C205.826 185.137 200.623 182.103 194.08 181.871C187.537 181.64 182.132 184.297 182.008 187.808C181.883 191.318 187.086 194.352 193.629 194.584C200.172 194.816 205.577 192.158 205.701 188.648Z" fill="#FB5607"/>
<path d="M124.318 188.648C124.442 185.137 119.239 182.103 112.696 181.871C106.154 181.64 100.749 184.297 100.624 187.808C100.5 191.318 105.703 194.352 112.246 194.584C118.789 194.816 124.194 192.158 124.318 188.648Z" fill="#FB5607"/>
<path d="M125.242 147.336C119.174 149.801 114.551 152.441 114.008 151.098C113.465 149.755 117.99 144.01 124.058 141.55C130.127 139.09 135.436 140.842 135.979 142.18C136.523 143.518 131.316 144.876 125.247 147.336H125.242Z" fill="#FB5607"/>
<path d="M183.043 145.414C189.111 147.88 193.734 150.519 194.277 149.176C194.821 147.833 190.295 142.088 184.227 139.628C178.159 137.163 172.849 138.921 172.306 140.259C171.763 141.596 176.97 142.954 183.038 145.414H183.043Z" fill="#FB5607"/>
<path d="M172.27 80.551C172.27 80.551 183.038 145.414 237.369 154.829L256.716 138.388L189.577 77.7629L172.275 80.551H172.27Z" fill="#FB5607"/>
<path d="M74.9298 154.275C74.9298 154.275 123.567 136.804 140.003 112.424C156.439 88.0438 169.846 93.1587 182.265 95.6136C194.683 98.0685 172.271 68.6659 172.271 68.6659C172.271 68.6659 135.375 58.7283 112.461 77.7629C89.5466 96.7975 75.5346 121.782 69.1948 138.388L74.9247 154.275H74.9298Z" fill="#FB5607"/>
<path d="M249.669 215.054H237.563C238.978 238.127 254.779 258.407 254.779 258.407C254.779 258.407 252.016 250.776 249.679 226.319C249.326 222.629 249.29 218.744 249.669 215.054Z" fill="#FB5607"/>
<path d="M175.905 94.3066C175.905 94.3066 136.042 133.047 117.12 145.229C107.269 151.569 105.107 153.886 92.9857 157.197C81.9257 160.215 76.3701 157.033 76.3701 157.033C76.3701 157.033 81.7976 156.833 86.7023 155.157C90.6127 153.824 94.3079 152.897 99.351 149.606C114.27 139.863 119.001 135.015 119.001 135.015C119.001 135.015 152.365 95.2649 156.265 92.605C160.165 89.94 175.905 94.3117 175.905 94.3117V94.3066Z" fill="#FB5607"/>
</svg>
