<svg width="323" height="322" viewBox="0 0 323 322" fill="none" xmlns="http://www.w3.org/2000/svg">
<path d="M319 161C319 247.697 248.497 318 161.5 318C74.5034 318 4 247.697 4 161C4 74.303 74.5034 4 161.5 4C248.497 4 319 74.303 319 161Z" fill="white" stroke="black" stroke-width="8"/>
<path d="M243.936 182.091C243.936 221.61 200.394 254.185 160.869 254.185C121.344 254.185 78.5703 220.129 78.5703 180.604C78.5703 141.08 121.175 91.4175 160.695 91.4175C200.214 91.4175 243.936 142.571 243.936 182.091Z" fill="#9FEDFF"/>
<path d="M261.182 187.549C258.681 198.076 249.195 203.575 243.654 202.986C236.93 202.278 235.849 189.353 237.181 182.726C238.514 176.099 236.94 166.967 249.179 166.977C261.418 166.987 262.74 180.973 261.177 187.549H261.182Z" fill="#9FEDFF"/>
<path d="M62.2008 187.549C64.7019 198.076 74.1884 203.575 79.7286 202.986C86.4527 202.278 87.5341 189.353 86.2016 182.726C84.8691 176.099 86.4425 166.967 74.2038 166.977C62.0215 166.982 60.6428 180.973 62.2059 187.549H62.2008Z" fill="#9FEDFF"/>
<path d="M138.631 191.3C142.144 191.3 144.992 185.993 144.992 179.446C144.992 172.899 142.144 167.592 138.631 167.592C135.119 167.592 132.271 172.899 132.271 179.446C132.271 185.993 135.119 191.3 138.631 191.3Z" fill="black"/>
<path d="M180.898 191.3C184.411 191.3 187.259 185.993 187.259 179.446C187.259 172.899 184.411 167.592 180.898 167.592C177.386 167.592 174.538 172.899 174.538 179.446C174.538 185.993 177.386 191.3 180.898 191.3Z" fill="black"/>
<path d="M210.713 202.298C210.837 198.788 205.634 195.754 199.091 195.522C192.548 195.29 187.143 197.948 187.019 201.458C186.894 204.969 192.097 208.002 198.64 208.234C205.183 208.466 210.588 205.808 210.713 202.298Z" fill="#3A86FF"/>
<path d="M129.329 202.303C129.453 198.793 124.25 195.759 117.707 195.527C111.164 195.295 105.759 197.953 105.635 201.464C105.511 204.974 110.714 208.008 117.257 208.24C123.799 208.472 129.204 205.814 129.329 202.303Z" fill="#3A86FF"/>
<path d="M130.232 160.99C124.163 163.455 119.541 166.095 118.997 164.752C118.454 163.409 122.98 157.664 129.048 155.204C135.116 152.744 140.425 154.497 140.969 155.834C141.512 157.172 136.305 158.53 130.237 160.99H130.232Z" fill="#3A86FF"/>
<path d="M188.032 159.069C194.1 161.534 198.723 164.173 199.266 162.83C199.809 161.488 195.284 155.743 189.216 153.282C183.148 150.817 177.838 152.575 177.295 153.913C176.752 155.25 181.959 156.609 188.027 159.069H188.032Z" fill="#3A86FF"/>
<path d="M78.4423 173.096C78.4423 173.096 89.2204 141.131 98.9171 135.667C151.542 106.003 163.585 120.431 180.893 118.893C216.333 115.741 234.814 148.644 243.542 176.94C243.542 176.94 250.871 158.418 253.48 140.885C260.219 95.5585 237.079 93.3291 209.055 79.7476C190.871 70.9376 183.158 82.8073 183.158 82.8073C183.158 82.8073 177.264 61.1333 148.989 62.1481C125.306 62.9988 92.6491 91.7096 73.0405 117.391C63.6667 129.666 78.4423 173.096 78.4423 173.096Z" fill="#3A86FF"/>
<path d="M174.03 118.509C172.067 118.847 180.898 118.893 199.625 127.18C207.922 130.855 214.662 136.426 217.855 142.807C226.204 159.473 226.25 165.111 226.25 165.111C226.25 165.111 238.75 145.113 225.025 128.579C211.3 112.046 174.02 118.504 174.02 118.504L174.03 118.509Z" fill="#3A86FF"/>
<path d="M160.726 111.011C162.689 111.349 160.254 112.681 135.131 119.682C126.388 122.117 120.094 128.928 116.901 135.309C108.552 151.976 108.506 157.613 108.506 157.613C108.506 157.613 96.006 137.615 109.731 121.081C123.456 104.553 160.736 111.006 160.736 111.006L160.726 111.011Z" fill="#3A86FF"/>
<path d="M137.934 112.84C139.907 112.584 137.98 114.578 116.045 128.692C108.413 133.602 104.416 141.971 103.247 149.008C100.198 167.397 101.817 172.799 101.817 172.799C101.817 172.799 83.9667 157.388 92.1874 137.538C100.413 117.694 137.934 112.835 137.934 112.835V112.84Z" fill="#3A86FF"/>
<path d="M168.654 86.4976C170.627 86.2414 168.7 88.235 146.765 102.35C139.134 107.259 135.136 115.629 133.968 122.665C130.918 141.054 132.538 146.456 132.538 146.456C132.538 146.456 114.687 131.045 122.908 111.195C131.133 91.3511 168.654 86.4925 168.654 86.4925V86.4976Z" fill="#3A86FF"/>
</svg>
