<svg width="322" height="322" viewBox="0 0 322 322" fill="none" xmlns="http://www.w3.org/2000/svg">
<circle cx="161" cy="161" r="157" fill="white" stroke="black" stroke-width="8"/>
<path d="M74.5852 118.608C74.5852 118.608 58.5129 105.621 71.7561 92.7978C84.9994 79.9748 96.0696 92.7978 96.0696 92.7978C96.0696 92.7978 89.2993 78.1247 101.61 75.6646C113.92 73.2046 115.145 83.0499 115.145 83.0499C115.145 83.0499 108.882 63.8359 119.343 63.8359C135.225 63.8359 130.367 79.0677 130.367 79.0677C130.367 79.0677 130.91 61.8627 139.023 60.0177C147.136 58.1727 150.872 75.393 150.872 75.393C150.872 75.393 138.393 50.321 152.738 50.3262C171.921 50.3262 161.645 74.7575 161.645 74.7575C161.645 74.7575 160.62 53.3346 172.044 55.0669C183.468 56.7992 174.929 77.3046 174.929 77.3046C174.929 77.3046 176.185 61.6116 185.59 64.21C190.889 65.6758 188.68 79.0728 188.68 79.0728C188.68 79.0728 186.717 69.5504 192.129 69.5504C197.541 69.5504 199.704 81.1228 199.704 81.1228C199.704 81.1228 188.68 61.3195 203.394 58.7159C218.108 56.1124 213.286 76.9818 213.286 76.9818C213.286 76.9818 216.786 62.3343 226.98 68.3819C237.174 74.4295 237.486 81.7583 232.392 85.8943C232.392 85.8943 240.746 82.6552 244.328 87.97C249.669 95.8831 242.263 105.001 242.263 105.001C242.263 105.001 257.556 98.6096 258.212 113.329C258.745 125.27 244.333 122.329 244.333 122.329C244.333 122.329 255.68 120.345 255.388 128.361C255.055 137.519 243.913 137.719 244.333 136.843C244.333 136.843 254.153 136.32 254.153 143.967C254.153 151.613 247.89 151.823 247.89 151.823C247.89 151.823 260.657 148.748 260.641 160.92C260.631 171.078 249.581 168.352 249.581 168.352L241.632 196.709C241.632 196.709 258.192 207.856 252.779 213.586C247.367 219.316 242.734 220.592 237.086 216.451C231.439 212.31 256.603 224.41 249.597 236.51C242.591 248.611 228.897 239.375 228.897 239.375L218.708 229.822C218.708 229.822 225.714 239.375 219.984 245.423C214.254 251.471 202.789 237.781 202.789 237.781L115.058 233.159C115.058 233.159 93.794 251.742 87.1058 246.966C80.4175 242.189 82.7443 224.087 88.7919 214.852C88.7919 214.852 80.1408 228.228 74.5954 218.034C69.0501 207.841 80.5149 198.928 80.5149 198.928L74.6108 168.342C74.6108 168.342 60.7731 166.973 59.8198 156.682C58.8665 146.391 71.9201 144.797 71.9201 144.797C71.9201 144.797 60.5424 141.932 62.0902 134.291C63.638 126.649 73.1911 125.055 73.1911 125.055C73.1911 125.055 66.8207 122.826 67.4613 119.961C68.1019 117.096 74.6005 118.597 74.6005 118.597L74.5852 118.608Z" fill="#00CD00"/>
<path d="M153.296 79.0676C153.296 79.0676 72.9299 85.1511 71.8895 131.836C70.8491 178.52 76.2714 183.742 76.2714 183.742L246.896 177.515C246.896 177.515 267.253 81.4713 153.296 79.0728V79.0676Z" fill="#00CD00"/>
<path d="M244.333 183.471C244.333 222.991 200.79 255.566 161.266 255.566C121.741 255.566 78.9668 221.51 78.9668 181.985C78.9668 142.46 121.572 92.7981 161.091 92.7981C200.611 92.7981 244.333 143.952 244.333 183.471Z" fill="#C1EF00"/>
<path d="M261.579 188.93C259.078 199.456 249.591 204.956 244.051 204.366C237.327 203.659 236.246 190.734 237.578 184.107C238.911 177.48 237.337 168.347 249.576 168.357C261.758 168.363 263.137 182.354 261.574 188.93H261.579Z" fill="#C1EF00"/>
<path d="M62.5973 188.93C65.0983 199.456 74.5849 204.956 80.1251 204.366C86.8492 203.659 87.9306 190.734 86.5981 184.107C85.2656 177.48 86.839 168.347 74.6003 168.357C62.4179 168.363 61.0393 182.354 62.6024 188.93H62.5973Z" fill="#C1EF00"/>
<path d="M139.028 192.681C142.541 192.681 145.388 187.373 145.388 180.826C145.388 174.279 142.541 168.972 139.028 168.972C135.516 168.972 132.668 174.279 132.668 180.826C132.668 187.373 135.516 192.681 139.028 192.681Z" fill="black"/>
<path d="M181.289 192.681C184.802 192.681 187.65 187.373 187.65 180.826C187.65 174.279 184.802 168.972 181.289 168.972C177.777 168.972 174.929 174.279 174.929 180.826C174.929 187.373 177.777 192.681 181.289 192.681Z" fill="black"/>
<path d="M211.092 203.684C211.216 200.174 206.013 197.14 199.47 196.908C192.927 196.676 187.523 199.334 187.398 202.844C187.274 206.355 192.477 209.389 199.02 209.621C205.563 209.853 210.968 207.195 211.092 203.684Z" fill="#00CD00"/>
<path d="M129.708 203.679C129.833 200.169 124.629 197.135 118.087 196.903C111.544 196.671 106.139 199.329 106.014 202.839C105.89 206.35 111.093 209.384 117.636 209.615C124.179 209.847 129.584 207.19 129.708 203.679Z" fill="#00CD00"/>
<path d="M130.628 162.371C124.56 164.836 119.937 167.475 119.394 166.133C118.851 164.79 123.376 159.045 129.444 156.585C135.512 154.125 140.822 155.877 141.365 157.215C141.908 158.553 136.701 159.911 130.633 162.371H130.628Z" fill="#00CD00"/>
<path d="M188.428 160.449C194.497 162.914 199.119 165.554 199.663 164.211C200.206 162.868 195.68 157.123 189.612 154.663C183.544 152.198 178.235 153.956 177.691 155.293C177.148 156.631 182.355 157.989 188.423 160.449H188.428Z" fill="#00CD00"/>
<path d="M101.999 122.334C101.999 122.334 82.5088 144.079 93.8403 149.041C99.6676 151.593 105.915 140.092 105.915 140.092C105.915 140.092 100.375 149.963 105.915 153.423C111.455 156.882 117.851 148.272 117.851 148.272C117.851 148.272 122.848 157.815 129.439 156.585C136.03 155.355 132.668 144.049 132.668 144.049C132.668 144.049 135.036 150.117 141.396 149.502C147.756 148.887 145.388 140.272 145.388 140.272C145.388 140.272 146.526 149.502 154.521 150.732C162.517 151.962 164.367 140.272 164.367 140.272C164.367 140.272 167.56 150.732 177.656 149.502C187.752 148.272 187.65 136.581 187.65 136.581C187.65 136.581 188.983 147.657 196.363 147.657C203.743 147.657 203.748 134.736 203.748 134.736C203.748 134.736 206.208 144.136 213.593 144.049C220.978 143.962 217.283 131.405 217.283 131.405C217.283 131.405 218.657 140.943 230.224 131.405C237.081 125.752 221.183 114.979 221.183 114.979L187.65 91.045L139.028 87.97L87.0957 122.329H101.999V122.334Z" fill="#00CD00"/>
<path d="M222.352 134.034C222.352 134.034 224.76 155.811 231.946 156.897C231.946 156.897 238.506 171.217 242.76 169.864C247.014 168.511 233.822 133.306 233.822 133.306L222.352 134.034Z" fill="#00CD00"/>
<path d="M101.128 133.491C101.128 133.491 98.7193 155.267 91.5339 156.354C91.5339 156.354 84.9737 170.673 80.7199 169.32C76.4661 167.967 89.6581 132.763 89.6581 132.763L101.128 133.491Z" fill="#00CD00"/>
</svg>
